<?xml version="1.0" encoding="UTF-8"?>
<svg id="b" data-name="marvel method" xmlns="http://www.w3.org/2000/svg" viewBox="0 0 36 36">
  <defs>
    <style>
      path {
      	fill: #38568b;
      }
      .c {
        fill: #0072bc;
      }

      .d {
        fill: #ed1c24;
      }

      .e {
        fill: #fff;
      }
    </style>
  </defs>
  <path class="e" d="M1.47,25.93s1.83-1.67,2.86-3.39,1.45-3.18,1.45-3.18c0,0-4.26-2.86-4.47-5.44S.61.83,13.16.77s11.1,11.85,11.1,11.85c0,0,7.44-1.78,9.81,4.69s-2.42,11.75-2.42,11.75c0,0,.54,1.99,1.13,3.07s1.78,3.02,1.78,3.02c0,0-3.23-.92-4.36-1.72s-2.69-2.21-2.69-2.21c0,0-6.2,2.86-10.24.05s-4.15-8.89-4.15-8.89l-3.66-.86s-.75,1.29-2.86,2.53-5.12,1.89-5.12,1.89Z"/>
  <g>
    <path d="M13.26,21.12c-.23.02-.46.02-.7.02h.19c-.45,0-.9-.03-1.34-.1-.22-.03-.43-.07-.65-.12-.05-.01-.11-.02-.16-.04s-.11-.02-.16-.02c-.11-.02-.22-.03-.32-.05-.24-.04-.47-.09-.71-.16l.14.04s-.05-.01-.07-.02c-.06-.03-.13-.04-.2-.04-.07,0-.14,0-.2.03l-.12.07c-.06.04-.11.1-.14.16-.03.04-.05.08-.05.13-.02.07-.03.13-.02.2l.03.13c.04.09.09.16.17.22.26.17.54.34.82.48.12.06.25.12.37.17.03.01.06.03.08.04.03.01.07.02.11.03.12.03.25.07.37.1.53.13,1.08.2,1.63.23.37.02.75.02,1.12,0,.1,0,.19-.04.27-.1.09-.04.17-.11.23-.19.07-.08.11-.17.13-.27.03-.09.04-.19.03-.29l-.05-.19c-.05-.13-.13-.23-.24-.32l-.18-.1c-.12-.05-.25-.07-.38-.05h0Z"/>
    <path d="M5.85,18.75c-.11-.08-.22-.17-.32-.25l.1.11c-.07-.08-.12-.13-.2-.18-.04-.03-.08-.05-.12-.08-.08-.05-.15-.1-.23-.15-.16-.11-.32-.23-.47-.35-.31-.25-.6-.51-.88-.79l.11.11c-.57-.59-1.08-1.25-1.48-1.96l.07.13c-.24-.43-.46-.9-.59-1.38l.04.15c-.14-.57-.17-1.16-.17-1.74v.15c0-1.03.13-2.07.34-3.08.06-.28.12-.55.2-.83l-.04.15c.17-.63.38-1.26.71-1.82l-.08.13c.4-.68.87-1.32,1.41-1.91.15-.16.3-.32.46-.48l-.11.11c.62-.6,1.3-1.14,2.03-1.6.21-.13.42-.26.63-.38l-.13.07c.79-.44,1.63-.8,2.5-1.08.24-.08.49-.15.74-.21l-.14.04c.89-.23,1.81-.37,2.72-.42.26-.01.51-.02.77-.02h-.15c.82,0,1.64.08,2.44.25.22.05.44.1.66.16l-.15-.04c.63.17,1.25.4,1.83.68.19.1.38.2.57.31l-.14-.08c.75.44,1.43.98,2.04,1.61l-.11-.12c.67.69,1.24,1.46,1.7,2.29l-.08-.14c.37.67.68,1.38.91,2.11.07.21.13.42.18.63l-.04-.16c.22.85.32,1.74.32,2.62v-.18c0,.45-.04.89-.1,1.33-.02.18.03.38.14.52s.3.27.48.28.38-.02.52-.14.26-.29.28-.48c.07-.54.07-1.09.05-1.63-.02-.49-.08-.98-.17-1.47-.06-.32-.13-.64-.22-.95l.04.16c-.19-.77-.45-1.52-.78-2.24s-.73-1.38-1.19-2.01-.98-1.22-1.56-1.75-1.19-.96-1.85-1.35c-1.14-.66-2.43-1.05-3.72-1.25s-2.67-.2-3.98-.01-2.69.57-3.94,1.13-2.45,1.32-3.48,2.25c-.53.49-1.03,1.01-1.48,1.58-.21.27-.41.55-.59.84s-.37.59-.51.9c-.27.57-.45,1.19-.6,1.8-.17.67-.29,1.36-.38,2.05s-.13,1.44-.1,2.16c.02.59.08,1.18.28,1.74.13.38.3.74.49,1.09.22.4.46.78.73,1.15.52.7,1.15,1.33,1.84,1.87.16.12.32.24.49.35.08.06.17.11.25.16.04.03.08.05.13.08.02.01.04.03.06.04.11.07.17.09.29.12l-.14-.04c.13.05.26.1.39.14.23.08.48.01.61-.21.12-.2.08-.49-.12-.63h0Z"/>
    <path d="M24.51,13.24c.59-.09,1.18-.14,1.77-.14h-.17c.78,0,1.55.1,2.3.3l-.17-.05c.73.2,1.44.49,2.1.87l-.16-.1c.66.39,1.27.87,1.81,1.41l-.14-.14c.58.59,1.07,1.27,1.47,1.99l-.1-.17c.3.54.56,1.11.72,1.71l-.05-.19c.17.66.23,1.35.22,2.03v-.2c0,.89-.11,1.79-.3,2.66-.05.25-.11.5-.18.75l.05-.2c-.26.95-.61,1.87-1.07,2.74-.12.22-.22.44-.34.65l.1-.17c-.04.07-.09.14-.12.21l.1-.17c-.24.36-.47.72-.78,1.03l.12-.12c-.14.13-.29.25-.42.38l.12-.11c-.08.05-.14.13-.2.2s-.11.12-.15.21l.29-.29c-.1.05-.18.11-.25.19-.01.02-.03.03-.04.05-.05.06-.09.11-.13.19l.23-.23h-.01c-.21.08-.33.35-.24.55s.33.32.55.24h.01c-.11,0-.21,0-.32,0,.12.04.21.04.33.04.09,0,.17,0,.25-.04l-.26.03c.08.02.17,0,.26-.02.02,0,.04,0,.06-.01.13-.03.22-.06.33-.13l-.14.08c.15-.06.3-.17.44-.27.15-.11.29-.23.42-.36l-.13.12c.07-.04.13-.11.18-.16.1-.1.21-.19.3-.3l-.13.13c.19-.18.35-.38.52-.59.17-.22.33-.45.47-.69l-.11.18c.38-.62.68-1.28.93-1.96.26-.72.46-1.46.61-2.21.13-.69.22-1.38.24-2.08s-.01-1.43-.15-2.14c-.07-.35-.16-.7-.28-1.04-.11-.31-.25-.6-.4-.89-.35-.68-.76-1.32-1.26-1.9s-1.05-1.1-1.67-1.54-1.31-.83-2.03-1.11-1.53-.49-2.32-.59c-.86-.11-1.74-.1-2.59,0-.21.03-.42.06-.63.1-.17.03-.32.1-.43.24-.1.12-.16.32-.13.47s.1.33.24.43.3.16.47.13h0Z"/>
    <path d="M5.26,19.1c-.01.07-.03.14-.05.21l.03-.11c-.07.27-.17.54-.26.8s-.19.53-.31.78c-.07.14-.14.28-.22.42l.07-.12c-.09.15-.18.29-.27.43s-.2.28-.29.42c-.2.3-.41.58-.63.86-.49.61-1.01,1.2-1.56,1.75-.08.09-.17.17-.25.26s-.16.18-.24.26-.16.18-.25.27c-.04.05-.08.1-.12.15-.05.06-.1.13-.13.2-.02.07-.04.14-.05.21l.04-.13s-.01.04-.02.06c-.01.04-.03.09-.04.14-.01.09,0,.17.03.25.04.12.13.21.24.26.09.04.2.06.29.05.04,0,.07-.02.11-.02.13-.01.25-.08.36-.15.04-.02.07-.05.1-.08.06-.06.13-.11.19-.17.12-.11.25-.22.37-.33.16-.15.31-.3.46-.46.42-.43.82-.88,1.19-1.35.18-.22.34-.45.49-.68.18-.26.35-.54.5-.82.12-.23.23-.47.32-.71.05-.12.09-.24.14-.36s.1-.24.14-.36c.1-.28.19-.57.26-.86.07-.25.1-.52.13-.78,0-.07.01-.14.02-.2.01-.1-.02-.22-.08-.3s-.17-.15-.28-.16-.22,0-.3.08c-.09.07-.14.16-.16.28h0Z"/>
    <path d="M1.66,26.41c.05,0,.11,0,.16,0s.12-.03.18-.05c.07-.02.14-.04.21-.06.14-.04.28-.09.42-.13.28-.09.57-.18.86-.27s.57-.21.85-.33.56-.26.84-.38.56-.26.83-.4c.13-.07.27-.14.4-.21.17-.1.35-.19.52-.3.51-.33,1-.69,1.46-1.09.48-.41.95-.86,1.36-1.35.05-.05.09-.11.13-.16.1-.13.15-.31.13-.47s-.11-.33-.24-.43-.3-.16-.47-.13-.32.11-.43.24c-.3.38-.63.74-.97,1.07l.12-.12c-.4.39-.82.75-1.27,1.09-.23.17-.46.33-.69.5s-.46.34-.69.49c-.26.18-.53.36-.81.52l.11-.06c-.22.12-.44.24-.66.35-.11.06-.22.11-.33.17-.14.07-.29.13-.42.21l.1-.05c-.29.16-.58.3-.88.43-.15.06-.29.12-.44.18-.07.03-.15.06-.22.08-.04.01-.07.03-.11.04-.06.02-.1.06-.15.1-.09.07-.13.19-.11.3.03.1.12.21.24.22h0Z"/>
    <path d="M12.6,21.69c-.19.98-.2,2-.05,2.99.17,1.13.54,2.23,1.04,3.26.38.79.84,1.55,1.44,2.2.52.56,1.1,1.05,1.75,1.44s1.31.69,2.02.91,1.41.36,2.13.44,1.42.08,2.12.03c.63-.04,1.26-.13,1.87-.27s1.16-.3,1.7-.56c.45-.21.88-.45,1.24-.79.03-.03.07-.06.1-.09-.15.15,0,0,.03-.03.01-.02.03-.03.04-.05.06-.08.13-.17.14-.28l-.14.24s0,0,.01-.01c.07-.07.13-.14.14-.24.01-.09-.01-.2-.07-.27-.11-.14-.36-.21-.51-.08,0,0,0,0-.01.01l.17-.07c-.09,0-.18.07-.26.11-.02.01-.21.12-.02.02-.04.02-.07.04-.11.06-.02,0-.03.02-.05.03-.03.02-.06.04-.1.06-.01,0-.03.02-.05.03-.09.05.11-.06.04-.02-.03.02-.07.04-.1.05-.11.05-.21.1-.31.16l.11-.06c-.23.11-.46.22-.7.31-.26.1-.54.19-.81.27-.16.05-.33.1-.5.14l.13-.03c-.76.19-1.53.31-2.31.35-.23.01-.46.02-.69.02h.13c-.73,0-1.46-.07-2.18-.22-.21-.04-.41-.09-.61-.14l.13.03c-.58-.16-1.15-.37-1.69-.64-.15-.08-.3-.16-.45-.25l.12.07c-.58-.34-1.12-.76-1.59-1.24l.1.1c-.47-.48-.88-1.03-1.21-1.62l.06.12c-.49-.88-.88-1.83-1.13-2.8l.03.13c-.19-.75-.3-1.52-.29-2.29v.13c0-.51.05-1.02.15-1.51.05-.26-.17-.55-.43-.57-.29-.03-.51.16-.57.43h0Z"/>
    <path d="M27.18,31.46c.28.47.62.91,1.01,1.3.35.35.74.66,1.15.95.47.33.97.62,1.48.87s1.03.46,1.56.66c.31.12.63.23.96.31.14.03.27.06.41.09.07.01.13.03.2.04.11.02.22,0,.33,0,.03,0,.06,0,.09,0,.1-.01.19-.06.27-.12l-.1.05s.04-.02.06-.03c.11-.05.19-.13.22-.25s0-.22-.06-.32c-.01-.02-.02-.04-.03-.06l.05.1c-.04-.1-.09-.18-.17-.25-.03-.02-.06-.04-.09-.06s-.06-.04-.08-.06c-.06-.05-.14-.09-.22-.12-.14-.06-.27-.12-.41-.18-.07-.03-.14-.06-.2-.09s-.14-.06-.21-.08c-.14-.05-.29-.1-.43-.15-.56-.21-1.12-.43-1.65-.7-.28-.14-.57-.29-.84-.45l.15.09c-.6-.35-1.17-.76-1.68-1.25-.14-.14-.29-.26-.43-.41l.11.12c-.2-.21-.39-.42-.56-.65-.09-.12-.23-.2-.37-.22-.13-.02-.3.02-.41.1-.11.09-.21.22-.22.37v.14c.01.1.05.19.1.26h0Z"/>
    <path d="M30.99,29c.09.5.21,1,.35,1.48.06.22.14.44.21.65s.16.43.25.64c.4.89.88,1.74,1.39,2.57.13.22.28.44.42.65s.28.44.43.64c.05.08.12.14.21.18.07.05.16.08.25.09.09.02.18,0,.26-.02.09-.01.17-.05.24-.11.14-.11.25-.27.27-.46v-.18c-.01-.12-.06-.23-.13-.33-.09-.16-.2-.32-.3-.47s-.2-.32-.3-.48c-.19-.31-.39-.63-.57-.95-.11-.18-.21-.36-.31-.55l.09.16c-.13-.24-.26-.48-.38-.72s-.24-.49-.36-.73c-.24-.49-.46-.98-.64-1.49-.1-.28-.2-.57-.28-.87-.03-.07-.07-.14-.13-.19-.05-.06-.11-.11-.19-.13l-.14-.04c-.08-.01-.15,0-.22.02-.05,0-.1.02-.14.05-.07.03-.13.08-.18.14-.09.12-.14.27-.12.42h0Z"/>
    <path class="c" d="M20.16,19.78v.02c.03-.05.06-.11.09-.16,0,0-.01.02-.02.03-.08.14-.1.15-.13.27-.04.14-.04.12-.03.3,0,.01,0,.03,0,.04,0,.06,0,.13,0,.19,0,.12.03.24.04.37.04.24.07.47.12.71.09.48.19.95.3,1.43.23,1.02.47,2.04.75,3.05.13.47.27.94.41,1.4.07.23.14.47.22.7.04.12.08.23.13.35.08.17.17.3.31.42.11.1.32.19.47.19.08,0,.18.01.23,0,.15-.02.28-.07.4-.16.07-.05.15-.13.2-.19.1-.13.16-.29.19-.45,0,.02.01-.19,0-.27,0-.03-.01-.06-.02-.09-.03-.13-.06-.26-.11-.39-.04-.12-.08-.23-.12-.35-.08-.23-.15-.46-.22-.7-.15-.47-.29-.93-.42-1.4-.27-.93-.55-1.87-.79-2.81-.03-.12-.06-.23-.09-.35l.05.22c-.11-.44-.21-.88-.33-1.31-.05-.18-.1-.36-.15-.55-.02-.09-.05-.18-.09-.26-.02-.04-.03-.09-.05-.13-.06-.16-.16-.29-.3-.39l.13.13h-.01c-.08-.12-.17-.19-.29-.24-.11-.05-.23-.06-.35-.05-.23.03-.48.19-.55.42h0Z"/>
    <path class="c" d="M24.4,18.59c-.02.11-.03.19-.02.31,0,.05,0,.1,0,.15v.31c.01-.07.01-.13.01-.2,0,.08,0,.17,0,.25v.06s.02.09.03.14l.04.26c.02.18.06.35.09.53l.21,1.12c.15.82.32,1.64.49,2.45.05.25.11.49.17.73.03.12.06.25.09.37.02.11.04.22.09.32l.04.09c.08.17.16.33.32.44l.11.06c.1.07.21.11.33.12.11.01.16.01.24,0h-.22s0,0,0,0l-.21-.06c.08.04.16.07.25.07,0,0,.02,0,.02,0h.01c.09.02.17,0,.25-.02.05-.01.06-.01.1-.03.18-.1.2-.1.34-.25,0-.01.02-.02.03-.03l-.16.16h0c-.07.03-.13.07-.2.11.23-.08.42-.28.51-.5.08-.19.07-.28.07-.48,0-.02,0-.03,0-.05,0-.07,0-.13-.01-.2l-.08-.37c-.05-.24-.1-.48-.17-.73l-.35-1.4c-.13-.51-.26-1.01-.39-1.51l-.33-1.21c-.03-.11-.07-.21-.1-.32s-.06-.21-.1-.31-.08-.19-.12-.29c-.02-.05-.04-.1-.06-.14-.04-.1-.1-.18-.17-.27l-.12-.12-.15-.09-.16-.04c-.08-.01-.16,0-.24.02-.06,0-.11.03-.15.06-.05.02-.1.05-.13.1-.05.04-.08.08-.1.13-.05.07-.08.15-.09.23h0Z"/>
    <path class="c" d="M19.09,26.12c.32-.23.61-.49.9-.75s.58-.51.87-.76c.58-.49,1.16-.99,1.75-1.47s1.17-.93,1.77-1.38c.3-.22.6-.45.9-.66s.61-.43.91-.65.61-.43.91-.65c.15-.11.3-.23.44-.34s.28-.24.42-.37c.11-.1.21-.19.3-.31.15-.21.18-.47.05-.7-.02-.05-.05-.1-.1-.13-.04-.05-.08-.08-.13-.1-.11-.07-.26-.11-.4-.09s-.26.06-.39.12c-.08.04-.16.07-.24.11-.22.1-.42.22-.62.34-.3.18-.6.37-.89.57-.58.39-1.14.81-1.7,1.23s-1.12.87-1.67,1.32-1.1.91-1.63,1.38-1.08.99-1.6,1.5c-.11.11-.22.21-.32.32l.14-.14c-.22.21-.42.43-.6.66-.1.13-.16.33-.14.5l.04.17c.03.09.08.16.15.22.1.1.24.19.39.2.18.02.35-.02.49-.13h0Z"/>
    <path class="c" d="M20.45,29.53s.02-.04.03-.06l-.1.16c.04-.07.09-.11.13-.21,0-.02.02-.04.02-.07.02-.04.04-.09.06-.13l-.1.17c.1-.17.24-.32.38-.47.16-.16.32-.32.48-.48l-.15.15c.52-.51,1.05-1.02,1.58-1.52s1.05-1,1.57-1.5c1.06-.99,2.13-1.96,3.21-2.93.3-.28.61-.55.91-.83.19-.19.39-.37.57-.57.07-.08.13-.15.2-.23.07-.08.14-.15.18-.26.03-.08.06-.18.07-.28l-.04.16s.02-.07.04-.11c.04-.09.05-.19.04-.29-.01-.1-.05-.19-.11-.27-.12-.16-.32-.25-.52-.22-.04,0-.07,0-.11.02h.16c-.09,0-.18,0-.27,0-.14.02-.25.08-.37.15-.02.02-.05.03-.07.05-.09.06-.18.12-.27.17-.18.12-.35.25-.52.39-.33.26-.65.54-.97.82-.64.56-1.27,1.14-1.89,1.72s-1.24,1.17-1.85,1.77c-.66.64-1.31,1.29-1.94,1.95-.29.3-.59.61-.88.92-.13.14-.27.27-.38.43-.09.12-.16.25-.24.38-.04.08-.08.15-.11.24,0,.02-.01.04-.02.06-.02.06-.04.13-.05.2,0,.05,0,.01,0,.11,0,.07,0,.14.01.21l.04.17c.03.09.08.16.15.22.1.11.24.19.4.21.12.01.23,0,.35-.04.16-.06.32-.22.38-.37h0Z"/>
    <path class="d" d="M14.64,4.8c-.04.05-.07.1-.11.16-.09.12-.15.25-.23.38-.07.12-.14.23-.2.35-.13.23-.26.46-.4.68-.26.46-.52.92-.77,1.38s-.51.93-.76,1.4-.5.93-.73,1.4c-.13.27-.26.54-.37.81-.06.13-.12.27-.16.41s-.08.29-.12.44c-.04.1-.06.2-.05.3,0,.1,0,.2.05.3l.1.18c.06.09.14.16.24.21.06.04.12.07.19.08.1.04.2.04.3.03.21-.03.4-.13.53-.3.08-.1.16-.21.25-.31.04-.05.08-.1.12-.15.04-.06.07-.12.11-.18.18-.29.35-.59.52-.88.13-.23.26-.46.38-.69s.24-.47.37-.7c.5-.94,1.01-1.86,1.5-2.8.14-.26.28-.52.42-.79.07-.13.14-.26.21-.38.04-.07.08-.13.11-.2s.06-.14.09-.21c.05-.11.07-.23.06-.35.01-.12,0-.23-.06-.35l-.12-.21c-.07-.11-.17-.19-.28-.24-.07-.05-.14-.08-.22-.09-.11-.04-.23-.05-.35-.03l-.23.06c-.15.06-.28.16-.38.29h0Z"/>
    <path class="d" d="M10.17,14.74h-.03s-.01,0-.02,0c0,0-.16.04-.17.04,0,0,0,0,0,0h-.01s-.01.01-.02.01h0s0,0,0,0h0c-.06.03-.11.06-.17.09-.01.01-.03.02-.04.03l-.02.02s0,0,0,0c0,0-.15.14-.15.15,0,0,0,0-.01.01l-.04.05-.07.09-.09.11,1-.26c-.07-.03-.14-.05-.22-.06h-.23c-.15.02-.29.07-.42.17l-.17.17c-.1.13-.16.27-.18.42v.23c.02.15.07.29.17.42.07.1.16.18.27.23.1.07.2.11.32.12.12.02.23.01.33-.03.11-.02.22-.07.31-.14.1-.07.18-.16.23-.27.07-.1.11-.2.12-.32.02-.12.01-.23-.03-.33-.02-.11-.07-.22-.14-.31-.04-.07-.1-.13-.17-.17l.32.79.05-.23v-.06s.02-.02.02-.03c0-.01,0-.02,0-.03v-.06s0,0,0-.01v-.09s0-.07,0-.1c0,0,0,0,0,0v-.03s-.01-.02-.01-.03c0,0,0,0,0,0l-.04-.17h0s0,0,0-.01l-.02-.04-.08-.14c-.05-.07-.11-.12-.19-.16-.04-.03-.09-.05-.15-.06-.07-.03-.15-.03-.23-.02h0Z"/>
    <path class="d" d="M7.77,5.45s-.08.09-.11.16c-.01.04-.03.07-.04.11-.04.11-.08.21-.11.32l.03-.11-.12.42c-.05.18-.09.36-.12.55l-.09.44c-.03.15-.05.29-.07.44l-.14.88c-.05.29-.08.59-.11.89,0,.08,0,.17,0,.25,0,.13,0,.26,0,.39,0,.16,0,.33,0,.49,0,.07.03.13.07.19.03.06.07.12.13.16l.12.07c.06.03.13.04.2.04.05,0,.09,0,.13-.02.07-.01.13-.04.18-.08l.1-.1c.06-.07.09-.16.11-.25l.12-.48c.02-.08.03-.16.05-.23s.04-.16.05-.23c.03-.16.04-.33.06-.49s.04-.32.05-.48l.08-.97c.03-.32.04-.65.05-.97,0-.13.01-.26,0-.39v-.26s-.02-.09-.02-.13,0-.09-.01-.13l-.02-.13v-.06s0-.02-.01-.03c0-.07-.03-.11-.07-.18l.04.08s-.02-.05-.04-.07c-.02-.05-.05-.09-.09-.12-.04-.03-.09-.05-.14-.06-.1-.01-.2.03-.26.11h0Z"/>
    <path class="d" d="M7.3,12.22h0c.15.09.3.18.45.27l-.02-.04c-.07-.09-.16-.17-.27-.21-.11-.04-.21-.06-.33-.04-.11.01-.21.05-.31.12-.09.07-.17.16-.21.27l-.03.05.54-.41c-.06,0-.12.02-.18.05l-.16.09c-.08.06-.14.13-.19.22-.06.08-.09.17-.1.26-.02.09,0,.18.02.27.02.09.05.18.11.25.06.08.13.14.22.19.08.06.17.09.26.1h.18c.13-.01.24-.06.34-.14l.14-.13c.08-.1.13-.22.15-.35v-.18c0-.1-.04-.18-.09-.26-.04-.09-.1-.16-.18-.22-.1-.08-.22-.13-.35-.15h0Z"/>
    <path class="d" d="M21.4,9.68h-.02s.06.02.09.04c-.07-.06-.17-.08-.27-.1-.02,0-.11,0-.13,0-.03,0-.1.02-.13.03-.01,0-.02,0-.04.01-.02,0-.05.02-.07.03-.14.05-.26.14-.39.21-.18.1-.34.23-.51.35-.09.06-.17.12-.26.18s-.17.12-.25.19c-.16.13-.33.25-.49.38-.33.26-.64.53-.96.8s-.64.53-.94.81c-.1.09-.2.18-.29.27s-.19.19-.28.28c-.04.04-.08.07-.11.11s-.06.08-.1.13c-.06.08-.12.16-.18.25-.03.04-.06.08-.09.13l-.08.13c-.03.07-.04.14-.04.21,0,.05,0,.1.02.14.01.07.04.14.09.2l.11.11.13.08c.07.03.14.04.21.04.07,0,.14,0,.21-.04.2-.11.4-.22.6-.34.04-.02.08-.04.11-.07.04-.03.07-.06.11-.09.07-.06.14-.11.22-.17.14-.11.28-.24.42-.36s.27-.24.41-.37c.27-.24.54-.48.82-.72.14-.12.28-.24.41-.36s.27-.25.41-.37c.08-.07.15-.14.23-.2.12-.1.23-.22.34-.33.15-.14.29-.29.44-.43l-.11.11c.08-.08.17-.16.25-.25.05-.05.1-.1.14-.16.02-.03.04-.06.05-.08,0-.01.02-.03.03-.04,0,0,0-.01.01-.02.03-.04.05-.08.07-.12l.03-.12c0-.06,0-.12,0-.17,0-.04-.01-.08-.03-.12,0-.02-.02-.03-.03-.06-.01-.03-.03-.05-.05-.07-.03-.03-.06-.06-.1-.07h0Z"/>
    <path class="d" d="M14.42,14.8c-.06,0-.12,0-.18,0,0,0-.01,0-.02,0-.06.01-.12.03-.18.05,0,0-.01,0-.02,0,0,0,0,0,0,0l-.15.09s0,0,0,0c0,0,0,0-.01,0-.03.02-.06.05-.08.07-.02.02-.05.05-.08.08,0,0,0,0,0,.01-.1.15-.1.17-.15.35,0,.01,0,.02,0,.03,0,0,0,0,0,0v.18s0,0,0,0c0,0,0,.01,0,.02.01.06.03.13.05.19,0,0,0,.01,0,.02.03.09.08.16.15.22.06.07.14.13.23.16.08.04.17.05.26.05.09,0,.18,0,.26-.04l.16-.09c.1-.08.18-.17.23-.29l.05-.17c.02-.12,0-.24-.04-.35,0,0,0-.02,0-.02l.04.17s0-.02,0-.03v.18s0-.03,0-.04l-.05.17s0,0,0,0c0-.03.02-.06.02-.09.01-.03.02-.06.02-.09,0,0,0,0,0-.01,0,0,0-.01,0-.02l-.05.17s0-.03.02-.04l-.09.16s.01-.02.02-.03l-.13.12s.02-.01.03-.02l-.15.08h0s.1-.06.15-.08c.08-.05.13-.12.17-.2.04-.05.06-.1.07-.16.03-.08.04-.16.02-.25l-.04-.16-.08-.15c-.05-.08-.12-.13-.2-.17-.07-.05-.15-.08-.24-.09h0Z"/>
  </g>
</svg>