<?xml version="1.0" encoding="UTF-8"?>
<svg id="b" xmlns="http://www.w3.org/2000/svg" version="1.1" viewBox="0 0 36 36">
  <!-- Generator: Adobe Illustrator 29.3.1, SVG Export Plug-In . SVG Version: 2.1.0 Build 151)  -->
  <path d="M17.8,34.4c-3.5,0-3.6-1.3-3.7-3.5s-.3-8.1-3.3-9.4-6.7.5-6.7.5c0,0,2.7-3.9,2.1-4.4s-3.3,1.8-3.7,1.3,3-4.5,2.7-5-4.7.8-4.7.8c0,0,2.5-3.3,3.1-3.9s2.1-1.7,2.1-1.7c0,0-4.5-7.1-3.2-8,2.5-1.7,9,3.2,9,3.2,0,0,3.7-2.2,6.9-2.3s6,1.8,6,1.8c0,0,7.4-4.5,9.2-3,1.7,1.6-3.3,7.9-3.3,7.9,0,0,5.2,5.1,4.8,5.5s-4.5-.2-4.5-.2c0,0,4.2,4.5,3.2,4.5s-4.1-1.2-4.1-1.2c0,0,2.9,4,2,4.6s-3.9-3-6.7-.4-3.3,8.4-3.6,9.9c-.3,1.4-1.6,3-3.7,3h0Z" fill="#fff"/>
  <path d="M14,25.1c1.3,1,2.4,2.1,2.4,3.1s-.2,2.8.9,3.3,3.8,2.8,1.7,3.1-4.9-.4-5-3.2,0-6.4,0-6.4Z" fill="#ed1c24"/>
  <g>
    <path d="M12,4.6c.3-.2.5-.4.8-.6,0,0,.1,0,.2,0-.1,0,0,0,0,0,0,0,0,0,.1,0,.1,0,.3-.2.4-.2.3-.1.6-.2.9-.3,0,0,0,0,.1,0h0s0,0,0,0c0,0,.2,0,.2,0,.2,0,.3,0,.5,0,.7-.1,1.3-.2,2-.2.2,0,.3,0,.5,0s-.2,0,0,0h.3c.3,0,.7,0,1,0,.8,0,1.5.2,2.2.4h-.3c.3,0,.6,0,.9.2h-.3c.3,0,.6.1.9.2.1,0,.3.1.4.2.3.1.6.1,1,.1h-.3.5c-.2,0-.2,0,0,0h.2s0,0,0,0c-.1,0-.2,0,0,0h0c0,0,.1,0,.2,0,.2,0,.4,0,.5-.2.1-.1.2-.4,0-.5,0-.1-.1-.2-.2-.3h0c0-.2,0,0,0,0,0,0,0-.1,0-.1,0,0,0,0,0-.1-.2-.3.2.3,0,0,0,0,0-.1-.1-.2,0,0-.1-.2-.2-.2-.2-.2-.4-.4-.7-.5-.1,0-.2,0-.3-.1-.2,0-.4-.2-.6-.2-.5-.2-1-.3-1.6-.4-.5,0-.9-.1-1.4-.1-2,0-4.1.3-6,1.1-.9.5-1.9,1-2.7,1.7-.2.2-.3.5-.1.7.2.2.5.3.7.1h0Z" fill="#38568b"/>
    <path d="M2.5,1.2h.2s.2,0,0,0h.4c.2,0,.4,0,.6,0,.4,0,.9,0,1.3.2.2,0,.4,0,.6.1,0,0,0,0,.2,0,0,0,.2,0,0,0,0,0,.2,0,.3,0,.4.1.8.3,1.1.4.4.2.8.4,1.2.6h-.1c.7.3,1.4.9,2,1.5v-.2c0,.2.2.3.4.5v-.2c-.1,0,0,0,0,.1,0,0,.1.1.2.2.2.1.4.2.6.2.3,0,.5-.2.6-.5.1-.3,0-.6-.1-.8-.2-.3-.4-.5-.7-.7-.5-.4-1.1-.8-1.7-1.1s-1.3-.6-2-.8c-.2,0-.4-.1-.6-.2h-.1s0,0,0,0,0,0,0,0c-.1,0-.2,0-.4-.1-.4-.1-.8-.2-1.1-.2-.9-.2-1.9-.2-2.9-.2-.2,0-.4.3-.4.5,0,.3.2.4.5.4h0Z" fill="#38568b"/>
    <path d="M1.7,1c0,.6.1,1.2.2,1.7,0,.3,0,.6.1.9,0,.3.1.7.2,1,.2.5.3,1,.5,1.5.2.5.5,1,.9,1.5.2.2.3.4.5.7,0,0,0,0,0,0,.1.1.2.2.4.3,0,0,.1,0,.2,0s.1,0,.2,0c.2,0,.3,0,.5,0s.3-.2.3-.4c0-.2-.1-.5-.2-.7-.1-.2-.3-.4-.4-.6-.2-.3-.5-.7-.7-1v.2c-.2-.5-.5-1.1-.7-1.7-.1-.3-.2-.7-.3-1s-.2-.7-.3-1v.2c-.1-.6-.2-1.2-.3-1.8,0-.1,0-.3-.2-.4-.1,0-.3-.1-.4-.1-.3,0-.5.3-.5.6h0Z" fill="#38568b"/>
    <path d="M7.9,6.6c-.1,0-.2,0-.3,0h-.2c-.2.2-.3.3-.5.4-.4.2-.7.4-1.1.6-.6.4-1.2.8-1.7,1.2-.6.5-1.2,1-1.7,1.6-.5.5-1,1-1.3,1.6-.1.2-.2.3-.3.5-.1.2-.3.4-.4.7,0,.2-.2.4-.2.5C0,14.1,0,14.4,0,14.7c0,.2.3.3.5.3.1,0,.3,0,.4-.2.1,0,.2-.2.3-.3.1-.1.2-.2.3-.4.2-.2.4-.5.6-.8.4-.5.8-1,1.2-1.5.2-.3.5-.5.8-.8l-.2.2c1.1-1,2.2-2,3.4-2.9.2-.1.3-.3.5-.4,0,0,.2-.1.2-.2.1-.1.2-.2.3-.3.1-.2.1-.4,0-.6,0-.2-.3-.3-.5-.3h0Z" fill="#38568b"/>
    <path d="M.6,15.1c.4-.2.9-.4,1.4-.5h-.1c.6-.1,1.1-.2,1.7-.2.3,0,.6,0,.9,0,.3,0,.5,0,.8,0,.1,0,.3,0,.4,0,0,0,.2,0,.3,0,0,0,.1,0,.2,0,.2-.1.3-.4,0-.6,0,0-.2-.1-.2-.2-.1,0-.2,0-.3,0-.2,0-.3,0-.5,0-.4,0-.9,0-1.3,0-.8,0-1.6.2-2.5.4-.4.1-.7.2-1.1.4,0,0-.1,0-.2.1,0,0-.1.1-.1.2,0,.1,0,.3,0,.4,0,.1.2.3.3.3.1,0,.3,0,.4,0h0Z" fill="#38568b"/>
    <path d="M5.5,13.4h0c0,0,0,0,.2,0,0,0-.2,0-.3,0,0,0,0,0-.2,0-.1,0-.3.1-.4.2,0,0-.2.1-.3.2s-.2.1-.2.2c-.4.3-.7.6-1,1-.3.3-.5.7-.8,1-.3.4-.5.9-.7,1.3,0,.3-.2.5-.2.8,0,.2,0,.3,0,.5,0,.1,0,.2,0,.3,0,.2.2.3.3.4.2,0,.4,0,.5-.1,0-.1.1-.2.2-.3,0-.1.2-.3.2-.5.1-.2.2-.5.4-.7v.2c0-.2.2-.5.3-.7v.2c0-.3.2-.6.5-.8s.4-.5.6-.8c.1-.1.3-.3.4-.4h-.1c.2,0,.4-.2.7-.4.1,0,.2-.2.3-.3,0,0,.1,0,.2-.1,0,0,.2-.2.3-.3h-.1c0,.1,0,.1,0,.1,0,0,.1-.1.2-.2,0,0,0-.1,0-.2,0-.1,0-.3,0-.4-.2-.3-.5-.4-.8-.3h0Z" fill="#38568b"/>
    <path d="M2.4,19.7h0s0,0,0,0c.7-.7,1.4-1.2,2.3-1.7h-.1c.7-.3,1.4-.6,2.2-.8h-.1c.2,0,.3,0,.4,0s.1,0,.2,0,.1,0,.2,0c0,0,.2,0,.2-.2,0-.1,0-.3,0-.4,0-.1-.1-.2-.2-.2,0,0-.2-.1-.3-.1-.2,0-.3,0-.5,0-.2,0-.5.1-.7.2-.4.1-.8.3-1.1.4-.8.3-1.5.8-2.1,1.3-.4.3-.7.6-1.1,1,0,0-.1.2-.1.4s0,.3.2.3.2.1.4.1h.1c0,0,.2-.1.2-.2h0Z" fill="#38568b"/>
    <path d="M3.1,1.4c0,0,0,.2,0,.2h0c0,0,0,0,0,0h0c0,0,0,0,0,0,0,0,.1.1.2.2,0,0,.1,0,.2.1h0c.1,0,.2,0,.4.2h0c.4.2.8.5,1.2.9h0c.4.3.7.8.9,1.2v-.2c0,.1,0,.2.1.3v-.2c0,.4.3.7.4,1.1,0,.2.2.4.2.6s.2.4.3.6c0,.1,0,.2.1.3,0,0,0,.1,0,.2,0,.2.2.3.3.4,0,0,0,0,0,0l-.2-.2h0c0,.1.2.2.3.3.1,0,.3,0,.4,0,.1,0,.3,0,.4-.1.1,0,.2-.2.3-.3,0-.2.1-.4.1-.6,0-.1,0-.3,0-.4s0-.2-.1-.3c-.1-.3-.3-.6-.5-.8-.3-.4-.6-.8-.9-1.2-.3-.4-.7-.8-1.1-1.2-.3-.3-.7-.6-1.1-.8-.2-.2-.5-.3-.8-.4-.2,0-.3,0-.5-.1,0,0-.1,0-.2,0s-.1,0-.2,0c0,0,0,0,0,0,0,0,0,0-.1.1h.1c0,0-.2,0-.2.1h0Z" fill="#38568b"/>
    <path d="M7.2,16s0,0,0,0h.2c-.1,0-.2,0-.3,0h.1c-.1,0-.3,0-.4.1,0,0-.2.1-.2.2-.2.2-.4.4-.6.5-.3.3-.6.6-.8.9-.5.7-.9,1.5-1.2,2.3,0,.1,0,.2-.1.3,0,.2,0,.3,0,.5,0,.1,0,.2,0,.3,0,.1,0,.3,0,.5,0,.2.2.3.3.4,0,0,.2,0,.2,0,0,0,.2,0,.2-.2,0,0,0-.1.1-.2,0-.1.1-.2.2-.4,0-.2.2-.3.2-.5.1-.3.3-.7.4-1s.2-.4.3-.5v.2c.1-.4.4-.7.6-1.1s.6-.7.9-1h-.1c.1,0,.2,0,.3-.2.2-.2.4-.3.5-.6h0c0,.1,0,0,0,0,0-.1.1-.2.1-.4s0-.2-.1-.4c0,0-.2-.1-.2-.2-.1,0-.3,0-.4,0h0Z" fill="#38568b"/>
    <path d="M4.3,22.4c.4-.2.8-.4,1.2-.6s.4-.1.6-.2c.1,0,.2,0,.3,0,0,0,0,0,0,0,0,0,0,0,0,0,0,0,.1,0,.2,0,.4-.1.8-.2,1.3-.2h.3c.1,0-.1,0,0,0h.2c.2,0,.4,0,.6,0,.1,0,.2,0,.3,0,0,0,0,0,0,0,.1,0,0,0,0,0,0,0,.1,0,.2,0,.2,0,.4.2.6.3h-.2c.3,0,.5.3.7.5h-.1c.3.2.6.6.8,1v-.2c0,.2.1.4.2.6v-.2c.4,1,.8,2,1.1,3.1v-.2c.1.8.3,1.7.4,2.6,0,.4,0,.9,0,1.3,0,.2,0,.4,0,.6,0,.2,0,.4.1.6,0,.3.3.6.6.7s.6-.2.8-.5.3-.7.3-1c0-.3,0-.6,0-.9,0-.7,0-1.4-.1-2s-.3-1.3-.5-2c-.2-.6-.4-1.1-.7-1.7-.6-1.2-1.3-2.3-2.3-3.2s-2.4-1.2-3.7-1c-1.5.2-2.9.8-4.2,1.5-.2.1-.3.5-.1.7s.4.4.7.2h0Z" fill="#38568b"/>
    <path d="M33.5.4c-.9,0-1.8,0-2.7.1-.5,0-.9.2-1.3.3-.1,0-.2,0-.3,0,0,0,0,0,0,0h0s0,0-.1,0c0,0-.1,0-.2,0-.2,0-.4.1-.6.2-.7.2-1.4.5-2.1.9-.6.3-1.2.7-1.8,1.2-.2.2-.3.3-.5.5-.2.2-.2.6-.1.9.2.3.5.5.8.5s.6-.4.8-.6c.1-.1.2-.2.4-.4v.2c.2-.3.6-.7,1-.9.2-.2.4-.3.6-.4.1,0,.2-.1.3-.2-.2,0,0,0,0,0,0,0,.1,0,.2-.1.5-.2,1-.5,1.6-.7.1,0,.3,0,.4-.1,0,0,0,0,.1,0,.1,0-.1,0,0,0,0,0,.1,0,.2,0,.3,0,.6-.1.9-.2.4,0,.7,0,1.1-.1.2,0,.3,0,.5,0h.4c0,0,0,0,0,0,.2,0,.5-.1.5-.4,0-.2-.1-.5-.4-.5h0Z" fill="#38568b"/>
    <path d="M33,.8c-.1.7-.3,1.4-.5,2v-.2c0,.3-.2.7-.3,1s-.2.6-.3.9c-.2.6-.5,1.1-.8,1.6v-.2c0,.3-.3.6-.5.9-.1.2-.3.3-.4.6s-.3.4-.2.7c0,.1,0,.2.1.3s.2.1.3.2c.2,0,.4,0,.5-.1,0,0,.1,0,.1,0,0,0,0,0,0,0,.2,0,.2-.1.4-.3.2-.2.3-.4.5-.6.3-.4.6-.9.9-1.4.2-.5.4-.9.6-1.4,0-.3.2-.7.2-1,0-.3,0-.6.1-.8,0-.6.2-1.3.3-1.9,0-.3-.2-.6-.5-.6s-.6.2-.7.5h0Z" fill="#38568b"/>
    <path d="M27.5,7.5c0,.1.2.2.3.3,0,0,.2.1.2.2.1.1.3.2.4.4.3.2.6.5.9.8s.6.5.9.8.6.5.9.8c.3.3.6.6,1,.9l-.2-.2c.4.4.8.9,1.2,1.3.2.2.4.5.6.7s.3.5.5.7c.1.1.2.3.3.4,0,0,.2.2.3.3,0,0,.1.1.2.1,0,0,.1,0,.2,0,.2,0,.4-.1.5-.3.2-.4,0-.9-.2-1.3-.2-.4-.4-.7-.6-1.1-.4-.6-.8-1.1-1.3-1.6-.5-.6-1.1-1.1-1.7-1.6-.5-.4-1.1-.9-1.7-1.3-.4-.2-.8-.5-1.1-.7-.2,0-.4-.2-.5-.3,0,0-.2,0-.3-.1-.1,0-.3,0-.4-.1-.2,0-.4,0-.5.3s-.1.4,0,.6h0Z" fill="#38568b"/>
    <path d="M35.7,14.1c-.3-.2-.6-.3-.9-.4-.4-.1-.8-.2-1.2-.3-.4,0-.8-.1-1.2-.2-.4,0-.9,0-1.3,0-.2,0-.4,0-.6,0-.1,0-.2,0-.4,0-.1,0-.2.1-.3.2-.2.2-.2.5,0,.6,0,0,.2.1.3.1,0,0,.1,0,.2,0,.2,0,.4,0,.6,0h-.1c.4,0,.9,0,1.3,0,.4,0,.9,0,1.3.2.2,0,.5.1.7.2h-.1c.4,0,.8.2,1.2.4.1,0,.3,0,.4,0,.1,0,.3-.2.3-.3s0-.3,0-.4h0c0-.2-.1-.3-.2-.3h0Z" fill="#38568b"/>
    <path d="M29.7,14.5h0s0,0-.1-.1c0,.1.2.2.3.3,0,0,.1.1.2.1.1.1.2.2.4.3.2.2.5.4.7.7h-.1c.3.2.6.5.8.8s.5.7.7,1.1v-.2c0,.2.2.5.3.7v-.2c0,.2.1.4.2.6,0,.1.1.3.2.4,0,0,.1.2.2.3,0,.1.3.2.5.2s.3-.2.3-.4c0-.1,0-.2,0-.3v-.3s0-.1,0-.2c0-.3-.1-.5-.2-.8,0-.2-.1-.4-.2-.6-.1-.2-.2-.5-.4-.7-.2-.4-.5-.7-.8-1-.3-.4-.7-.7-1-1.1-.2-.2-.4-.3-.6-.4-.1,0-.3-.2-.5-.3,0,0-.1,0-.2,0-.1,0-.2,0-.3,0h.1s0,0,0,0c-.1,0-.3,0-.5,0-.1,0-.2.1-.3.3,0,.1-.1.2,0,.4h0c0,.2.1.3.2.4h0Z" fill="#38568b"/>
    <path d="M34.2,19.1c-.6-.6-1.2-1.2-1.9-1.6s-1.5-.8-2.3-1.1c-.3,0-.5-.2-.8-.2-.2,0-.3,0-.5,0-.1,0-.3,0-.4.1-.1,0-.2.2-.2.3,0,.1,0,.3,0,.4,0,0,.1.1.2.2,0,0,0,0,0,0,.1,0,.3,0,.4,0h-.1c.2,0,.4,0,.6.1h-.1c.8.2,1.6.5,2.3.9h-.1c.8.4,1.5.9,2.1,1.5,0,0,.3.1.4.1s.2,0,.3-.1.1-.2.2-.3c0-.1,0-.3,0-.4h0Z" fill="#38568b"/>
    <path d="M32.8,1.4c0,0-.1-.1-.2-.2h.1c0,0,0,0,0,0,0,0,0,0-.1,0,0,0,0,0,0,0,0,0,0,0,0,0,0,0-.2,0-.2,0-.1,0-.3,0-.4,0-.2,0-.4.2-.6.2-.2.1-.5.3-.7.4-.2.1-.4.3-.5.4-.8.7-1.4,1.5-2,2.4-.2.3-.4.6-.5.9-.2.4-.4.9-.2,1.4,0,.1.1.2.2.3s.2.1.4.2c.1,0,.3,0,.4,0s.2-.1.3-.2c0,0,0,0,0,0l-.2.2c0,0,.2-.1.2-.2s.1-.2.1-.2c0-.1,0-.2.1-.4v.2c0-.4.3-.8.4-1.2s.3-.8.5-1.2c.1-.2.2-.4.3-.6v.2c.2-.4.5-.9.9-1.2h-.1c.4-.2.7-.5,1.2-.8h0c0,0,.2,0,.2,0,0,0,0,0,0,0s.1,0,0,0c0,0,.2,0,.2-.1,0,0,0,0,0,0,0,0,0,0,0,0,0,0,0,0,0-.1,0,0,0,0,0,0h0c0,0,.1,0,0-.1h0Z" fill="#38568b"/>
    <path d="M28,16.9s0,0,0,0h0c0,0,0,0,0,0h.1c0,.1-.1,0-.1,0,0,.1.2.2.3.3,0,0,.1.1.2.2.1.1.3.2.4.4h-.1c.3.2.6.5.9.9s.5.7.7,1.1h0c.2.2.4.6.5,1,0,.1,0,.2.1.3s0,.2.1.3,0,.2.1.3c0,.1.1.2.2.4,0,0,.1.1.2.1,0,0,.2,0,.3,0,.2,0,.3-.2.3-.4,0-.1,0-.2,0-.3,0-.1,0-.3,0-.4,0-.1,0-.2,0-.3,0-.1,0-.3-.1-.4-.1-.4-.3-.8-.5-1.1-.2-.4-.5-.8-.7-1.2s-.6-.7-.9-1.1c-.2-.2-.3-.3-.5-.5-.2-.2-.5-.5-.8-.5h.1s0,0-.1,0c-.1,0-.2,0-.4,0-.1,0-.2.1-.3.2-.1.2-.1.5,0,.7h0Z" fill="#38568b"/>
    <path d="M32.1,21.4c-1.1-.8-2.4-1.2-3.7-1.5s-2.7-.2-3.8.6c-.5.4-1,.9-1.4,1.4s-.8,1.1-1.1,1.7c-.6,1.1-1.1,2.3-1.4,3.6-.2.7-.3,1.5-.2,2.2,0,.3,0,.7,0,1,0,.2,0,.3,0,.5,0,.1,0,.3.1.4,0,0,0,.1.1.2.1.3.5.5.8.5s.6-.3.6-.6c0-.2.1-.4.1-.6,0-.2,0-.4,0-.6,0-.4,0-.9.1-1.3,0-.9.2-1.7.5-2.5v.2c.2-1.1.7-2.1,1.2-3.1v.2c0-.2.1-.4.2-.6v.2c.1-.4.4-.8.7-1.2h-.1c.2,0,.4-.2.5-.3,0,0,.1,0,.1,0-.1.1-.1,0,0,0,0,0,0,0,0,0,.1,0,.2-.1.3-.1.1,0,.2,0,.3-.1-.1,0-.1,0,0,0,0,0,0,0,0,0,0,0,.1,0,.2,0,.2,0,.5,0,.7,0h.2c0,0-.1,0,0,0,.1,0,.2,0,.4,0,.2,0,.5,0,.7,0,.1,0,.2,0,.4,0,0,0,.1,0,.2,0,0,0,0,0,0,0,0,0,0,0,0,0,.1,0,.2,0,.4.1.1,0,.3,0,.4.1.5.2,1.1.4,1.6.7.2.1.5,0,.7-.2s0-.5-.1-.7h0Z" fill="#38568b"/>
    <path d="M13.7,30.7s-.1,0-.1.1c0,0,0,.1-.1.2,0,0,0,.2,0,.3v.2c0,.1,0,.3,0,.4,0,.1,0,.2,0,.3,0,.3.1.5.2.7.1.2.2.5.4.7.1.2.2.3.4.5.2.2.4.4.6.5s.4.3.7.4c.2,0,.4.2.5.2.2,0,.5.2.8.2.3,0,.6,0,.9,0,.5,0,1-.1,1.5-.3.5-.1,1-.3,1.3-.6.2-.2.4-.3.6-.5s.3-.4.4-.7c.2-.4.4-.9.5-1.4,0-.3,0-.6,0-.9v-.3c0-.3-.2-.7-.5-.9l.2.2c0,0-.1-.2-.2-.2,0,0,0,0,0,0l.2.2s0-.1-.1-.2c-.2-.2-.4-.3-.7-.3-.1,0-.3,0-.4.1-.1,0-.2.2-.2.3,0,0,0,.1-.1.2l.3-.4s0,0,0,0c-.2.1-.2.2-.3.4l.3-.4c0,0-.1.1-.2.2,0,0-.1.2-.1.3v-.2c0,.2-.1.4-.1.6,0,0,0,.1,0,.2,0,.1,0,.3,0,.4,0,.3,0,.5-.1.8v-.3c0,.3-.1.5-.2.8v-.2c0,.2-.1.4-.3.5l.2-.2c-.2.2-.3.3-.5.4h.2c-.3,0-.6.1-1,.2h.2c-.4,0-.9.1-1.4.1h.2c-.3,0-.5,0-.8-.1h.2c-.3,0-.6-.1-.9-.3h.2c-.3,0-.5-.2-.8-.5l.2.2c-.3-.3-.5-.6-.7-1v.2c0-.2-.1-.3-.2-.5v.2c0-.2-.1-.4-.2-.6v.2c0-.1,0-.3-.1-.4,0,0,0,0,0-.1,0,0-.2-.1-.3-.2-.1,0-.3,0-.4,0h0Z" fill="#38568b"/>
    <path d="M16.8,29.1s0,0,0,.1c0,.1-.2.3-.2.4,0,0,0,.2-.1.3s0,.2-.1.3c0,0,0,.1,0,.1,0,.1,0,.3-.1.4,0,0,0,0,0,.1v.3h0c0,.2,0,.3,0,.4,0,0,0,0,0,0h0s0,0,0,.2c0,0,0,0,0,.2,0,0,0,0,0,0,0,0,.2.2.3.3s.2.1.3.2c0,0,0,0,0,0,.1,0,.2,0,.3,0h0c.1,0,.3,0,.4,0s.3,0,.4,0c.1,0,.2,0,.3,0,.1,0,.2,0,.4-.1.1,0,.3-.1.4-.2,0,0,0,0,0,0,.1,0,.2-.2.3-.3,0,0,0,0,0,0,0,0,.1-.2.2-.3l-.7.7h0c.1,0,.2-.1.3-.2.2-.1.3-.2.4-.4,0,0,.1-.2.1-.3,0-.2,0-.3,0-.5,0-.2-.1-.4-.2-.6,0,0,0-.2,0-.3,0,0,0,0,0-.1s0,0,0-.1,0,0,0-.1c0,0,0,0,0,0,0-.2-.2-.4-.4-.6-.1,0-.2-.1-.3-.2,0,0,0,0,0,0l.3.2s0,0,0,0c-.4-.3-.8-.4-1.3-.2-.2,0-.4.2-.5.4-.1.2-.2.4-.3.6,0,0,0,0,0,.1v-.3c0,0,0,0,0,0,0,.2-.1.5-.1.7,0,.1,0,.3.1.4,0,0,0,0,0,.1,0,0,0,0,0,.1,0,0,0,0,0,.1,0,0,0,.2.1.2,0,0,0,0,0,.1s0,0,0,.1v-.3c0,0,0,.1,0,.2,0,.2.1.3.2.5l.3.3c.1,0,.2.1.3.2l-.8-1.4h0c0-.1,0-.2,0-.3,0,0,0,0,0,0l.2-.3s0,0,0,0l.2-.2s0,0,0,0l.3-.2c0,0-.1,0-.2,0,0,0-.1,0-.2,0s-.1,0-.2,0c0,0-.1,0-.2,0h.3c0,0,0,0,0,0h.3,0,.3c0,0,0,0,0,0l.3.2s0,0,0,0l.2.2s0,0,0,0l.2.3s0,0,0,0v.3c0,0,0,0,0-.1v.3c0,0,0-.1,0-.2,0,0,0-.2,0-.2v.3c0-.1,0-.3,0-.4v.3c0-.1,0-.2,0-.3,0,0,0-.1,0-.2s0-.1,0-.1l-.2.3h0c.1-.1.2-.3.2-.4,0-.1,0-.3,0-.5,0-.2,0-.3-.1-.4,0-.1-.2-.3-.3-.4l-.3-.2c-.2,0-.4-.1-.6,0h-.3c-.2.1-.4.3-.5.4h0Z" fill="#38568b"/>
    <path d="M7.6,16.9c.4-.4.9-.8,1.3-1.2.2-.2.4-.3.7-.5s.4-.2.7-.4c.2-.1.5-.2.7-.3.1,0,.2,0,.3-.1,0,0,0,0,0,0,.1,0,0,0,0,0s.1,0,.2,0c.3,0,.5-.1.8-.1h.1c0,0,0,0,0,0h0c.1,0,.2,0,.3,0,0,0,0,0,.1,0,0,0,.1,0,0,0,0,0,0,0,0,0,0,0,0,0,0,0,0,0,.1,0,.1,0,0,0,.2,0,.3.1s.2,0,.3.1c0,0,0,0,0,0,0,0,0,0,0,0,0,0,0,0,.1,0,0,0,.2.1.3.2.2.1.3.3.5.4,0,0,.2.1.2.2,0-.1,0,0,0,0,0,0,0,0,.1.1.1.2.3.3.4.5.2.3.5.6.7,1,0,0,.1.2.2.3,0,0,0,0,0,.1,0,0,0-.1,0,0,0,0,0,0,0,0,0,.2.2.3.2.5,0,.1.1.3.2.4,0,0,.1.2.2.2s0,0,0,0c0,0,.2.2.3.2l-.3-.3h0c0,.2.2.3.4.3.2,0,.3-.2.3-.4h0c0,0,0,.2-.1.3.1-.1.2-.4.2-.5s0-.3-.1-.5c-.1-.3-.3-.7-.5-1-.5-.8-1-1.5-1.6-2.1s-1.4-1.1-2.3-1.4c-.4-.1-.9,0-1.3,0-.6,0-1.1.2-1.6.5-1.3.5-2.3,1.4-3.3,2.4-.1.1,0,.4,0,.5.2.1.3,0,.5,0h0Z" fill="#38568b"/>
    <path d="M18.1,18.4c0,.1,0,0,0,0,0,0,0,0,0-.1,0-.1,0-.2.1-.3,0-.2.2-.4.3-.6.1-.2.2-.5.3-.7,0,0,0-.1,0,0s0,0,0,0c0,0,0-.1.1-.2,0-.1.1-.2.2-.4.1-.2.3-.4.5-.6,0-.1.2-.2.2-.3,0,0,0,0,.1-.1,0,0,0,0,0,0,0,0,0,0,0,0,.2-.2.4-.3.6-.5,0,0,.2-.1.3-.2,0,0,.2,0,0,0,0,0,.1,0,.2,0,0,0,.2,0,.3-.1,0,0,0,0,.1,0,0,0,0,0,0,0-.1,0,0,0,0,0,.2,0,.5,0,.8,0-.1,0,0,0,0,0h.1c0,0,.1,0,.2,0,.1,0,.3,0,.4,0s.2,0,.4,0c0,0,.1,0,.2,0-.1,0,0,0,0,0,0,0,0,0,.1,0,.5.2,1,.4,1.5.6,0,0,0,0,0,0,0,0-.1,0,0,0,0,0,.1,0,.2.1.1,0,.2.1.3.2.2.1.4.3.6.4s.4.3.6.5c0,0,.2.2.3.2h.1c0,.1,0,.2,0,.2-.1-.1,0,0,0,0l.2.2h0c0,.1,0,0,0,0,0,0,.1.1.2.2,0,0,.1.2.2.2,0,0,0,0,0,0,0,0,0,.1,0,0,.1.2.5.2.7.1.2-.2.2-.4.1-.7h0c0,0,0,.1,0,.2,0-.4-.3-.6-.5-.9-.3-.3-.7-.6-1-.9-.9-.7-1.8-1.3-2.8-1.6-.6-.2-1.1-.3-1.8-.3-.5,0-1.1,0-1.6.2-.5.2-.9.5-1.2.8-.4.4-.8.8-1.1,1.2-.2.2-.4.5-.5.7s-.4.5-.5.8c-.3.5-.5,1.1-.7,1.6,0,.2.2.5.4.5.3,0,.5-.1.5-.4h0Z" fill="#38568b"/>
    <path d="M12.1,18.8c0,0,.2,0,.2,0,0,0,0,0,0,0,0,0,.1,0,.1,0,.1,0,.2,0,.3,0h-.2c.2,0,.3,0,.5,0h-.2c.2,0,.4,0,.5.1h-.2c.2,0,.4.1.5.3l-.2-.2c.1.1.2.3.3.5v-.2c0,.1,0,.2,0,.4v-.2c-.1,0,0,.1,0,.2,0,0,0,0,0,.1,0,0,0,0,0,0h0s.1.3.1.3c0,0,.1.2.2.2.2.1.3.2.5.2.1,0,.3,0,.4,0,.1,0,.3,0,.4-.2.2-.1.3-.3.4-.5h0c0-.1,0-.2,0-.3h0c0-.3,0-.4,0-.5,0,0,0,0,0,0s0,0,0,0c0-.1-.1-.3-.2-.4,0,0-.1-.2-.2-.3-.2-.2-.4-.5-.7-.6-.2-.1-.3-.2-.5-.3s-.4-.1-.6-.1-.4,0-.6,0-.2,0-.4,0c0,0-.1,0-.2,0-.1,0-.2,0-.4.1,0,0-.1,0-.2,0,0,0,0,0,0,0,0,0-.1,0-.2.1,0,0-.1.1-.1.1,0,0,0,0,0,0,0,.1-.1.2-.1.3s0,.2,0,.4c0,.1.1.2.2.3.1,0,.2.1.3.1h0Z" fill="#38568b"/>
    <path d="M23.9,17c-.2,0-.3-.1-.5-.2s-.4,0-.6,0-.4,0-.6.1c-.1,0-.2,0-.3.1-.1,0-.3.1-.4.2,0,0,0,0-.1,0,0,0-.2.1-.2.2-.1.1-.3.3-.4.4,0,0-.1.2-.2.2-.1.2-.2.4-.3.5,0,.1,0,.2-.1.3,0,.1,0,.3,0,.4,0,.1,0,.3,0,.4,0,.1.1.3.2.4.1.1.2.2.4.3h.3c.2.1.4,0,.6,0h.3c.2-.3.3-.4.4-.6,0-.2.1-.4.2-.5v.3c0-.2,0-.4.2-.5l-.2.2c.2-.2.3-.3.5-.4h-.2c.1,0,.3,0,.4,0h-.2c.2,0,.4,0,.6,0h-.3c.1,0,.2,0,.3,0,0,0,0,0,0,0,0,0,0,0,.1,0,0,0,0,0,.1,0,0,0,0,0,0,0h-.2c0,.1,0,0,.1,0h.2c0-.1.2-.3.2-.3v-.2c.2-.1.2-.2.2-.3,0,0,0-.1,0-.2,0,0,0-.1,0-.2,0,0,0-.1-.1-.2,0,0-.2-.2-.3-.2h0Z" fill="#38568b"/>
  </g>
</svg>