<?xml version="1.0" encoding="UTF-8"?>
<svg id="a" xmlns="http://www.w3.org/2000/svg" version="1.1" viewBox="0 0 36 36">
  <!-- Generator: Adobe Illustrator 29.3.1, SVG Export Plug-In . SVG Version: 2.1.0 Build 151)  -->
  <path d="M19.6,6c-3.1-.5-6.7,2.6-6.9,5.9s1.9,5.3,1.9,5.3c0,0-2.6,1.4-3.7,2.6s-1.9,4.9-1.9,4.9h19.6s.2-3-1.7-4.7-4.5-3.2-4.5-3.2c0,0,2-1.6,1.9-4.6s-2.5-5.8-4.7-6.1h0Z" style="fill: #fff;"/>
  <path d="M23,15.6c.6-1.6,1.2-4.1.3-4.3s-4.3,2.2-4.5,3.1.2,1.6.2,2.1-.3,1.1-.3,1.1c0,0,3.5,0,4.3-2h0Z" style="fill: #ed1c24;"/>
  <path d="M12.2,23.7h5.6s1.1-1.4.9-2-1.7.4-2,0,1.3-2.4.8-2.6-3.1.7-3.4,1.4c-.3.7-.6,2.8-1.7,3.2h0Z" style="fill: #ed1c24;"/>
  <rect x="4.7" y="24.2" width="28.9" height="10.9" style="fill: #fff;"/>
  <g>
    <path d="M33.3,32.2s0,0,0,0c0,0,0,0,.1,0h.4c.2,0,.3,0,.5,0h1c0,0,.2,0,.3,0,0,0,.1,0,.2,0h.1s0,0,0-.1c0,0,0,0,0-.1s0,0,0-.1c0,0,0,0-.1-.1,0,0-.2,0-.2,0,0,0-.1,0-.2,0h-.1s0,0-.1,0h-.4c-.3,0-.6,0-1,0h-.3s0,0-.1,0h0c0,0-.1,0-.2,0-.1.1-.2.3,0,.4h0Z" style="fill: #38568b;"/>
    <path d="M.2,32.2h0-.1s.1,0,.2,0c0,0,0,0,.2,0h.6c.3,0,.6,0,.9,0h1.6c.1,0,.3,0,.4,0s.3,0,.4,0h.3c.1,0,.2-.2.2-.3s0-.2-.2-.2h-.3c-.1,0-.2,0-.4,0h-.4c-.2,0-.4,0-.5,0-.7,0-1.3,0-2,0H.5c-.2,0-.3,0-.4.2h.1c0-.1,0-.1,0-.1,0,0-.1.1-.1.2s0,.2.1.2h0Z" style="fill: #38568b;"/>
    <path d="M27.7,21.3c.1,0,.3,0,.4,0h.4c.3,0,.5,0,.8,0h1.6s3.2,0,3.2,0h1.7c.1,0,.2,0,.3-.1.1,0,.2-.4,0-.5,0,0-.2,0-.2-.1,0,0-.2,0-.2,0h-1.2c-.5,0-1.1,0-1.6,0h-3.2c-.3,0-.6,0-.9,0h-.5c-.2,0-.3,0-.5,0s-.1.3,0,.3h0Z" style="fill: #38568b;"/>
    <path d="M-.1,21.6c.1.1.3.1.5.1h1.4c.6,0,1.3,0,1.9,0,1.3,0,2.6,0,3.9,0s1.4,0,2.1,0c.3,0,.3-.5,0-.5-.6,0-1.3,0-1.9,0h-1.9c-1.3,0-2.5,0-3.8,0-.4,0-.7,0-1,0H.4c-.2,0-.4,0-.5.2,0,0,0,.2,0,.3,0,0,0,0,0,0Z" style="fill: #38568b;"/>
    <path d="M4.8,24.3h.4s.2,0,.1,0c0,0,0,0,0,0,.2.2.5.3.8.3.4,0,.9,0,1.4,0,.9,0,1.9,0,2.8,0,1.9,0,3.8,0,5.7,0,3.7,0,7.4,0,11.1,0,1,0,2.1,0,3.1,0,.5,0,1,0,1.5,0s1.1-.1,1.6-.2.6-.9,0-1h-1.4c-.5-.2-.9-.2-1.4-.2-.9,0-1.9,0-2.8,0-1.9,0-3.8,0-5.8,0-3.7,0-7.4,0-11.1,0-1,0-2.1,0-3.1,0-.5,0-1,0-1.6,0-.3,0-.6,0-.9.2,0,0-.1,0-.1.1h0c0,0,0,0,0,0-.1,0-.3,0-.4,0-.2,0-.2.3,0,.3h0Z" style="fill: #38568b;"/>
    <path d="M4.6,35.3c.2,0,.4.2.7.2.2,0-.1,0,0,0,0,0,.1,0,.2,0,.1,0,.2,0,.4,0,.4,0,.9,0,1.4,0,.9,0,1.8,0,2.7,0,1.8,0,3.6,0,5.4,0s3.8,0,5.6,0h2.7c.9,0,1.8,0,2.7,0,1,0,2-.1,3-.2s2-.1,3.1-.2c.5,0,.5-.8,0-.8-1.8-.2-3.6-.3-5.4-.4s-3.7-.1-5.6-.1c-3.6,0-7.3,0-10.9.1-1,0-2,0-3,0-.5,0-1,0-1.5,0-.3,0-.6,0-.8,0,0,0,0,0,0,0,0,0-.2,0-.2,0-.1,0-.2,0-.4.1-.3,0-.3.6,0,.7h0Z" style="fill: #38568b;"/>
    <path d="M33,23.7c-.2.1-.3.3-.3.5,0,0,0,.2,0,.2,0,.2,0,.3,0,.5,0,.4,0,.8,0,1.1v2c0,1.3,0,2.6,0,3.9v1.7c0,.2,0,.5.1.7,0,.3.4.5.7.5s.6-.2.7-.5c0-.1,0-.2.1-.4,0-.1,0-.3,0-.4v-7.4c0-.4,0-.7,0-1.1,0-.2,0-.4,0-.5,0,0,0-.2,0-.3,0-.2-.1-.4-.3-.5-.2-.2-.5-.2-.8,0h0Z" style="fill: #38568b;"/>
    <path d="M4.4,23.7c0,.1-.2.3-.2.4,0,0,0,.2,0,.3,0,.2,0,.3,0,.5,0,.4,0,.8,0,1.1v1.8c0,.2,0-.2,0,0v.2c0,1.4,0,2.7,0,4.1,0,.4,0,.9,0,1.3,0,.2,0,.4,0,.6,0,.2.1.5.2.7.2.5.9.5,1.1,0,.1-.4.2-.7.3-1.1s0-.8,0-1.2c0-.7,0-1.4,0-2.1,0-1.4,0-2.7,0-4.1,0-.4,0-.8,0-1.1,0-.2,0-.4,0-.6,0-.3,0-.5-.2-.8-.2-.3-.7-.3-.9,0h0Z" style="fill: #38568b;"/>
    <path d="M14.8,16.5c-.1,0-.2,0-.3,0,0,0,0,0-.1,0,0,0-.1,0-.2,0-.2,0-.4.2-.5.3-.3.2-.6.3-.8.5-.5.3-1.1.7-1.6,1.1-1,.8-2,1.7-2.5,2.9-.3.7-.4,1.4-.3,2.1,0,.2.1.4.3.5.1.1.4.2.5.1s.4-.1.5-.3.2-.3.1-.5c0-.1,0-.3,0-.5v.2c0-.3,0-.6.1-.9v.2c0-.4.2-.7.4-1v.2c.2-.5.5-.9.9-1.2h-.1c.5-.3.9-.7,1.5-1.1.5-.4,1.1-.8,1.7-1.2.1-.1.3-.2.5-.3,0,0,.1-.1.2-.2,0,0,0,0,.1,0,0,0,0,0,0,0,0,0,.1-.2.2-.3,0-.1,0-.4,0-.5,0-.1-.2-.3-.4-.3h0Z" style="fill: #38568b;"/>
    <path d="M22.1,17.2c.5.2,1,.4,1.4.7h-.1c.5.2.9.5,1.3.8s.8.6,1.1,1h-.1c.5.4,1,1,1.4,1.6v-.2c.1.5.3.9.5,1.4v-.2c0,.1,0,.3,0,.5s0,.1,0,.2h0c0,.2,0,.2,0,.3,0,0,0,.2,0,.2,0,0,0,0,0,.1.1.1.2.2.4.3.1,0,.2,0,.4,0,.3,0,.5-.1.7-.4,0,0,.1-.2.1-.2,0-.2,0-.3,0-.5h0c0-.2,0-.3,0-.4,0-.2,0-.5-.2-.7,0-.3-.2-.6-.4-.9-.3-.6-.8-1.2-1.2-1.7-.5-.5-.9-.9-1.5-1.3s-1.1-.7-1.7-1c-.6-.3-1.3-.6-2-.8-.1,0-.2,0-.4,0-.1,0-.2.1-.3.3,0,.2,0,.5.3.6h0Z" style="fill: #38568b;"/>
    <path d="M.8.7c.6,0,1.1,0,1.7,0h5c2.2,0,4.4,0,6.7,0h6.7c2.2,0,4.5,0,6.7,0h3.3c1.1,0,2.2,0,3.3,0,.3,0,.6,0,.8,0s.3-.5,0-.5c-1.1,0-2.2,0-3.3,0h-3.3c-2.2,0-4.5,0-6.7,0h-6.7c-2.2,0-4.4,0-6.7,0S3.8.2,1.6.3c-.3,0-.6,0-.8,0-.2,0-.2.3,0,.4h0Z" style="fill: #38568b;"/>
    <path d="M0,10.7c.8.2,1.7.2,2.6.2h2.5c1.6,0,3.3,0,4.9,0h1.4c.2,0,.5,0,.8,0,.3,0,.5,0,.8-.2.1,0,.1-.2,0-.3-.4-.2-.9-.2-1.3-.2s-.9,0-1.3,0h-2.5c-1.6,0-3.3,0-4.9,0-.5,0-1,0-1.4,0-.5,0-1,0-1.5.2C0,10.6,0,10.7,0,10.8h0Z" style="fill: #38568b;"/>
    <path d="M24.1,11.1c.1.2.3.2.5.2h.6c.4,0,.7,0,1.1,0h2.1c1.4,0,2.9,0,4.3,0h1.2c.4,0,.9,0,1.3,0,.4,0,.4-.6,0-.7-.4,0-.8,0-1.2,0h-1.1c-.7,0-1.4,0-2.1,0h-4.3c-.4,0-.8,0-1.2,0h-.6c-.2,0-.5,0-.6.2,0,0,0,.1,0,.2h0Z" style="fill: #38568b;"/>
    <path d="M.3,3.5h0s0,0,0,0c0,0,0,0,0,0,0,0,0,0,.1,0h.3c.2,0,.3,0,.5,0h.9s0,0,.1,0,0,0,.1,0,0,0,.1,0c0,0,0,0,0,0h0c0,0,.1-.1.1-.2s0-.1-.1-.2c0,0,0,0-.1,0,0,0,0,0-.1,0h-.1s0,0-.1,0h-.9c-.2,0-.3,0-.5,0h-.3c0,0-.1,0-.2,0,0,0,0,0,0,0,0,0,0,0,0,0,0,0,0,0,0,0h0s0,0,0,0,0,0,0,0h0Z" style="fill: #38568b;"/>
    <path d="M.7,5.8h1.7s.2,0,.2,0h.1c0,0,.1,0,.2,0,0,0,0,0,0,0,0,0,.1-.1.1-.2s0-.2-.1-.2c0,0,0,0,0,0,0,0,0,0-.2,0H.7c0,0-.1,0-.1,0s0,0,0,.1,0,0,0,.1c0,0,0,0,.1,0h0Z" style="fill: #38568b;"/>
    <path d="M.4,8.2s0,0,.1,0c0,0,0,0,.1,0h.1c0,0,.2,0,.2,0,.2,0,.4,0,.6,0s.3,0,.5,0h.5s0,0,.1,0c0,0,0,0,.1,0h.3c0,0,.1-.1.1-.2s0-.1-.1-.1h-.2c0,0,0,0-.1,0,0,0,0,0-.1,0h-.5s-.1,0-.1,0c0,0-.1,0-.2,0H.8s-.1,0-.1,0h0c0,0-.1,0-.2,0,0,0,0,.1,0,.2s0,.2,0,.2h0Z" style="fill: #38568b;"/>
    <path d="M.5,14h0s0,0,0,0c0,0,0,0,0,0,0,0,0,0,.1,0h.3c.2,0,.3,0,.5,0h.9s0,0,.1,0,0,0,.1,0,0,0,.1,0c0,0,0,0,0,0h0c0,0,.1-.1.1-.2s0-.1-.1-.2c0,0,0,0-.1,0,0,0,0,0-.1,0h-.1s0,0-.1,0h-.9c-.2,0-.3,0-.5,0h-.3c0,0-.1,0-.2,0,0,0,0,0,0,0,0,0,0,0-.1,0,0,0,0,0,0,0h0s0,0,0,0,0,0,0,.1h0Z" style="fill: #38568b;"/>
    <path d="M.9,16.3h1.7s.2,0,.2,0h.1c0,0,.1,0,.2,0,0,0,0,0,0,0,0,0,.1-.1.1-.2s0-.2-.1-.2c0,0,0,0,0,0,0,0,0,0-.2,0H.9c0,0-.1,0-.1,0s0,0,0,.1,0,.1,0,.1c0,0,0,0,.1,0h0Z" style="fill: #38568b;"/>
    <path d="M.7,18.7h0s0,0,0,0c0,0,.1,0,.2,0h.2c0,0,.2,0,.2,0,.2,0,.4,0,.6,0s.3,0,.5,0h.5s0,0,.1,0c0,0,0,0,.1,0h.3c0,0,.1-.1.1-.2s0-.1-.1-.1h-.2c0,0-.1,0-.1,0,0,0,0,0-.1,0h-.5c0,0-.2,0-.3,0h-1s-.1,0-.1,0h0c0,0-.1,0-.2,0,0,0-.1.1-.1.2,0,0,0,0,0,.1,0,0,0,0,.1,0h0Z" style="fill: #38568b;"/>
    <path d="M.5,24.3h0s0,0,0,0c0,0,0,0,0,0,0,0,0,0,.1,0h.3c.2,0,.3,0,.5,0h.9s0,0,.1,0,0,0,.1,0,0,0,.1,0c0,0,0,0,0,0h0c0,0,.1-.1.1-.2s0-.1-.1-.2c0,0,0,0-.1,0,0,0,0,0-.1,0h-.1s0,0-.1,0h-.9c-.2,0-.3,0-.5,0h-.3c0,0-.1,0-.2,0,0,0,0,0,0,0,0,0,0,0-.1,0,0,0,0,0,0,0h0s0,0,0,0,0,0,0,.1h0Z" style="fill: #38568b;"/>
    <path d="M.9,26.6h1.7s.2,0,.2,0h.1c0,0,.1,0,.2,0,0,0,0,0,0,0,0,0,.1-.1.1-.2s0-.2-.1-.2c0,0,0,0,0,0,0,0,0,0-.2,0H.9c0,0-.1,0-.1,0s0,0,0,.1,0,.1,0,.1c0,0,0,0,.1,0h0Z" style="fill: #38568b;"/>
    <path d="M.7,29.1h0s0,0,0,0c0,0,.1,0,.2,0h.2c0,0,.2,0,.2,0,.2,0,.4,0,.6,0s.3,0,.5,0h.5s0,0,.1,0c0,0,0,0,.1,0h.3c0,0,.1-.1.1-.2s0-.1-.1-.1h-.2c0,0-.1,0-.1,0,0,0,0,0-.1,0h-.5c0,0-.2,0-.3,0h-1s-.1,0-.1,0h0c0,0-.1,0-.2,0,0,0-.1.1-.1.2,0,0,0,0,0,.1,0,0,0,0,.1,0h0Z" style="fill: #38568b;"/>
    <path d="M32.7,3.5h0s0,0,0,0c0,0,0,0,0,0,0,0,0,0,0,0h.3c.2,0,.3,0,.5,0h.9s0,0,.1,0,0,0,.1,0,0,0,.1,0c0,0,0,0,0,0h0c0,0,.1-.1.1-.2s0-.1-.1-.2c0,0,0,0-.1,0,0,0,0,0-.1,0h-.1s0,0-.1,0h-.9c-.2,0-.3,0-.5,0h-.3c0,0-.1,0-.2,0,0,0,0,0,0,0,0,0,0,0,0,0,0,0,0,0,0,0h0s0,0,0,0,0,0,0,0h0Z" style="fill: #38568b;"/>
    <path d="M33.1,5.8h1.7s.2,0,.2,0h.1c0,0,.1,0,.2,0,0,0,0,0,0,0,0,0,.1-.1.1-.2s0-.2-.1-.2c0,0,0,0,0,0,0,0,0,0-.2,0h-2.1s-.1,0-.2,0,0,0,0,.1,0,0,0,.1c0,0,0,0,.2,0h0Z" style="fill: #38568b;"/>
    <path d="M32.9,8.2s0,0,0,0c0,0,0,0,.1,0h.1c0,0,.2,0,.2,0,.2,0,.4,0,.6,0s.3,0,.5,0h.5s0,0,.1,0c0,0,0,0,.1,0h.3c0,0,.1-.1.1-.2s0-.1-.1-.1h-.2c0,0,0,0-.1,0,0,0,0,0-.1,0h-.5s-.1,0-.1,0c0,0-.1,0-.2,0h-1s0,0-.1,0h0c0,0-.1,0-.2,0,0,0,0,.1,0,.2s0,.2,0,.2h0Z" style="fill: #38568b;"/>
    <path d="M33,14h0s0,0,0,0c0,0,0,0,0,0,0,0,0,0,0,0h.3c.2,0,.3,0,.5,0h.9s0,0,.1,0,0,0,.1,0,0,0,.1,0c0,0,0,0,0,0h0c0,0,.1-.1.1-.2s0-.1-.1-.2c0,0,0,0-.1,0,0,0,0,0-.1,0h-.1s0,0-.1,0h-.9c-.2,0-.3,0-.5,0h-.3c0,0-.1,0-.2,0,0,0,0,0,0,0,0,0,0,0,0,0,0,0,0,0,0,0h0s0,0,0,0,0,0,0,.1h0Z" style="fill: #38568b;"/>
    <path d="M33.4,16.3h1.7s.2,0,.2,0h.1c0,0,.1,0,.2,0,0,0,0,0,0,0,0,0,.1-.1.1-.2s0-.2-.1-.2c0,0,0,0,0,0,0,0,0,0-.2,0h-2.1s-.1,0-.2,0,0,0,0,.1,0,.1,0,.1c0,0,0,0,.2,0h0Z" style="fill: #38568b;"/>
    <path d="M33.2,18.7h0,0s0,0,.2,0h.2c0,0,.2,0,.2,0,.2,0,.4,0,.6,0s.3,0,.5,0h.5s0,0,.1,0c0,0,0,0,.1,0h.3c0,0,.1-.1.1-.2s0-.1-.1-.1h-.2c0,0-.1,0-.1,0,0,0,0,0-.1,0h-.5c0,0-.2,0-.3,0h-1s0,0-.1,0h0c0,0-.1,0-.2,0,0,0-.1.1,0,.2,0,0,0,0,0,.1s0,0,0,0h0Z" style="fill: #38568b;"/>
    <path d="M33,24.3h0s0,0,0,0c0,0,0,0,0,0,0,0,0,0,0,0h.3c.2,0,.3,0,.5,0h.9s0,0,.1,0,0,0,.1,0,0,0,.1,0c0,0,0,0,0,0h0c0,0,.1-.1.1-.2s0-.1-.1-.2c0,0,0,0-.1,0,0,0,0,0-.1,0h-.1s0,0-.1,0h-.9c-.2,0-.3,0-.5,0h-.3c0,0-.1,0-.2,0,0,0,0,0,0,0,0,0,0,0,0,0,0,0,0,0,0,0h0s0,0,0,0,0,0,0,.1h0Z" style="fill: #38568b;"/>
    <path d="M33.4,26.6h1.7s.2,0,.2,0h.1c0,0,.1,0,.2,0,0,0,0,0,0,0,0,0,.1-.1.1-.2s0-.2-.1-.2c0,0,0,0,0,0,0,0,0,0-.2,0h-2.1s-.1,0-.2,0,0,0,0,.1,0,.1,0,.1c0,0,0,0,.2,0h0Z" style="fill: #38568b;"/>
    <path d="M33.2,29.1h0,0s0,0,.2,0h.2c0,0,.2,0,.2,0,.2,0,.4,0,.6,0s.3,0,.5,0h.5s0,0,.1,0c0,0,0,0,.1,0h.3c0,0,.1-.1.1-.2s0-.1-.1-.1h-.2c0,0-.1,0-.1,0,0,0,0,0-.1,0h-.5c0,0-.2,0-.3,0h-1s0,0-.1,0h0c0,0-.1,0-.2,0,0,0-.1.1,0,.2,0,0,0,0,0,.1s0,0,0,0h0Z" style="fill: #38568b;"/>
    <path d="M.7,34.9h0s0,0,0,0c0,0,.1,0,.2,0h.2c0,0,.2,0,.2,0,.2,0,.4,0,.6,0s.3,0,.5,0h.5s0,0,.1,0c0,0,0,0,.1,0h.3c0,0,.1-.1.1-.2s0-.1-.1-.1h-.2c0,0-.1,0-.1,0,0,0,0,0-.1,0h-.5c0,0-.2,0-.3,0h-1s-.1,0-.1,0h0c0,0-.1,0-.2,0,0,0-.1.2-.1.2,0,0,0,0,0,.1,0,0,0,0,.1,0h0Z" style="fill: #38568b;"/>
    <path d="M33.2,34.9h0s0,0,0,0c0,0,0,0,.2,0h.2c0,0,.2,0,.2,0,.2,0,.4,0,.6,0s.3,0,.5,0h.5s0,0,.1,0c0,0,0,0,.1,0h.3c0,0,.1-.1.1-.2s0-.1-.1-.1h-.2c0,0-.1,0-.1,0,0,0,0,0-.1,0h-.5c0,0-.2,0-.3,0h-1s0,0-.1,0h0c0,0-.1,0-.2,0,0,0-.1.2,0,.2,0,0,0,0,0,.1,0,0,0,0,0,0h0Z" style="fill: #38568b;"/>
    <path d="M16,6.7c-.2,0-.3-.1-.5,0-.2,0-.4.2-.6.3-.2.2-.5.3-.7.6-.5.5-.9,1.1-1.3,1.8-.7,1.2-1.1,2.6-1.1,4.1s.6,2.6,1.6,3.6c.9.9,2.1,1.3,3.3,1.6,1.4.3,2.9.3,4.3-.2,1.1-.4,2.1-1.2,2.8-2.1.8-1,1.2-2.3,1.3-3.6,0-1.4-.3-2.9-1-4.2-.3-.6-.6-1.2-1.1-1.7-.2-.3-.5-.5-.8-.7-.3-.2-.6-.4-.9-.5-1.2-.5-2.6-.6-3.8-.2-.3,0-.5.2-.8.3-.3.1-.5.4-.3.7s.4.4.7.3c.1,0,.2,0,.3-.1,0,0,0,0,0,0-.1,0,0,0,0,0,0,0,.1,0,.2,0,.2,0,.5,0,.8,0h0s-.2,0,0,0h.2c.1,0,.3,0,.4,0,.1,0,.2,0,.4,0,0,0,.1,0,.2,0,0,0,0,0,0,0s.2,0,0,0c-.1,0,0,0,.1,0,0,0,.1,0,.2,0,.1,0,.2,0,.4.1.1,0,.2,0,.3.2,0,0,.1,0,.2,0,0,0-.1,0,0,0,0,0,0,0,0,0,.2.1.4.3.6.4.1,0,.2.2.3.3.1,0,0,0,0,0,0,0,0,0,0,0,0,0,.1.1.2.2.2.2.3.4.5.6,0,0,0,.1.1.2,0,0,0,0,0,0,0,0,0,.1,0,0,0,.1.1.3.2.4.2.5.4,1,.6,1.6,0,0,0,.1,0,0s0,0,0,0c0,0,0,.1,0,.2,0,.1,0,.3,0,.5,0,.3,0,.6,0,.9h0c0,0,0,0,0,0v.2c0,.2,0,.3,0,.5,0,.1,0,.2,0,.3,0,0,0,.1,0,.2,0,.1,0,0,0,0,0,0,0,0,0,.1,0,.2-.1.5-.2.7,0,.1-.1.2-.1.3,0,0,0,.1,0,.1,0,0,0,.1,0,0,0,0,0,0,0,0-.1.2-.3.4-.4.6,0,0-.1.2-.2.3,0,0,0,0-.1.1,0,0,0,0,0,0,0,0,0,0,0,0-.2.2-.4.3-.5.5,0,0-.2.1-.3.2,0,0-.1,0-.1,0,0,0,0,0,0,0s0,0,0,0c0,0,0,0,0,0,0,0-.1,0-.1,0,0,0-.1,0-.1,0-.1,0-.2.1-.4.1s-.2,0-.4.1c0,0,0,0-.1,0,0,0,.1,0,0,0,0,0-.2,0-.2,0-.3,0-.6,0-.9.1h-.3c-.1,0,.1,0,0,0-.2,0-.3,0-.5,0-.3,0-.6,0-.9-.1-.1,0-.2,0-.4,0,0,0,0,0,0,0-.1,0,.1,0,0,0,0,0-.1,0-.2,0-.2,0-.5-.2-.7-.3-.1,0-.2-.1-.3-.1,0,0-.1,0-.2,0,0,0,0,0,0,0-.1,0,.1,0,0,0-.2-.1-.4-.3-.6-.4-.1,0-.2-.2-.3-.2,0,0,0,0-.1-.1,0,0,0-.1,0,0,0,0,0,0,0,0-.2-.2-.3-.4-.4-.6,0,0,0-.1,0-.1,0-.1,0,.1,0,0,0-.1-.1-.2-.2-.3,0-.1-.1-.2-.1-.4,0,0,0,0,0-.1,0,0,0,.1,0,0,0,0,0-.2,0-.2,0-.1,0-.3,0-.4,0,0,0-.1,0-.2h0v-.2c0,0,0,0,0,0,0,0,0-.4,0-.4,0-.1,0-.3,0-.4,0-.1,0-.3,0-.4,0,0,0-.1,0-.2,0,0,0,.2,0,0,0,0,0,0,0-.1.2-.5.4-1.1.6-1.6.1-.2.2-.5.4-.7v.2c.2-.4.5-.9.8-1.3,0-.1.1-.2.2-.3s0,0,.1-.1c0,0,0,0,0,0h0c0,0,.1,0,.1,0v-.2c0,0,0,0,0,0,0,0,0,0,0,0,0,0,.2-.2.2-.3,0,0,0-.2,0-.3,0-.1,0-.3-.2-.3h0Z" style="fill: #38568b;"/>
  </g>
  <rect x="5.1" y="24.4" width="28" height="10.6" style="fill: #38568b;"/>
  <g>
    <path d="M10.5,27.7c-.1,0-.2,0-.2.3,0,.7,0,.7,0,1.4s0,.2,0,.3c0,0,.1.1.2.1h0s0,0,.1,0c.1,0,.1,0,.2,0,.3,0,.4-.1.4-.3s-.1,0-.1-.1c0,0,.1-.2.1-.2,0-.1,0-.2,0-.2s.1,0,.3,0c.3,0,.4,0,.4.3s0,0,0,.1h0c0,.2,0,.2,0,.3s.1,0,.1.1,0,0,0,.1,0,0,0,.1c0,0,0,.1,0,.2s0,0,0,0c0,.2,0,.2-.3.2s-.1.1-.2.1-.2-.1-.3-.1c-.3,0-.8,0-1.4,0s-.2,0-.2,0-.1,0-.2,0c0,0-.1,0-.2,0s-.1.1-.1.1c-.1,0-.2-.1-.2-.2s-.1-.1-.1-.2,0-.2,0-.3c0,0,.2,0,.2,0s0,0,.1,0,0,0,.1,0c0,0,0,0,0-.3,0-.7,0-.7,0-1.4s0-.4-.1-.4,0,0-.1.1c0,0-.1,0-.1,0,0,0-.1,0-.2,0s-.1-.1-.1-.2c0-.2.1-.4.4-.4s.2,0,.4,0c0,0,.2,0,.2,0s.1,0,.2,0,.1,0,.2,0c0,0,.1,0,.2,0,.2,0,.3-.1.3-.1.1,0,.2,0,.3,0s.1.2.1.3,0,.2,0,.3c0,0-.2.1-.2.1s0,0-.2,0c0,0-.1,0-.1,0h0Z" style="fill: #fff;"/>
    <path d="M15.4,29.5c0-.1.2-.2.2-.4-.3.2-.6.2-.8.2-.4,0-.6-.1-.8-.4s-.4-.5-.4-.8.2-.6.4-.8.5-.3.9-.3.9,0,1.2.4c.3.3.4.8.4,1.3s-.1,1-.5,1.3c-.3.3-.7.4-1.2.4s-.6,0-.8-.1-.3-.2-.3-.4,0-.2.1-.3.2-.1.3-.1.2,0,.3,0c0,0,0,.2,0,.2s.1,0,0,0c0,0,0,0,.1,0,.3,0,.4-.1.5-.3ZM15.6,28.1c0-.1,0-.3-.1-.4s-.2-.2-.4-.2-.3,0-.4.1-.1.3-.1.4,0,.3.1.4.3.2.4.2.3-.1.4-.2.1-.2.1-.3h0Z" style="fill: #fff;"/>
    <path d="M16.9,29.4c0-.4.3-.6.7-.8-.3-.1-.5-.4-.5-.7s0-.5.3-.7c.2-.2.6-.3.9-.3s.7,0,1,.3c.2.2.4.5.4.7s-.1.5-.5.6c.4.2.6.5.6.9s-.2.5-.4.7-.6.3-1,.3-.8-.1-1-.3-.5-.4-.5-.7h0ZM18.4,28.9c-.2,0-.4,0-.5,0s-.2.2-.2.4.1.2.2.3.3,0,.5,0,.3,0,.4-.1.2-.1.2-.3,0-.2-.2-.3-.2-.1-.4-.1h0ZM18.4,27.6c-.1,0-.3,0-.4,0,0,0-.1.2-.1.3s0,.2.2.2.2,0,.3,0,.2,0,.3-.1.1,0,.1-.2,0-.1-.1-.2c0,0-.2-.1-.3-.1h0Z" style="fill: #fff;"/>
    <path d="M20.2,29.4c0-.4.2-.7.6-.9-.3-.1-.5-.4-.5-.7s.2-.5.4-.7c.2-.2.6-.2.9-.2s.7.1.9.3.4.4.4.6-.1.5-.5.6c.4.2.6.5.6.9s-.2.5-.4.7-.6.4-1,.4-.8-.1-1-.4c-.3-.2-.4-.4-.4-.8h0ZM21.6,28.8c-.2,0-.3,0-.5.2s-.1.2-.1.3,0,.2.1.3.3.1.5.1.4,0,.5-.1.1-.2.1-.4,0-.2-.2-.3-.2-.2-.4-.2ZM21.6,27.5c-.1,0-.2,0-.3.1,0,0,0,.1,0,.2s0,.2.1.2c0,0,.2.1.3.1s.3,0,.4,0c0,0,0-.2,0-.3s0-.1-.1-.2c0,0-.2-.2-.3-.2h0Z" style="fill: #fff;"/>
    <path d="M26.4,27.6c-.1,0-.2,0-.2,0,0,0,0,.1,0,.2s-.1.1-.1.3,0,0,0,.1,0,0,.1,0c.1,0,.2,0,.2-.2s0,0-.1,0c0,0,0,0,0,0,0-.1.1-.1.3-.1s.2,0,.2.2,0,.1,0,.2c0,.1,0,.2,0,.3s0,.2,0,.3.1.2.1.3c0,.2-.1.3-.3.3s-.3-.1-.3-.3,0,0,0,0c0,0,0,0,0-.1s0-.2-.2-.2-.1.1-.1.2c0,.2,0,.2,0,.4s0,.2,0,.3c0,0,.1,0,.3,0s.1,0,.3,0c.2,0,.4,0,.4,0s.1,0,.1-.2,0-.1,0-.2c0,0,0-.1,0-.2,0-.1,0-.2.1-.2s.1,0,.2,0c.2,0,.3,0,.3.3v.3c0,.2,0,.3,0,.3s0,.1,0,.2c0,0,0,.1,0,.2,0,.2-.1.3-.3.3s-.2,0-.3-.1c-.2,0-.6,0-1.2,0-.2,0-.2,0-.5,0s-.3-.1-.4-.1c-.2,0-.2,0-.4,0,0,0,0,0,0,0h0c-.1,0-.2,0-.3,0,0,0-.1-.2-.1-.3s0-.2,0-.3c0,0,.2,0,.2,0s0,0,.1,0,0,0,.1,0c0,0,.1-.1.1-.3v-1.4c0-.2,0-.4-.1-.4s0,0-.1,0c0,0,0,0-.1,0,0,0-.2,0-.2,0s0-.2,0-.3c0-.2.1-.4.4-.4s.2,0,.3,0c.3,0,.5,0,.8,0s.2,0,.6,0c.3,0,.5,0,.5,0,.1,0,.3-.1.5-.1s.3.1.3.3,0,.1,0,.2c0,.1,0,.2,0,.2s0,.1,0,.2c0,.1,0,.2,0,.2,0,.1,0,.2,0,.3,0,0-.2.1-.3.1-.2,0-.4-.2-.4-.4s0-.1.1-.2,0-.1,0-.2c0,0-.1-.1-.2-.1,0,0,0,0-.2,0-.2,0-.2,0-.5,0h0Z" style="fill: #fff;"/>
    <path d="M13.6,31.7c0,.1,0,.1,0,.2.1,0,.2,0,.3,0,.2,0,.4,0,.5.2s.2.3.2.5,0,.4-.2.6c-.2.1-.4.2-.6.2s-.4,0-.5-.2c-.1,0-.2-.2-.2-.4s0-.2,0-.2c0,0,.1,0,.2,0s.1,0,.2,0,0,.1,0,.2,0,0,0,.1c0,0,.1,0,.2,0s.2,0,.2,0,.1-.1.1-.2,0-.1-.1-.2-.1-.1-.2-.1-.1,0-.2,0c-.1,0-.2,0-.2,0,0,0-.1,0-.2,0s0,0,0-.2h0s0,0,0,0c0-.2,0-.2,0-.5,0,0,0-.1,0-.2,0,0,0,0,.2,0,0,0,0,0,.1,0s.2,0,.3,0c.3,0,.3,0,.5,0,0,0,0,0,.1,0,0,0,.2,0,.2,0s0,0,0,0,0,0,0,0c0,0,0,0,0,.2s0,0,0,0c0,0,0,.1,0,.2s-.1,0-.2,0c-.1,0-.1-.1-.2-.2,0,0,0,0,0,0,0,0,0,0,0,0-.2,0-.2,0-.3,0s0,0,0,0c0,0,0,0,0,0h0Z" style="fill: #fff;"/>
    <path d="M16.5,32.4c-.2,0-.3,0-.4.1,0,0,0,0-.1.2,0-.1.2-.1.4-.1s.2,0,.3.1.2.2.2.2,0,0,0,0c-.1,0-.2,0-.2-.2s0-.1,0-.2c0,0,.1,0,.2,0,0,0,.1,0,.2,0,0,0,.1.2.1.2s-.1.2-.2.3-.2.2-.3.2-.3,0-.4-.2c-.1,0-.2,0-.2,0s0,0,0,0c0,0,0,0,0,0,0,0,0,.1,0,.2s-.1,0-.2,0c-.1,0-.2,0-.2-.1,0,0-.1-.2-.1-.3,0-.3.2-.6.7-.8.2,0,.3-.1.3-.2,0,0,.1,0,.1-.1s0-.1-.1-.1c0,0-.1,0-.2,0s-.1,0-.2,0c0,0,0,0,0,.1,0,0,0,.1-.1.2,0,0-.1,0-.2,0s-.1,0-.2-.1-.1-.1-.1-.2c0-.2,0-.3.2-.4s.4-.1.6-.1.5,0,.6.1.1.3.1.5,0,.3-.2.4c-.1,0-.3.1-.5.2h0Z" style="fill: #fff;"/>
    <path d="M18.6,31.5c-.3,0-.4.2-.4.5.2-.1.4-.2.5-.2s.4,0,.5.2c.1.1.1.3.1.5s0,.4-.2.5c-.1.1-.4.2-.6.2s-.5,0-.7-.3-.2-.4-.2-.7,0-.6.3-.8c.2-.2.4-.3.7-.3s.3,0,.4.1.2.1.2.3,0,.1-.1.2,0,.1-.2.1-.1,0-.2,0c0,0,0-.1,0-.1s0,0,0-.1c0,0-.1,0-.1,0h0ZM18.9,32.6c0,0,0-.2-.1-.2,0,0-.2,0-.3,0s-.2,0-.2,0-.1,0-.1.2,0,.2.1.2.1,0,.2,0,.2,0,.2,0,.1-.1.1-.2h0Z" style="fill: #fff;"/>
    <path d="M20.9,31.7c0,.1,0,.1,0,.2.1,0,.3,0,.4,0,.2,0,.4,0,.5.2.1.1.1.3.1.5s0,.4-.2.5-.4.2-.6.2-.4,0-.5-.2c-.1,0-.2-.2-.2-.4s0-.2,0-.2c0,0,.1,0,.2,0s.1,0,.2,0c0,0,.1,0,.1.2s0,0,0,.1c0,0,.1,0,.2,0s.2,0,.2-.1,0-.1,0-.2,0-.1-.1-.2c0,0-.1,0-.2,0s-.1,0-.2,0c-.1,0-.2,0-.2,0,0,0-.1,0-.2,0,0,0,0-.1,0-.2h0c0-.3,0-.3,0-.6,0,0,0-.1,0-.2,0,0,0,0,.1,0,0,0,0,0,.1,0s.2,0,.3,0q.3,0,.5,0c0,0,0,0,.1,0s.1,0,.1,0,0,0,0,0,0,0,0,0c0,0,0,0,0,.2,0,0,0,0,0,0,0,0,0,0,0,.1s0,0-.1,0c-.1,0-.1,0-.2-.2,0,0,0,0,0,0,0,0,0,0,0,0-.2,0-.2,0-.3,0s0,0,0,0c0,0,0,0,0,0Z" style="fill: #fff;"/>
    <path d="M23.2,33.2c-.3,0-.5,0-.7-.2s-.2-.5-.2-.8,0-.6.2-.8c.2-.2.4-.2.7-.2s.5,0,.6.3c.2.2.3.4.3.7s-.1.6-.3.8-.4.3-.6.3h0ZM23.2,31.5c-.1,0-.2,0-.3.2,0,.1-.1.3-.1.5s0,.3.2.5.1.2.2.2.2,0,.3-.2c0-.1,0-.3,0-.5s0-.4,0-.5c0-.1-.2-.2-.3-.2Z" style="fill: #fff;"/>
  </g>
</svg>