<?xml version="1.0" encoding="UTF-8"?>
<svg id="b" data-name="genre prop" xmlns="http://www.w3.org/2000/svg" viewBox="0 0 36 36">
  <defs>
    <style>
      path {
      	fill: #38568b;
      }
      .c {
        fill: #fff;
      }
    </style>
  </defs>
  <path class="c" d="M7.07,24.96s-5.93-1.8-5.87-8.54c.05-6.73,4.47-8.7,4.47-8.7,0,0-2.48,3.8,1.4,4.5,3.34.6,7.44-1.21,9.27-1.21s6.63.54,6.63.54c0,0-9-7.52.48-9.97,10.13-2.61,7.44,7.09,7.44,7.09,0,0,1.29.48,2.05.22s1.72-.65,1.72-.65c0,0-.7,1.99-1.19,2.69s-2.05,1.35-2.05,1.35c0,0,4.74,3.07,3.07,6.57s-2.96,5.41-2.96,5.41c0,0-2.8,2.69-5.98-.11-1.78,1.51-2.8,3.13-4.42,3.07s-5.33-.86-7.65-3.23c-2.48,2.32-6.41.97-6.41.97Z"/>
  <g>
    <path d="M5.22,7.25c-.2.31-.39.64-.56.97s-.26.72-.3,1.1c-.08.65-.06,1.41.24,2.01.32.63.87,1.09,1.51,1.35.75.3,1.6.31,2.39.24,1.64-.14,3.27-.35,4.9-.49.4-.03.8-.06,1.2-.09.19-.01.39-.02.58-.02.09,0,.18,0,.27,0-.15,0,0,0,.02,0,.06,0,.11,0,.17,0,.79.03,1.57.13,2.36.24.87.12,1.73.26,2.61.33.48.04.95.05,1.43.04.22,0,.46,0,.68-.04.27-.05.52-.15.78-.25.32-.13.56-.49.5-.84s-.32-.66-.69-.69c-.42-.03-.82-.05-1.24-.03-.08,0-.17,0-.26,0-.05,0-.25,0-.1,0-.18,0-.37,0-.55-.02-.73-.04-1.45-.14-2.18-.24-1.52-.22-3.02-.42-4.55-.33-.76.05-1.51.17-2.25.29s-1.51.24-2.26.36-1.52.27-2.28.35c-.33.03-.62.03-.96-.02-.16-.02-.19-.03-.29-.06-.15-.05-.29-.11-.42-.18-.06-.03-.02-.01,0,0-.04-.02-.07-.05-.11-.08-.06-.05-.12-.09-.18-.15s-.16-.18-.22-.28c-.17-.29-.19-.56-.12-.88s.23-.62.38-.91c.17-.32.33-.67.49-.94.17-.28.18-.64-.11-.86-.24-.19-.68-.18-.86.11h0Z"/>
    <path d="M23.36,10.99s-.06-.07-.09-.1l.13.33h0c-.02-.25-.21-.53-.45-.6-.09-.03-.16-.08-.25-.12-.08-.03-.16-.05-.24-.09-.17-.07-.33-.15-.49-.24l.2.12c-.37-.22-.71-.5-1.02-.81l.17.17c-.3-.31-.56-.66-.78-1.04l.11.2c-.15-.27-.28-.56-.38-.86-.03-.07-.05-.15-.07-.22,0-.03-.02-.07-.03-.1.08.28.03.12.02.06-.03-.15-.06-.31-.08-.46s-.03-.31-.04-.47c0-.04,0-.07,0-.11,0-.11,0,.23,0,.08,0-.09,0-.18.01-.26.03-.32.08-.64.16-.95l-.06.23c.13-.48.32-.93.57-1.36l-.12.21c.27-.46.6-.88.98-1.26l-.17.16c.3-.29.62-.56.97-.79.08-.06.17-.11.25-.16.06-.03.24-.13,0,0,.05-.03.1-.05.15-.08.19-.1.39-.18.59-.26.11-.04.22-.08.33-.11.06-.02.11-.03.17-.05.02,0,.11-.03,0,0-.13.03.02,0,.04,0,.23-.05.47-.09.71-.12s.48-.04.72-.04c.05,0,.14.01-.05,0,.02,0,.05,0,.08,0,.06,0,.12,0,.18,0,.13,0,.25.02.38.03.24.02.48.05.72.09.12.02.23.04.35.07.05.01.14.05.2.05,0,0-.13-.04-.06-.01.04.01.08.03.12.04.47.15.92.34,1.35.57.05.03.1.06.16.08.03.02.11.09.15.08,0,0-.13-.08-.06-.04.03.02.05.03.08.05.05.03.1.07.15.1.19.12.36.26.53.4.04.04.08.07.12.11.13.12-.07-.08.01.01.08.09.15.17.22.26.03.04.06.09.09.13.01.02.1.18.05.08s.03.06.04.08c.03.06.05.11.07.17.01.03.02.06.03.1l.02.05c.02.06.02.07,0,.02v-.03s0,.04,0,.05c0,.05.02.09.03.14.03.15.04.29.06.44.03.31.05.63.04.95,0,0,0-.11,0-.03,0,.05,0,.1,0,.14,0,.08,0,.15,0,.23,0,.19-.03.39-.03.58,0,.08,0,.15,0,.23,0,.04,0,.08,0,.11,0-.14,0,.07,0,.14,0,.07.03.15.04.22,0,.06,0,.01,0,0,0,.06,0,.12-.01.17-.02.27.16.56.45.59.31.03.51-.16.59-.45,0-.04.02-.08.03-.11,0,0,.03-.08.01-.04-.02.04.02-.04.02-.04.02-.03.04-.07.05-.1.07-.15.1-.33.14-.49.06-.27.07-.53.08-.8.02-.58.02-1.17-.06-1.75s-.26-1.08-.58-1.54c-.27-.39-.63-.73-1.01-1-.8-.58-1.7-.97-2.63-1.27-.99-.33-2.01-.47-3.05-.41-1.9.12-3.66,1.05-4.83,2.55s-1.68,3.4-1.22,5.21c.43,1.7,1.66,3.33,3.41,3.82.14.04.29.09.44.11.09.01.19,0,.28,0,.06,0,.23,0,0-.01.32,0,.65-.12.78-.45h0c-.08.09-.15.19-.23.28.04-.03.08-.06.12-.08.22-.17.32-.56.12-.79h0Z"/>
    <path d="M30.31,8.09c-.08.12-.12.2-.15.34-.02.08-.02.16,0,.24.02.17.09.32.17.46.02.03.04.06.07.09.06.06.12.13.19.18s.15.1.23.14c.04.02.09.05.13.07.12.05.26.09.39.11.14.03.28.02.42.02.24,0,.46-.05.69-.11.35-.09.69-.24,1.02-.38.36-.15.71-.33,1.04-.55.2-.13.38-.29.55-.46.07-.06.13-.13.19-.2.06-.08.11-.16.14-.25.02-.09.06-.18.07-.27s0-.2-.03-.28c-.05-.12-.13-.21-.24-.27-.2-.11-.42-.09-.61.03-.04.02-.07.05-.11.07-.08.05-.15.12-.21.19-.06.07-.12.14-.19.2l.12-.12c-.21.2-.45.37-.71.51l.14-.08c-.25.14-.52.26-.79.37-.29.12-.58.24-.89.32l.16-.04c-.19.05-.39.09-.59.09h.16c-.11,0-.23-.01-.34-.04l.15.04c-.09-.03-.18-.06-.26-.11l.14.08s-.08-.05-.11-.08l.11.11s-.07-.08-.09-.12l.07.13s-.03-.07-.05-.11l.04.14s0-.05,0-.07v.15s0-.04,0-.06l-.04.15s.01-.03.02-.04l-.08.13h0c.05-.07.08-.14.1-.22.03-.07.03-.14.02-.22-.02-.14-.1-.3-.22-.39s-.27-.14-.43-.12-.3.09-.39.22h0Z"/>
    <path d="M34.1,7.51c-.03.16-.07.32-.1.49s-.04.32-.07.48c-.05.32-.12.63-.2.95l.04-.13c-.05.18-.09.37-.17.54s-.17.34-.26.5l.06-.11c-.19.32-.4.62-.66.88l.09-.09c-.21.19-.45.36-.7.51l.12-.07c-.24.13-.49.23-.75.3l.15-.04c-.08.02-.16.04-.23.05-.04,0-.08.01-.11.02-.13.02-.19.06-.3.12-.02.01-.04.02-.06.03l.13-.07s-.02.01-.03.02l-.13.07c-.06.04-.11.1-.15.17-.06.1-.1.23-.08.35.02.1.05.19.11.27.09.13.23.19.38.22.09.02.17.04.27.03.09,0,.18-.04.27-.07.09-.03.18-.06.27-.1.21-.09.42-.2.62-.33.16-.11.31-.23.46-.36.17-.16.32-.33.48-.5.31-.33.55-.71.76-1.1.05-.1.1-.2.15-.29s.11-.2.16-.3c.11-.2.21-.41.3-.62.1-.24.2-.48.29-.72.11-.29.18-.59.26-.89.04-.15-.04-.38-.13-.5-.1-.14-.29-.25-.46-.27s-.36.02-.5.13c-.15.12-.23.27-.27.46h0Z"/>
    <path d="M27.43,5.59s-.03,0-.05,0c-.04,0-.06.02-.12.03-.15.04-.18.04-.34.15-.1.08-.15.12-.19.2-.05.09-.1.17-.15.26-.03.05-.05.1-.07.15-.01.03-.02.06-.03.08-.04.11-.06.22-.09.33-.01.05-.02.11-.02.17,0,.1,0,.2,0,.3,0,.02,0,.03,0,.05,0,.03,0,.07,0,.1.01.14.05.26.13.37.06.13.14.23.26.31.11.09.23.15.36.17.12.05.25.06.39.04l.25-.06c.17-.07.31-.18.43-.32l.14-.24c.07-.17.09-.34.07-.52-.01-.07-.02-.14-.01-.2v.26s0-.08,0-.12,0-.08,0-.12c0-.08.02-.15.04-.22l-.07.24s.02-.05.02-.08c.03-.08.06-.16.07-.26v-.25c-.02-.08-.04-.16-.06-.24l-.12-.22s0,0,0,0c0,0,0-.01,0-.02l.12.21s0-.02-.01-.03l-.11-.2c-.07-.1-.16-.18-.27-.23-.06-.05-.13-.08-.21-.09-.11-.04-.22-.05-.34-.03h0Z"/>
    <path d="M30.95,12.87c.05.08.01.03,0,.01.04.08.08.13.14.19.06.05.16.09.23.13.03.02.06.03.08.05-.01,0,.12.07.07.04-.04-.03.04.02.05.03.03.02.07.04.1.06.23.14.46.28.67.44.1.07.2.15.3.22.05.04.1.08.14.12.08.07.01.01,0,0,.02.04.05.08.08.11.16.2.32.4.46.62.01.02.03.05.04.07,0,0-.08-.14-.03-.05.05.09.1.17.15.26.01.02.03.05.04.07-.09-.12-.05-.1-.03-.05.03.06.06.12.09.18.1.22.19.44.26.67.02.05.03.11.05.16.01.05.02.13-.02-.06,0,.03.01.06.02.08.03.12.05.24.07.36.04.24.06.48.07.73,0,.06,0,.13,0,.19-.02-.26,0-.02,0,.05,0,.13-.02.27-.03.4-.03.27-.08.54-.15.8l.06-.22c-.09.35-.22.69-.33,1.03s-.21.72-.39,1.05l.12-.21c-.18.31-.45.59-.68.86-.3.35-.61.7-.94,1.02l.18-.17c-.14.14-.28.27-.43.41-.19.17-.36.35-.54.53l.16-.16c-.12.12-.25.24-.36.37-.07.08.14-.12.07-.07-.02.01-.04.03-.06.04-.04.03-.08.06-.12.08-.11.07.17-.09.02-.01-.13.07-.23.14-.33.25,0,.01-.02.02-.03.03-.05.06.06-.05.06-.06-.08.06-.17.16-.2.25l.37-.28s-.21.05-.12.03c.08-.02-.01,0-.03,0-.33.05-.49.5-.2.72.07.05.15.11.23.13l-.25-.25c.04.12.15.22.25.29.2.13.4.18.64.16.08,0,.16-.02.23-.04s.16-.04.23-.06c-.23.06-.15.04-.1.03.11-.02.23-.05.33-.08.59-.16,1.05-.6,1.47-1.02.34-.33.65-.69.95-1.05s.6-.7.8-1.1c.28-.55.37-1.18.53-1.77l-.06.22c.08-.31.17-.61.21-.93s.05-.66.05-.99c0-.6-.11-1.18-.28-1.75s-.43-1.12-.77-1.6c-.18-.25-.41-.48-.65-.67-.11-.09-.22-.17-.33-.25-.07-.04-.14-.08-.21-.12-.03-.02-.06-.05,0,0-.06-.05-.13-.09-.19-.14-.31-.21-.63-.4-.96-.58-.15-.08-.31-.16-.46-.24-.07-.04-.14-.07-.21-.11-.13-.06-.25-.05-.39-.04-.13,0-.25.11-.3.23-.05.13-.02.25.05.37h0Z"/>
    <path d="M4.82,8.35c.22,0,.17-.33-.04-.33s-.17.33.04.33h0Z"/>
    <path d="M5.73,7.28c-.08-.03-.17-.07-.25-.09-.1-.01-.22.02-.33.05-.25.06-.46.18-.68.32-.36.25-.7.54-1.01.84-.68.67-1.25,1.42-1.72,2.25s-.78,1.68-1.03,2.56c-.29,1.04-.36,2.1-.5,3.17-.07.55-.14,1.13,0,1.67.12.5.31.97.52,1.44.3.64.65,1.27,1.04,1.87.67,1.03,1.52,1.97,2.56,2.63.72.46,1.49.81,2.32,1.04.51.14,1.02.24,1.55.27.3.02.61.03.91.01.18-.01.37-.02.54-.08.13-.05.25-.11.38-.16.46-.18.42-.8,0-1-.24-.12-.36-.21-.71-.3,0,0-.23-.06-.11-.03.15.04-.19-.05-.24-.06-.11-.03-.23-.05-.34-.07-.2-.04-.39-.09-.59-.14-.16-.04.02,0,.04.01-.05,0-.1-.03-.15-.04-.17-.05-.34-.09-.51-.13-.04,0-.08-.02-.12-.03-.2-.05.16.05.03,0-.08-.02-.17-.05-.25-.07-.18-.06-.36-.12-.53-.18-.3-.12-.6-.25-.89-.39-.07-.03-.13-.07-.2-.1-.04-.02-.27-.15-.1-.06s-.06-.04-.1-.06c-.07-.04-.13-.09-.2-.13-.24-.16-.47-.34-.68-.53-.1-.09-.2-.18-.29-.27-.03-.03-.05-.05-.08-.08-.09-.08.18.18.06.06-.05-.05-.1-.1-.15-.16-.18-.2-.35-.4-.51-.61-.31-.41-.59-.84-.85-1.28-.06-.1-.11-.19-.17-.29.09.17-.06-.11-.08-.15-.11-.2-.21-.41-.3-.62-.08-.18-.16-.37-.22-.56,0,0-.06-.21-.04-.11.03.1-.03-.14-.02-.13-.02-.13-.05-.26-.06-.38-.12-.94-.03-1.85.11-2.81.13-.92.27-1.83.66-2.67.37-.78.89-1.5,1.49-2.19.31-.36.6-.65.98-.94.17-.14.36-.26.52-.4.08-.07.15-.14.22-.21.12-.12.15-.23.19-.34.05-.12,0-.27-.13-.32h0Z"/>
    <path d="M1.7,27.12c.69.66,1.55,1.15,2.47,1.4s1.82.36,2.75.39c.51.02,1.01.02,1.52.02.55,0,1.09-.07,1.62-.25.91-.31,1.68-.93,2.33-1.62.36-.38.69-.79.98-1.22.18-.27.37-.54.49-.83.11-.28.19-.56.26-.86.05-.2-.09-.42-.26-.52s-.42-.11-.57.03c-.2.17-.39.35-.58.54-.16.17-.29.33-.43.52-.27.36-.55.71-.84,1.05-.14.17-.3.33-.45.49-.06.06.08-.08.07-.07-.02.02-.04.04-.06.06-.04.04-.08.07-.11.11-.08.07-.16.14-.25.21-.15.13-.32.24-.48.35-.04.03-.08.05-.12.08-.02.01-.04.02-.05.03-.11.07.07-.04.07-.04,0,.02-.11.06-.13.07-.05.02-.1.05-.15.07-.08.04-.16.07-.25.1-.04.02-.09.03-.14.05-.03,0-.22.06-.08.03s-.05,0-.08.02c-.06.01-.13.02-.19.03-.14.02-.27.03-.41.04-.25.02-.5.01-.75.02-.1,0-.2,0-.31,0-.13,0,.18,0,0,0-.06,0-.12,0-.18,0-.84-.01-1.69-.06-2.51-.24-.06-.01-.11-.03-.17-.04-.02,0-.04-.01-.06-.02-.15-.04.13.04.04.01-.11-.03-.23-.07-.34-.1-.23-.07-.45-.16-.66-.25-.11-.05-.22-.1-.32-.16-.02-.01-.04-.02-.06-.03-.14-.07.11.07.03.02-.05-.03-.1-.06-.16-.1-.22-.14-.42-.3-.62-.47-.28-.24-.77-.18-.98.12-.24.34-.16.71.12.98h0Z"/>
    <path d="M12.91,24.48c.28.96.94,1.75,1.73,2.35.85.64,1.85,1.1,2.88,1.36,1.11.29,2.28.37,3.42.28,1.21-.1,2.4-.45,3.42-1.1.5-.32.95-.75,1.31-1.22.19-.26.36-.54.46-.84.12-.34.09-.67.01-1.01-.05-.21-.16-.38-.39-.44s-.41.02-.55.18c-.03.03-.05.06-.08.09-.02.02-.1.11-.02.02s0,0-.02.01c-.03.02-.06.05-.08.07-.16.14-.27.29-.39.46-.2.25-.38.5-.6.73l.17-.16c-.34.33-.73.61-1.14.84l.2-.11c-.33.18-.68.33-1.04.45-.1.03-.21.06-.31.09-.18.05.16-.04.04-.01-.04,0-.09.02-.13.03-.21.05-.42.08-.64.11-.2.03-.4.05-.6.06-.11,0-.22.01-.33.01-.04,0-.07,0-.11,0-.04,0-.07,0-.11,0,.14,0,.16,0,.06,0-.41,0-.82-.04-1.23-.09-.35-.05-.7-.11-1.04-.2-.07-.02-.15-.04-.22-.05-.04-.01-.09-.02-.13-.03.27.06.1.03.04.01-.18-.05-.35-.11-.53-.17-.31-.11-.62-.24-.91-.39-.08-.04-.16-.08-.23-.13-.15-.08.18.11.04.02-.02-.02-.05-.03-.07-.05-.15-.09-.29-.19-.43-.29-.15-.11-.29-.23-.42-.35-.03-.03-.06-.06-.09-.09-.11-.11.14.15.02.02-.06-.07-.12-.13-.18-.2-.11-.14-.22-.28-.32-.42-.04-.07-.09-.13-.13-.2-.08-.13.08.15.01.02-.02-.05-.05-.1-.07-.15-.15-.33-.54-.54-.9-.39s-.49.52-.39.9h0Z"/>
    <path d="M25.1,24.45c-.01.11-.03.22-.01.33.01.13.06.25.09.38.04.15.09.31.16.46.15.34.42.66.66.93.27.29.55.56.86.8s.66.46,1.01.65c.66.37,1.36.61,2.08.8.41.11.83.17,1.25.21.49.04.99.04,1.48-.02s1.01-.18,1.47-.4c.34-.16.65-.34.88-.65.19-.25.31-.54.28-.86-.01-.12-.05-.23-.08-.35-.06-.24-.34-.4-.56-.44-.05,0-.1-.02-.15-.03l.23.06c-.19-.05-.35-.09-.54-.07-.13.02-.25.06-.38.1-.19.06-.35.17-.52.26l.24-.14c-.33.18-.68.3-1.04.39l.26-.07c-.48.12-.97.17-1.46.17h.26c-.71,0-1.43-.11-2.12-.3l.24.06c-.62-.17-1.21-.41-1.76-.73l.2.12c-.44-.26-.84-.56-1.2-.92l.15.15c-.1-.1-.19-.2-.27-.3-.12-.15-.25-.29-.39-.43l.14.14c-.09-.1-.19-.2-.27-.3-.11-.14-.23-.25-.36-.37-.3-.25-.8-.05-.84.34h0Z"/>
    <path d="M.88,33.01c.36.12.74.14,1.11.06.35-.08.67-.21.98-.37s.6-.33.88-.51c.24-.15.48-.32.7-.5.16-.13.31-.28.45-.43.06-.06.1-.14.13-.22.03-.06.05-.11.06-.17s.02-.11.02-.17c0-.07,0-.15,0-.22,0-.14-.11-.26-.22-.33s-.27-.09-.39-.03c-.05.02-.11.05-.16.07-.1.04-.19.12-.27.19-.09.08-.16.17-.24.26-.05.05-.1.1-.15.15l.11-.11c-.38.37-.84.66-1.28.96-.14.09-.28.18-.43.26l.12-.07c-.22.12-.44.22-.68.29l.13-.03c-.14.03-.28.06-.42.06h.13c-.12,0-.23-.02-.35-.05-.11-.03-.27.03-.36.09-.09.07-.15.16-.18.26-.03.1-.03.21.01.31.05.12.14.23.27.27h0Z"/>
    <path d="M4.56,30.43c.28,2.51,2.79,4.04,5,4.68,1.39.4,2.86.51,4.29.33,1.34-.17,2.6-.62,3.75-1.32.61-.37,1.14-.82,1.64-1.33.27-.27.48-.55.67-.88.18-.31.38-.64.39-1.01,0-.34-.1-.64-.41-.82-.28-.17-.63-.15-.91.04s-.42.44-.63.67c-.17.19-.34.38-.51.57-.08.09-.17.18-.26.27.23-.25.06-.05,0,0-.05.05-.11.1-.16.14-.2.17-.41.33-.62.49-.11.07-.21.14-.32.21-.05.03-.11.07-.17.1-.02.01-.05.03-.07.04-.14.08,0,.01.06-.03-.2.16-.5.25-.73.35-.25.11-.51.2-.77.29-.13.04-.27.08-.4.12-.06.02-.16.02.06-.01-.03,0-.06.02-.09.02-.08.02-.17.04-.25.06-.62.13-1.25.19-1.89.19-.03,0-.14,0,0,0,.14,0,0,0-.04,0-.08,0-.15,0-.23,0-.16,0-.32-.02-.48-.03-.31-.03-.62-.07-.93-.13s-.61-.11-.91-.18c-.03,0-.06-.02-.09-.02-.16-.04.02,0,.04.01-.07-.01-.15-.04-.22-.06-.14-.04-.27-.09-.41-.13-.25-.09-.5-.19-.75-.31-.12-.05-.23-.11-.35-.17-.06-.03-.11-.06-.17-.09-.13-.07.03.02.05.03-.03-.02-.06-.04-.09-.06-.25-.16-.5-.33-.72-.51-.11-.09-.21-.18-.32-.27-.06-.05-.11-.1-.17-.16-.01-.01-.08-.08,0,0,.08.09-.03-.04-.04-.04-.18-.2-.34-.41-.49-.64-.04-.05-.07-.11-.1-.17.07.12-.03-.07-.05-.1-.06-.13-.11-.26-.15-.39-.08-.25-.39-.39-.64-.32-.26.07-.43.31-.4.59h0Z"/>
    <path d="M20.03,30.79c.13,0,.1-.2-.02-.2s-.1.2.02.2h0Z"/>
    <path d="M18.87,30.84c.27.5.54.99.84,1.47s.69.9,1.12,1.27c.78.67,1.73,1.12,2.72,1.39s2.08.36,3.11.16,2.02-.6,2.87-1.22c.46-.33.88-.72,1.24-1.15.25-.3.42-.63.49-1.02.06-.31.07-.62-.06-.92-.13-.32-.49-.46-.8-.35s-.57.32-.82.54c-.3.25-.52.6-.8.88l.2-.19c-.37.36-.79.67-1.25.93l.23-.13c-.46.25-.94.45-1.45.58l.26-.07c-.55.14-1.12.2-1.69.21h.26c-.57,0-1.14-.08-1.7-.22l.24.07c-.53-.14-1.04-.35-1.51-.62l.22.13c-.43-.25-.82-.55-1.17-.91l.17.17c-.16-.16-.31-.33-.47-.49l.17.17c-.41-.43-.76-.91-1.11-1.39-.22-.31-.65-.38-.97-.2-.3.17-.52.6-.34.93h0Z"/>
    <path d="M30.28,31h0s.03-.1.04-.15c0,.01,0,.02-.01.03-.02.05-.05.14-.05.19v.09c0,.09,0,.18.04.27.02.04.03.07.05.11.03.07.06.14.1.21.1.2.2.39.32.58.08.13.18.25.29.36.16.17.32.33.5.47s.37.26.57.36c.12.06.25.11.38.15.21.06.41.12.63.14s.43.02.64-.02c.15-.03.29-.06.44-.11.02,0,.04-.01.05-.02.04-.02.09-.05.12-.07.05-.03.09-.04.12-.07.03-.02.06-.04.08-.07.08-.07.16-.15.24-.23s.12-.18.16-.28c.02-.06.06-.12.08-.19l.05-.18v-.18c-.01-.06-.03-.12-.04-.18-.03-.09-.08-.17-.16-.23-.04-.05-.09-.09-.15-.12-.05-.04-.11-.06-.17-.07-.06-.02-.12-.03-.18-.02-.09,0-.18,0-.27.04-.03.01-.07.02-.1.03l.19-.05s-.06.01-.1.01h.21s-.04,0-.06,0c-.08,0-.17,0-.24,0s-.16.04-.24.06l.22-.06c-.06.01-.11.03-.17.03-.14.02-.27.07-.4.1l.23-.06c-.18.04-.35.06-.53.06h.24c-.18,0-.36-.02-.53-.07l.23.06c-.19-.05-.36-.13-.53-.23l.21.12c-.24-.14-.46-.33-.66-.53l.16.17c-.09-.09-.17-.18-.26-.27-.04-.03-.08-.07-.11-.1-.08-.07-.15-.14-.22-.21l.15.15c-.06-.06-.11-.12-.17-.18-.03-.03-.05-.06-.08-.09-.03-.04-.07-.07-.1-.11-.04-.05-.09-.09-.15-.12-.05-.04-.11-.06-.17-.07-.06-.02-.12-.03-.18-.02-.03,0-.07,0-.1,0h.18s-.03,0-.05,0c-.08-.01-.17,0-.25.02-.08.01-.16.05-.23.1l-.12.12c-.07.09-.12.2-.13.31h0Z"/>
  </g>
</svg>