<?xml version="1.0" encoding="UTF-8"?>
<svg id="b" data-name="quick comic" xmlns="http://www.w3.org/2000/svg" viewBox="0 0 36 36">
  <defs>
    <style>
      path {
      	fill: #38568b;
      }
      .c {
        fill: #fff;
      }
    </style>
  </defs>
  <path class="c" d="M30.24,28.6s-4.04-2.96-7.33-3.34-9.54-.38-9.54-.38c0,0-1.08-3.45-1.72-4.8s-1.45-2.53-1.45-2.53c0,0-3.24.3-5.55-.43C.55,15.83-.26,13.41-.26,13.41V-.12h.92S6.8.96,10.79,4.57c3.16,2.86,4.09,8.24,4.09,8.24,0,0,2.16,1.13,3.29,1.13s2.8.16,2.8.16c0,0,4.31,6.03,5.87,8.51s3.39,5.98,3.39,5.98ZM17.85,17.93c-1.9,1.52.81,4.36,2.48,2.75s-1.67-3.39-2.48-2.75Z"/>
  <g>
    <path d="M4.72,1.64c1.08.49,2.17.92,3.2,1.51s1.96,1.27,2.81,2.05c.1.1.21.19.31.29.06.06.11.11.17.17,0,0,.08.08.04.04-.04-.04.05.05.06.06.2.21.39.42.57.64.37.44.69.9.98,1.39,0,.02.06.11.02.04s.01.03.02.04c.03.06.06.12.09.18.06.13.13.25.18.38.12.26.22.52.31.79.04.12.05.28.11.38,0-.01-.04-.16,0-.03,0,.03.02.06.02.1.02.07.03.14.05.22.05.28.09.55.1.83,0,.07,0,.15.01.22,0,.03,0,.07,0,.1,0,.18,0-.18,0,0,0,.13-.01.26-.02.39-.01.14-.03.27-.06.41-.01.06-.02.13-.04.19-.01.05-.06.16-.05.21,0,0,.06-.22.02-.09-.01.03-.02.07-.03.1-.02.07-.04.14-.07.21-.05.13-.09.26-.15.38-.11.25-.24.5-.38.74l.13-.21c-.33.57-.75,1.09-1.22,1.55l.19-.18c-.46.44-.97.82-1.53,1.13l.22-.12c-.52.29-1.07.51-1.64.66l.24-.06c-.57.15-1.15.21-1.74.21h.25c-.67,0-1.33-.1-1.98-.27l.25.07c-.76-.21-1.48-.52-2.16-.91l.23.13c-.74-.43-1.42-.96-2.02-1.57l.18.19c-.23-.24-.45-.48-.69-.71-.22-.21-.49-.34-.78-.43-.22-.08-.46-.07-.66.08-.21.15-.27.37-.27.62,0,.19,0,.35.07.53.07.19.16.38.28.55.2.29.46.54.71.79.39.39.81.74,1.26,1.06,1.03.73,2.16,1.25,3.37,1.57,1.11.29,2.31.36,3.45.16s2.23-.67,3.18-1.34c.47-.34.9-.74,1.3-1.16s.7-.9.98-1.41c.54-.98.79-2.11.77-3.23-.04-2.45-1.65-4.6-3.37-6.2-.89-.82-1.87-1.56-2.9-2.18s-2.17-1.2-3.36-1.55c-.3-.09-.59-.17-.9-.22s-.41.39-.14.52h0Z"/>
    <path d="M9.17,17.51c.01.2.15.36.25.52.06.1.13.19.19.28.13.19.26.38.38.57.24.39.5.76.73,1.17l-.1-.18c.61,1.09,1.1,2.25,1.41,3.47l-.06-.22c.06.25.12.5.17.75.02.13.05.25.08.38.01.06.02.12.04.18.02.09.04.19.08.28.1.24.27.38.49.5l.21.06c.11.02.22.01.33-.03.07,0,.14-.04.2-.08.11-.05.19-.12.26-.21.04-.04.03-.05.07-.12.06-.1.11-.21.12-.32,0-.1.01-.2,0-.3,0-.07-.02-.14-.03-.21-.02-.13-.05-.25-.08-.38-.08-.32-.16-.64-.25-.96-.15-.5-.33-1-.54-1.48-.44-1.02-1.01-1.99-1.7-2.87-.22-.28-.46-.53-.71-.78-.1-.1-.2-.2-.31-.3-.17-.15-.36-.32-.6-.35-.38-.05-.68.28-.65.64h0Z"/>
    <path d="M12.94,25.52c.28,0,.57.03.85.03.27,0,.53-.02.8-.03.51-.02,1.02-.04,1.53-.05.24,0,.49-.01.73-.01.12,0,.24,0,.37,0,.06,0,.12,0,.18,0,.04,0,.31,0,.1,0,.51,0,1.02.02,1.52.05.97.05,1.94.15,2.9.31.42.07.84.16,1.26.26.1.02.2.05.3.08.18.05-.2-.06-.02,0,.05.01.1.03.15.04.21.06.43.13.64.2.91.3,1.79.69,2.61,1.17l-.2-.12c.37.22.71.46,1.07.69.43.28.84.6,1.35.71l-.31-.13c.1.07.2.13.3.2.25.16.55.17.77-.05s.23-.52.07-.77c-.04-.06-.08-.11-.12-.17-.01-.02-.03-.04-.04-.06-.06-.07.04.1.01.02-.06-.16-.17-.32-.27-.45-.2-.25-.44-.46-.68-.67-.44-.37-.96-.66-1.46-.94-.92-.51-1.9-.91-2.91-1.2-1.11-.33-2.24-.55-3.39-.68-1.29-.14-2.6-.14-3.89-.1-.69.02-1.38.06-2.07.12-.36.03-.71.06-1.07.09s-.7.1-1.06.16c-.33.05-.57.32-.57.65,0,.3.24.65.57.66h0Z"/>
    <path d="M13.66,12.16c.19.49.56.91.98,1.23.39.29.83.53,1.29.69,1.05.36,2.16.44,3.25.56.3.03.61.06.92.08.21.02.42.03.64.01.15-.01.26-.06.39-.13.09-.05.23-.1.31-.18.13-.12.25-.26.26-.45.02-.17-.02-.35-.13-.49-.07-.09-.16-.17-.25-.24-.03-.02-.05-.04-.08-.06-.01,0-.02-.02-.03-.03l-.2-.12-.22-.06c-.16-.04-.32-.05-.49-.07-.32-.02-.65-.05-.97-.06-.62-.03-1.24-.05-1.85-.12-.34-.04-.69-.1-1.02-.19l.2.06c-.37-.1-.72-.24-1.05-.43l.18.11c-.27-.16-.52-.35-.74-.57l.14.14c-.11-.11-.21-.23-.31-.35-.22-.27-.58-.36-.89-.19s-.44.53-.31.86h0Z"/>
    <path d="M20.77,14.28c.5,1.04,1.14,1.98,1.78,2.94s1.25,1.88,1.86,2.83c1.22,1.9,2.4,3.82,3.54,5.77.31.54.62,1.08.93,1.62.16.28.31.55.47.83.01.03.03.05.04.08.09.17-.04-.07.02.03.04.07.08.14.12.21.1.18.2.36.31.54.18.28.59.33.86.18s.44-.53.3-.83c-.26-.54-.58-1.06-.88-1.58-.28-.49-.57-.97-.85-1.46-.58-.98-1.17-1.95-1.77-2.91-1.19-1.91-2.41-3.82-3.7-5.66-.36-.52-.72-1.04-1.11-1.54-.2-.25-.39-.5-.59-.74-.22-.27-.47-.5-.71-.75-.27-.27-.75.11-.59.44h0Z"/>
    <path d="M20.64,20.24v.02c-.04.12-.02.24.08.32.35.29.74.52,1.12.76.36.23.71.46,1.06.7.66.45,1.3.93,1.91,1.44.29.24.58.5.87.75.14.13.28.26.41.4.03.03.07.07.1.1.01.02.03.03.04.05.05.05-.09-.09-.01-.02.07.07.13.14.2.21.26.28.52.57.76.86.13.16.24.32.35.49s.25.32.37.47c.6.77,1.15,1.58,1.67,2.41.19.3.68.36.95.14.31-.25.34-.63.14-.95-.47-.75-.98-1.46-1.54-2.15-.29-.35-.58-.69-.92-.98-.29-.25-.56-.54-.85-.81-1.17-1.06-2.45-1.96-3.77-2.82-.4-.26-.81-.51-1.22-.76-.44-.27-.89-.56-1.37-.76-.12-.05-.24,0-.32.08-.01.01-.02.03-.03.05h0Z"/>
    <path d="M18.19,17.7s-.08-.06-.13-.08l.19.2h0c-.07-.18-.3-.29-.49-.21h0c.09,0,.19,0,.28,0-.05-.02-.11-.03-.16-.04l.11.03c-.06-.04-.17-.04-.24-.03h.12s-.03,0-.05,0l.24.1h0s-.08-.05-.12-.07c-.06-.03-.13-.04-.2-.04-.11,0-.22.03-.32.1h0s.08-.04.12-.06c-.02,0-.05.02-.07.03l.14-.04c-.11.02-.2.05-.28.12-.01,0-.02.02-.04.03-.02.02-.05.04-.07.05-.04.03-.08.07-.13.09l.14-.08c-.48.21-.74.74-.78,1.24-.02.21-.02.42.03.63s.11.41.2.6.2.37.34.54.3.32.47.44c.11.08.23.15.35.21.07.04.14.07.22.1.2.07.42.13.64.15s.43.02.65-.01c.14-.02.27-.06.4-.09.08-.02.15-.05.23-.07.1-.04.2-.09.29-.15s.19-.11.28-.17c.17-.12.32-.27.45-.44.05-.06.09-.12.13-.19.07-.12.14-.23.2-.36.08-.19.14-.39.17-.6.01-.07.02-.15.02-.22,0-.13,0-.26,0-.39s-.05-.25-.08-.38c-.02-.07-.04-.14-.07-.21-.06-.13-.13-.25-.21-.37s-.19-.22-.29-.32c-.17-.17-.37-.29-.57-.4-.15-.09-.32-.16-.48-.22-.15-.05-.31-.1-.47-.12-.15-.02-.31-.03-.46,0-.05,0-.09.01-.14.02-.1.02-.2.04-.3.08l.18-.05c-.08.02-.17.04-.25.07-.06.02-.11.05-.16.08-.04.02-.07.04-.11.06-.1.06-.13.13-.19.22-.03.05-.05.08-.07.13-.05.14-.07.3,0,.44l.07.13c.07.09.15.15.25.19,0,0,.01,0,.02.01l-.14-.08c.06.04.12.08.18.11.05.02.13.04.18.05.06,0,.14,0,.2,0h-.17c.12,0,.24,0,.36,0h-.18c.26.03.52.07.77.14l-.2-.05c.22.06.43.14.62.26l-.18-.1c.14.08.27.18.38.29l-.14-.14c.08.08.15.17.21.27l-.09-.17c.05.1.09.2.12.3l-.05-.18c.03.11.04.22.04.33v-.18c0,.13-.02.26-.06.39l.05-.18c-.04.15-.1.29-.18.42l.1-.16c-.08.13-.17.25-.28.36l.13-.13c-.11.11-.23.2-.37.27l.16-.09c-.15.08-.31.15-.48.19l.17-.04c-.16.04-.33.06-.5.06h.18c-.16,0-.33-.02-.48-.06l.17.05c-.15-.04-.3-.1-.43-.18l.16.09c-.14-.08-.27-.18-.38-.3l.13.13c-.12-.12-.22-.26-.31-.41l.09.16c-.08-.14-.14-.3-.18-.45l.04.17c-.05-.19-.08-.38-.08-.57v.17c0-.1.01-.2.04-.3l-.04.16c.02-.07.05-.14.08-.2l-.08.14s.06-.09.1-.13l-.12.11c.06-.06.13-.11.18-.17l-.12.11c.08-.08.15-.14.22-.23.02-.02.04-.05.06-.07,0-.01.02-.03.03-.04.07-.09.1-.17.12-.29l-.04.14s.02-.05.03-.07l-.07.12h0s.05-.09.07-.13c.03-.06.04-.13.04-.2,0-.11-.03-.23-.1-.32h0c.03.12.06.24.09.36,0-.02,0-.03,0-.05l-.03.11c.03-.06.05-.17.03-.24v.11s0,0,0-.01l-.03.11s.01-.04.02-.05l-.21.2h0c.08-.04.14-.09.18-.16.04-.06.07-.16.05-.23h0c-.02.08-.05.17-.07.26,0-.01.02-.03.03-.04l-.06.06s0,0,.01,0c.08-.06.12-.14.12-.24s-.04-.17-.11-.24h0Z"/>
    <path d="M22.41,9.37s.04-.05.06-.08c.05-.07.06-.12.08-.2s.03-.16.04-.24c.02-.16.02-.33,0-.49-.01-.18-.05-.35-.09-.52-.02-.07-.04-.14-.06-.21,0,.01.01.07,0,0,0-.02,0-.04-.01-.05,0-.04-.01-.07-.02-.11-.02-.09-.05-.19-.07-.28-.01-.04-.02-.07-.03-.11,0,0-.01-.05-.02-.05.02.06.02.08.01.04,0-.01,0-.03,0-.04-.02-.1-.05-.21-.08-.31-.03-.07-.06-.15-.08-.22-.11-.29-.26-.56-.41-.83-.16-.31-.3-.62-.39-.96l.05.19c-.03-.14-.04-.28-.07-.42s-.03-.28-.03-.42v.2c0-.16.02-.32.06-.48l-.05.2c.04-.13.09-.26.16-.38l-.11.19c.05-.08.11-.16.18-.23l-.16.15c.06-.06.12-.11.19-.15l-.18.1c.06-.03.11-.05.17-.07l-.2.05s.09-.02.14-.02h-.21s.09,0,.14.02l-.21-.06s.08.03.12.05l-.19-.11s.08.05.11.09l-.15-.16s.07.09.1.13l-.1-.19c.03.06.06.13.08.2l-.05-.21c.02.06.02.13.02.2v-.21c0,.11-.02.22-.05.32l.06-.21c-.11.38-.27.74-.35,1.13-.04.21-.06.43-.01.64.02.1.04.2.08.29.02.03.03.07.04.11.07.21.26.42.47.5l-.28-.22s.05.06.07.09l-.08-.14c.04.07.07.16.12.22.05.06.11.13.17.17l-.16-.22c.09.2.22.35.38.5.05.05.1.09.16.13.08.06.16.08.25.11.1.03.2-.07.21-.16.01-.07.02-.14.01-.22,0-.04,0-.03,0,.01,0-.04,0-.07,0-.11,0-.03,0-.07,0-.1,0-.03,0-.15,0-.02,0-.05,0-.09,0-.14,0,.07,0,.09,0,.04,0-.1,0-.2,0-.3l-.11.38c.04-.07.08-.13.1-.2.02-.08.04-.16.05-.24l-.04.15c.03-.09.06-.18.09-.28l-.27.45c.1-.07.17-.17.23-.27.07-.12.1-.25.12-.38l-.05.19c.06-.19.13-.37.16-.57.02-.14.04-.27.07-.4l-.06.22c.09-.33.23-.64.28-.98.02-.17.03-.36,0-.53s-.06-.34-.13-.49c-.11-.22-.22-.38-.4-.55-.08-.08-.19-.13-.29-.18s-.22-.08-.34-.11c-.24-.05-.47,0-.69.06-.16.05-.32.14-.46.25-.29.23-.51.54-.64.89s-.16.7-.15,1.08c.02.63.32,1.22.65,1.73s.79,1.02,1.25,1.47l-.08-.09c.11.13.21.27.29.41,0,0,0,.02.01.02.01.02,0,.02-.01-.02,0,0,.02.05.02.05.01.04.03.08.04.12s.02.08.03.12c-.02-.07,0,0,0,.01,0,.02.01.04.01.07.02.08.03.16.04.24,0,.04,0,.08,0,.12,0,.02,0,.04,0,.07,0-.03,0-.03,0,0,0,.09-.01.17-.02.25,0,.04-.02.08-.02.12,0,.03,0,.07,0,.11,0,0,0,.08,0,.03,0,.12.05.25.17.29.11.04.26.02.33-.09h0Z"/>
    <path d="M27.47,18.32s0-.03,0-.04c0-.03,0-.06,0-.09,0-.07.02-.14.04-.21-.01.05,0-.02.01-.04,0-.03.02-.06.03-.09.02-.07.05-.13.08-.2.03-.06.05-.11.08-.17.01-.03.03-.06.04-.08,0-.01.02-.03.02-.04,0-.02.01-.02,0,0-.01.02,0,.01.02-.03.01-.02.03-.04.04-.06,0,0,.03-.05,0-.02s0-.01,0-.02c.01-.02.02-.04.03-.05.03-.06.07-.11.1-.17.26-.42.52-.83.8-1.23s.58-.79.89-1.16c.16-.18.33-.36.5-.53.01-.01.02-.02.03-.03.03-.03-.03.03-.03.03.02-.03.05-.05.07-.07.04-.04.09-.08.13-.12.09-.08.18-.16.27-.24.2-.18.4-.35.63-.48s.47-.3.71-.44l-.15.08c.2-.1.43-.14.63-.24.19-.09.38-.18.58-.23l-.21.05c.13-.03.27-.05.4-.05h-.23c.06,0,.12,0,.18.02l-.23-.06s.09.03.14.06l-.21-.12s.06.04.09.06l-.17-.18s.04.05.05.07l-.11-.91v.02c.03-.07.07-.14.11-.22-.06.1-.12.2-.18.3l.13-.22c-.07.12-.16.23-.26.33l.19-.18c-.14.13-.3.24-.47.34l.22-.12c-.2.11-.4.2-.6.3-.28.13-.55.28-.82.44-.2.12-.39.25-.58.39-.15.12-.29.25-.43.39-.09.09-.18.17-.25.27l.17-.16c-.12.1-.24.22-.36.33-.1.1-.21.2-.31.3-.11.11-.15.25-.21.38l.11-.18c-.08.09-.15.19-.22.29-.09.14-.19.29-.26.45l.09-.15c-.26.35-.46.75-.66,1.15-.04.09-.09.17-.12.27-.02.07-.05.15-.06.22v-.06s0,.03,0,.05c0,.02-.02.04-.03.06-.04.09-.04.18-.04.28,0,0,0,.07,0,.07,0,0,.03-.14,0-.04,0,.02-.01.04-.02.06-.06.22.02-.1-.03.12-.01.05-.03.1-.04.15-.02.1.05.2.14.24.09.04.2,0,.27-.07s.13-.18.2-.25c-.04.04,0,0,.02,0,.02-.01.04-.02.05-.03.07-.04.12-.1.16-.17,0,0,.04-.05.04-.05-.05.05-.06.05-.03.02l.02-.02c.06-.06.12-.11.18-.18.07-.08.14-.16.21-.25l-.1.1c.2-.18.38-.39.57-.58l-.12.11c.14-.13.28-.26.41-.4l-.13.12c.19-.12.38-.27.55-.42l-.18.1c.12-.06.25-.09.36-.18.06-.05.12-.11.18-.16.12-.1.25-.2.37-.29l-.2.11c.14-.07.27-.15.41-.23l-.21.12c.2-.11.4-.22.6-.34.13-.08.27-.16.41-.24l-.22.12c.2-.11.4-.23.6-.34l-.22.12c.92-.51,2.19-.89,2.35-2.1.04-.32-.09-.66-.35-.86-.13-.1-.27-.19-.42-.25-.24-.09-.42-.1-.67-.1s-.52.09-.74.21c-.25.13-.47.28-.69.45-.13.1-.24.22-.35.35-.07.08-.14.18-.21.26l.12-.12c-.21.2-.44.39-.62.62-.08.1-.15.2-.23.3s-.16.18-.24.27c-.33.37-.64.77-.92,1.18s-.59.82-.88,1.23-.56.84-.83,1.26c-.35.56-.69,1.15-.67,1.83,0,.16.19.29.34.27.18-.03.27-.17.27-.34h0Z"/>
    <path d="M10.28,26.99c-.23-.16-.45-.33-.71-.44-.28-.11-.56-.18-.85-.22-.56-.09-1.14-.12-1.71-.09-1.06.05-2.15.27-3.1.74-.45.22-.92.49-1.29.83-.42.39-.77.83-1,1.37s-.35,1.2-.13,1.77c.14.36.45.69.83.81.24.07.48.11.72.05.26-.06.46-.14.69-.28.3-.18.55-.43.78-.67.18-.19.35-.39.52-.6.35-.43.68-.88,1.07-1.27l-.18.18c.31-.3.66-.57,1.03-.77l-.2.11c.31-.17.63-.28.96-.41.17-.07.33-.12.5-.18.04-.01.08-.02.11-.03,0,0,.07-.01.08-.02-.01.01-.22.05,0,0,.11-.03.22-.06.33-.09.04-.01.08-.02.11-.03.06-.02-.05.01-.05.01.03,0,.05-.01.08-.02.12-.03.23-.06.35-.1.04-.01.09-.03.13-.04.02,0,.04-.01.05-.02.05-.02-.01,0-.02,0,.09,0,.19,0,.28-.01.17,0,.35-.01.52-.01.02,0,.12,0,.08,0s.06,0,.08,0c.09,0,.18.02.26.03.19.02.37.06.56.09.09.02.18.05.27.05.14,0,.31-.03.43-.11l-.33.04c.16.05.26.07.42.14.13.06.25.12.38.19.11.06.21-.07.18-.18-.11-.34-.41-.61-.72-.77l.2.27c-.04-.15-.12-.28-.25-.38s-.29-.13-.44-.17c-.21-.06-.43-.07-.65-.08-.06,0-.13,0-.19,0-.06,0-.08,0-.04,0,.02,0,.02,0,0,0-.03,0-.06,0-.09,0-.12,0-.24,0-.36,0-.25,0-.49,0-.74,0l.23.03c-.24-.08-.51-.12-.76-.14-.11,0-.22-.02-.34-.02-.07,0-.14,0-.21,0h.05c.11,0,.06,0-.13,0-.07,0-.14,0-.2,0-.22,0-.46,0-.68.05-.28.05-.56.12-.84.21-.49.15-.98.38-1.37.71-.41.35-.75.75-1.06,1.19s-.59.84-.96,1.21l.17-.17c-.15.15-.31.29-.5.4l.2-.11c-.07.04-.15.07-.23.1l.22-.06c-.05.01-.1.02-.16.02h.23c-.05,0-.1,0-.15-.02l.22.06s-.06-.02-.09-.04l.2.12s-.08-.06-.12-.09l.17.17s-.05-.06-.07-.1l.11.2c-.04-.08-.07-.15-.09-.24l.06.22c-.02-.1-.03-.2-.03-.3v.22c0-.19.03-.38.08-.57l-.06.21c.07-.25.17-.48.3-.7l-.11.18c.2-.33.45-.63.72-.9l-.14.13c.15-.14.3-.27.47-.39.08-.06.16-.11.24-.16.04-.02.07-.05.11-.07.02-.01.04-.03.06-.04.01,0,.12-.07.03-.02s.06-.03.08-.04c.04-.02.08-.04.12-.06.11-.05.23-.11.34-.16.21-.09.42-.17.64-.25.06-.02.11-.04.17-.05.03,0,.06-.02.08-.02-.02,0-.1.02,0,0,.11-.03.23-.05.35-.08.22-.04.45-.08.68-.1.11,0,.22-.02.33-.02.06,0,.12,0,.18,0,.03,0,.06,0,.09,0,.01,0,.13,0,.07,0s.04,0,.05,0c.02,0,.04,0,.07,0,.06,0,.12,0,.18,0,.12,0,.23.02.35.03.26.03.52.06.79.09s.52,0,.79.02c.18.01.32-.23.15-.35h0Z"/>
    <g>
      <path d="M35.5,1.92s-.03-.07-.05-.1l-.03-.05s-.02-.04.01.02c0,0-.09-.19-.09-.19-.08-.11-.2-.21-.31-.29-.21-.15-.44-.28-.68-.37-.52-.21-1.09-.25-1.65-.23-.51.02-1.01.18-1.47.4-.53.25-.98.57-1.4.99-.72.72-1.17,1.65-1.42,2.63-.13.53-.14,1.06-.06,1.6.01.1.04.2.07.3v.04c.03.05.03.05.01,0v-.04s0,.06,0,.09c.02.14.05.27.08.41.03.13.05.25.07.38,0,.03,0,.06.02.09,0,0,.01.07,0,.02,0,.06,0,.13-.01.2-.04.54-.2,1.05-.41,1.55-.1.26-.22.5-.36.74-.05.1-.12.2-.18.3-.1.15-.15.29-.12.47.01.09.11.18.2.16.13-.02.21-.06.31-.15.07-.08.13-.16.19-.25.12-.18.23-.37.33-.57.19-.36.35-.74.47-1.13.07-.21.12-.42.17-.63.05-.2.08-.4.14-.6-.01.05.03-.06.03-.07.02-.05.03-.1.05-.15.03-.11.07-.21.1-.32.02-.05.03-.1.04-.15-.04.16.02-.07.02-.09.01-.06.03-.11.04-.17,0-.02.01-.04.02-.06v-.02c.02-.06.02-.06,0,0v.04s0-.04.01-.06c.03-.07.05-.15.07-.23.11-.46.19-.92.31-1.37l-.06.21c.12-.42.28-.83.5-1.21l-.12.2c.21-.36.46-.68.75-.97l-.17.16c.29-.28.61-.54.96-.74l-.2.11c.31-.17.64-.3.98-.39l-.21.05c.18-.04.35-.09.53-.14l-.21.05c.34-.08.69-.13,1.04-.13h-.19c.16,0,.31,0,.47,0h-.18c.2,0,.41.02.6.05.04,0,.08.01.12.02.07.01-.02,0-.04-.01.02,0,.04.01.06.02.05.02.22.04.23.06.04,0,.02,0-.05-.03-.07-.04-.09-.04-.06-.02,0,.01.05.04.06.05.12.12.37.11.5,0,.14-.11.21-.31.14-.48h0Z"/>
      <path d="M34.24,1.85c-.04.09.05-.08,0,0-.16.26-.05.08-.05.08,0,0-.06.07-.06.08.07-.07.08-.08.03-.04-.01.01-.03.02-.04.03-.12.08.08-.03.02-.01-.03.01-.06.03-.1.04-.07.03.18-.04.04-.01-.04,0-.08,0-.12.01h.2c-.16,0-.31.01-.46.01h.21c-.1,0-.2,0-.31-.02-.18-.02-.35-.02-.53-.01-.19,0-.39.02-.58.06-.53.1-.99.29-1.45.55-.39.22-.74.57-1.02.92s-.51.73-.66,1.15c-.09.25-.17.52-.24.78-.02.1-.04.2-.06.31-.02.13-.03.26,0,.39.03.12.09.22.16.33l-.13-.33c-.01-.19-.02-.04-.03.02-.01.05-.02.09-.03.14-.02.1-.04.19-.05.29,0,.05-.02.1-.03.16,0,.02,0,.04,0,.06,0,.03-.04.09,0,.03.03-.05,0-.02,0,0s-.01.05-.02.08c-.01.05-.03.1-.05.15-.06.21-.13.42-.2.63-.03.1-.06.19-.09.29-.04.13-.11.28-.1.41,0,.04,0,0,0,0,0,.03-.02.05-.03.08-.02.05-.03.09-.05.14-.04.11-.08.21-.13.32-.09.2-.17.39-.27.58-.05.1-.1.19-.14.29-.04.08-.07.17-.12.26-.1.19-.24.38-.37.56-.14.19-.28.38-.42.57-.08.1-.17.2-.24.32-.06.11-.1.22-.16.33-.09.18.14.32.28.22.09-.06.17-.12.26-.18.1-.07.18-.17.26-.27.14-.17.27-.35.4-.53s.25-.35.37-.53.26-.35.38-.54.24-.37.35-.56c.07-.11.13-.22.19-.33.04-.07.1-.18.17-.3.01-.02.02-.04.03-.06.05-.09.01-.01,0,0,.06-.07.1-.13.15-.21.06-.1.12-.2.17-.3.1-.19.17-.4.25-.6.08-.21.15-.43.25-.63.05-.11.11-.22.16-.33.02-.05.04-.1.06-.15.01-.02.02-.05.03-.07l.02-.04c.03-.07.02-.05-.04.05l-.29.22c.09-.03.17-.07.25-.13.13-.1.2-.22.28-.36.05-.08.09-.16.14-.25.09-.16.18-.33.27-.49l-.12.21c.25-.42.52-.85.87-1.2l-.19.18c.26-.25.56-.46.87-.64l-.22.12c.25-.13.51-.24.78-.31l-.23.06c.32-.08.66-.09.98-.18l-.22.06c.24-.06.49-.11.72-.22.25-.11.46-.29.62-.51.26-.37.42-.91.11-1.3-.2-.25-.59-.21-.72.09h0Z"/>
    </g>
    <path d="M29,19.07c.16,0,.32,0,.48-.03s.3-.07.46-.1c.31-.06.62-.1.94-.13.58-.05,1.17-.09,1.75-.01.07,0,.14.03.21.05.01,0,.03,0,.04.01.03,0-.05-.01,0,0,.03.01.07.02.1.03.01,0,.03,0,.04.01.06.01-.03-.03,0-.01.03.01.05.03.08.05.05.04.1.09.15.14l-.09-.09c.08.14.28.2.42.28l-.12-.07c.08.05.18.1.24.16l-.11-.11s.07.08.1.12c.07.09.14.16.22.23l-.13-.13s.02.02.03.03l-.09-.16s.01.03.02.05l-.05-.18s0,.02,0,.03v-.19c-.02.12,0,.19.02.3.04.18.13.3.27.42.03.02.05.05.08.07l-.15-.15c.12.12.23.26.32.42l-.1-.19s.04.08.05.12l-.05-.21s.01.06.01.1v-.21s0,.05-.01.08l.06-.21s-.02.05-.03.07l.11-.2s-.03.04-.05.06l.16-.16s-.06.05-.09.07l.19-.11s-.07.03-.11.04l.21-.05s-.08.01-.12.01h.22s-.09,0-.13-.02l.22.06c-.06-.02-.12-.05-.18-.08l.21.12c-.16-.1-.3-.21-.46-.3-.08-.05-.16-.1-.23-.14-.1-.06-.2-.13-.3-.18s-.24-.08-.34-.1l.22.06c-.18-.08-.38-.12-.57-.17-.24-.07-.49-.15-.74-.18l.18.05c-.25-.07-.5-.12-.76-.15-.1-.01-.2-.02-.29-.03-.19,0-.36.02-.54.08l.13-.03c-.12,0-.28,0-.39.05-.05.02-.09.07-.14.08l.13-.05s-.03,0-.05,0c-.05,0-.1.01-.14.02-.11.02-.23.04-.34.07s-.2.09-.3.15l.11-.04c-.32.06-.67.13-.94.32-.14.1-.05.35.13.32.15-.03.28-.07.43-.11.1-.03.25-.05.37-.07,0,0,.04,0,.05,0,0,0-.08-.02-.03,0,.04.01.09.03.13.04.07.02.13.03.2.04.14.01.28.04.41.06l-.19-.08s.09.06.13.09c.08.05.17.07.26.09l-.12-.03c.05.01.11.03.16.05l-.12-.07c.11.07.23.15.35.2.09.04.19.06.28.1.19.07.36.16.54.24l-.17-.1c.13.08.26.15.39.22l-.17-.1c.09.06.19.11.28.17l-.18-.1c.15.1.31.19.45.3.07.06.14.11.21.17.12.11.28.18.42.26l-.21-.12c.24.14.47.32.72.44.15.07.33.12.49.16.08.02.16.02.25.02s.15,0,.23-.01c.22-.05.42-.11.59-.26.08-.07.17-.15.23-.24s.12-.19.16-.29c.06-.18.08-.31.07-.5,0-.02,0-.05,0-.07-.02-.09-.04-.18-.07-.26-.06-.15-.15-.29-.26-.41s-.22-.24-.35-.34c-.04-.03-.08-.06-.12-.09-.07-.05-.14-.1-.22-.14-.18-.08-.41-.08-.59,0l.19-.05s-.04,0-.06,0h.18s-.01,0-.02,0l.17.05c-.12-.04-.24-.08-.37-.1-.08,0-.15-.02-.23-.04s-.15-.03-.23-.05c-.14-.02-.32-.06-.45,0l.11-.03c-.08.02-.16.04-.25.06-.08.02.08-.02,0,0-.01,0-.03,0-.04,0-.02,0-.01,0,.03,0-.01,0-.02,0-.03,0-.14,0-.28,0-.43,0-.02,0-.04,0-.05,0,0,0-.04,0,0,0-.03,0-.06,0-.09,0-.07,0-.13,0-.2,0-.16,0-.32,0-.47,0-.65.02-1.3.1-1.94.25-.18.04-.36.09-.54.14-.1.03-.18.06-.27.11-.08.05-.15.09-.23.14-.06.04-.01.12.05.12h0Z"/>
    <path d="M31.1,31.14h0s-.06-.06-.09-.08c0,0,0,0,0,.01l-.06-.11s.02.04.03.06c.03.06.07.11.12.15l.11.07s.08.02.13.03l-.12-.03s.02,0,.03.01l-.21-.17s.09.1.1.1l.12.07.13.03s.01,0,.02,0c.01,0,.03,0,.04.01l-.13-.04s.08.02.12.04c.02,0,.04.02.06.02.07.03.15.04.22.06l-.16-.04c.06.02.13.04.18.08l-.15-.09c.06.04.12.07.18.11l-.15-.09s.07.05.1.08l-.13-.13s.05.06.07.1l-.09-.16s.03.07.04.11l-.04-.18s.01.08.01.12v-.18c0,.05,0,.11-.02.16l.05-.19c-.02.08-.05.15-.09.22l.1-.18c-.05.08-.1.15-.17.22l.15-.15s-.05.05-.08.07-.06.04-.09.06l.19-.11c-.07.04-.15.07-.22.09l.22-.06s-.03,0-.04,0h.23s-.02,0-.03,0l.44.18h0c-.13-.1-.28-.17-.44-.19-.16-.02-.31,0-.46.06h0c.08-.02.15-.04.23-.06-.04,0-.07,0-.11,0h.24s-.09,0-.14,0-.09,0-.13-.02l.24.06c-.06-.02-.11-.04-.16-.07l.22.13c-.05-.03-.1-.07-.14-.11l.18.19s-.07-.09-.1-.14l.12.22s-.04-.09-.05-.13l.06.24s-.01-.08-.01-.12v.25s0-.09.02-.14l-.07.24s.02-.07.04-.1l-.13.22s.05-.07.08-.1l-.18.18s.07-.06.12-.09l-.22.12s.08-.04.12-.05l-.23.06s.06,0,.08-.01c.01,0,.03,0,.04,0s.03,0,.04,0h-.23c.22.02.26,0,.47-.06,0,0,0,0,.01,0l-.22.06s.02,0,.03,0c0,0,.01,0,.02,0,0,0,0,0,0,0l.22-.06c.07-.03.14-.07.2-.11l-.64.16h0c.07,0,.15,0,.22,0l.22-.05.2-.11c.1-.07.18-.16.23-.26.05-.06.08-.13.09-.21.03-.07.04-.14.03-.22,0-.08,0-.15-.03-.22-.02-.11-.06-.21-.14-.3h0c.05.14.11.27.16.41,0-.14-.09-.32-.17-.43,0,0,0-.01-.01-.02-.11-.13-.24-.27-.41-.33l.21.12c-.08-.05-.16-.11-.25-.14s-.18-.05-.27-.07c0,0-.02,0-.02,0-.09,0-.17,0-.26,0-.01,0-.03,0-.04,0s-.03,0-.04,0c-.09.02-.18.04-.27.07-.03,0-.06.02-.08.03-.1.05-.2.1-.29.16-.01,0-.02.02-.04.03,0,0-.01,0-.02.01-.07.06-.13.13-.2.19-.02.02-.04.04-.06.07-.06.08-.1.17-.15.26,0,.01-.01.03-.02.04s-.01.03-.01.04c-.02.08-.05.17-.07.25,0,0,0,0,0,.01,0,0,0,.02,0,.02,0,.1,0,.2,0,.3,0,.02,0,.04,0,.05s0,.04.01.05c.02.09.04.17.07.26,0,0,0,.02,0,.03,0,.02.01.03.02.05,0,0,0,.01.01.02.04.08.09.16.13.24.02.03.04.06.06.09.08.09.16.18.26.26.03.02.06.05.09.07.09.05.18.11.27.16.02,0,.03.02.05.02.02,0,.04.01.06.02.1.03.2.06.3.08.02,0,.04,0,.06,0,.01,0,.02,0,.03,0,.09,0,.18,0,.27,0,.01,0,.02,0,.03,0,.09-.02.18-.04.27-.07.02,0,.04-.01.06-.02s.04-.01.06-.02c.02,0,.04-.02.06-.03.3-.12.53-.41.57-.73h0c-.06.14-.12.29-.18.44,0,0,.01-.02.02-.02l-.17.17s.06-.04.09-.07c.01-.01.03-.03.04-.04.07-.06.14-.13.2-.2.03-.03.05-.06.07-.09s.05-.06.07-.1c.06-.09.12-.19.17-.28.02-.03.03-.07.05-.11.04-.1.06-.2.09-.3,0-.04.02-.08.02-.12,0-.02,0-.04,0-.06,0-.08,0-.16,0-.25,0-.04,0-.08-.02-.12-.02-.09-.04-.2-.08-.28-.03-.07-.07-.14-.12-.21-.01-.02-.02-.03-.04-.05-.05-.06-.11-.11-.16-.17-.01-.01-.03-.02-.04-.03-.01,0-.02-.02-.04-.03-.06-.04-.13-.08-.2-.12-.08-.04-.18-.06-.25-.08-.03,0-.06-.01-.1-.01-.09,0-.18,0-.27,0s-.18.03-.26.06c-.04.01-.07.03-.11.05-.02,0-.04.02-.05.03,0,0-.02,0-.03.01,0,0,0,0-.01,0-.09.03-.16.09-.22.16-.03.04-.06.08-.07.12l.17-.21s-.01.01-.02.02c-.04.03-.04.01-.1.1l-.07.11s-.03.08-.03.13l.03-.12s0,.01,0,.02l-.03.11c0,.06,0,.12.01.17,0,.04.02.07.04.11.02.06.06.1.11.14h0Z"/>
    <path d="M3.76,20.78s0,0,0,0c-.03-.02-.1-.06-.13-.08,0,0,0,0,0,0,0,0-.01,0-.02,0l.14.08h0s-.1-.06-.15-.09c-.08-.04-.16-.05-.24-.04-.05,0-.11,0-.16.02-.08.01-.16.05-.22.1-.01.01-.03.02-.05.03-.02.02-.05.05-.07.07s-.05.05-.07.07c0,0-.01.01-.02.02l.13-.12c-.11.09-.12.1-.17.2-.03.05-.03.05-.05.08,0,0,0,0,0,.01,0,0,0,.01,0,.02s0,.01,0,.02c-.02.06-.04.12-.05.19,0,.03-.01.06-.01.09,0,.07,0,.14,0,.21,0,.02,0,.03,0,.05s0,.03,0,.05c.02.07.03.14.05.21,0,.03.02.06.04.08.03.06.06.11.09.17,0,0,0,.01.01.02,0,.01.02.02.03.04,0,0,0,.01.01.02,0,0,0,0,0,0,.04.05.09.09.13.14.01.01.02.02.03.03s.02.02.04.03c.06.04.13.08.19.11.01,0,.03.01.04.02.07.02.14.04.22.06.02,0,.04,0,.06,0,.07,0,.15,0,.23,0,.02,0,.04,0,.05,0,.07-.02.15-.03.22-.06.02,0,.03-.01.05-.02.07-.03.14-.07.2-.11.02-.01.03-.02.05-.03.06-.05.12-.11.17-.17.03-.03.05-.06.07-.09,0,0,0-.01.01-.02.04-.06.07-.12.11-.18,0-.02.02-.03.02-.05s.01-.04.02-.05c.02-.07.04-.13.05-.2,0,0,0-.02,0-.03,0-.02,0-.04,0-.06,0-.08,0-.16,0-.23,0-.02,0-.04,0-.06-.01-.08-.03-.15-.06-.23-.02-.06-.05-.12-.09-.18s-.06-.12-.1-.17c0,0-.01-.01-.02-.02-.05-.05-.1-.1-.15-.15l.13.14h0c.03.05.06.11.09.16,0,0,0-.01,0-.02l.05.18c-.02-.14-.03-.16-.09-.26-.02-.06-.06-.11-.11-.15-.02-.03-.05-.05-.07-.07l.14.14c-.06-.07-.12-.13-.18-.19-.02-.02-.03-.03-.05-.05s-.04-.03-.06-.04c-.08-.05-.16-.1-.24-.14-.02-.01-.04-.02-.07-.03-.03-.01-.06-.02-.11-.03-.04-.01-.07-.02-.11-.03,0,0-.01,0-.02,0-.01,0-.02,0-.04,0-.09-.01-.19,0-.28,0-.02,0-.05,0-.07,0-.01,0-.03,0-.04,0-.08.02-.16.04-.24.06-.03,0-.05.02-.08.03-.11.04-.19.1-.26.18-.09.07-.15.16-.19.27-.05.1-.06.2-.06.31,0,.11,0,.21.05.31l.1.19c.09.12.21.21.34.27l.21.06c.14.02.28,0,.41-.05.04-.02.08-.04.13-.05l-.2.05c.08-.02.15-.04.23-.06l-.2.05c.05-.01.1-.02.16-.02h-.21c.08,0,.16,0,.25,0,.01,0,.03,0,.04,0h-.2c.06,0,.11,0,.17.02l-.19-.05s.08.03.12.05l-.17-.1c.13.09.14.09.26.12.06.02.12.03.18.03.03,0,.06,0,.09,0l-.37-.05s.01,0,.02,0l-.17-.1s.02.02.03.03l-.13-.14s.06.07.08.11l-.09-.16s.03.07.04.11l-.04-.18s.01.07.01.11v-.18s0,.09-.02.13l.05-.18s-.03.09-.06.14l.09-.16s-.06.09-.09.12l.13-.13s-.07.06-.11.08l.16-.09c-.05.03-.11.06-.16.09l.16-.09s-.06.03-.1.04l.17-.04s-.07.01-.1.01h.17s-.06,0-.1-.01l.17.05s-.06-.02-.09-.04l.16.09s-.06-.04-.08-.06l.13.13s-.05-.06-.07-.1l.08.15s-.04-.08-.05-.12l.04.17s-.02-.09-.02-.13v.17s0-.08.01-.11l-.04.17s0-.02,0-.02c0,0,0,0,0-.01,0,0,0,0,0,0l.04-.17c0-.06,0-.11,0-.17v.17s0-.03,0-.04l-.04.16s.01-.04.03-.07l-.09.15h0c.03-.05.06-.1.09-.15.04-.08.05-.16.04-.24,0-.05,0-.11-.02-.16-.01-.08-.05-.16-.1-.22h0s.05.09.08.14c0,0,0,0,0,0l.04.15s0,0,0-.01c0,0,0,0,0,0,0,0,0,0,0,0l-.03-.14c-.04-.09-.09-.17-.17-.23h0Z"/>
    <path d="M19.36,29.89c.08-.02.17-.03.25-.03.04,0,.08,0,.13,0,.05,0,.02.01,0,0,.01,0,.06,0,.07,0,.08,0,.17.01.25.03s.17.04.25.05c-.04,0-.05-.01,0,0,.02,0,.04.01.05.02.04.01.09.03.13.05.04.01.07.03.11.04.01,0,.02,0,.03.01.02.01.01,0-.03-.02,0,0,.05.04.05.04.06.05.13.1.18.16.04.04-.07-.07-.02-.02.01.02.03.03.04.05.05.06.1.12.16.17l-.09-.09c.13.17.27.33.38.52l-.07-.13c.12.22.21.45.28.7l-.04-.16c.03.12.06.25.09.38l-.04-.17c.02.13.03.27.04.4v-.19c0,.17.01.34.01.5v-.2c0,.28-.04.55-.08.83s-.11.56-.13.84c-.02.34-.04.69.03,1.03.04.2.09.41.17.6.05.12.12.24.19.36.03.06.07.12.12.17.36.45.9.75,1.49.68.07,0,.13-.03.2-.05s.13-.03.19-.05c.13-.05.25-.12.36-.2.24-.18.39-.39.53-.65.03-.05.05-.11.07-.16.04-.15.09-.3.1-.45.02-.23.02-.47-.02-.69-.06-.36-.16-.72-.27-1.07-.09-.3-.21-.6-.33-.89-.07-.15-.14-.3-.21-.44s-.14-.29-.24-.41-.21-.24-.32-.34l.18.18c-.07-.08-.14-.15-.21-.23-.12-.12-.23-.25-.35-.36l.16.16c-.08-.09-.16-.18-.26-.26l.15.15c-.13-.16-.27-.32-.41-.47-.11-.12-.22-.24-.34-.35-.11-.09-.29-.16-.43-.2-.1-.03-.21-.06-.32-.04-.14.02-.26.08-.36.18-.08.08-.14.17-.17.28-.04.14-.02.26.02.4.03.12.07.24.13.35.06.12.15.21.23.31.13.16.24.33.36.5l-.1-.18c.06.17.15.33.22.49.03.08.06.16.09.25.05.17.14.31.22.46l-.12-.22c.34.61.6,1.27.78,1.95l-.06-.24c.05.2.09.41.1.61v-.25c0,.11-.01.22-.04.32l.07-.24c-.02.07-.05.13-.08.19l.13-.22c-.04.06-.08.12-.13.17l.18-.18s-.09.08-.15.11l.22-.12s-.09.04-.13.05l.24-.06s-.09.02-.14.02h.25s-.09,0-.13-.02l.24.07c-.06-.02-.11-.04-.16-.07l.22.13c-.07-.04-.14-.1-.2-.16l.18.18c-.07-.08-.14-.17-.19-.26l.12.22c-.07-.13-.12-.26-.16-.4l.06.23c-.06-.23-.08-.47-.08-.71v.24c0-.18,0-.37,0-.55v.24c0-.2,0-.4.01-.6,0-.26.02-.53-.01-.79-.05-.49-.2-.98-.46-1.4l.09.16c-.15-.29-.32-.56-.54-.8-.24-.25-.49-.5-.81-.65l.11.06c-.18-.11-.38-.18-.59-.24-.04-.01-.1-.05-.13-.04-.02,0-.01,0,.03,0-.01,0-.02,0-.03-.01-.04-.02-.08-.03-.12-.05-.11-.04-.22-.07-.33-.09-.37-.09-.76-.09-1.13-.01-.16.04-.3.17-.27.35.03.16.18.31.35.27h0Z"/>
    <path d="M11.1,30.97h0c.1.01.19.03.29.04-.01,0-.03-.01-.04-.02l.25.2h0c-.07-.09-.15-.16-.26-.2-.1-.04-.2-.06-.31-.04h0c.1.01.21.03.31.04-.07-.02-.14-.04-.2-.05l.31.13c-.12-.08-.13-.08-.24-.11-.05-.02-.11-.03-.17-.02-.03,0-.06,0-.09,0h.17s-.03,0-.05-.01l.18.05c-.11-.06-.26-.06-.37-.05h.18c-.08,0-.16,0-.23,0h.19c-.16-.01-.31,0-.45.08-.09.05-.17.09-.25.14-.11.07-.22.17-.31.27-.05.05-.09.11-.13.17-.08.12-.15.24-.21.37-.03.07-.06.15-.09.22-.05.15-.09.3-.11.45,0,.04,0,.09-.01.13,0,.11,0,.22,0,.33,0,.04.01.09.02.13.02.1.04.21.09.31s.1.19.15.28c.02.03.04.06.06.09.07.08.15.16.23.23.03.02.05.04.08.06.09.06.18.12.28.16s.2.06.3.09c.03,0,.07.01.1.01.09,0,.21.01.31,0s.2-.04.3-.08.19-.1.27-.15c.12-.07.22-.18.31-.28s.16-.24.23-.36c.03-.06.06-.12.09-.19.05-.15.09-.3.11-.46.01-.1.02-.2.02-.3,0-.21.01-.42.07-.62l-.06.22c.03-.12.08-.23.14-.33l-.12.2c.07-.13.17-.24.27-.34l-.17.16c.05-.05.1-.09.16-.14.16-.11.32-.29.4-.48l-.11.19c.09-.1.11-.18.14-.29.03-.07.04-.13.03-.2,0-.05,0-.09,0-.14l-.27.62h0s.09-.09.13-.13l.09-.15.05-.17c.01-.09,0-.17-.02-.25,0-.06-.03-.11-.06-.16-.02-.06-.06-.1-.1-.14-.04-.05-.08-.09-.14-.11-.07-.05-.15-.08-.24-.09-.04,0-.07-.01-.11-.01-.12,0-.29-.01-.4.05l.3-.04c-.07-.01-.15,0-.21,0-.02,0-.04,0-.07,0-.09,0-.18.04-.26.06-.04.01-.08.03-.11.05-.08.04-.15.08-.22.13s-.13.11-.19.17c-.03.03-.05.06-.08.1-.06.1-.13.2-.13.32,0,.1,0,.16.03.25.02.04.04.08.06.11.07.1.21.16.33.14.1-.02.22-.05.3-.11.04-.03.09-.07.13-.09l-.11.06c.06-.03.11-.05.18-.07l-.13.03c.06-.02.13-.02.2-.02h-.14c.07,0,.14,0,.21.03l-.15-.04c.06.02.13.04.19.05l-.39-.23c.06.07.1.1.16.15.02.02.04.03.06.05l-.12-.12s.03.03.04.05l.63-1.06h0c.15.09.3.18.45.26-.03-.04-.06-.07-.09-.1-.07-.08-.16-.15-.26-.19l-.2-.05c-.07,0-.14,0-.22,0h.21c-.08-.02-.21-.01-.3,0-.08.02-.19.04-.25.06-.06.03-.14.08-.2.11-.01,0-.02.01-.03.02-.06.04-.11.08-.17.12-.16.14-.32.29-.43.48-.07.12-.15.25-.21.38s-.09.27-.12.4c-.04.17-.05.35-.06.53,0,.2,0,.4-.06.59l.06-.22c-.03.09-.06.18-.11.26l.12-.2c-.04.06-.08.12-.14.18l.16-.16s-.08.07-.13.1l.19-.11s-.08.04-.12.05l.21-.05s-.08.02-.13.02h.22s-.08,0-.12-.02l.21.06s-.1-.03-.14-.06l.2.12c-.05-.03-.1-.07-.14-.11l.16.16s-.08-.09-.11-.15l.11.19c-.03-.06-.06-.13-.08-.2l.05.21c-.02-.08-.03-.16-.03-.25v.21c0-.12.02-.24.05-.36l-.06.21c.04-.14.09-.28.17-.41l-.11.19c.07-.12.16-.23.22-.36l-.11.18c.05-.08.11-.16.18-.22l-.14.14s.08-.08.12-.11c.08-.06.14-.15.17-.24,0,0,0,0,0-.01,0,0,0-.02.01-.03l-.1.17s.04-.06.06-.1c.04-.05.06-.11.07-.17.01-.03.02-.06.02-.09l-.05.18s.01-.03.02-.04l-.22.28h0c.08-.06.13-.13.17-.21.04-.05.06-.1.07-.16,0-.03.02-.06.02-.09l-.13.31s.02-.03.03-.04l-.12.12h0c.09-.07.16-.16.2-.26.04-.1.06-.2.04-.31h0c-.04.15-.08.3-.12.45,0-.01.02-.02.03-.04l-.24.18h0c.07-.03.13-.07.18-.13.06-.05.1-.11.13-.19l.04-.14c.01-.07,0-.15-.02-.22,0-.05-.02-.09-.05-.14-.03-.07-.08-.13-.14-.17l-.13-.08c-.09-.04-.19-.05-.29-.04h0Z"/>
  </g>
</svg>