<?xml version="1.0" encoding="UTF-8"?>
<svg id="a" data-name="zip&amp;apos;s last day" xmlns="http://www.w3.org/2000/svg" viewBox="0 0 36 36">
  <defs>
    <style>
      path {
      	fill: #38568b;
      }
      .b {
        fill: #fff;
      }
    </style>
  </defs>
  <path class="b" d="M19.62,5.97c-3.15-.46-6.73,2.59-6.9,5.87s1.89,5.28,1.89,5.28c0,0-2.64,1.35-3.66,2.59s-1.94,4.85-1.94,4.85h19.61s.16-2.96-1.72-4.69-4.47-3.18-4.47-3.18c0,0,2.05-1.56,1.94-4.63s-2.53-5.77-4.74-6.09Z"/>
  <rect class="b" x="4.7" y="24.18" width="28.88" height="10.94"/>
  <g>
    <path class="b" d="M33.34,32.21s.06.05.1.07c.05.02.08.02.12.02h.13c.08,0,.16,0,.24,0,.16,0,.32,0,.49.01.18,0,.37,0,.55,0,.16,0,.33,0,.49,0,.09-.01.18-.02.27-.03.06,0,.13-.03.19-.05l.13-.04s.07-.04.09-.07c.03-.04.05-.09.05-.14,0-.04,0-.08-.03-.11-.02-.04-.06-.09-.11-.1-.07-.02-.15-.04-.22-.06-.06-.02-.12-.03-.18-.03h-.12s-.08-.02-.12-.03c-.07,0-.13,0-.2,0h-.24c-.32,0-.64,0-.97.01h-.27s-.09,0-.14.01c-.02,0-.04,0-.06,0-.07,0-.13.04-.18.08-.14.1-.15.34,0,.45h0Z"/>
    <path class="b" d="M.16,32.19s.02,0,.03,0l-.12-.12c.03.09.1.16.19.19.05.02.09.04.15.04h.18c.13,0,.26,0,.4,0,.31,0,.62,0,.93.01.36,0,.72,0,1.08,0h.48c.14,0,.29-.01.43-.02s.28-.02.42-.04l.32-.05c.11-.02.2-.11.2-.22s-.08-.21-.19-.23l-.28-.04c-.12-.02-.24-.03-.36-.04l-.42-.03c-.18-.01-.36,0-.54,0-.65,0-1.3,0-1.95.02h-.46c-.06,0-.13,0-.19,0-.15,0-.32.08-.37.22l.12-.12s-.02,0-.03.01c-.08.03-.13.12-.13.2s.05.17.13.2H.16Z"/>
    <path class="b" d="M27.69,21.34c.13.06.27.05.41.05h.41c.27.02.55.02.82.03l1.6.03,3.24.06c.32,0,.63,0,.95,0h.47c.07,0,.15,0,.23,0,.11-.01.2-.06.29-.11.14-.09.15-.36,0-.45-.08-.05-.16-.09-.25-.11-.08-.01-.17,0-.25,0h-.41c-.27,0-.55,0-.82,0-.53,0-1.07.02-1.6.03l-3.24.06c-.3,0-.6,0-.9.02h-.47c-.16.02-.32,0-.47.07s-.15.27,0,.33h0Z"/>
    <path class="b" d="M-.12,21.64c.11.11.32.12.46.12.16,0,.31,0,.47,0h.91c.63.02,1.27.03,1.9.04,1.29.02,2.58.04,3.87.04.7,0,1.39,0,2.09-.07.31-.03.32-.51,0-.55-.63-.07-1.26-.07-1.89-.07s-1.28,0-1.92,0c-1.28.02-2.55.04-3.83.05-.35,0-.69,0-1.04.01H.39c-.19,0-.4.02-.54.16-.08.08-.03.2.03.27H-.12Z"/>
    <path d="M4.75,24.27l.37.05s.18.03.11,0c-.05-.02.02.03.03.04.21.23.52.28.81.32.45.06.91.07,1.36.09.93.04,1.86.05,2.8.07,1.91.03,3.83.06,5.74.06,3.72,0,7.44.02,11.15,0,1.04,0,2.08,0,3.11-.04.52-.02,1.04-.02,1.55-.07s1.07-.11,1.6-.17.57-.93,0-.99l-1.42-.15c-.45-.05-.91-.06-1.36-.08-.93-.04-1.87-.05-2.8-.05-1.92-.01-3.83-.01-5.75-.01-3.72,0-7.43-.03-11.15.04-1.04.02-2.08.02-3.11.07-.51.02-1.04.01-1.55.09-.29.04-.63.05-.88.23-.05.04-.11.08-.14.14l-.03.03c.05-.03.04-.03-.03-.01-.14,0-.29.04-.43.06-.16.02-.17.27,0,.29h0Z"/>
    <path d="M4.63,35.27c.23.08.45.17.69.23.2.05-.14-.04.1.03.07.02.13.02.2.03.12.01.25.02.37.04.45.04.9.07,1.36.08.91.03,1.82.05,2.73.06,1.8.03,3.6.06,5.41.08s3.76.02,5.64.03c.91,0,1.83,0,2.74,0s1.8-.04,2.7-.08c1.01-.05,2.02-.13,3.03-.19s2.04-.14,3.06-.24c.45-.04.47-.76,0-.8-1.81-.17-3.62-.28-5.43-.4s-3.72-.12-5.57-.11c-3.64.02-7.27.05-10.91.11-1.02.02-2.03.04-3.04.06-.51.01-1.01.02-1.52.07-.27.03-.56.03-.83.1.1-.03-.09.03-.09.02-.08.02-.16.04-.24.07-.13.05-.25.09-.38.14-.29.1-.3.56,0,.66h0Z"/>
    <path d="M33.04,23.67c-.18.13-.28.28-.32.5-.01.08-.02.16-.04.24-.02.16-.03.33-.04.49-.02.38-.03.75-.04,1.12v1.97c-.02,1.31-.03,2.61-.03,3.92v1.65c0,.24.06.47.13.7.1.28.41.47.69.47s.6-.17.7-.46c.04-.12.09-.25.11-.38.02-.14.02-.27.02-.41,0-.17,0-.33,0-.5v-.97c0-.66,0-1.31,0-1.97l-.02-3.91c0-.37-.01-.73-.03-1.09,0-.18,0-.37-.04-.54-.01-.09-.02-.18-.04-.27-.04-.23-.13-.41-.32-.55-.22-.16-.53-.17-.75,0h0Z"/>
    <path d="M4.4,23.72c-.1.13-.16.26-.19.42-.01.09-.02.17-.03.26-.02.17-.03.34-.04.52-.01.38-.02.77-.03,1.15v1.02c0,.17,0,.35,0,.52v.21c0,.18,0-.16,0,.02,0,.05,0,.1,0,.16-.03,1.36-.05,2.72-.07,4.08,0,.43-.03.87,0,1.3.02.19.03.38.07.56.05.23.13.45.21.67.17.46.89.48,1.06,0,.14-.36.24-.72.27-1.1s.02-.78.01-1.17c0-.69,0-1.37-.02-2.06-.03-1.36-.05-2.72-.06-4.08,0-.38,0-.76-.02-1.14,0-.19,0-.38-.03-.57-.03-.27-.04-.53-.22-.75-.23-.29-.68-.31-.91-.01h0Z"/>
    <path d="M14.8,16.46c-.12,0-.23,0-.34.04-.03.01-.07.03-.1.04-.07.03-.15.06-.22.09-.19.08-.36.18-.54.28-.28.16-.55.32-.82.5-.54.34-1.05.71-1.55,1.1-1.01.81-1.97,1.72-2.49,2.94-.29.67-.42,1.42-.32,2.14.02.18.12.36.27.48.14.11.35.18.53.15s.37-.12.48-.27.17-.34.15-.53c-.02-.15-.03-.3-.03-.45v.18c0-.29.04-.57.12-.85l-.05.18c.1-.37.26-.72.45-1.05l-.1.16c.27-.46.61-.87.99-1.25l-.13.13c.46-.44.95-.85,1.46-1.24.54-.41,1.09-.8,1.66-1.17.15-.1.31-.18.46-.29.07-.06.15-.11.22-.16.03-.02.07-.05.1-.07.02-.01.04-.03.06-.04.09-.07.14-.16.2-.26.08-.15.04-.35-.03-.49-.08-.15-.24-.27-.42-.29h0Z"/>
    <path d="M22.11,17.19c.48.19.96.41,1.41.68l-.13-.08c.45.27.89.56,1.3.89s.79.65,1.15,1.02l-.14-.15c.53.54.99,1.14,1.36,1.8l-.11-.2c.25.45.46.92.59,1.42l-.06-.23c.04.15.07.31.09.47.01.08.02.15.02.23,0,.04,0,.07,0,.11,0,.07.01.09.03.17.01.08.04.16.09.22.02.05.04.09.07.12.1.13.23.23.38.3.11.05.23.07.35.06.29,0,.54-.12.73-.35.05-.06.11-.16.14-.23.08-.16.07-.32.06-.49,0-.04,0-.08,0-.12,0-.08-.02-.16-.03-.24-.04-.23-.09-.45-.16-.67-.09-.32-.22-.62-.37-.91-.32-.63-.75-1.19-1.24-1.7-.45-.47-.93-.9-1.45-1.28s-1.11-.71-1.71-.99c-.65-.3-1.32-.56-2.01-.75-.13-.04-.24-.05-.37,0-.11.04-.23.15-.27.27-.09.25,0,.54.26.64h0Z"/>
    <path class="b" d="M.77.66c.56.06,1.12.05,1.68.05s1.1,0,1.65,0h3.34c2.23.01,4.45.02,6.68.02h6.68c2.23.02,4.45.02,6.68.03h3.31c1.11,0,2.23.04,3.34,0,.28,0,.56-.02.84-.04s.29-.48,0-.5c-1.11-.08-2.23-.04-3.34-.04h-3.34c-2.22.01-4.45.02-6.67.02h-6.67c-2.22.02-4.45.02-6.67.03s-4.43,0-6.64.03c-.28,0-.56.01-.84.04-.2.02-.2.33,0,.35h0Z"/>
    <path class="b" d="M.05,10.74c.82.23,1.72.18,2.57.19l2.52.03c1.64.02,3.29.04,4.93.06l1.43.02c.25,0,.51,0,.76-.01.28,0,.52-.04.76-.19.1-.07.11-.25,0-.32-.38-.25-.89-.21-1.34-.21s-.86.01-1.28.02l-2.52.03c-1.64.02-3.28.04-4.93.06-.47,0-.95,0-1.42.02-.5.01-.99.04-1.47.17-.06.02-.07.13,0,.14H.05Z"/>
    <path class="b" d="M24.14,11.07c.12.19.32.17.52.18l.59.02c.37.01.73.03,1.1.03l2.15.03c1.44.02,2.88.04,4.32.04h1.25c.43,0,.86.02,1.29-.05.38-.05.39-.62,0-.67-.41-.06-.82-.05-1.23-.05h-1.1c-.72,0-1.43,0-2.15.01l-4.27.05c-.42,0-.83.01-1.25.03l-.61.02c-.21,0-.47-.02-.6.18-.04.06-.04.12,0,.18h0Z"/>
    <path d="M.28,3.53l-.02-.03s0,0,0,0c0,.02.05.08.07.09.02.02.06.03.08.04.03.01.06.03.1.03.02,0,.04,0,.06,0h.23c.17.02.34.03.51.02h.91s.09-.01.13-.01.09,0,.13-.01.09-.01.13-.02c.03,0,.07-.01.1-.03l.06-.03c.06-.03.11-.09.11-.16s-.04-.13-.11-.16c-.05-.02-.09-.05-.14-.06-.04,0-.08-.01-.12-.02h-.11s-.08-.02-.12-.02h-.45c-.15,0-.31,0-.46,0-.17,0-.34,0-.51.01h-.26c-.06.01-.12,0-.18.03-.02,0-.03.02-.05.02-.04.02-.08.05-.1.09,0,.01-.01.02-.02.04l.02-.04h0s-.03.07-.03.11.01.07.03.1H.28Z"/>
    <path d="M.68,5.85l1.69.03h.23s.08,0,.12,0c.06,0,.11,0,.16-.01.02,0,.04-.01.06-.02.09-.03.14-.12.14-.21s-.05-.18-.14-.21c-.02,0-.03-.01-.05-.02-.06-.02-.09-.02-.16-.02-.04,0-.07,0-.11,0h-.21c-.14,0-.28,0-.42,0h-.84c-.16,0-.32,0-.48,0-.05,0-.12.05-.15.09s-.05.09-.05.14c0,.05.01.1.04.14.04.04.09.09.15.09h0Z"/>
    <path d="M.43,8.24s.07.05.1.06c.04.01.07.02.11.02h.13c.08,0,.17.01.25.02.19,0,.37.01.56.01.17,0,.33,0,.5-.01l.49-.04s.1,0,.14-.01c.04,0,.09-.02.13-.03l.28-.07c.07-.02.12-.06.12-.14s-.05-.12-.12-.14l-.24-.06s-.08-.02-.11-.03c-.04-.01-.09-.01-.13-.02l-.49-.04h-.12c-.07-.02-.13-.02-.2-.02h-.25c-.17,0-.33,0-.5,0h-.27s-.1.01-.14.02c-.02,0-.04,0-.07,0-.06,0-.11.04-.17.07-.07.04-.1.13-.1.2s.03.16.09.2H.43Z"/>
    <path d="M.52,13.97l-.02-.03s0,0,0,0c0,.02.05.08.07.09.02.02.06.03.08.04.03.01.06.03.1.03.02,0,.04,0,.06,0h.23c.17.02.34.03.51.02h.91s.09-.01.13-.01.09,0,.13-.01.09-.01.13-.02c.03,0,.07-.01.1-.03l.06-.03c.06-.03.11-.09.11-.16s-.04-.13-.11-.16c-.05-.02-.09-.05-.14-.06-.04,0-.08-.01-.12-.02h-.11s-.08-.02-.12-.02h-.45c-.15,0-.31,0-.46,0-.17,0-.34,0-.51.01h-.26c-.06.01-.12,0-.18.03-.02,0-.03.02-.05.02-.04.02-.08.05-.1.09,0,.01-.01.02-.02.04l.02-.04h0s-.03.07-.03.11.01.07.03.1h0Z"/>
    <path d="M.93,16.29l1.69.03h.23s.08,0,.12,0c.06,0,.11,0,.16-.01.02,0,.04-.01.06-.02.09-.03.14-.12.14-.21s-.05-.18-.14-.21c-.02,0-.03-.01-.05-.02-.06-.02-.09-.02-.16-.02-.04,0-.07,0-.11,0h-.21c-.14,0-.28,0-.42,0h-.84c-.16,0-.32,0-.48,0-.05,0-.12.05-.15.09s-.05.09-.05.14c0,.05.01.1.04.14.04.04.09.09.15.09h0Z"/>
    <path d="M.73,18.71h.01s-.04-.02-.06-.03c.05.03.1.07.16.07.02,0,.03,0,.05,0h.13c.08,0,.16.01.25.02.19,0,.37.01.56.01.17,0,.33,0,.49-.01l.49-.04s.09,0,.14-.01c.04,0,.09-.02.13-.03l.28-.07c.07-.02.12-.06.12-.14s-.05-.12-.12-.14l-.24-.06-.12-.03s-.09-.01-.13-.01l-.49-.04c-.1,0-.21-.02-.31-.02h-.25c-.17,0-.33,0-.5,0h-.27s-.1.01-.14.02c-.02,0-.04,0-.06,0-.07,0-.11.04-.17.07-.07.04-.11.15-.1.23,0,.04.02.08.05.12.03.04.06.06.1.08h0Z"/>
    <path d="M.52,24.31l-.02-.03s0,0,0,0c0,.02.05.08.07.09.02.02.06.03.08.04.03.01.06.03.1.03.02,0,.04,0,.06,0h.23c.17.02.34.03.51.02h.91s.09-.01.13-.01.09,0,.13-.01.09-.01.13-.02c.03,0,.07-.01.1-.03l.06-.03c.06-.03.11-.09.11-.16s-.04-.13-.11-.16c-.05-.02-.09-.05-.14-.06-.04,0-.08-.01-.12-.02h-.11s-.08-.02-.12-.02h-.45c-.15,0-.31,0-.46,0-.17,0-.34,0-.51.01h-.26c-.06.01-.12,0-.18.03-.02,0-.03.02-.05.02-.04.02-.08.05-.1.09,0,.01-.01.02-.02.04l.02-.04h0s-.03.07-.03.11.01.07.03.1h0Z"/>
    <path d="M.93,26.63l1.69.03h.23s.08,0,.12,0c.06,0,.11,0,.16-.01.02,0,.04-.01.06-.02.09-.03.14-.12.14-.21s-.05-.18-.14-.21c-.02,0-.03-.01-.05-.02-.06-.02-.09-.02-.16-.02-.04,0-.07,0-.11,0h-.21c-.14,0-.28,0-.42,0h-.84c-.16,0-.32,0-.48,0-.05,0-.12.05-.15.09s-.05.09-.05.14c0,.05.01.1.04.14.04.04.09.09.15.09h0Z"/>
    <path d="M.73,29.06h.01s-.04-.02-.06-.03c.05.03.1.07.16.07.02,0,.03,0,.05,0h.13c.08,0,.16.01.25.02.19,0,.37.01.56.01.17,0,.33,0,.49-.01l.49-.04s.09,0,.14-.01c.04,0,.09-.02.13-.03l.28-.07c.07-.02.12-.06.12-.14s-.05-.12-.12-.14l-.24-.06-.12-.03s-.09-.01-.13-.01l-.49-.04c-.1,0-.21-.02-.31-.02h-.25c-.17,0-.33,0-.5,0h-.27s-.1.01-.14.02c-.02,0-.04,0-.06,0-.07,0-.11.04-.17.07-.07.04-.11.15-.1.23,0,.04.02.08.05.12.03.04.06.06.1.08h0Z"/>
    <path d="M32.73,3.53l-.02-.03s0,0,0,0c0,.02.05.08.07.09.02.02.06.03.08.04.03.01.06.03.1.03.02,0,.04,0,.06,0h.23c.17.02.34.03.51.02h.91s.09-.01.13-.01.09,0,.13-.01.09-.01.13-.02c.03,0,.07-.01.1-.03l.06-.03c.06-.03.11-.09.11-.16s-.04-.13-.11-.16c-.05-.02-.09-.05-.14-.06-.04,0-.08-.01-.12-.02h-.11s-.08-.02-.12-.02h-.45c-.15,0-.31,0-.46,0-.17,0-.34,0-.51.01h-.26c-.06.01-.12,0-.18.03-.02,0-.03.02-.05.02-.04.02-.08.05-.1.09,0,.01-.01.02-.02.04l.02-.04h0s-.03.07-.03.11.01.07.03.1h0Z"/>
    <path d="M33.14,5.85l1.69.03h.23s.08,0,.12,0c.06,0,.11,0,.16-.01.02,0,.04-.01.06-.02.09-.03.14-.12.14-.21s-.05-.18-.14-.21c-.02,0-.03-.01-.05-.02-.06-.02-.09-.02-.16-.02-.04,0-.07,0-.11,0h-.21c-.14,0-.28,0-.42,0h-.84c-.16,0-.32,0-.48,0-.05,0-.12.05-.15.09s-.05.09-.05.14c0,.05.01.1.04.14.04.04.09.09.15.09h0Z"/>
    <path d="M32.88,8.24s.07.05.1.06c.04.01.07.02.11.02h.13c.08,0,.17.01.25.02.19,0,.37.01.56.01.17,0,.33,0,.5-.01l.49-.04s.1,0,.14-.01c.04,0,.09-.02.13-.03l.28-.07c.07-.02.12-.06.12-.14s-.05-.12-.12-.14l-.24-.06s-.08-.02-.11-.03c-.04-.01-.09-.01-.13-.02l-.49-.04h-.12c-.07-.02-.13-.02-.2-.02h-.25c-.17,0-.33,0-.5,0h-.27s-.1.01-.14.02c-.02,0-.04,0-.07,0-.06,0-.11.04-.17.07-.07.04-.1.13-.1.2s.03.16.09.2h0Z"/>
    <path d="M32.98,13.97l-.02-.03s0,0,0,0c0,.02.05.08.07.09.02.02.06.03.08.04.03.01.06.03.1.03.02,0,.04,0,.06,0h.23c.17.02.34.03.51.02h.91s.09-.01.13-.01.09,0,.13-.01.09-.01.13-.02c.03,0,.07-.01.1-.03l.06-.03c.06-.03.11-.09.11-.16s-.04-.13-.11-.16c-.05-.02-.09-.05-.14-.06-.04,0-.08-.01-.12-.02h-.11s-.08-.02-.12-.02h-.45c-.15,0-.31,0-.46,0-.17,0-.34,0-.51.01h-.26c-.06.01-.12,0-.18.03-.02,0-.03.02-.05.02-.04.02-.08.05-.1.09,0,.01-.01.02-.02.04l.02-.04h0s-.03.07-.03.11.01.07.03.1h0Z"/>
    <path d="M33.38,16.29l1.69.03h.23s.08,0,.12,0c.06,0,.11,0,.16-.01.02,0,.04-.01.06-.02.09-.03.14-.12.14-.21s-.05-.18-.14-.21c-.02,0-.03-.01-.05-.02-.06-.02-.09-.02-.16-.02-.04,0-.07,0-.11,0h-.21c-.14,0-.28,0-.42,0h-.84c-.16,0-.32,0-.48,0-.05,0-.12.05-.15.09s-.05.09-.05.14c0,.05.01.1.04.14.04.04.09.09.15.09h0Z"/>
    <path d="M33.18,18.71h.01s-.04-.02-.06-.03c.05.03.1.07.16.07.02,0,.03,0,.05,0h.13c.08,0,.16.01.25.02.19,0,.37.01.56.01.17,0,.33,0,.49-.01l.49-.04s.09,0,.14-.01c.04,0,.09-.02.13-.03l.28-.07c.07-.02.12-.06.12-.14s-.05-.12-.12-.14l-.24-.06-.12-.03s-.09-.01-.13-.01l-.49-.04c-.1,0-.21-.02-.31-.02h-.25c-.17,0-.33,0-.5,0h-.27s-.1.01-.14.02c-.02,0-.04,0-.06,0-.07,0-.11.04-.17.07-.07.04-.11.15-.1.23,0,.04.02.08.05.12.03.04.06.06.1.08h0Z"/>
    <path d="M32.98,24.31l-.02-.03s0,0,0,0c0,.02.05.08.07.09.02.02.06.03.08.04.03.01.06.03.1.03.02,0,.04,0,.06,0h.23c.17.02.34.03.51.02h.91s.09-.01.13-.01.09,0,.13-.01.09-.01.13-.02c.03,0,.07-.01.1-.03l.06-.03c.06-.03.11-.09.11-.16s-.04-.13-.11-.16c-.05-.02-.09-.05-.14-.06-.04,0-.08-.01-.12-.02h-.11s-.08-.02-.12-.02h-.45c-.15,0-.31,0-.46,0-.17,0-.34,0-.51.01h-.26c-.06.01-.12,0-.18.03-.02,0-.03.02-.05.02-.04.02-.08.05-.1.09,0,.01-.01.02-.02.04l.02-.04h0s-.03.07-.03.11.01.07.03.1h0Z"/>
    <path d="M33.38,26.63l1.69.03h.23s.08,0,.12,0c.06,0,.11,0,.16-.01.02,0,.04-.01.06-.02.09-.03.14-.12.14-.21s-.05-.18-.14-.21c-.02,0-.03-.01-.05-.02-.06-.02-.09-.02-.16-.02-.04,0-.07,0-.11,0h-.21c-.14,0-.28,0-.42,0h-.84c-.16,0-.32,0-.48,0-.05,0-.12.05-.15.09s-.05.09-.05.14c0,.05.01.1.04.14.04.04.09.09.15.09h0Z"/>
    <path d="M33.18,29.06h.01s-.04-.02-.06-.03c.05.03.1.07.16.07.02,0,.03,0,.05,0h.13c.08,0,.16.01.25.02.19,0,.37.01.56.01.17,0,.33,0,.49-.01l.49-.04s.09,0,.14-.01c.04,0,.09-.02.13-.03l.28-.07c.07-.02.12-.06.12-.14s-.05-.12-.12-.14l-.24-.06-.12-.03s-.09-.01-.13-.01l-.49-.04c-.1,0-.21-.02-.31-.02h-.25c-.17,0-.33,0-.5,0h-.27s-.1.01-.14.02c-.02,0-.04,0-.06,0-.07,0-.11.04-.17.07-.07.04-.11.15-.1.23,0,.04.02.08.05.12.03.04.06.06.1.08h0Z"/>
    <path d="M.73,34.86h.01s-.04-.02-.06-.03c.05.03.1.07.16.07.02,0,.03,0,.05,0h.13c.08,0,.16.01.25.02.19,0,.37.01.56.01.17,0,.33,0,.49-.01l.49-.04s.09,0,.14-.01c.04,0,.09-.02.13-.03l.28-.07c.07-.02.12-.06.12-.14s-.05-.12-.12-.14l-.24-.06-.12-.03s-.09-.01-.13-.01l-.49-.04c-.1,0-.21-.02-.31-.02h-.25c-.17,0-.33,0-.5,0h-.27s-.1.01-.14.02c-.02,0-.04,0-.06,0-.07,0-.11.04-.17.07-.07.04-.11.15-.1.23,0,.04.02.08.05.12.03.04.06.06.1.08h0Z"/>
    <path d="M33.18,34.86h.01s-.04-.02-.06-.03c.05.03.1.07.16.07.02,0,.03,0,.05,0h.13c.08,0,.16.01.25.02.19,0,.37.01.56.01.17,0,.33,0,.49-.01l.49-.04s.09,0,.14-.01c.04,0,.09-.02.13-.03l.28-.07c.07-.02.12-.06.12-.14s-.05-.12-.12-.14l-.24-.06-.12-.03s-.09-.01-.13-.01l-.49-.04c-.1,0-.21-.02-.31-.02h-.25c-.17,0-.33,0-.5,0h-.27s-.1.01-.14.02c-.02,0-.04,0-.06,0-.07,0-.11.04-.17.07-.07.04-.11.15-.1.23,0,.04.02.08.05.12.03.04.06.06.1.08h0Z"/>
    <path d="M15.97,6.67c-.16-.05-.34-.12-.51-.09-.21.03-.45.16-.63.28-.25.17-.49.35-.71.55-.54.49-.92,1.13-1.27,1.76-.68,1.24-1.09,2.63-1.06,4.05s.62,2.64,1.63,3.58c.91.85,2.11,1.34,3.31,1.63,1.4.33,2.92.31,4.27-.19,1.13-.42,2.13-1.18,2.84-2.14.77-1.03,1.23-2.28,1.26-3.56.04-1.45-.31-2.93-.95-4.23-.3-.6-.65-1.18-1.11-1.67-.25-.26-.51-.53-.81-.74-.28-.19-.57-.36-.88-.5-1.2-.54-2.57-.61-3.83-.21-.27.09-.53.2-.77.33-.26.14-.45.44-.32.74s.44.43.74.32c.11-.04.22-.08.34-.11.03,0,.06-.02.09-.02-.13.02-.05.01-.02,0,.07-.02.14-.03.22-.04.25-.05.5-.07.75-.08.03,0,.06,0,.09,0-.01,0-.16,0-.04,0,.06,0,.12,0,.18,0,.13,0,.27.01.4.03.12.01.24.03.35.05.06.01.12.02.17.04.03,0,.06.01.09.02s.16.04.04,0c-.13-.04.07.02.1.03.06.02.13.04.19.06.12.04.24.09.35.13.11.05.22.1.32.15.05.03.1.06.16.08.09.05-.15-.09-.07-.04.03.02.06.04.09.06.21.14.42.29.61.45.1.08.19.17.28.26.1.09-.04-.04-.05-.05.02.02.05.05.07.07.05.06.11.12.16.18.17.21.33.43.48.65.03.05.07.11.1.16.02.03.03.06.05.08.03.05.03.1-.03-.05.05.13.14.26.2.39.24.5.43,1.03.58,1.57,0,.02.04.14.01.04s0,.02,0,.04c.02.07.03.14.05.22.03.15.06.31.09.46.05.31.08.62.08.93,0,.04,0,.07,0,.11.01-.16,0-.06,0-.02,0,.07,0,.15,0,.22,0,.16-.03.32-.05.48-.02.11-.04.22-.06.34-.01.06-.03.11-.04.17-.03.12.01-.05.02-.06-.01.04-.02.08-.04.12-.07.23-.15.46-.25.68-.05.1-.1.21-.15.31-.03.05-.05.1-.08.15-.02.04-.08.1.03-.05-.02.03-.04.06-.06.09-.13.21-.27.4-.42.59-.07.09-.15.18-.22.26-.04.04-.08.08-.12.12-.02.02-.04.04-.06.06-.08.08-.02.01.03-.03-.19.16-.36.32-.55.47-.09.07-.18.13-.28.19-.05.03-.1.06-.14.09-.02.01-.05.03-.07.04-.02.01-.04.02-.06.03-.05.03-.02.01.06-.03-.05,0-.11.06-.15.08-.05.03-.1.05-.15.07-.12.05-.23.1-.35.15s-.25.09-.38.12c-.03,0-.07.03-.1.03.02,0,.14-.03.01,0-.08.02-.16.04-.23.05-.3.06-.6.09-.9.11-.07,0-.14,0-.21,0-.04,0-.07,0-.11,0-.1,0,.11,0,.01,0-.16,0-.32-.01-.48-.02-.29-.02-.59-.06-.88-.12-.12-.02-.25-.05-.37-.08-.03,0-.06-.01-.09-.02-.14-.03.11.03.02,0-.06-.02-.13-.04-.19-.06-.24-.07-.47-.17-.7-.27-.11-.05-.21-.1-.32-.15-.05-.03-.1-.05-.16-.08-.03-.01-.05-.03-.08-.04-.14-.08.14.09,0,0-.2-.13-.4-.26-.59-.41-.1-.08-.19-.16-.28-.24-.04-.04-.08-.08-.13-.12-.04-.04-.07-.1.04.05-.02-.03-.05-.05-.07-.08-.16-.18-.31-.37-.45-.57-.03-.05-.06-.1-.09-.15-.09-.15.07.14-.01-.02-.06-.11-.11-.22-.16-.33-.05-.12-.1-.25-.13-.38,0,0-.03-.08-.03-.1-.01.05.03.14.01.04-.02-.08-.03-.16-.05-.24-.02-.13-.04-.26-.05-.39,0-.07,0-.13-.01-.2,0-.03,0-.07,0-.1,0-.02,0-.05,0-.07,0-.06,0-.03,0,.07-.02,0,.02-.36.02-.4.01-.15.03-.3.06-.45.02-.13.05-.27.08-.4.02-.07.04-.13.05-.2,0,.02-.05.19-.01.05.01-.04.02-.08.04-.12.16-.54.39-1.07.63-1.58.12-.24.24-.47.37-.7l-.11.19c.26-.44.57-.86.87-1.27.07-.1.15-.19.23-.29.04-.05.08-.09.12-.14.02-.02.05-.04.06-.07l-.06.06.13-.13.09-.16-.04.08s.05-.06.06-.07c.08-.1.16-.19.19-.31.03-.1.04-.21.06-.31.03-.13-.07-.31-.2-.35h0Z"/>
  </g>
</svg>