<?xml version="1.0" encoding="UTF-8"?>
<svg id="b" xmlns="http://www.w3.org/2000/svg" version="1.1" viewBox="0 0 36 36">
  <!-- Generator: Adobe Illustrator 29.3.1, SVG Export Plug-In . SVG Version: 2.1.0 Build 151)  -->
  <path d="M9.4,25.1S1.1,23.2,1.2,16.4,5.7,7.7,5.7,7.7c0,0-2.5,3.8,1.4,4.5,3.3.6,7.4-1.2,9.3-1.2s6.6.5,6.6.5c0,0-9-7.5.5-10,10.1-2.6,7.4,7.1,7.4,7.1,0,0,1.3.5,2.1.2s1.7-.6,1.7-.6c0,0-.7,2-1.2,2.7s-2,1.4-2,1.4c0,0,4.7,3.1,3.1,6.6s-3.1,5.7-3.1,5.7c0,0-2.6,1.1-5.8-1.7-1.8,1.5-4.3,3-5.9,3s-3.8-.8-6.1-3.1c-2.5,2.3-4.2,2.4-4.2,2.4Z" fill="#fff"/>
  <g>
    <path d="M5.2,7.2c-.2.3-.4.6-.6,1-.2.3-.3.7-.3,1.1,0,.6,0,1.4.2,2,.3.6.9,1.1,1.5,1.4.8.3,1.6.3,2.4.2,1.6-.1,3.3-.4,4.9-.5.4,0,.8,0,1.2,0,.2,0,.4,0,.6,0h.3c-.1,0,0,0,0,0h.2c.8,0,1.6.1,2.4.2.9.1,1.7.3,2.6.3.5,0,1,0,1.4,0,.2,0,.5,0,.7,0,.3,0,.5-.1.8-.2.3-.1.6-.5.5-.8s-.3-.7-.7-.7c-.4,0-.8,0-1.2,0h-.3s-.2,0-.1,0c-.2,0-.4,0-.5,0-.7,0-1.5-.1-2.2-.2-1.5-.2-3-.4-4.6-.3-.8,0-1.5.2-2.2.3s-1.5.2-2.3.4-1.5.3-2.3.4c-.3,0-.6,0-1,0-.2,0-.2,0-.3,0-.2,0-.3-.1-.4-.2,0,0,0,0,0,0,0,0,0,0-.1,0,0,0-.1,0-.2-.1s-.2-.2-.2-.3c-.2-.3-.2-.6-.1-.9s.2-.6.4-.9c.2-.3.3-.7.5-.9.2-.3.2-.6-.1-.9-.2-.2-.7-.2-.9.1h0Z" fill="#38568b"/>
    <path d="M23.4,11s0,0,0-.1v.3h.1c0-.2-.2-.5-.5-.6,0,0-.2,0-.2-.1,0,0-.2,0-.2,0-.2,0-.3-.1-.5-.2h.2c-.4-.1-.7-.4-1-.7l.2.2c-.3-.3-.6-.7-.8-1v.2c0-.3-.2-.6-.3-.9,0,0,0-.2,0-.2,0,0,0,0,0,0,0,.3,0,.1,0,0,0-.2,0-.3,0-.5s0-.3,0-.5h0c0-.2,0,.1,0,0s0-.2,0-.3c0-.3,0-.6.2-.9v.2c0-.5.3-.9.5-1.4v.2c.1-.5.5-.9.9-1.3l-.2.2c.3-.3.6-.6,1-.8,0,0,.2-.1.2-.2,0,0,.2-.1,0,0,0,0,.1,0,.1,0,.2,0,.4-.2.6-.3.1,0,.2,0,.3-.1,0,0,.1,0,.2,0,0,0,.1,0,0,0-.1,0,0,0,0,0,.2,0,.5,0,.7-.1s.5,0,.7,0,.1,0,0,0h.3c.1,0,.2,0,.4,0,.2,0,.5,0,.7,0,.1,0,.2,0,.4,0,0,0,.1,0,.2,0,0,0-.1,0,0,0,0,0,0,0,.1,0,.5.2.9.3,1.4.6,0,0,.1,0,.2,0,0,0,.1,0,.1,0,0,0-.1,0,0,0,0,0,0,0,0,0,0,0,.1,0,.1,0,.2.1.4.3.5.4,0,0,0,0,.1.1.1.1,0,0,0,0s.1.2.2.3c0,0,0,0,0,.1,0,0,.1.2,0,0s0,0,0,0c0,0,0,.1,0,.2,0,0,0,0,0,0h0c0,.1,0,.1,0,0h0s0,0,0,0c0,0,0,0,0,.1,0,.2,0,.3,0,.4,0,.3,0,.6,0,.9,0,0,0-.1,0,0h0v.4c0,.2,0,.4,0,.6v.2h0s0,.2,0,.2,0,.2,0,.2c0,0,0,0,0,0,0,0,0,.1,0,.2,0,.3.2.6.5.6.3,0,.5-.2.6-.4,0,0,0,0,0-.1,0,0,0,0,0,0s0,0,0,0c0,0,0,0,0,0,0-.2.1-.3.1-.5,0-.3,0-.5,0-.8,0-.6,0-1.2,0-1.8s-.3-1.1-.6-1.5c-.3-.4-.6-.7-1-1-.8-.6-1.7-1-2.6-1.3-1-.3-2-.5-3-.4-1.9.1-3.7,1-4.8,2.5-1.2,1.5-1.7,3.4-1.2,5.2.4,1.7,1.7,3.3,3.4,3.8.1,0,.3,0,.4.1,0,0,.2,0,.3,0s.2,0,0,0c.3,0,.6-.1.8-.4h0c0,0-.1.2-.2.3,0,0,0,0,.1,0,.2-.2.3-.6.1-.8h0Z" fill="#38568b"/>
    <path d="M30.3,8.1c0,.1-.1.2-.1.3,0,0,0,.2,0,.2,0,.2,0,.3.2.5,0,0,0,0,0,0,0,0,.1.1.2.2s.1.1.2.1,0,0,.1,0c.1,0,.3,0,.4.1.1,0,.3,0,.4,0,.2,0,.5,0,.7-.1.3,0,.7-.2,1-.4.4-.1.7-.3,1-.6.2-.1.4-.3.5-.5,0,0,.1-.1.2-.2,0,0,.1-.2.1-.2,0,0,0-.2,0-.3s0-.2,0-.3c0-.1-.1-.2-.2-.3-.2-.1-.4,0-.6,0,0,0,0,0-.1,0,0,0-.2.1-.2.2,0,0-.1.1-.2.2h.1c-.2,0-.5.2-.7.4h.1c-.2,0-.5.2-.8.3-.3.1-.6.2-.9.3h.2c-.2,0-.4,0-.6,0h.2c-.1,0-.2,0-.3,0h.1c0,0-.2,0-.3,0h.1c0,0,0,0-.1,0h.1c0,.1,0,0,0,0h0c0,.1,0,0,0,0h0c0,.1,0,0,0,0h0c0,.1,0,.1,0,0h0c0,.1,0,.1,0,.1h0c0,0,0,0,.1,0,0,0,0-.1,0-.2,0-.1-.1-.3-.2-.4s-.3-.1-.4-.1-.3,0-.4.2h0Z" fill="#38568b"/>
    <path d="M34.1,7.5c0,.2,0,.3,0,.5,0,.2,0,.3,0,.5,0,.3-.1.6-.2.9h0c0,0,0,.2-.2.4s-.2.3-.3.5h0c-.2.2-.4.5-.7.8h0c-.2,0-.5.3-.7.4h.1c-.2,0-.5.2-.8.2h.1c0,0-.2,0-.2,0,0,0,0,0-.1,0-.1,0-.2,0-.3.1h0s.1,0,.1,0c0,0,0,0,0,0h-.1c0,.1-.1.2-.1.2,0,.1-.1.2,0,.4,0,.1,0,.2.1.3,0,.1.2.2.4.2,0,0,.2,0,.3,0,0,0,.2,0,.3,0s.2,0,.3-.1c.2,0,.4-.2.6-.3.2-.1.3-.2.5-.4.2-.2.3-.3.5-.5.3-.3.5-.7.8-1.1,0-.1,0-.2.2-.3s.1-.2.2-.3c.1-.2.2-.4.3-.6,0-.2.2-.5.3-.7.1-.3.2-.6.3-.9,0-.2,0-.4-.1-.5,0-.1-.3-.2-.5-.3s-.4,0-.5.1c-.2.1-.2.3-.3.5h0Z" fill="#38568b"/>
    <path d="M27.4,5.6h0s0,0-.1,0c-.1,0-.2,0-.3.2-.1,0-.1.1-.2.2,0,0,0,0,0,0,0,0-.1.2-.1.3,0,0,0,0,0,0,0,0,0,0,0,0,0,0,0,.1,0,.2,0,.1,0,.2,0,.3h0v.4h0v.2c0,.1,0,.3.1.4,0,.1.1.2.3.3.1,0,.2.1.4.2.1,0,.3,0,.4,0h.3c.2-.1.3-.2.4-.4v-.2c.2-.2.2-.3.2-.5,0,0,0-.1,0-.2v.3h0v-.4.3c0-.1,0-.2,0-.3v.2c0,0,0,0,0,0h0c0-.1,0-.2,0-.4,0,0,0-.2,0-.2,0,0,0,0,0-.1,0,0-.1-.2-.1-.2h0s.1.2.1.2c0,0,0,0,0,0v-.2c-.2,0-.3-.2-.4-.2,0,0-.1,0-.2,0-.1,0-.2,0-.3,0h0Z" fill="#38568b"/>
    <path d="M31,12.9c0,0,0,0,0,0,0,0,0,.1.1.2,0,0,.2,0,.2.1,0,0,0,0,0,0,0,0,.1,0,0,0,0,0,0,0,0,0,0,0,0,0,.1,0,.2.1.5.3.7.4,0,0,.2.1.3.2,0,0,0,0,.1.1,0,0,0,0,0,0,0,0,0,0,0,.1.2.2.3.4.5.6,0,0,0,0,0,0,0,0,0-.1,0,0,0,0,0,.2.2.3,0,0,0,0,0,0,0-.1,0-.1,0,0,0,0,0,.1,0,.2,0,.2.2.4.3.7,0,0,0,.1,0,.2,0,0,0,.1,0,0,0,0,0,0,0,0,0,.1,0,.2,0,.4,0,.2,0,.5,0,.7v.2c0-.3,0,0,0,0,0,.1,0,.3,0,.4,0,.3,0,.5-.2.8v-.2c0,.4-.2.7-.3,1s-.2.7-.4,1v-.2c0,.3-.3.6-.5.9-.3.4-.6.7-.9,1l.2-.2c-.2.2-.4.4-.6.5l.2-.2-.6.6.2-.2c-.1.1-.2.2-.4.4,0,0,.1-.1,0,0,0,0,0,0,0,0,0,0,0,0-.1,0-.1,0,.2,0,0,0-.1,0-.2.1-.3.2,0,0,0,0,0,0,0,0,0,0,0,0,0,0-.2.2-.2.2l.4-.3s-.2,0-.1,0c0,0,0,0,0,0-.3,0-.5.5-.2.7,0,0,.1.1.2.1l-.2-.2c0,.1.1.2.2.3.2.1.4.2.6.2,0,0,.2,0,.2,0,0,0,.1,0,.2,0-.2,0-.1,0,0,0,.1,0,.2,0,.3,0,.6-.2,1.1-.6,1.5-1,.3-.3.7-.7,1-1.1.3-.4.6-.7.8-1.1.3-.6.4-1.2.5-1.8v.2c0-.3.1-.6.1-1s0-.6,0-1c0-.6-.1-1.2-.3-1.8s-.4-1.1-.8-1.6c-.2-.3-.4-.5-.7-.7-.1-.1-.2-.2-.4-.3,0,0,0,0-.1,0,0,0,0,0,0,0,0,0-.1-.1-.2-.1-.3-.2-.6-.4-.9-.6-.2,0-.3-.2-.5-.2,0,0-.1,0-.2-.1-.1,0-.2,0-.4,0-.1,0-.2.1-.3.2,0,.1,0,.2,0,.4h0Z" fill="#38568b"/>
    <path d="M4.8,8.4c.2,0,.2-.3,0-.3s-.2.3,0,.3h0Z" fill="#38568b"/>
    <path d="M5.7,7.3c0,0-.2,0-.2,0,0,0-.2,0-.3,0-.2,0-.5.2-.7.3-.4.2-.7.5-1,.8-.7.7-1.2,1.4-1.7,2.2s-.8,1.7-1,2.6c-.3,1-.4,2.1-.5,3.2,0,.5-.1,1.1,0,1.7.1.5.3,1,.5,1.4.3.6.6,1.3,1,1.9.7,1,1.5,2,2.6,2.6.7.5,1.5.8,2.3,1,.5.1,1,.2,1.6.3.3,0,.6,0,.9,0,.2,0,.4,0,.5,0,.1,0,.2-.1.4-.2.5-.2.4-.8,0-1-.2-.1-.4-.2-.7-.3,0,0-.2,0-.1,0,.1,0-.2,0-.2,0-.1,0-.2,0-.3,0-.2,0-.4,0-.6-.1-.2,0,0,0,0,0,0,0,0,0-.2,0-.2,0-.3,0-.5-.1,0,0,0,0-.1,0-.2,0,.2,0,0,0,0,0-.2,0-.2,0-.2,0-.4-.1-.5-.2-.3-.1-.6-.2-.9-.4,0,0-.1,0-.2-.1,0,0-.3-.1,0,0s0,0,0,0c0,0-.1,0-.2-.1-.2-.2-.5-.3-.7-.5,0,0-.2-.2-.3-.3,0,0,0,0,0,0,0,0,.2.2,0,0,0,0,0-.1-.2-.2-.2-.2-.3-.4-.5-.6-.3-.4-.6-.8-.9-1.3,0-.1-.1-.2-.2-.3,0,.2,0-.1,0-.1-.1-.2-.2-.4-.3-.6,0-.2-.2-.4-.2-.6,0,0,0-.2,0-.1,0,.1,0-.1,0-.1,0-.1,0-.3,0-.4-.1-.9,0-1.9.1-2.8.1-.9.3-1.8.7-2.7.4-.8.9-1.5,1.5-2.2.3-.4.6-.6,1-.9.2-.1.4-.3.5-.4s.2-.1.2-.2c.1-.1.2-.2.2-.3,0-.1,0-.3-.1-.3h0Z" fill="#38568b"/>
    <path d="M1.7,27.1c.7.7,1.5,1.1,2.5,1.4s1.8.4,2.8.4c.5,0,1,0,1.5,0s1.1,0,1.6-.2c.9-.3,1.7-.9,2.3-1.6.4-.4.7-.8,1-1.2.2-.3.4-.5.5-.8.1-.3.2-.6.3-.9,0-.2,0-.4-.3-.5s-.4-.1-.6,0c-.2.2-.4.4-.6.5-.2.2-.3.3-.4.5-.3.4-.6.7-.8,1-.1.2-.3.3-.4.5,0,0,0,0,0,0,0,0,0,0,0,0,0,0,0,0-.1.1,0,0-.2.1-.2.2-.1.1-.3.2-.5.4,0,0,0,0-.1,0,0,0,0,0,0,0-.1,0,0,0,0,0,0,0-.1,0-.1,0,0,0-.1,0-.1,0,0,0-.2,0-.2.1,0,0,0,0-.1,0,0,0-.2,0,0,0s0,0,0,0c0,0-.1,0-.2,0-.1,0-.3,0-.4,0-.2,0-.5,0-.8,0h-.3c-.1,0,.2,0,0,0h-.2c-.8,0-1.7,0-2.5-.2,0,0-.1,0-.2,0,0,0,0,0,0,0-.2,0,.1,0,0,0-.1,0-.2,0-.3-.1-.2,0-.5-.2-.7-.2-.1,0-.2-.1-.3-.2h0c-.1-.1.1,0,0,0,0,0,0,0-.2-.1-.2-.1-.4-.3-.6-.5-.3-.2-.8-.2-1,.1-.2.3-.2.7.1,1h0Z" fill="#38568b"/>
    <path d="M12.9,24.5c.3,1,.9,1.8,1.7,2.4.9.6,1.9,1.1,2.9,1.4,1.1.3,2.3.4,3.4.3,1.2-.1,2.4-.5,3.4-1.1.5-.3,1-.8,1.3-1.2.2-.3.4-.5.5-.8.1-.3,0-.7,0-1,0-.2-.2-.4-.4-.4s-.4,0-.5.2c0,0,0,0,0,0s-.1.1,0,0,0,0,0,0c0,0,0,0,0,0-.2.1-.3.3-.4.5-.2.2-.4.5-.6.7l.2-.2c-.3.3-.7.6-1.1.8h.2c-.3,0-.7.2-1,.3-.1,0-.2,0-.3,0-.2,0,.2,0,0,0,0,0,0,0-.1,0-.2,0-.4,0-.6.1-.2,0-.4,0-.6,0-.1,0-.2,0-.3,0h-.2c.1,0,.2,0,0,0-.4,0-.8,0-1.2,0-.4,0-.7-.1-1-.2,0,0-.1,0-.2,0,0,0,0,0-.1,0,.3,0,.1,0,0,0-.2,0-.4-.1-.5-.2-.3-.1-.6-.2-.9-.4,0,0-.2,0-.2-.1-.1,0,.2.1,0,0,0,0,0,0,0,0-.1,0-.3-.2-.4-.3-.1-.1-.3-.2-.4-.4,0,0,0,0,0,0-.1-.1.1.1,0,0,0,0-.1-.1-.2-.2-.1-.1-.2-.3-.3-.4,0,0,0-.1-.1-.2,0-.1,0,.1,0,0,0,0,0-.1,0-.1-.1-.3-.5-.5-.9-.4s-.5.5-.4.9h0Z" fill="#38568b"/>
    <path d="M25.1,24.5c0,.1,0,.2,0,.3,0,.1,0,.2,0,.4,0,.1,0,.3.2.5.1.3.4.7.7.9.3.3.5.6.9.8s.7.5,1,.7c.7.4,1.4.6,2.1.8.4.1.8.2,1.2.2.5,0,1,0,1.5,0s1-.2,1.5-.4c.3-.2.7-.3.9-.6.2-.2.3-.6.3-.9,0-.1,0-.2,0-.4,0-.2-.3-.4-.6-.4,0,0,0,0-.2,0h.2c-.2,0-.2,0-.4,0h-.2c-.1,0-.3,0-.4,0-.2,0-.3.2-.5.3h.2c-.3,0-.7.2-1,.2h.3c-.5,0-1,.1-1.5.1h.3c-.7,0-1.5-.1-2.1-.3h.2c-.6-.1-1.2-.3-1.8-.7h.2c-.4-.1-.8-.4-1.2-.8h.1c0,0-.2,0-.3-.1-.1-.1-.2-.3-.4-.4h.1c0,0-.2,0-.3-.2-.1-.1-.2-.2-.4-.4-.3-.2-.8,0-.8.3h0Z" fill="#38568b"/>
    <path d="M.9,33c.4.1.7.1,1.1,0,.3,0,.7-.2,1-.4s.6-.3.9-.5c.2-.2.5-.3.7-.5.2-.1.3-.3.4-.4,0,0,0-.1.1-.2,0,0,0-.1,0-.2s0-.1,0-.2v-.2c0-.1-.1-.3-.2-.3s-.3,0-.4,0c0,0-.1,0-.2,0,0,0-.2.1-.3.2,0,0-.2.2-.2.3,0,0,0,.1-.2.1h.1c-.4.3-.8.5-1.3.8-.1,0-.3.2-.4.3h.1c-.2,0-.4.2-.7.2h.1c-.1,0-.3,0-.4,0h.1c-.1,0-.2,0-.4,0-.1,0-.3,0-.4,0,0,0-.1.2-.2.3,0,0,0,.2,0,.3,0,.1.1.2.3.3h0Z" fill="#38568b"/>
    <path d="M4.6,30.4c.3,2.5,2.8,4,5,4.7,1.4.4,2.9.5,4.3.3,1.3-.2,2.6-.6,3.8-1.3.6-.4,1.1-.8,1.6-1.3.3-.3.5-.5.7-.9.2-.3.4-.6.4-1,0-.3-.1-.6-.4-.8-.3-.2-.6-.1-.9,0-.3.2-.5.5-.8.8-.2.2-.4.5-.7.7l.2-.2c-.3.3-.7.6-1.1.9-.1,0-.2.1-.3.2s-.1,0-.1,0c0,0-.1,0,0,0,.1,0,0,0,0,0-.2.1-.4.2-.7.3s-.4.2-.7.2c-.1,0-.2,0-.3,0,0,0-.1,0-.2,0-.1,0,0,0,0,0,0,0,0,0-.1,0-.5.1-1.1.2-1.6.2-.1,0-.3,0-.4,0h-.1c-.2,0,0,0,0,0,0,0-.1,0-.2,0-.3,0-.5,0-.8,0-.6,0-1.1-.2-1.6-.3,0,0,0,0,0,0-.1,0,0,0,0,0,0,0-.1,0-.2,0-.1,0-.2,0-.4-.1-.2,0-.4-.2-.7-.3s-.4-.2-.6-.3c0,0-.2-.1,0,0s0,0,0,0c0,0-.2-.1-.3-.2-.2-.2-.4-.3-.6-.5,0,0-.2-.2-.3-.2,0,0,0,0,0,0,0,0,0,0,0,0,0,0,0-.1-.1-.1-.2-.2-.3-.4-.4-.6,0,0,0,0,0,0,0,0,0,0,0,0,0,0,0-.1,0-.2,0-.1,0-.2-.1-.3,0-.2-.4-.4-.6-.3-.3,0-.4.3-.4.6h0Z" fill="#38568b"/>
    <path d="M20,30.8c.1,0,.1-.2,0-.2s-.1.2,0,.2h0Z" fill="#38568b"/>
    <path d="M18.9,30.8c.3.5.5,1,.8,1.5.3.5.7.9,1.1,1.3.8.7,1.7,1.1,2.7,1.4s2.1.4,3.1.2,2-.6,2.9-1.2c.5-.3.9-.7,1.2-1.2.2-.3.4-.6.5-1,0-.3,0-.6,0-.9-.1-.3-.5-.5-.8-.4s-.6.3-.8.5c-.3.3-.5.6-.8.9l.2-.2c-.4.4-.8.7-1.2.9h.2c-.5.1-.9.3-1.5.5h.3c-.6,0-1.1.1-1.7.1h.3c-.6,0-1.1,0-1.7-.2h.2c-.5,0-1-.3-1.5-.6h.2c-.4-.1-.8-.4-1.1-.7l.2.2c-.2-.2-.3-.3-.5-.5l.2.2c-.4-.4-.8-.9-1.1-1.4-.2-.3-.6-.4-1-.2-.3.2-.5.6-.3.9h0Z" fill="#38568b"/>
    <path d="M30.3,31h0s0-.1,0-.1c0,0,0,0,0,0,0,0,0,.1,0,.2h0c0,.2,0,.3,0,.4,0,0,0,0,0,.1,0,0,0,.1.1.2.1.2.2.4.3.6,0,.1.2.2.3.4.2.2.3.3.5.5s.4.3.6.4c.1,0,.2.1.4.2.2,0,.4.1.6.1s.4,0,.6,0c.2,0,.3,0,.4-.1,0,0,0,0,0,0,0,0,0,0,.1,0,0,0,0,0,.1,0,0,0,0,0,0,0,0,0,.2-.2.2-.2s.1-.2.2-.3c0,0,0-.1,0-.2v-.2s0-.2,0-.2c0,0,0-.1,0-.2,0,0,0-.2-.2-.2,0,0,0,0-.2-.1,0,0-.1,0-.2,0,0,0-.1,0-.2,0,0,0-.2,0-.3,0,0,0,0,0,0,0h.2s0,0,0,0h.2-.3c0,0-.2,0-.2,0h.2c0,0-.1,0-.2,0-.1,0-.3,0-.4.1h.2c-.2,0-.3,0-.5,0h.2c-.2,0-.4,0-.5,0h.2c-.2,0-.4,0-.5-.2h.2c-.2,0-.5-.2-.7-.4l.2.2c0,0-.2-.2-.3-.3,0,0,0,0-.1-.1,0,0-.1-.1-.2-.2h.1c0,0-.1,0-.2,0s0,0,0,0c0,0,0,0-.1-.1,0,0,0,0-.1-.1,0,0-.1,0-.2,0,0,0-.1,0-.2,0h-.1.2,0c0,0-.2,0-.2,0,0,0-.2,0-.2.1h-.1c0,.2-.1.3-.1.4h0Z" fill="#38568b"/>
  </g>
</svg>