<?xml version="1.0" encoding="UTF-8"?>
<svg id="b" data-name="folk tale" xmlns="http://www.w3.org/2000/svg" viewBox="0 0 36 36">
  <defs>
    <style>
      path {
      	fill: #38568b;
      }
      .c {
        fill: #ed1c24;
      }

      .d {
        fill: #fff;
      }
    </style>
  </defs>
  <path class="d" d="M17.79,34.37c-3.5,0-3.61-1.29-3.72-3.5s-.27-8.14-3.29-9.43-6.73.48-6.73.48c0,0,2.69-3.93,2.1-4.42s-3.29,1.78-3.66,1.29,3.02-4.53,2.69-4.96-4.69.81-4.69.81c0,0,2.48-3.34,3.12-3.88s2.1-1.72,2.1-1.72c0,0-4.54-7.05-3.18-7.97,2.48-1.67,9.05,3.18,9.05,3.18,0,0,3.66-2.16,6.9-2.26s5.98,1.78,5.98,1.78c0,0,7.44-4.53,9.16-2.96s-3.29,7.92-3.29,7.92c0,0,5.23,5.06,4.85,5.5s-4.47-.16-4.47-.16c0,0,4.17,4.47,3.18,4.47-.75,0-4.09-1.24-4.09-1.24,0,0,2.91,4.04,1.99,4.63s-3.88-2.96-6.73-.38-3.29,8.41-3.56,9.86-1.62,2.96-3.72,2.96Z"/>
  <path class="c" d="M12.78,22.44c1.72.32,3.77,2.91,3.88,3.99s-.48,3.39.11,4.2,3.61,1.62,4.09,1.24c0,0-.05,2.75-2.86,2.86s-3.07-.48-3.61-2.48-1.62-9.81-1.62-9.81Z"/>
  <g>
    <path d="M11.97,4.57c.26-.2.52-.38.8-.55.06-.03.12-.07.18-.1-.14.06-.01,0,.02,0,.04-.02.07-.04.11-.06.15-.08.29-.15.44-.22.3-.14.61-.24.93-.33.02,0,.09-.01.1-.03l-.08.02s.05-.01.08-.02c.08-.02.16-.04.25-.06.17-.04.33-.07.5-.1.66-.11,1.33-.19,2-.22.17,0,.34-.01.51-.01.24,0-.22,0,.02,0,.1,0,.2,0,.3,0,.33.01.66.04.99.08.75.09,1.49.24,2.22.43l-.3-.08c.29.08.57.15.86.23l-.3-.08c.32.09.63.19.94.3.15.05.29.12.44.18.33.13.61.11.96.11h-.27c.08,0,.17,0,.25,0,.09,0,.18,0,.27,0-.2,0-.22,0-.05,0,.07,0,.14,0,.2,0,.02,0,.07,0,.09-.01-.14,0-.17,0-.09,0,.02,0,.05,0,.07,0,.08,0,.15,0,.23.02.2.02.38-.05.51-.21.11-.14.17-.38.08-.54-.06-.11-.12-.22-.19-.34-.01-.02-.02-.04-.03-.06-.06-.1.05.08.05.08-.02-.01-.05-.11-.06-.13-.02-.04-.05-.09-.07-.13-.19-.35.16.31-.04-.05-.04-.07-.08-.13-.13-.2-.06-.08-.12-.15-.18-.23-.19-.23-.38-.41-.66-.53-.11-.05-.22-.09-.33-.13-.2-.08-.4-.15-.6-.21-.52-.16-1.04-.31-1.58-.39-.47-.07-.93-.1-1.4-.1-2.05-.03-4.11.26-5.97,1.15-.95.46-1.9.96-2.7,1.66-.21.18-.3.5-.11.74.18.22.5.29.74.11h0Z"/>
    <path d="M2.49,1.24c.05,0,.11,0,.16,0,.02,0,.18,0,.09,0,.12,0,.24,0,.36,0,.21,0,.43.02.64.04.43.04.86.1,1.29.18.22.04.43.09.64.14.05.01.1.02.15.04.03,0,.18.05.06.01.1.03.21.06.31.09.39.12.77.27,1.14.43.4.18.8.38,1.18.6l-.14-.08c.72.42,1.4.96,1.98,1.55l-.15-.15c.17.17.33.35.5.52l-.15-.16s.09.09.13.14c.06.07.12.14.19.2.16.13.41.19.62.16.27-.04.51-.19.61-.46.12-.28.09-.6-.1-.84-.2-.27-.45-.5-.71-.71-.53-.43-1.12-.77-1.73-1.06s-1.29-.58-1.97-.79c-.21-.07-.43-.13-.64-.19-.04-.01-.08-.02-.12-.03-.02,0-.1-.02-.03,0s0,0-.03,0c-.13-.04-.25-.07-.38-.1-.38-.1-.76-.18-1.14-.24-.94-.16-1.9-.21-2.86-.17-.23.01-.43.27-.39.5.04.26.25.39.5.39h0Z"/>
    <path d="M1.73.96c.06.58.14,1.15.23,1.72.04.29.09.57.14.85.05.34.12.67.21,1,.15.51.32,1.02.55,1.5.25.5.53,1,.86,1.45.17.23.34.45.53.66.02.02.04.04.06.07.13.14.19.18.36.28.06.03.12.06.17.09s.12.06.18.08c.18.07.33.07.51.02s.3-.25.33-.42c.05-.25-.13-.5-.23-.72-.11-.23-.29-.41-.45-.61-.25-.32-.47-.66-.66-1.01l.1.17c-.3-.54-.55-1.1-.76-1.68-.12-.33-.22-.66-.34-.98s-.22-.65-.3-.99l.04.16c-.15-.59-.27-1.18-.38-1.77-.03-.15-.09-.29-.22-.38-.11-.09-.28-.14-.42-.12-.31.05-.54.32-.5.64h0Z"/>
    <path d="M7.87,6.64c-.11.02-.25.04-.35.09-.08.04-.16.08-.24.12-.16.08-.31.16-.47.24-.36.19-.71.4-1.05.62-.6.37-1.16.8-1.71,1.24-.6.48-1.15,1.01-1.68,1.56-.48.5-.96,1.02-1.34,1.6-.11.16-.22.33-.32.49-.13.22-.28.43-.39.66-.08.17-.17.35-.23.53-.09.28-.16.61-.04.89.08.18.29.34.5.3.14-.03.26-.07.38-.16.11-.08.2-.16.29-.26.11-.12.2-.24.3-.37.2-.25.39-.52.59-.78.4-.51.81-1.02,1.24-1.51.25-.28.51-.54.77-.8l-.16.16c1.06-1.03,2.2-1.98,3.37-2.88.16-.12.31-.26.47-.39.08-.06.16-.13.24-.19.12-.1.21-.21.31-.32.13-.16.14-.4.04-.58-.09-.17-.32-.31-.52-.27h0Z"/>
    <path d="M.63,15.11c.42-.23.88-.38,1.35-.5l-.14.04c.55-.14,1.12-.23,1.69-.29.29-.03.58-.05.87-.07.27-.02.53-.02.8-.03.14,0,.27-.02.41-.03.1,0,.2-.01.29-.05.05-.02.11-.05.16-.08.23-.11.28-.4.08-.57-.08-.07-.16-.14-.25-.18-.11-.04-.23-.06-.34-.09-.17-.04-.34-.07-.52-.08-.43-.02-.86-.03-1.28,0-.83.07-1.65.21-2.45.45-.37.11-.74.25-1.08.44-.07.03-.13.07-.18.12-.06.05-.1.11-.13.18-.05.12-.06.3,0,.42.06.13.16.26.31.31.13.05.3.07.42,0h0Z"/>
    <path d="M5.53,13.45h-.02c.05,0,.1-.02.15-.03-.09.02-.2.04-.28.08-.05.02-.1.05-.15.08-.14.08-.28.15-.41.23-.1.06-.19.11-.28.18s-.17.13-.25.2c-.37.31-.73.65-1.05,1.02-.29.32-.54.66-.77,1.03-.26.41-.51.85-.67,1.31-.09.27-.18.55-.24.83-.03.16-.06.32-.05.49,0,.11.01.23.02.34.01.18.16.33.33.38s.37,0,.47-.15c.07-.1.14-.2.21-.3.1-.15.17-.32.25-.47.13-.23.24-.48.38-.71l-.1.17c.14-.23.26-.48.4-.71l-.1.17c.17-.29.35-.56.55-.83s.41-.54.63-.79c.13-.14.26-.28.39-.41l-.14.14c.21-.21.43-.39.66-.58.11-.09.22-.2.33-.29.05-.05.11-.09.16-.13.1-.08.19-.17.27-.26l-.12.12h.01c.07-.06.12-.12.16-.2.05-.07.07-.14.08-.22.01-.13-.01-.26-.08-.38-.15-.27-.46-.37-.75-.27h0Z"/>
    <path d="M2.44,19.68l.02-.02-.1.09c.67-.66,1.44-1.22,2.26-1.67l-.12.07c.69-.38,1.43-.7,2.2-.9l-.13.03c.15-.04.3-.07.45-.07.07,0,.14,0,.21-.02s.13-.03.2-.06c.09-.04.16-.09.23-.16.1-.11.1-.28.06-.42-.03-.1-.12-.19-.2-.25-.09-.07-.19-.11-.3-.14-.16-.04-.33-.03-.49,0-.25.04-.5.11-.74.18-.38.12-.76.26-1.12.43-.76.34-1.49.77-2.14,1.3-.38.31-.73.64-1.06,1-.08.09-.12.25-.1.37s.09.26.19.33.24.12.37.1l.12-.03c.08-.03.15-.09.21-.16h0Z"/>
    <path d="M3.1,1.41c-.02.08.04.16.08.22l-.05-.13c.01.05.02.11.06.15l.06.06-.03-.03c.05.07.12.11.19.15.07.03.13.07.2.11l-.09-.05c.12.07.25.14.37.21l-.1-.06c.43.25.83.57,1.18.93l-.1-.1c.38.39.68.85.94,1.32l-.08-.15c.06.11.12.23.19.34l-.09-.15c.19.36.36.74.53,1.12.08.19.15.38.24.57s.18.37.26.56c.04.11.08.22.11.33.02.06.04.11.06.17.06.16.17.28.29.39.02.02.03.03.05.05l-.15-.16v.02c.1.12.21.2.35.26.13.05.26.07.4.05.14-.02.27-.07.38-.15.12-.09.2-.2.26-.33.09-.17.13-.36.12-.55,0-.13-.04-.26-.08-.38s-.09-.24-.15-.35c-.14-.28-.3-.56-.47-.82-.28-.42-.57-.85-.88-1.25-.33-.43-.69-.84-1.09-1.21-.34-.31-.69-.6-1.08-.84-.25-.15-.5-.27-.77-.37-.15-.05-.3-.09-.45-.12-.06,0-.12-.02-.18-.02-.08,0-.14,0-.22.03.1-.03-.02,0-.03,0-.05.02-.09.06-.13.1l.12-.09c-.09.05-.18.09-.21.2h0Z"/>
    <path d="M7.15,16.03s-.06.02-.1.03l.15-.04c-.14.02-.21.06-.33.13l.14-.08c-.13.07-.27.14-.39.23-.08.07-.16.13-.24.2-.19.17-.38.35-.56.53-.29.29-.56.6-.8.93-.51.71-.94,1.49-1.25,2.31-.04.11-.08.22-.12.33-.05.16-.08.32-.1.48-.02.11-.03.23-.04.34-.01.15.01.3.04.46.03.18.15.33.33.38.08.02.15.02.23,0,.09-.02.19-.07.24-.16.04-.07.09-.14.13-.21.08-.11.13-.23.18-.35.07-.16.16-.32.22-.49.12-.34.26-.67.42-.99.09-.18.19-.36.29-.54l-.09.16c.22-.37.47-.73.74-1.07s.55-.67.86-.97l-.13.13c.11-.11.23-.22.35-.33.19-.17.4-.33.51-.57l-.08.14s.03-.06.05-.09c.07-.11.12-.22.12-.35,0-.12-.03-.25-.11-.35-.07-.08-.15-.14-.24-.19-.14-.06-.3-.05-.43,0h0Z"/>
    <path d="M4.26,22.35c.39-.21.8-.4,1.22-.56.21-.08.42-.15.64-.22.11-.03.22-.06.32-.09.02,0,.05-.01.07-.02.07-.02-.03,0-.03,0,.06-.02.13-.03.19-.04.42-.1.84-.16,1.27-.19.1,0,.21,0,.31,0,.13,0-.13,0,0,0,.06,0,.12,0,.18,0,.2.01.41.03.61.06.12.02.23.04.34.06.02,0,.04,0,.06.01.11.03.02,0-.04-.01.05.02.11.03.17.05.22.07.43.17.63.29l-.18-.1c.27.16.51.36.73.58l-.15-.15c.34.35.59.75.82,1.17l-.11-.19c.12.21.23.42.35.63l-.11-.2c.53.96.94,1.99,1.21,3.06l-.06-.24c.21.84.35,1.72.42,2.58.03.43.06.87.08,1.31,0,.21,0,.42.01.63.02.22.06.43.11.65.07.32.29.62.64.65s.63-.15.79-.46.28-.66.33-1.02c.04-.3.07-.6.08-.9.04-.67-.02-1.35-.11-2.02s-.28-1.32-.48-1.96c-.18-.57-.41-1.13-.67-1.68-.57-1.18-1.3-2.31-2.29-3.19s-2.4-1.16-3.71-.98c-1.47.21-2.89.75-4.15,1.53-.23.14-.26.47-.14.69s.43.36.66.24h0Z"/>
    <path d="M33.5.36c-.92-.04-1.84,0-2.74.15-.45.07-.89.17-1.33.28-.1.03-.19.05-.29.08-.02,0-.05.02-.07.02h.05s-.08,0-.13.02c-.06.02-.12.03-.18.05-.2.05-.39.11-.58.17-.72.23-1.43.53-2.11.87-.64.32-1.24.69-1.77,1.17-.16.15-.32.31-.46.49-.19.25-.25.58-.12.87.16.33.48.49.83.46s.6-.36.82-.6c.12-.12.23-.25.35-.37l-.15.15c.34-.33.72-.65,1.1-.93.21-.16.43-.3.65-.44.11-.06.21-.13.32-.19-.18.1.03-.02.08-.04.07-.04.15-.08.22-.11.51-.25,1.04-.49,1.58-.66.14-.04.29-.09.44-.13.04,0,.07-.02.11-.03.13-.03-.1.02.03,0,.07-.02.15-.04.22-.05.3-.07.61-.13.92-.18.35-.06.71-.1,1.07-.12.17-.01.35-.02.52-.03.09,0,.19,0,.28,0,.04,0,.08,0,.12,0-.09,0,.07,0,.09,0,.23,0,.48-.12.5-.38.02-.22-.13-.49-.38-.5h0Z"/>
    <path d="M33,.81c-.13.69-.27,1.37-.45,2.04l.04-.17c-.09.33-.21.66-.33.98s-.21.63-.33.94c-.22.55-.47,1.1-.77,1.62l.1-.18c-.19.32-.4.63-.63.93-.15.19-.31.35-.41.57s-.27.45-.22.7c.02.12.07.22.15.3.09.09.18.13.31.16.18.05.38-.05.53-.12.05-.02.1-.05.15-.07.02-.01.05-.03.07-.04.17-.09.22-.13.36-.27.17-.18.33-.38.49-.58.34-.45.63-.94.89-1.44.23-.46.41-.95.56-1.44.1-.33.19-.66.24-.99.05-.28.09-.57.14-.85.1-.64.19-1.28.26-1.93.03-.3-.18-.62-.49-.65s-.59.18-.65.49h0Z"/>
    <path d="M27.51,7.48c.09.11.17.22.28.31.08.06.16.13.23.19.15.12.29.25.44.37.31.25.63.49.94.75s.62.49.92.75.6.53.9.8c.33.3.65.6.96.92l-.16-.16c.42.43.81.87,1.19,1.34.19.24.38.47.56.71s.35.48.53.71c.11.13.2.27.32.39.09.09.17.18.27.26.07.05.13.1.21.13.06.02.13.04.2.05.21.04.42-.11.5-.29.18-.43-.03-.91-.21-1.3-.17-.37-.39-.72-.61-1.06-.38-.58-.83-1.12-1.31-1.63-.52-.56-1.07-1.1-1.66-1.59-.54-.45-1.1-.88-1.69-1.26-.38-.24-.76-.49-1.15-.7-.17-.09-.35-.18-.52-.27-.09-.04-.18-.09-.27-.13-.12-.06-.26-.08-.39-.11-.2-.05-.42.09-.52.26s-.1.42.03.58h0Z"/>
    <path d="M35.67,14.07c-.3-.16-.62-.29-.94-.39-.41-.13-.82-.23-1.24-.31-.39-.08-.79-.13-1.19-.17-.43-.04-.86-.04-1.29-.03-.21,0-.41.02-.61.07-.12.03-.25.06-.37.09-.11.03-.2.12-.29.19-.2.17-.17.46.07.58.09.04.18.1.28.11.08.01.15.01.23.02.21.02.41.03.62.03h-.14c.43,0,.86.03,1.3.07s.89.09,1.33.18c.24.05.48.1.72.16l-.14-.04c.42.12.85.26,1.23.47.12.06.31.05.42,0,.13-.05.26-.17.31-.31s.06-.29,0-.42l-.07-.13c-.06-.08-.14-.14-.24-.18h0Z"/>
    <path d="M29.74,14.49h.01s-.08-.06-.12-.1c.09.1.18.2.28.28.06.05.12.1.18.15.12.11.24.22.37.32.25.21.49.43.72.66l-.14-.14c.3.31.57.63.82.98s.49.69.7,1.06l-.09-.16c.13.23.26.47.39.7l-.09-.16c.12.21.22.42.33.63.07.14.14.29.23.42.06.09.13.18.19.28.1.15.31.21.47.16s.32-.19.34-.37c0-.1.01-.2.02-.3,0-.09,0-.18,0-.27,0-.05-.02-.11-.03-.16-.05-.26-.12-.51-.2-.77-.07-.2-.14-.4-.24-.59-.12-.24-.25-.48-.39-.72-.22-.37-.46-.72-.75-1.05-.32-.37-.67-.72-1.04-1.05-.18-.16-.37-.31-.57-.44-.15-.09-.31-.18-.46-.27-.05-.03-.1-.06-.16-.08-.1-.05-.21-.07-.31-.09l.15.04h-.02c-.14-.06-.32-.07-.46-.01-.13.06-.23.14-.3.26-.07.11-.11.25-.08.38l.04.15c.04.1.1.19.19.25h0Z"/>
    <path d="M34.22,19.08c-.57-.61-1.2-1.16-1.91-1.61s-1.47-.81-2.26-1.07c-.26-.09-.52-.17-.79-.22-.16-.03-.33-.05-.49-.04-.13.01-.26.07-.37.13-.1.06-.2.16-.24.27-.04.13-.05.31.05.42.07.07.12.12.21.16.03.01.05.02.08.03.14.05.26.06.41.06h-.14c.2,0,.4.04.6.1l-.13-.04c.8.22,1.58.56,2.3.98l-.12-.07c.76.45,1.47.97,2.1,1.59.08.08.26.12.37.1s.2-.06.28-.14.14-.18.15-.29c.01-.12,0-.27-.09-.36h0Z"/>
    <path d="M32.76,1.37c-.02-.08-.12-.12-.19-.16l.12.09s-.04-.05-.06-.06c-.05-.04-.09-.04-.14-.06,0,0,.07.02.03,0-.03,0-.07-.02-.1-.03-.08,0-.16,0-.23.02-.14.02-.27.05-.41.09-.21.07-.42.15-.61.25-.23.13-.46.27-.67.43-.18.14-.35.29-.52.44-.79.69-1.41,1.54-1.99,2.41-.19.29-.37.59-.54.9-.22.42-.42.93-.18,1.38.05.13.14.24.25.33.11.09.24.14.38.16.14.02.27,0,.4-.05.13-.05.24-.14.33-.25.01-.02.03-.03.04-.04l-.16.16c.07-.07.16-.13.21-.2s.11-.16.14-.25c.04-.12.07-.24.11-.36l-.06.22c.11-.4.32-.77.48-1.15s.33-.78.52-1.15c.1-.21.21-.42.33-.62l-.09.15c.27-.45.56-.88.94-1.25l-.1.1c.35-.34.74-.64,1.16-.88l-.09.05c.07-.04.15-.08.22-.12.02-.01.05-.03.07-.04s.11-.05,0,0c.07-.03.15-.07.21-.11.03-.03.05-.05.08-.08.02-.02.01-.02-.02.02.04-.03.08-.07.1-.13,0-.03.02-.05.02-.08l-.06.13c.06-.09.11-.16.08-.27h0Z"/>
    <path d="M28.05,16.9s.04.06.05.09l-.08-.14c.02.05.05.11.09.16.04.04.09.09.13.13l-.12-.12c.09.1.18.21.29.3.07.06.14.12.2.18.13.12.26.25.39.38l-.13-.13c.31.31.58.65.85,1s.51.71.72,1.1l-.08-.15c.21.37.39.76.54,1.16.04.1.07.21.11.3s.09.19.13.28.08.19.13.28c.06.13.15.25.23.37.04.06.12.12.19.15.09.04.19.04.28.02.18-.04.31-.19.34-.37.01-.1.03-.19.04-.29.01-.14-.01-.29-.03-.43-.01-.1-.03-.2-.05-.3-.03-.15-.08-.3-.13-.44-.14-.39-.31-.78-.5-1.14-.21-.41-.45-.81-.72-1.19s-.58-.73-.92-1.07c-.16-.17-.33-.33-.51-.48-.24-.21-.51-.45-.84-.51l.15.04s-.07-.02-.1-.03c-.12-.04-.23-.05-.36-.02-.12.03-.24.1-.31.2-.15.21-.15.48,0,.7h0Z"/>
    <path d="M32.1,21.42c-1.14-.75-2.39-1.25-3.73-1.55s-2.68-.19-3.8.57c-.53.36-.98.86-1.38,1.35s-.77,1.08-1.09,1.66c-.62,1.12-1.06,2.32-1.35,3.57-.17.72-.26,1.48-.25,2.22,0,.34.02.68.06,1.01.02.16.04.32.08.48.04.14.06.29.13.42.04.08.07.15.11.23.14.29.45.52.79.47s.57-.31.65-.64c.05-.21.1-.42.12-.64.02-.2.01-.41.03-.61.02-.43.06-.87.1-1.3.08-.86.24-1.72.46-2.55l-.07.24c.3-1.08.73-2.13,1.3-3.1l-.12.2c.12-.21.24-.42.36-.62l-.12.2c.25-.42.51-.82.86-1.16l-.15.15c.17-.16.35-.31.54-.44.05-.03.1-.06.15-.09-.12.1-.11.06-.06.03.03-.01.05-.03.08-.04.11-.05.22-.1.34-.14.1-.04.21-.06.31-.1-.15.06-.11.03-.06.02.03,0,.06-.01.08-.02.06-.01.13-.02.19-.03.24-.04.48-.06.71-.07.05,0,.1,0,.15,0,.03,0,.06,0,.09,0,.09,0-.14,0-.05,0,.13,0,.25,0,.38.02.23.02.47.04.7.09.12.02.25.05.37.08.05.01.11.03.16.04.03,0,.06.02.09.02.07.02.08.01,0,0,.12.02.25.07.36.11.13.04.26.08.38.13.54.2,1.06.44,1.56.72.23.13.54-.02.66-.23s.09-.54-.13-.69h0Z"/>
    <path d="M13.74,30.71s-.1.09-.14.14c-.06.07-.08.14-.1.22-.03.08-.06.17-.07.26,0,.06,0,.12,0,.17,0,.14-.01.28,0,.41.02.11.03.22.06.32.05.26.12.51.23.74.11.25.25.5.4.73.11.17.24.32.37.46.18.19.37.38.58.54s.45.31.69.44c.17.09.36.18.54.24.25.08.51.15.77.19.3.05.62.05.92.03.52-.02,1.04-.12,1.54-.26.48-.13.95-.34,1.34-.64.2-.16.39-.34.56-.54s.3-.43.43-.66c.24-.42.38-.9.47-1.37.06-.29.08-.57.08-.87,0-.1,0-.2,0-.3-.03-.33-.22-.7-.49-.9l.19.19c-.04-.07-.15-.17-.21-.22-.01-.01-.03-.02-.04-.03l.17.17c-.04-.05-.08-.11-.13-.16-.18-.21-.43-.34-.71-.3-.13.02-.26.07-.36.15-.11.08-.2.19-.25.32-.03.06-.07.13-.1.19l.3-.38s-.03.02-.04.03c-.17.13-.25.25-.34.44l.33-.42c-.07.06-.14.13-.21.2-.05.09-.1.17-.15.26l.14-.24c-.13.22-.24.39-.27.65,0,.06-.01.12-.02.19-.01.13-.02.27-.03.4-.02.27-.06.53-.13.79l.07-.27c-.07.28-.18.54-.32.79l.15-.25c-.11.19-.25.37-.41.53l.2-.2c-.16.16-.34.29-.54.4l.24-.13c-.3.16-.62.28-.95.36l.25-.06c-.44.11-.89.19-1.35.19h.25c-.28,0-.55-.04-.82-.11l.24.06c-.3-.08-.58-.2-.85-.36l.22.13c-.28-.17-.54-.37-.78-.61l.17.17c-.29-.3-.54-.63-.74-.99l.11.19c-.1-.18-.21-.34-.3-.52l.1.18c-.11-.2-.21-.41-.33-.61l.09.15c-.07-.13-.14-.27-.23-.39-.03-.04-.05-.07-.08-.11-.08-.09-.17-.15-.27-.2-.12-.06-.31-.04-.41.05h0Z"/>
    <path d="M16.8,29.08s-.05.08-.08.12c-.08.13-.16.27-.24.4-.05.09-.09.18-.13.27s-.08.19-.11.29c-.02.05-.03.1-.04.14-.04.14-.08.28-.11.43,0,.04-.01.08-.01.11,0,.11,0,.23,0,.34,0,0,0,.02,0,.03,0,.02,0,.04,0,.06.02.12.05.24.09.35,0,0,0,.02.01.02,0,0,0,0,0,0,.03.05.05.1.08.15.03.05.05.1.08.15,0,.01.02.03.03.04.01.01.18.21.27.27s.2.13.31.18c0,0,.02,0,.03.01.11.03.22.07.34.09.01,0,.03,0,.04,0,.12,0,.26.02.38,0s.26-.06.38-.09c.1-.03.2-.07.29-.1.12-.04.23-.09.35-.13.15-.05.29-.13.41-.22,0,0,.02-.01.02-.02.1-.08.19-.17.27-.26,0,0,.01-.02.02-.02-.03.05.15-.22.19-.33l-.72.71h.03c.1-.07.21-.13.31-.18.16-.11.28-.25.36-.42.08-.1.12-.21.14-.33.06-.17.08-.34.05-.52-.03-.2-.1-.4-.16-.59-.03-.09-.06-.18-.08-.26-.01-.04-.03-.09-.04-.13s-.02-.09-.04-.13-.04-.08-.06-.12c-.01-.02-.02-.04-.03-.06-.09-.23-.24-.42-.43-.58-.11-.07-.22-.13-.33-.19,0,0-.01,0-.02-.01l.31.18s-.06-.05-.09-.07c-.36-.28-.84-.35-1.27-.18-.22.09-.39.22-.54.4-.14.18-.23.39-.26.62,0,.04-.02.07-.02.11l.09-.34s0,.02,0,.02c-.09.25-.13.45-.1.71.01.12.07.27.1.4.01.04.02.09.03.13.01.04.03.08.05.12.02.04.04.08.05.13.03.08.07.16.1.25.02.04.04.08.05.13s.04.08.05.12l-.09-.34c.01.06.03.12.05.18.03.18.1.34.22.48l.26.26c.11.08.22.14.34.2l-.79-1.37h0c.03-.1.06-.21.09-.32,0,.01,0,.02-.01.03l.18-.3s-.02.03-.03.04l.25-.24s-.04.04-.07.05l.29-.16c-.06.03-.11.05-.17.08-.07.03-.13.06-.2.09s-.13.06-.2.09c-.06.03-.12.05-.18.07l.31-.08s-.06.01-.09.01h.32s-.04,0-.06,0l.31.09s-.03-.01-.05-.02l.29.17s-.03-.02-.04-.03l.24.24s-.02-.03-.03-.05l.16.28s-.02-.05-.03-.08l.08.31s-.01-.08-.01-.12v.32c0-.06,0-.12.02-.19.02-.08.03-.16.06-.23l-.08.31c.04-.14.08-.29.12-.43l-.08.31c.03-.11.07-.22.11-.33.02-.05.04-.11.07-.16s.04-.1.07-.15l-.16.27s0,0,0,0c.11-.12.17-.27.2-.42.05-.15.07-.3.04-.45-.01-.16-.06-.3-.15-.43-.07-.15-.16-.27-.3-.36l-.27-.16c-.19-.08-.39-.11-.6-.08l-.29.07c-.2.08-.36.2-.5.37h0Z"/>
    <path d="M7.61,16.86c.41-.41.87-.81,1.34-1.16.22-.16.44-.31.67-.45s.4-.23.67-.36c.24-.11.49-.21.74-.3.11-.04.23-.07.34-.11.03,0,.06-.02.09-.02.12-.03-.04,0,.03,0s.14-.03.2-.05c.26-.05.52-.1.78-.12.05,0,.09,0,.14,0,.07,0-.01,0-.02,0,.03,0,.05,0,.08,0,.1,0,.2.02.3.03.04,0,.09.02.13.03.02,0,.14.04.08.02-.07-.02.02,0,.03,0,.02,0,.04.01.07.02.05.02.1.03.14.05.09.03.17.07.26.11s.21.08.28.15c-.07-.06-.04-.03,0,0,.02.01.04.03.06.04.04.03.08.05.12.08.09.06.18.13.27.19.16.12.32.26.47.4.07.07.16.14.22.22-.08-.1.03.03.05.05.04.05.09.09.13.14.15.16.29.33.42.5.25.32.49.65.7,1,.06.09.11.18.16.27.02.04.05.08.07.13.05.08-.05-.1,0-.01.01.02.02.04.04.07.09.16.17.32.24.48.06.13.11.27.18.4.05.09.1.16.17.23s-.07-.07,0,0c.08.09.16.17.29.2l-.27-.28h0c.04.18.17.31.35.29.16-.02.31-.18.28-.35h0c-.04.09-.08.18-.13.28.13-.1.2-.39.18-.55s-.08-.31-.15-.46c-.15-.34-.34-.67-.53-.99-.46-.76-1.01-1.47-1.65-2.09s-1.4-1.15-2.28-1.37c-.44-.11-.89-.09-1.34-.01-.56.09-1.11.25-1.63.47-1.27.54-2.34,1.43-3.28,2.42-.13.14-.08.38.06.49.16.13.35.07.49-.06h0Z"/>
    <path d="M18.12,18.44c-.04.14,0-.01.01-.05.01-.05.03-.09.04-.14.04-.11.08-.21.12-.32.09-.22.2-.43.29-.65.1-.23.19-.47.3-.7,0,0,.05-.1.02-.05s.03-.06.03-.05c.03-.05.07-.11.1-.16.07-.12.15-.23.23-.35.15-.22.31-.43.48-.64.08-.1.16-.19.24-.28.04-.05.09-.09.13-.13-.05.04.01,0,.02-.02.03-.03.06-.06.09-.09.18-.16.37-.32.56-.46.09-.06.18-.12.27-.18.03-.02.16-.09.07-.04.05-.03.11-.06.16-.08.09-.04.18-.08.27-.11.04-.02.09-.03.13-.04.02,0,.04,0,.05-.01-.12.03-.01,0,.01,0,.25-.05.51-.07.76-.07-.1,0,.03,0,.04,0,.03,0,.06,0,.1,0,.06,0,.13,0,.19.01.14.01.27.03.4.05s.25.05.38.08c.06.01.13.03.19.05-.12-.03,0,0,.03,0,.04.01.07.02.11.03.51.16,1,.38,1.46.64.03.02.05.03.08.05.07.04-.11-.07,0,0,.05.03.11.06.16.1.11.07.23.14.34.22.2.14.4.28.59.44s.38.31.57.48c.09.08.17.16.26.24.04.04.08.08.12.12.01.01.02.03.04.04-.14-.12-.04-.04-.01-.01.06.06.12.12.18.18.01.01.03.03.04.04.07.07-.01-.01-.04-.04.06.06.12.12.18.19.08.08.15.16.24.24.02.02.05.04.07.06.05.04.07.11-.02-.03.14.2.47.25.66.1.2-.17.24-.44.1-.66h0c.03.06.06.14.09.21-.07-.35-.31-.62-.54-.88-.31-.34-.67-.65-1.03-.94-.85-.68-1.81-1.26-2.84-1.61-.57-.19-1.15-.31-1.75-.32-.55,0-1.12.03-1.63.25-.45.19-.86.49-1.21.82-.41.38-.79.8-1.14,1.24-.19.24-.37.49-.54.74s-.35.5-.52.75c-.32.49-.52,1.06-.66,1.62-.06.24.17.5.4.52.27.02.46-.15.52-.4h0Z"/>
    <path d="M12.05,18.79c.08,0,.16.02.24,0,.02,0,.05-.01.07-.02.05-.01.1-.02.15-.03.1-.01.2-.02.31-.02h-.2c.16,0,.33.02.48.06l-.21-.06c.18.05.35.12.51.21l-.21-.13c.19.11.35.25.5.4l-.19-.19c.13.14.25.29.34.46l-.14-.24c.07.13.14.25.21.38l-.14-.25c.04.06.07.13.1.2.01.03.03.07.04.1,0,.02.01.03.02.05,0,0,0,.02,0,.03l.14.25c.06.09.13.16.21.22.16.12.33.2.53.22.14.02.28.01.42-.03.14-.02.27-.08.38-.17.16-.12.28-.27.36-.46h0c.02-.1.05-.19.07-.28v-.14c.01-.14,0-.28-.07-.41,0-.01,0-.02-.01-.04-.01-.02-.02-.05-.03-.07-.06-.13-.14-.26-.21-.39-.05-.09-.11-.18-.19-.26-.21-.23-.43-.45-.69-.61-.17-.1-.33-.2-.51-.26s-.37-.12-.56-.15-.38-.03-.57-.03c-.12,0-.25,0-.37.03-.07.01-.14.02-.21.04-.12.03-.25.06-.37.1-.07.02-.13.05-.19.08-.03.01-.06.03-.09.05-.06.03-.14.07-.17.1-.05.04-.1.1-.15.14-.01.01-.02.03-.04.04-.08.1-.12.21-.14.33-.02.12,0,.23.04.35.05.11.12.21.22.29.1.08.21.12.33.14h0Z"/>
    <path d="M23.89,17c-.16-.09-.32-.15-.51-.18s-.38-.03-.56,0-.38.08-.56.14c-.1.03-.2.06-.29.11-.13.06-.26.14-.38.21-.04.03-.09.05-.13.08-.09.06-.17.12-.25.19-.15.13-.29.27-.43.42-.07.08-.13.16-.19.24-.12.18-.23.36-.32.55-.05.11-.09.22-.13.33-.06.14-.09.28-.08.43-.01.15.01.29.07.42.05.15.13.27.25.36.1.12.22.21.37.26l.28.08c.2.03.39,0,.57-.07l.26-.14c.17-.12.29-.28.37-.47.05-.18.12-.35.22-.51l-.15.26c.11-.18.24-.35.39-.5l-.22.21c.16-.16.34-.29.54-.4l-.25.14c.14-.07.27-.15.4-.23l-.25.14c.18-.1.37-.18.57-.23l-.26.07c.11-.03.22-.05.32-.09.02-.01.05-.02.07-.03.05-.02.08-.04.14-.08.05-.03.09-.05.14-.08.02-.01.04-.02.06-.03l-.22.12s.09-.05.13-.07l.2-.11.17-.17.12-.21c.05-.11.07-.22.06-.34.01-.08,0-.15-.03-.22,0-.08-.04-.15-.08-.21-.03-.07-.08-.14-.14-.19-.08-.09-.17-.16-.29-.21h0Z"/>
  </g>
</svg>