<?xml version="1.0" encoding="UTF-8"?>
<svg id="b" data-name="getting to know you" xmlns="http://www.w3.org/2000/svg" viewBox="0 0 36 36">
  <defs>
    <style>
      path {
      	fill: #38568b;
      }
      .c {
        fill: #ed1c24;
      }

      .d {
        fill: #fff;
      }
    </style>
  </defs>
  <path class="d" d="M18.98,33.72s1.4-.81,1.45-2.53-.16-2.48-.16-2.48c0,0-11.15-.59-14.6-3.39S1.52,11.04,5.67,7.32s10.45-4.47,15.19-3.72,10.08,2.1,11.37,6.63,2.48,10.45.32,12.88-6.63,3.77-6.63,3.77c0,0-1.08,2.75-2.64,4.09s-4.31,2.75-4.31,2.75Z"/>
  <ellipse class="c" cx="8.82" cy="14.01" rx="2.33" ry="2.44"/>
  <g>
    <path d="M18.35,2.55c-.45-.13-.85-.2-1.32-.2-.44,0-.88.03-1.33.05-.81.04-1.63.08-2.44.2-1.65.23-3.32.61-4.84,1.3-2.97,1.35-5.15,3.83-6.24,6.9-.28.78-.56,1.57-.72,2.39-.14.74-.23,1.48-.27,2.23-.09,1.65,0,3.33.38,4.94.42,1.76,1.13,3.46,2.41,4.78s2.89,2.18,4.57,2.9c1.94.84,4,1.61,6.1,1.92.58.09,1.17.14,1.76.13.22,0,.44-.01.65-.03.11,0,.21-.03.32-.05.13-.03.26-.07.38-.1.12-.03.13-.03.04-.02.53-.16,1.06-.29,1.56-.51.47-.2.92-.46,1.36-.75.38-.25.1-.85-.32-.79-.78.1-1.65.14-2.43,0-.83-.14-1.66-.23-2.49-.35-.42-.06-.85-.14-1.26-.23-.18-.04-.37-.08-.55-.13-.11-.03-.22-.05-.33-.08.28.07-.18-.05-.22-.06-.83-.24-1.66-.53-2.46-.85-.77-.3-1.53-.62-2.27-.98-.34-.16-.7-.32-1.02-.53.24.16.05.03-.02-.01-.07-.05-.15-.09-.22-.14-.2-.13-.41-.26-.6-.4-.31-.22-.59-.47-.87-.73-.25-.23.17.2-.06-.06-.04-.05-.09-.1-.14-.15-.16-.18-.3-.37-.44-.56-.1-.14-.19-.28-.28-.42-.05-.09-.1-.17-.15-.26.14.25-.02-.05-.04-.09-.18-.37-.34-.74-.48-1.13-.06-.16-.11-.32-.16-.49-.03-.1-.06-.2-.09-.3,0-.02-.09-.35-.03-.11-.1-.4-.18-.81-.24-1.22-.12-.72-.19-1.46-.21-2.19,0-.09,0-.19,0-.28,0-.3,0,.14,0-.05,0-.17,0-.34.01-.52.02-.38.04-.75.09-1.12.08-.71.21-1.42.34-2.12.05-.28.1-.43.24-.82.12-.35.26-.69.41-1.03.14-.31.29-.61.45-.9.01-.02.16-.28.05-.09.05-.08.09-.16.14-.23.1-.15.2-.31.3-.45.19-.27.4-.54.62-.79.12-.14.24-.27.37-.4,0,0,.2-.2.1-.11-.06.06.15-.14.17-.16.55-.5,1.16-.94,1.81-1.31-.15.08.14-.07.13-.07.12-.06.23-.12.35-.18.18-.09.36-.17.54-.25.39-.17.79-.32,1.2-.45.83-.27,1.51-.43,2.4-.58s1.74-.28,2.62-.39,1.79-.12,2.64-.46c.42-.17.51-.91,0-1.05h0Z"/>
    <path d="M17.14,4.26c.64-.05,1.27-.08,1.91,0s1.32.16,1.98.22,1.29.16,1.93.3c.29.06.59.13.88.2.17.04.34.09.51.13-.05-.01-.19-.05.03,0,.1.03.2.06.3.09.63.19,1.26.41,1.86.67.27.12.54.24.81.37.12.06.24.12.35.18,0,0,.29.16.12.07-.14-.08.13.08.16.1.25.16.49.33.72.51.12.09.23.19.34.29.05.04.1.09.14.13.05.04.09.09.13.13l-.09-.09c.21.16.39.44.54.64.19.25.36.51.53.77.03.05.06.11.1.16.16.26-.08-.16,0,.01.06.13.13.25.19.38.14.28.26.57.38.87.22.54.4,1.1.56,1.67.04.15.08.3.12.44-.01-.05-.05-.21,0,.02.02.07.04.14.05.22.09.36.16.73.23,1.09.13.69.24,1.39.31,2.1s.12,1.37.14,2.05c0,.09,0,.18,0,.27,0,.04,0,.23,0,.01,0,.16,0,.33-.02.49-.02.34-.06.69-.12,1.02-.02.1-.04.37-.1.46.01-.01.09-.29.02-.07-.02.05-.03.11-.05.16-.09.26-.19.52-.3.77-.05.11-.11.22-.16.33-.01.02-.11.16-.1.18,0,0,.17-.28.04-.08-.15.23-.3.46-.46.68s-.35.43-.53.63c-.05.05-.1.1-.14.15-.21.21.09-.08,0,0-.1.1-.2.19-.31.28-.45.39-.93.74-1.42,1.07-.25.17-.5.32-.76.47-.19.11.02,0,.05-.03-.07.05-.15.08-.23.12-.14.07-.28.14-.42.21-.33.16-.68.3-.98.49-.35.22-.57.47-.74.85-.12.27-.04.69.23.86.12.08.27.18.39.24.24.1.5.09.75.07.34-.03.69-.15,1.01-.26.54-.18,1.06-.43,1.56-.69,1.15-.62,2.16-1.39,3.03-2.36.77-.85,1.4-1.87,1.76-2.96.49-1.46.51-2.98.42-4.5s-.32-2.96-.66-4.41c-.31-1.31-.69-2.61-1.28-3.82-.63-1.27-1.44-2.42-2.56-3.3s-2.41-1.45-3.73-1.89c-1.53-.51-3.11-.83-4.72-.94-.81-.05-1.65-.1-2.46.06s-1.59.27-2.39.44-.67,1.33.16,1.26h0Z"/>
    <path d="M20.05,28.55s-.05.09-.08.14c-.05.09-.07.17-.09.28s-.03.22-.04.33c0,.21,0,.43-.01.64,0,.41-.04.81-.15,1.2l.05-.18c-.09.33-.22.65-.4.94l.1-.17c-.17.3-.39.57-.63.81l.15-.14c-.09.09-.18.17-.28.25-.07.06-.14.11-.21.18-.05.05-.09.08-.12.14-.05.07-.11.15-.13.24-.05.12-.06.24-.05.36,0,.09.04.18.09.26.1.19.3.35.52.36.07,0,.15,0,.22,0s.15-.03.22-.05c.02,0,.04-.01.05-.02.01,0,.02,0,.03-.01.06-.03.14-.07.19-.11.06-.05.12-.1.18-.16.17-.16.33-.32.47-.49.24-.29.45-.63.61-.97s.28-.71.35-1.09c.08-.42.09-.85.08-1.27,0-.23-.02-.46-.03-.69,0-.11-.01-.22-.02-.33-.02-.16-.08-.3-.13-.44-.03-.08-.09-.16-.16-.21-.09-.07-.2-.1-.31-.1-.09,0-.17.02-.25.06-.11.06-.16.14-.22.24h0Z"/>
    <path d="M18.68,34.41c1.35-.58,2.69-1.23,3.89-2.07.15-.1.29-.22.45-.31.15-.09.3-.18.43-.28.25-.19.5-.4.74-.61.3-.26.58-.54.85-.83.22-.24.4-.51.57-.78.44-.68.8-1.4,1.01-2.18.07-.17.09-.34.07-.52l-.06-.25c-.11-.31-.38-.52-.69-.6-.27-.07-.52-.04-.76.09-.13.06-.23.14-.31.26-.11.15-.18.31-.21.49-.02.11-.05.23-.08.34l.07-.25c-.17.62-.43,1.21-.75,1.77l.13-.22c-.14.25-.31.48-.46.72s-.31.46-.48.68-.35.43-.54.63c-.2.21-.4.43-.61.64l.13-.13c-.71.6-1.51,1.1-2.32,1.55l.15-.08c-.55.3-1.1.58-1.67.85-.15.07-.27.17-.33.33-.06.13-.06.32,0,.45.13.29.47.47.78.34h0Z"/>
    <path d="M13.56,9.25l-.07.17c-.06.14-.1.29-.12.44-.02.13-.05.27-.06.41s0,.28,0,.41c0,.18,0,.35,0,.53l.02.21c.05.57.09,1.14.14,1.71.03.32.07.64.1.96.02.2.08.38.19.54.08.18.21.34.37.46.16.13.33.22.53.25.18.07.37.08.57.05l.37-.09c.25-.1.46-.26.63-.47l.2-.35c.1-.24.13-.5.1-.76l-.17-.84c-.06-.28-.12-.56-.18-.84l-.19-.84c-.03-.14-.06-.28-.09-.42-.05-.24-.13-.47-.2-.7-.05-.15-.12-.28-.18-.42s-.13-.3-.23-.42l-.15-.17c-.1-.13-.23-.24-.39-.3-.15-.06-.3-.08-.47-.06-.33.04-.61.26-.74.56h0Z"/>
    <path d="M19.93,8.56c-.07.16-.14.28-.16.47,0,.08-.01.16-.02.23l-.02.22c-.01.18-.02.36-.01.55l.03.91c0,.31.02.62.04.93l.06.91.04.53c.02.28.02.58.14.84l.17.31.26.27.32.19c.17.08.34.11.52.09.12.02.24,0,.35-.04.12-.02.23-.06.33-.13.12-.05.21-.12.29-.22.15-.12.25-.27.32-.45.03-.11.08-.25.1-.37v-.02c0-.12,0-.24,0-.36,0-.03,0-.06,0-.1l-.02-.19-.03-.38-.06-.78-.06-.76c-.02-.25-.06-.51-.09-.76l-.05-.43-.03-.21v-.11c-.03-.14-.07-.28-.11-.42l.08.32-.1-.41-.02-.09s0-.04-.01-.06v-.02c-.03-.1-.06-.2-.08-.3l-.15-.28v-.02s-.03-.02-.03-.03c-.02-.03-.04-.06-.06-.08-.22-.33-.65-.49-1.04-.44-.2.02-.37.1-.53.21-.16.12-.29.28-.37.47h0Z"/>
    <path d="M8.86,16.21c-.08.1-.15.16-.17.3-.01.09,0,.2,0,.29,0,.24.05.45.12.68.12.41.31.76.53,1.13.42.68.94,1.36,1.52,1.92,1.23,1.18,2.78,2.01,4.39,2.55,1.8.6,3.75,1.05,5.66.86,1.54-.16,3.02-.78,4.27-1.68.71-.51,1.36-1.13,1.92-1.8.3-.36.66-.78.82-1.21.1-.27.14-.54.17-.82.02-.22,0-.43-.07-.64,0,0-.12-.17-.14-.25.02.06.18.44.11.17l-.05.37c.12-.35.22-.73.24-1.11.01-.25-.09-.48-.33-.58-.22-.09-.5-.02-.64.17-.05.07-.11.14-.15.22l-.08.14s.02-.04-.02.03c-.08.13-.17.26-.25.4l.3-.23c-.11.06-.22.12-.32.19l.4-.16c-.26.04-.48.11-.7.27-.06.04-.12.09-.18.13-.04.02-.07.05-.1.07-.07.05-.48.47-.12.11-.19.19-.33.36-.48.57-.1.14-.2.28-.31.41-.2.26-.42.5-.65.74-.03.03-.06.07-.1.1,0,0,.26-.24.1-.1-.06.05-.12.11-.17.16-.13.11-.25.22-.38.33-.25.2-.52.39-.79.56-.07.04-.13.08-.2.12-.08.05-.37.19,0,0-.15.07-.29.15-.44.22-.29.13-.58.25-.88.35-.14.05-.29.09-.44.13-.09.03-.4.09,0,0-.09.02-.17.04-.26.06-.33.07-.66.11-1,.13-.1,0-.21.01-.31.02-.06,0-.12,0-.18,0-.03,0-.18,0-.02,0,.17,0-.02,0-.07,0s-.09,0-.13,0c-.12,0-.24-.01-.35-.02-.85-.06-1.69-.22-2.51-.41-.09-.02-.18-.04-.28-.07-.05-.01-.1-.03-.16-.04-.15-.04,0-.04.04.01-.03-.03-.19-.05-.24-.07-.12-.03-.23-.07-.35-.11-.38-.12-.75-.26-1.12-.4s-.75-.32-1.11-.51c-.08-.04-.17-.09-.25-.14-.1-.05.04.02.05.03-.05-.03-.1-.06-.14-.09-.15-.09-.3-.19-.45-.3-.32-.23-.64-.46-.95-.72-.07-.06-.15-.12-.22-.19-.04-.03-.07-.07-.1-.1.06.06.05.05,0,0-.14-.15-.28-.31-.41-.47-.25-.31-.48-.65-.72-.97-.12-.16-.22-.31-.36-.46-.08-.08-.15-.18-.23-.26-.11-.1-.22-.11-.35-.14-.08-.02-.17.03-.22.09h0Z"/>
    <path d="M10.31,14.72c-.08,0-.16-.01-.23,0-.09,0-.16.04-.24.07-.05.02-.09.04-.13.06-.16.08-.31.16-.46.25l.22-.12h-.01c-.07.05-.15.09-.22.13,0,0-.02.01-.02.02-.01.01-.03.02-.04.04-.03.02-.05.05-.08.07-.12.11-.24.23-.35.34-.05.05-.1.11-.15.17s-.1.12-.15.18l.22-.21s-.03.02-.04.03l.26-.15c-.09.05-.21.1-.27.15l-.11.11c-.09.06-.15.15-.19.24-.03.06-.07.11-.1.17-.01.03-.03.05-.04.08-.03.05-.05.11-.08.17-.05.11-.1.22-.14.34s-.08.23-.11.35c-.06.21-.12.43-.16.65,0,.03-.01.07-.02.1-.02.13,0,.29,0,.4,0,.07,0,.14,0,.21.01.16.06.3.15.43.07.15.17.27.3.36l.28.16c.15.07.3.09.45.08.1.01.2,0,.3-.04.15-.03.29-.09.42-.19l.23-.22c.13-.17.21-.36.24-.58,0-.04.02-.09.02-.13s.02-.09.03-.13c.01-.09.02-.18.03-.27.03-.17.06-.35.11-.52l-.08.3c.04-.13.08-.27.13-.4.02-.07.05-.13.08-.19.01-.03.03-.06.04-.1.1-.22.1-.38.08-.61,0-.01,0-.03,0-.04v.29s0,0,0-.01l-.08.28c.04-.14.09-.28.15-.42.03-.07.05-.13.08-.2.01-.03.03-.07.04-.1,0-.02.01-.03.02-.05,0,0,0-.02.01-.03.02-.04.03-.08.04-.13.01-.04.03-.09.03-.13l-.06.24c.03-.1.06-.19.09-.28.02-.05.03-.09.05-.14.02-.05.03-.09.05-.15.03-.09.04-.19.03-.29,0,0,0,0,0-.01,0,0,0-.02,0-.03l-.04-.17c-.03-.09-.08-.17-.15-.23-.04-.05-.09-.09-.15-.12-.08-.05-.16-.09-.26-.1h0Z"/>
    <path d="M25.79,16.51c.09.12.2.22.32.32.08.06.15.12.23.18s.14.13.22.19.16.13.23.19c.08.07.17.15.25.23l-.19-.19c.1.11.21.21.32.32.05.04.09.09.14.13l-.19-.2c.13.13.24.26.35.41.06.07.11.14.16.22s.11.14.16.22c.06.09.12.17.17.26.09.13.2.22.33.28.12.08.25.13.4.15.14.02.28.01.41-.03.14-.02.27-.08.38-.17l.21-.2c.12-.16.19-.33.22-.53v-.28c-.02-.19-.09-.36-.21-.52-.09-.14-.18-.27-.28-.4-.05-.06-.11-.12-.16-.18-.12-.12-.24-.25-.37-.37-.12-.11-.24-.21-.37-.31-.06-.05-.12-.09-.19-.14-.13-.09-.29-.17-.43-.25-.08-.04-.16-.08-.24-.12-.04-.02-.08-.04-.12-.05-.02,0-.04-.02-.06-.02-.09-.04-.19-.06-.28-.08l.23.06c-.2-.06-.4-.11-.61-.15-.07-.01-.13-.02-.2-.03-.06,0-.13,0-.19,0-.06,0-.09,0-.13,0-.02,0-.03,0-.05.01-.12.01-.22.06-.32.13-.1.07-.17.17-.22.28-.09.21-.06.47.08.65h0Z"/>
  </g>
  <circle class="c" cx="27.86" cy="11.09" r="1.86"/>
</svg>