<?xml version="1.0" encoding="UTF-8"?>
<svg id="b" data-name="coda" xmlns="http://www.w3.org/2000/svg" viewBox="0 0 36 36">
  <defs>
    <style>
      path {
      	fill: #38568b;
      }
      .c {
        fill: #ed1c24;
      }

      .d {
        fill: #fff;
      }
    </style>
  </defs>
  <path class="d" d="M15.48,36.17v-11.42s-3.66-2.53-3.72-3.66-.27-5.01-.27-5.01l-1.24-.32h-3.18s-1.08.92-2.75.92-3.88-1.99-3.88-1.99c0,0,1.29-1.78,3.56-1.78s2.96.86,2.96.86h5.93s.27-1.45.27-2.16.7-.86,1.35-1.02,1.29.54,1.29.54c0,0,.86-1.19,1.94-1.19s1.72,1.19,1.72,1.19c0,0,.65-.65,1.56-.54s1.29.92,1.29.92c0,0,.54-.32,1.56-.16s1.51,2.05,1.51,2.05c0,0,10.29.22,10.29,1.08s-9.7,1.4-9.7,1.4l-1.29,1.24s1.19,1.02.38,3.39-1.89,3.83-1.89,3.83v11.85h-7.7Z"/>
  <path class="c" d="M.71,14.62c-.2,1.55,5.67,2.58,5.93.48.38-3.07-5.71-2.16-5.93-.48Z"/>
  <g>
    <path d="M12.06,14.98c.09.03.18.06.28.07.08,0,.16.01.25.02.15,0,.3.02.46.02.34.01.68.03,1.02.01.61-.03,1.22-.09,1.83-.18.17-.03.34-.05.51-.08.09-.02.18-.03.26-.05.1-.02.23-.05.31-.12.01,0,.02-.02.03-.03.07-.05.11-.11.15-.19,0,0,0-.01.01-.02l.03-.1c0-.05,0-.11-.01-.16-.02-.09-.07-.17-.14-.22-.05-.04-.1-.07-.16-.09-.1-.03-.2-.04-.3-.03-.07,0-.15.03-.22.04-.15.03-.29.06-.44.08-.3.05-.59.09-.89.13s-.59.07-.89.09-.59.06-.89.08c-.16.01-.33.02-.49.03-.08,0-.16,0-.25.01-.04,0-.09,0-.13,0-.07,0-.13.01-.2.03l.09-.02s-.07.02-.11.02c-.08.02-.14.04-.19.1-.05.05-.09.12-.1.2,0,.06,0,.12.02.17.03.07.11.17.19.19h0Z"/>
    <path d="M16.89,14.55h0s-.03-.02-.05-.03c.03.02.05.04.07.06l-.05-.05s.03.04.05.05c.02.01.04.02.06.04l-.06-.03s.09.07.14.11l-.05-.05c.05.05.1.11.13.18l-.04-.07c.04.07.07.15.09.23l-.02-.08c.02.09.03.18.04.28s.01.19.01.29v-.1c0,.21-.01.41-.06.61l.03-.1c-.03.11-.07.21-.13.31l.06-.1c-.06.1-.13.19-.21.27l.08-.08c-.14.14-.29.25-.46.34l.1-.06c-.28.16-.58.27-.88.37-.1.03-.2.06-.3.09l.11-.03c-.15.04-.3.06-.45.06h.11s-.07,0-.11,0c-.03,0-.05,0-.08,0,0,0-.02,0-.03,0-.03,0-.07.01-.1.01-.03,0-.06,0-.09,0s-.06,0-.09,0h.08s-.05,0-.08,0h-.07s-.05.01-.07.02l-.07.04s-.06.05-.08.09c-.02.02-.03.04-.03.07,0,.02-.01.05-.01.07,0,.03,0,.05,0,.07,0,.04.02.07.05.1.02.03.04.05.06.08.03.03.06.07.1.1.01.01.03.03.04.04.03.02.07.04.09.05,0,0,0,0,.01,0,0,0,.02,0,.02.01.02,0,.03.02.05.02.03.02.07.03.1.04h.05s.04.03.06.03c0,0,0,0,.01,0,0,0,.02,0,.03,0,.05,0,.11,0,.16,0,.04,0,.08,0,.11,0,.08,0,.15-.02.23-.04.32-.07.63-.18.93-.31.13-.05.25-.11.37-.17.15-.08.3-.16.43-.27.08-.06.16-.13.23-.21.04-.05.09-.09.12-.15.06-.08.11-.17.16-.26.03-.06.06-.13.08-.19.04-.11.06-.23.08-.34s.01-.23.01-.35c0-.17-.03-.34-.06-.5-.01-.07-.03-.13-.05-.2l.02.09c-.02-.09-.05-.18-.09-.27-.04-.08-.08-.16-.14-.23-.05-.07-.11-.13-.17-.18-.04-.04-.09-.07-.13-.1-.05-.03-.09-.06-.14-.08-.01,0-.03-.01-.04-.02,0,0-.02,0-.02,0,0,0,0,0,0,0-.03-.01-.06-.02-.1-.02-.01,0-.02,0-.04,0h.06c-.05,0-.1,0-.16,0h.05s0,0,0,0c-.05,0-.11,0-.16.04-.04.03-.06.07-.08.12-.01.04-.01.09,0,.13.02.05.06.1.12.12h0Z"/>
    <path d="M14.76,17.69s0,.05-.01.07l.02-.06s-.02.06-.02.09c0,0,0,.02,0,.03,0,.02,0,.04,0,.05,0,0,0,.02,0,.03,0,.02,0,.03,0,.05,0,.02,0,.04,0,.05,0,.02,0,.04,0,.06,0,.07,0,.15,0,.22,0,.04,0,.09,0,.13v-.09c0,.11,0,.23-.02.34,0,.06-.01.11-.02.17s-.01.11-.02.16c-.01.06-.02.12-.04.18l.03-.1c-.02.07-.05.14-.06.22,0,.04-.02.08-.03.12l.03-.1s0,.03-.01.04c0,.03-.02.07-.03.1,0,.03,0,.07,0,.1,0,0,0,.01,0,.02v-.09s0,.08,0,.12v.08s.01.05.02.08l.04.07s.06.06.09.08c.02.02.05.03.07.03.03.01.05.01.08.01.03,0,.05,0,.08,0,.04,0,.08-.02.11-.05.02-.02.05-.03.07-.05.01,0,.02-.02.03-.03.03-.02.06-.05.08-.08.02-.04.04-.07.06-.11.02-.03.03-.06.05-.09,0-.01.01-.03.02-.04,0,0,0-.01,0-.02.01-.04.02-.08.03-.12.03-.12.05-.25.06-.38,0-.09,0-.19,0-.29,0-.07-.01-.13-.02-.2-.02-.13-.04-.26-.07-.39,0-.04-.02-.07-.03-.11,0-.02,0-.04-.01-.05-.01-.04-.02-.08-.03-.12,0-.02-.02-.03-.03-.05,0-.02-.02-.03-.02-.05-.03-.05-.05-.1-.08-.14l-.04-.04-.05-.03-.06-.02s-.06,0-.09,0c-.02,0-.04,0-.05.02-.02,0-.03.02-.05.04-.02.01-.03.03-.04.05-.02.02-.03.05-.03.08h0Z"/>
    <path d="M11.93,14.33c-.39-.09-.69.37-.81.68s-.15.62-.14.95c0,.54.08,1.08.11,1.62.02.31.02.62.02.92v-.19c0,.45-.01.9-.05,1.35,0,.11-.02.21-.03.32,0,.06-.01.11-.02.17-.02.18,0,.33.07.49.06.13.12.27.24.36.18.13.41.19.62.1s.41-.31.5-.53c.06-.15.06-.32.07-.48,0-.12.01-.23.02-.35.01-.28.01-.56.02-.84,0-.44-.03-.89-.08-1.33-.03-.25-.06-.5-.1-.74-.05-.3-.13-.59-.2-.88l.04.15c-.06-.22-.1-.44-.1-.67v.14c0-.12.01-.24.05-.36l-.04.13c.02-.08.06-.17.1-.24l-.07.12c.1-.16.21-.3.17-.5-.04-.22-.18-.35-.39-.4h0Z"/>
    <path d="M11.1,20.62c0,.13,0,.27,0,.4,0,.05,0,.09,0,.14,0,.1.04.19.07.29.06.19.13.37.21.55.21.46.56.86.92,1.22.27.27.57.5.9.7s.65.39.97.59c.18.11.35.23.52.36.08.06.16.13.25.19.04.03.09.06.13.1.02.02.04.03.06.05.15.11.22.12.39.17l-.18-.05s.1.02.14.05l-.15-.09s.06.04.09.06c.11.08.24.13.38.13.13,0,.27-.03.37-.12.09-.07.15-.16.2-.26.06-.13.06-.34,0-.47-.02-.05-.05-.1-.07-.16l.04.17c-.04-.18-.07-.33-.19-.48-.04-.05-.08-.1-.13-.15-.08-.09-.17-.19-.26-.26-.05-.04-.1-.08-.15-.12-.2-.15-.41-.29-.63-.42-.44-.27-.89-.52-1.32-.81-.25-.17-.48-.36-.69-.57l.14.14c-.17-.18-.33-.37-.47-.58-.07-.1-.15-.19-.22-.3s-.13-.21-.2-.32l.08.14c-.03-.06-.06-.13-.11-.18-.01-.02-.03-.03-.04-.05-.02-.03-.05-.06-.07-.09-.05-.07-.09-.13-.14-.2l-.09-.09-.11-.07c-.1-.04-.21-.04-.31-.02-.09.02-.16.06-.22.12-.07.07-.15.18-.15.28h0Z"/>
    <path d="M15.32,24.57s-.02.02-.02.03l.05-.05c.09-.09.07-.07-.08.08-.08.11-.12.23-.14.36-.01.07-.03.14-.04.21-.03.14-.03.28-.04.41-.02.32-.03.64-.04.95-.02.79-.05,1.58-.05,2.36v4.65c0,.37,0,.74.02,1.1,0,.22.04.44.1.65.02.07.04.14.06.21.02.08.06.15.12.22.08.11.17.16.29.22.06.03-.06-.02-.1-.06l-.19-.25.07.18c.17.41.78.43.96,0l.07-.18-.19.25c.15-.13-.17.1-.11.06.07-.04-.27.26.16-.09.11-.09.19-.19.24-.31.03-.08.05-.17.07-.25.02-.07.07-.21-.01.05.06-.19.1-.39.12-.58.04-.38.03-.77.03-1.15v-2.2c0-1.54,0-3.09-.05-4.63,0-.36-.02-.73-.04-1.09,0-.16,0-.32-.03-.48-.01-.07-.03-.15-.04-.22-.01-.08-.03-.16-.06-.24-.04-.13-.13-.19-.21-.28,0,0,.14.16.08.07-.24-.31-.73-.33-.98-.01h0Z"/>
    <path d="M12.72,11.28s-.02.02-.03.03c-.04.03-.1.09-.14.13-.09.1-.11.21-.14.34l.05-.17s-.02.07-.03.11c-.02.07-.05.15-.06.22,0,.02,0,.04,0,.07l-.02.25c-.01.16-.02.32-.03.49l-.04.97c0,.11,0,.22,0,.33s.03.21.07.31c.05.13.14.24.23.34.07.09.15.16.26.2.07.03.15.05.23.04.08,0,.16,0,.23-.04.1-.04.19-.1.25-.19.04-.05.08-.1.12-.15.04-.06.09-.12.11-.19l.03-.1s.02-.07.03-.11c0-.02,0-.04,0-.05v-.07c.02-.09.02-.15.02-.26,0-.16-.01-.32-.02-.49-.01-.32-.02-.65-.04-.97l-.02-.27v-.07c-.01-.08-.03-.15-.05-.23-.01-.04-.02-.09-.04-.13l.04.17h0c0-.1-.04-.18-.08-.26-.02-.06-.06-.1-.11-.14-.02-.03-.04-.05-.07-.07-.01,0-.02-.02-.03-.03l-.14-.08c-.07-.03-.15-.05-.23-.04-.05,0-.1,0-.15.02-.08.01-.15.05-.21.1h0Z"/>
    <path d="M13.11,12.07h0c-.05.02-.11.04-.16.06.06,0,.1-.02.15-.05.05-.03.09-.06.12-.11l-.08.07s.08-.07.12-.12c0,0,.01-.02.02-.03.04-.04.06-.09.08-.13l-.06.11c.04-.07.1-.14.16-.19l-.1.1c.06-.06.12-.12.18-.18l-.1.1c.15-.15.33-.27.51-.37l-.13.07c.18-.1.38-.18.58-.23l-.15.04c.21-.05.42-.07.63-.07h-.16c.15,0,.31.02.46.06l-.16-.04c.1.03.19.07.28.12l-.15-.09s.07.04.11.07c.02.01.04.03.05.04.06.05.13.08.2.12l-.15-.09s.01,0,.02.01l.15.09.16.04c.11.02.22,0,.32-.04,0,0,0,0,.01,0,.03-.01.12-.06.14-.08l.06-.06c.06-.05.11-.12.14-.2.01-.04.04-.12.04-.16,0-.03,0-.04,0-.1v-.08c0-.09-.03-.16-.08-.23-.02-.04-.03-.06-.05-.09,0-.01-.02-.02-.03-.03-.07-.07-.12-.12-.19-.18-.14-.09-.28-.18-.44-.24-.1-.03-.2-.06-.3-.08-.05-.01-.11-.02-.16-.02-.17,0-.33,0-.49.02-.3.04-.61.12-.89.25s-.55.3-.78.51c-.09.08-.17.16-.25.24s-.14.19-.19.29c-.05.09-.08.2-.1.3-.03.16.01.35.12.47l-.05-.09c.03.07.06.13.13.17.06.04.12.07.2.08l-.08-.02c.11.05.23.03.32-.04h0Z"/>
    <path d="M16.18,11.29c.09-.05.18-.08.25-.15.05-.04.09-.08.14-.12.1-.08.21-.15.32-.22l-.13.07c.2-.11.42-.19.64-.25l-.15.04c.18-.04.36-.07.54-.07h-.17c.17,0,.34.02.51.07l-.17-.05c.21.06.41.14.6.25l-.16-.1c.15.09.29.2.42.32l-.13-.14c.11.12.21.25.29.39l-.09-.16s.02.04.03.06c.01.03.03.06.05.09.04.09.1.16.18.22,0,0,.02.02.03.02l.16.09.17.05h.18c.09,0,.18-.04.25-.09.06-.02.11-.06.14-.11.05-.04.09-.09.11-.15.04-.05.06-.11.07-.17.03-.08.04-.17.02-.26-.02-.19-.11-.34-.21-.5-.04-.06-.08-.12-.12-.17-.08-.1-.17-.19-.26-.28-.05-.05-.1-.1-.16-.14-.15-.12-.33-.23-.5-.32s-.36-.15-.55-.19c-.14-.03-.28-.05-.42-.05-.2,0-.4,0-.6.04s-.38.09-.56.17c-.11.05-.22.11-.33.17-.06.04-.13.08-.19.12-.17.12-.33.27-.47.42-.06.06-.11.12-.16.19-.05.06-.1.13-.13.2s-.04.15-.06.22c-.03.15.05.32.17.41.06.05.14.08.21.09.08.01.15,0,.22-.03h0Z"/>
    <path d="M20.01,11.42h.01s-.07.03-.11.06c.2-.11.42-.21.64-.27l-.14.03c.16-.04.33-.06.5-.06h-.15c.17,0,.35.02.52.07l-.15-.04c.16.04.3.1.44.19l-.15-.09c.14.08.28.19.4.31l-.12-.12c.06.06.12.13.16.2l-.08-.15c.04.08.08.16.13.23l-.08-.15s0,.01.01.02c.03.08.08.15.14.21.06.07.12.12.21.15l.16.04c.08.01.16,0,.24-.02.06,0,.11-.03.15-.06.08-.04.14-.09.2-.16l.09-.15c.04-.1.06-.21.04-.32,0-.01,0-.03,0-.04,0,0,0-.01,0-.02l-.02-.08s-.01-.06-.02-.09c-.03-.07-.07-.14-.11-.21-.03-.04-.06-.09-.1-.13-.11-.12-.22-.23-.34-.32s-.26-.17-.4-.23c-.09-.04-.19-.08-.29-.11-.15-.04-.29-.08-.45-.1s-.3-.02-.45,0c-.11,0-.21.03-.31.05-.15.04-.29.08-.43.14-.15.06-.29.14-.43.23-.05.03-.1.06-.14.1-.08.07-.15.14-.22.21-.04.05-.07.11-.08.17-.02.06-.03.12-.02.18l.03.12c.02.06.06.11.11.15.03.04.06.06.1.08.05.04.11.06.18.07h.12c.08,0,.16-.04.23-.09h0Z"/>
    <path d="M22.33,11.84c-.09-.09-.1-.1-.03-.03.04.05.09.08.14.1.04.01.08.02.12.03.02,0,.04.01.06.02.02,0,.05,0,.07,0,.03,0,.05,0,.08,0,.05,0,.1-.02.14-.04.02,0,.05-.01.07-.02l-.12.03c.24-.06.5-.07.74-.07h-.15c.16,0,.32.02.48.06l-.16-.04c.19.05.38.12.55.22l-.15-.09c.15.09.28.19.4.31l-.13-.13c.05.06.11.12.15.18.02.03.05.06.07.09.08.1.18.2.31.25.02,0,.03.01.05.02.1.04.21.06.32.04.08,0,.16-.03.23-.08.08-.04.14-.09.2-.16.07-.09.11-.19.13-.31,0,0,0-.02,0-.03,0,0,0,0,0-.01,0-.03,0-.15,0-.18s-.03-.14-.04-.17c0-.02-.06-.11-.09-.16,0-.01-.01-.02-.02-.03-.03-.04-.05-.08-.09-.11-.1-.11-.21-.22-.33-.32-.07-.06-.15-.11-.23-.16-.13-.08-.26-.16-.4-.21s-.28-.09-.42-.13c-.09-.02-.18-.04-.28-.04-.32-.02-.62.01-.92.11-.12.04-.25.09-.36.14-.06.03-.12.05-.19.08,0,0-.01,0-.02,0l-.11.06h-.01s-.08.08-.1.1c0,0-.01.01-.02.02,0,.01-.02.02-.02.03-.05.06-.06.1-.08.16-.01.04-.02.07-.02.11,0,.02,0,.04,0,.06v-.11c0,.07,0,.11.01.17,0,.04.02.07.04.1.02.05.06.09.11.13h0Z"/>
    <path d="M25.02,11.99s-.04.06-.06.09c-.04.07-.06.14-.07.21,0,.06-.02.11-.02.16,0,.11-.02.22-.02.32-.02.27-.04.55-.04.82v-.18c0,.17,0,.33,0,.5,0,.14-.01.29,0,.43,0,.08,0,.17,0,.25,0,.17,0,.34,0,.51s.02.33.03.5c0,.05,0,.1,0,.14,0,.08.03.16.05.24,0,.02.01.05.02.07.04.13.11.26.18.37.07.09.16.16.27.21.08.04.16.05.24.04.08,0,.16,0,.24-.04.11-.04.2-.11.27-.2.13-.18.24-.42.27-.64.02-.13.02-.26.03-.38.02-.31,0-.63-.02-.94,0-.13-.02-.26-.03-.38s-.05-.25-.07-.38c-.04-.18-.07-.35-.12-.53-.03-.12-.07-.23-.11-.35-.04-.13-.09-.26-.15-.39-.03-.07-.05-.14-.08-.2-.02-.03-.03-.06-.05-.09,0-.01-.01-.02-.02-.03-.03-.08-.08-.14-.14-.19-.04-.03-.07-.05-.11-.07l.1.06s-.02-.02-.04-.02c-.09-.05-.18-.1-.29-.08s-.2.06-.26.15h0Z"/>
    <path d="M16.42,17.77c.08.04.15.09.24.12s.16.06.24.09c.19.06.39.11.59.15.04,0,.09,0,.13,0,.08,0,.15,0,.23,0,.09,0,.18,0,.26-.01.21-.02.41-.06.61-.12.09-.03.19-.06.28-.1.02,0,.04-.02.07-.03.06-.03.1-.05.15-.09.02-.01.04-.03.05-.04.06-.05.11-.11.14-.18.01-.04.02-.07.03-.11l-.07.17s0,0,0-.01c0,0,0,0,0,0,.03-.04.05-.08.06-.12.01-.05.02-.07.01-.13,0,0,0,0,0,0v.08s0-.06,0-.1c0-.01,0-.03,0-.04,0-.02-.01-.04-.02-.06-.01-.03-.04-.06-.06-.08,0,0,0,0,0,0,0,0-.01,0-.02-.01-.01-.01,0,0-.04-.03-.04-.03-.08-.04-.12-.05h-.09s-.02,0-.03,0l.18.02s-.01,0-.02,0c0,0,0,0-.01,0-.02,0-.03,0-.05-.01-.03-.01-.06-.02-.1-.01-.02,0-.04,0-.05,0-.02,0-.04,0-.06.01-.04,0-.08.01-.12.02-.03,0-.05.01-.08.02-.01,0-.02,0-.03.01-.09.03-.18.06-.26.09-.05.01-.1.03-.15.04l.11-.03c-.2.05-.4.08-.6.09-.06,0-.12,0-.17,0h.1c-.07,0-.14,0-.21,0-.04,0-.07,0-.11,0h.1c-.22,0-.43-.02-.65-.08-.06-.01-.12-.03-.18-.04l.08.02s-.06-.02-.09-.03c-.04-.02-.08-.02-.12-.02-.04,0-.08,0-.12.02-.04.01-.07.04-.1.07-.03.03-.06.06-.07.1-.03.07-.03.16,0,.23l.04.07s.08.08.13.1h0Z"/>
    <path d="M19.13,17.35s.01.04.02.06l-.02-.07s.01.05.02.08c.01.02.03.05.04.07l-.04-.07s.05.1.08.14c.02.02.03.04.05.06.05.06.11.12.17.18l-.07-.07c.05.05.11.11.16.16.02.01.03.03.05.04.04.03.1.06.15.09.12.06.24.1.37.13.11.03.23.05.34.05.15,0,.29,0,.44,0,.23,0,.46,0,.68-.06.13-.03.26-.06.39-.11.12-.05.23-.11.34-.17.09-.05.17-.11.24-.19.04-.04.09-.09.13-.13s.07-.09.11-.16c.03-.05.05-.11.06-.17,0-.05,0-.11,0-.16,0-.07-.03-.13-.07-.18-.03-.04-.07-.08-.12-.1-.04-.03-.09-.05-.14-.05-.07,0-.13,0-.19.02-.03.02-.06.04-.1.05l.09-.05s-.11.05-.15.08c0,0-.02.02-.03.03,0,0-.01,0-.02.01-.03.03-.07.06-.09.09-.03.04-.07.08-.1.12l.08-.08c-.09.08-.18.15-.29.21l.1-.05c-.13.07-.26.12-.41.16l.11-.03c-.28.07-.57.08-.86.08h.11c-.12,0-.24,0-.35-.01-.11,0-.22-.02-.33-.05l.1.03c-.1-.03-.2-.08-.3-.1l.1.03c-.07-.02-.15-.05-.21-.09l.08.05c-.05-.03-.1-.06-.15-.1-.02-.02-.05-.03-.07-.05-.04-.03-.09-.06-.14-.08l.07.04s0,0-.01,0l-.06-.04s-.07-.02-.1-.02c-.02,0-.05,0-.07,0-.04,0-.07.02-.1.04-.04.03-.07.07-.09.12-.02.03-.02.07-.02.1,0,.04,0,.07.02.1h0Z"/>
    <path d="M21.84,17.05c0,.06,0,.11,0,.17,0,.09.04.16.08.24.03.06.07.11.11.16.06.07.13.14.2.2.04.03.07.05.11.07.08.05.16.11.25.14.04.02.08.03.13.05.13.04.27.08.41.11.46.09.93.04,1.37-.12.21-.07.42-.19.61-.31s.36-.3.51-.47.27-.37.37-.57.17-.42.22-.64c.01-.04.02-.09.03-.14.02-.09,0-.21,0-.31s-.04-.19-.09-.28c-.03-.06-.07-.12-.1-.18-.1-.17-.34-.26-.54-.24-.11.01-.13.03-.21.07-.07.04-.14.09-.19.16-.01.02-.02.03-.03.05-.05.08-.11.16-.14.26s-.06.2-.08.3c0,.05-.02.09-.03.14l.05-.17c-.05.18-.12.35-.22.51l.09-.16c-.09.16-.21.31-.34.44l.13-.13c-.12.12-.26.23-.41.31l.16-.09c-.14.08-.3.14-.46.18l.17-.04c-.2.05-.4.07-.6.07h.18c-.18,0-.36-.03-.54-.07l.17.05s-.08-.02-.12-.04c-.09-.03-.19-.05-.28-.08l.17.04c-.13-.03-.25-.08-.38-.11-.04,0-.07-.02-.1-.02-.05,0-.11,0-.16,0-.07,0-.1.02-.15.04-.01,0-.02,0-.03.01-.08.03-.15.09-.21.16-.06.07-.09.15-.1.24h0Z"/>
    <path d="M15.87,10.79c-.09.03-.16.11-.2.19-.02.04-.02.1-.03.14s-.02.1-.02.15c0,.1,0,.21,0,.31,0,.22,0,.44-.01.66,0,.44-.04.89-.06,1.33,0,.09-.01.18,0,.27,0,.09.03.17.06.25.02.05.03.1.05.14.02.04.05.08.07.13s.05.08.08.11c.05.04.11.05.16.05.05,0,.09-.01.13-.03.06-.03.09-.07.12-.13.02-.04.04-.07.06-.11.02-.04.04-.08.05-.12.02-.07.06-.15.07-.23.01-.08,0-.17,0-.25,0-.22-.02-.44-.03-.66s-.02-.46-.02-.69,0-.45,0-.67c0-.12,0-.23,0-.35,0-.05-.01-.11-.02-.16-.01-.08-.03-.15-.08-.22-.09-.12-.24-.17-.38-.12h0Z"/>
    <path d="M19.36,10.93c-.01.06.02-.02,0,.02,0,.01-.02.03-.03.04-.03.05-.04.09-.06.14s-.04.11-.04.17c0,.05,0,.11,0,.16,0,.2-.01.4-.02.59,0,.42,0,.85-.02,1.27s-.06.87-.08,1.3-.07.85-.07,1.27c0,.25,0,.5,0,.76,0,.11,0,.21,0,.32,0,.05.01.1.02.15.02.1.05.19.11.27.12.18.44.19.57,0,.06-.08.09-.15.11-.25,0-.05.01-.09.02-.14.01-.09,0-.19.01-.28,0-.13,0-.25,0-.38,0-.05,0-.1,0-.14,0-.02,0-.1,0-.03s0-.02,0-.04c0-.45-.03-.9-.05-1.35s-.04-.88-.06-1.32,0-.85-.01-1.28c0-.22,0-.45-.01-.67,0-.05,0-.11,0-.16,0-.07-.01-.13-.03-.19-.01-.05-.03-.1-.05-.15s-.05-.07-.06-.12c-.01-.05-.08-.08-.13-.08-.06,0-.09.05-.11.1h0Z"/>
    <path d="M22.3,11.49s-.03.04-.05.06l.05-.04s-.05.03-.07.06,0,.01,0,0c0,0-.01.01-.02.02,0,0-.02.03,0,0,.03-.04-.03.03-.03.03-.02.03-.04.07-.04.1,0-.01,0-.03,0,0-.02.09-.05.18-.06.28-.02.2-.02.39-.02.59,0,.4,0,.79,0,1.19s0,.83,0,1.24c0,.05,0,.1,0,.15,0,.06,0-.05,0,0,0,.03,0,.06,0,.09,0,.1,0,.2-.01.3,0,.2-.02.39-.03.59s-.02.4-.03.6c0,.12,0,.24,0,.37,0,.08.03.17.04.25.03.18.17.31.35.31s.33-.13.36-.31c.01-.07.03-.15.04-.22,0-.08,0-.16,0-.24,0-.21-.01-.41-.03-.62-.03-.39-.07-.78-.08-1.17-.02-.81-.03-1.63-.04-2.44,0-.2,0-.4-.03-.6-.01-.11-.03-.21-.06-.32,0,0-.02-.06,0-.04.01.04-.02-.06-.02-.07,0-.02-.02-.03-.03-.04-.02-.02-.03-.03,0,0,.03.04-.02-.03-.01-.02.01.02-.02-.03-.02-.03-.02-.02-.04-.04-.06-.05l.05.04s-.03-.04-.05-.06c-.03-.03-.07-.03-.1,0h0Z"/>
    <path d="M24.71,17.06c-.27.19-.25.57-.25.86v-.16c0,.25,0,.51,0,.76v-.18c0,.27.01.55.01.82v-.2c0,.21,0,.42,0,.63v-.21c0,.64-.08,1.27-.24,1.88l.06-.21c-.09.31-.2.61-.32.91s-.25.59-.42.86l.12-.2c-.15.25-.32.49-.5.72-.13.17-.19.35-.27.54s-.09.39,0,.58c.07.16.18.26.34.34.26.13.54.02.78-.09.08-.04.17-.08.24-.13.08-.06.15-.14.22-.21.05-.05.11-.11.15-.17.19-.22.35-.46.5-.71.18-.3.37-.62.49-.95s.22-.68.29-1.03c.15-.7.19-1.43.15-2.15-.02-.43-.12-.88-.24-1.29-.05-.18-.12-.35-.19-.52-.05-.12-.12-.24-.21-.34-.17-.21-.46-.32-.71-.15h0Z"/>
    <path d="M22.66,24.33c-.09.32-.1.66-.11,1l-.04,1.07c-.03.74-.04,1.49-.06,2.23-.04,1.59-.05,3.18-.05,4.78,0,.4-.01.8,0,1.2,0,.19.01.38.05.56.04.21.07.41.2.59.07.1.17.18.25.27.11.11.35.16.5.14.19-.03.31-.12.45-.25.04-.04.09-.09.13-.13.13-.16.16-.36.2-.55.04-.17.05-.34.06-.52.03-.42,0-.84,0-1.26v-2.22c0-1.53-.05-3.06-.1-4.59l-.04-1.21c0-.19-.02-.38-.03-.57-.02-.23-.06-.45-.12-.67-.07-.27-.44-.46-.7-.42-.11.02-.22.06-.32.13-.16.11-.22.27-.26.45h0Z"/>
    <path d="M14.96,19.41c.09,0,.18.02.27.03s.18.03.27.04c.18.02.36.06.53.11l-.13-.03c.33.09.64.23.94.4l-.13-.08c.1.06.19.11.29.16l-.13-.08c.32.19.62.42.88.69l-.11-.11c.07.07.13.14.21.2.04.03.08.06.11.09.07.06.14.13.21.19l-.1-.1c.07.07.13.15.22.2.05.03.1.07.16.09.03.01.11.04.16.04.16.01.34-.07.4-.23.03-.09.06-.2.04-.3-.02-.08-.03-.17-.06-.24-.06-.12-.13-.24-.21-.35l.07.12c-.05-.09-.1-.18-.16-.27-.02-.02-.03-.05-.05-.07-.05-.07-.11-.12-.16-.17-.09-.09-.18-.17-.28-.25-.23-.19-.48-.34-.74-.49-.22-.12-.45-.21-.69-.28-.28-.08-.56-.16-.85-.2-.14-.02-.28-.03-.41-.04-.18,0-.36.01-.53.04-.11.02-.23.07-.29.16-.06.08-.09.17-.09.27,0,.21.16.42.38.44h0Z"/>
    <path d="M12.75,12.92c-.68.05-1.36.07-2.04.14-.18.02-.36.04-.54.07-.13.02-.26.09-.34.19-.05.05-.07.12-.09.18-.02.06-.03.13-.02.2.02.13.08.26.19.34s.24.12.38.11c.65-.09,1.3-.12,1.95-.16.21-.01.42-.03.63-.04.07,0,.13-.03.19-.07.06-.03.12-.07.16-.13.05-.05.08-.12.09-.19.02-.06.03-.13.02-.2-.02-.13-.08-.27-.2-.35l-.12-.07c-.08-.03-.17-.05-.26-.04h0Z"/>
    <path d="M35.4,14.03c-.1-.06-.19-.11-.3-.15-.13-.04-.25-.07-.38-.1-.25-.05-.5-.1-.75-.13-.56-.08-1.13-.15-1.7-.23-1.31-.17-2.64-.26-3.95-.36-.83-.07-1.67-.12-2.5-.17-.26-.02-.54.15-.56.43-.02.25.15.55.43.56,2.66.11,5.33.26,7.99.42.29.02.58.03.88.04.14,0,.28.01.43,0s.26-.04.39-.08c.09-.03.12-.18.03-.23h0Z"/>
    <path d="M11.46,15.3c-.16-.02-.33-.04-.49-.07-.13-.03-.25-.06-.38-.09-.09-.02-.18-.03-.28-.05-.07-.01-.13,0-.2.02-.07.01-.13.04-.18.08-.06.04-.1.09-.13.16-.04.06-.06.12-.07.19v.13c.01.09.04.17.1.24l.1.1c.07.06.16.09.25.1.15.02.3.05.45.09.13.03.26.07.39.09.1.02.2.03.31.04.07.01.13,0,.2-.02.07-.01.13-.04.18-.08.06-.04.11-.09.14-.16.04-.06.06-.12.07-.19v-.13c-.01-.09-.04-.17-.1-.25l-.1-.1c-.07-.06-.16-.09-.25-.11h0Z"/>
    <path d="M35.33,14.98c-.24-.04-.47-.07-.71-.07-.25,0-.51,0-.76.02-.55.04-1.1.07-1.65.09-1.3.06-2.6.16-3.9.22-.82.04-1.64.08-2.46.11-.26.01-.48.31-.44.56.05.28.28.45.56.44,2.6-.16,5.2-.36,7.78-.72.29-.04.57-.09.85-.15.27-.05.51-.14.76-.24.13-.05.1-.24-.03-.26h0Z"/>
    <path d="M9.93,13.62h0s.01-.03.02-.05v.04s-.03.07-.04.1v.09s0,.06-.01.09,0,.06,0,.1v.38c0,.13,0,.25,0,.38v.19s0,.07,0,.11v.05s0,.06,0,.09v.11s.02.07.02.1l.02.1s.02.07.02.11c0,.03.01.05.03.07.01.02.03.04.05.06l.05.03s.05.02.08.01c.02,0,.03,0,.05,0,.03,0,.05-.01.07-.03l.04-.04s.04-.06.04-.1c0-.03.02-.06.02-.09l.02-.09.02-.1s0-.06,0-.09v-.19c.02-.09.01-.17.01-.26v-.76s0-.07,0-.11,0-.07,0-.11v-.1c0-.05-.03-.11-.04-.16l-.03-.05s-.04-.05-.07-.06c-.02-.01-.03-.02-.06-.02-.03-.01-.06-.01-.09,0h-.06s-.03.03-.05.04c-.03.02-.05.04-.06.07-.02.02-.03.05-.03.08h0Z"/>
    <path d="M6.31,13.37s-.01.02-.02.03c0,0,0,0,0,.01h0c-.05.07-.08.13-.1.21-.01.04-.02.07-.02.1v.04c0,.05,0,.1,0,.16,0,.1-.01.2,0,.3v.15c.03.21.05.41.07.62.01.14.02.28.11.4.03.04.06.08.09.11.04.06.1.1.16.13.05.02.1.03.15.03.05,0,.1,0,.15-.02.07-.03.12-.07.16-.12l.08-.1s0,0,0-.01l.03-.06c.04-.05.06-.12.07-.18,0-.01,0-.03,0-.04,0-.03,0-.05,0-.08,0-.1.02-.2.03-.3l.03-.31v-.15c.02-.1.02-.2.02-.3v-.18s0-.06-.01-.09c0-.13-.08-.22-.14-.32-.06-.08-.13-.14-.23-.18-.07-.03-.13-.04-.2-.04-.07,0-.14,0-.2.03-.09.04-.17.09-.23.17h0Z"/>
    <path d="M6.45,13.88s.02.03.05.06c.05.05.08.08.15.1.03.01.08.03.12.03.03,0,.06,0,.08,0,.02,0,.05,0,.07,0,.06,0,.13,0,.19,0h.24c.11,0,.21,0,.32,0h.53c.09,0,.17,0,.26,0h.16s.06,0,.09,0c.02,0,.03,0,.05,0,.05,0,.1-.02.15-.04l.1-.06.09-.08.06-.1c.02-.05.03-.11.03-.17,0-.04,0-.08-.01-.11,0-.04-.02-.07-.04-.11-.01-.04-.04-.07-.07-.09-.04-.05-.09-.08-.14-.1-.03-.01-.06-.02-.09-.03-.09-.02-.07-.02-.19-.02,0,0-.01,0-.02,0h-.09c-.05,0-.1,0-.15,0h-.24c-.11,0-.21,0-.32,0h-.52c-.08,0-.17,0-.25,0-.05,0-.11,0-.16,0h-.09s-.02.01-.02.01c-.08,0-.11.02-.17.06l-.05.03s-.09.08-.11.13c-.01.02-.02.04-.03.06l.06-.09h0s-.04.07-.05.1c-.02.05-.03.1-.03.15,0,.03,0,.07.01.1,0,.05.03.1.06.14h0Z"/>
    <path d="M6.51,15.9s.03.03.05.04c.05.04.1.06.16.08.08.03.16.06.24.07l.22.02c.1,0,.2,0,.3,0h.51c.08.01.17.02.25.02h.16s.06,0,.08,0c.07,0,.16.01.23,0,.07,0,.14-.03.19-.07.07-.03.12-.07.16-.13l.07-.12c.03-.06.04-.13.04-.2,0-.05,0-.09-.02-.13-.01-.07-.04-.13-.08-.19l-.1-.1c-.08-.06-.16-.1-.26-.11-.06,0-.11,0-.17,0h-.04s-.05,0-.08,0h-.14c-.08,0-.15,0-.23,0h-.31c-.17.01-.34.01-.51.02-.08,0-.16.01-.24.02-.09,0-.17.03-.25.06h-.03s-.05.03-.08.05-.05.03-.07.05l-.03.03c-.05.04-.09.09-.12.15-.02.04-.03.09-.03.14,0,.05,0,.09.02.14.02.06.06.11.12.15h0Z"/>
    <path d="M9.12,13.93s.05-.07.08-.1l-.1.09s.1-.08.15-.11l-.11.06c.06-.03.13-.06.2-.08l-.13.03c.08-.02.17-.03.25-.03h-.13c.1,0,.2.01.3.04l-.13-.04c.11.03.22.08.32.14l-.12-.07s.06.04.09.06c.02.01.03.02.04.03.02.02.04.02.07.04.07.04.11.07.2.07.05,0,.1,0,.16,0h-.13s.01,0,.02,0c.09.01.17,0,.26-.03.09-.03.16-.09.21-.16.06-.07.09-.15.1-.25.01-.09,0-.17-.03-.26,0-.01,0-.03-.01-.04l-.03-.06c-.03-.07-.07-.12-.14-.16,0,0,0,0-.01,0,0,0-.02-.01-.02-.02-.07-.04-.13-.08-.2-.12-.06-.03-.11-.06-.17-.08-.1-.04-.2-.06-.3-.09-.06-.01-.11-.02-.17-.03-.03,0-.06,0-.08,0-.07,0-.14,0-.21,0-.05,0-.11,0-.16.02-.07.01-.13.03-.2.05-.03,0-.05.02-.07.02-.09.03-.17.08-.25.13-.05.03-.09.06-.13.1-.07.07-.15.14-.2.22-.04.05-.07.11-.08.18-.02.06-.03.12-.02.19,0,.07.03.13.06.18.03.06.07.11.13.15l.12.07c.08.03.17.04.25.03l.12-.03c.08-.03.15-.09.21-.16h0Z"/>
    <path d="M8.44,15.95c.07.05.15.09.23.14.04.02.09.04.13.06s.09.03.13.05c.08.02.17.05.26.07.14.02.27.03.41.02s.27-.03.41-.07c.05-.01.1-.03.15-.05.02-.01.05-.02.07-.04.06-.03.13-.07.19-.11.06-.04.11-.1.14-.17.04-.06.07-.13.07-.2.01-.07,0-.14-.02-.21-.01-.07-.04-.14-.09-.19l-.1-.11c-.08-.06-.17-.1-.27-.11h-.14c-.1.01-.18.05-.26.1-.03.02-.06.04-.09.05l.12-.07c-.1.06-.22.1-.33.13l.13-.03c-.11.03-.22.04-.33.04h.13c-.11,0-.23-.02-.34-.04l.12.03c-.09-.03-.18-.06-.27-.1-.06-.03-.12-.04-.18-.03-.06,0-.12,0-.18.03l-.11.06c-.05.04-.1.09-.12.14-.03.03-.04.07-.05.11-.02.06-.03.12-.02.18l.03.12c.03.08.08.15.15.2h0Z"/>
    <path d="M.96,14.94c.08-.08.16-.17.25-.25l-.1.1c.42-.41.88-.79,1.4-1.08l-.12.07c.24-.13.49-.25.76-.32l-.13.03c.3-.08.6-.09.9-.09h-.15c.39,0,.78.03,1.16.13l-.15-.04c.06.02.13.03.19.05l-.15-.04c.28.08.55.19.8.34l-.14-.08c.26.15.49.33.71.53.12.11.32.15.47.13s.33-.11.43-.24c.2-.28.17-.68-.11-.9-.41-.33-.87-.62-1.37-.79-.23-.08-.48-.14-.72-.18s-.47-.04-.71-.04c-.45,0-.89.03-1.32.17-.47.15-.92.39-1.32.67-.5.35-.95.77-1.37,1.21-.08.09-.12.26-.1.37s.09.26.19.34.24.13.37.1c.14-.02.24-.09.34-.19h0Z"/>
    <path d="M.1,14.97c.4.72,1.07,1.28,1.77,1.68.58.33,1.21.55,1.87.65s1.41.05,2.05-.26c.37-.18.71-.41.99-.71.09-.1.17-.21.24-.33s.14-.22.2-.34c.11-.21.14-.47.03-.69-.07-.14-.16-.25-.3-.34-.13-.08-.28-.12-.43-.09-.23.03-.44.14-.57.34-.03.05-.07.1-.11.15-.08.1-.16.19-.25.28l.15-.15c-.09.08-.17.17-.26.25l.15-.15c-.15.15-.33.28-.51.38l.18-.1c-.19.11-.4.19-.61.24l.19-.05c-.3.07-.6.11-.91.11h.19c-.26,0-.53-.03-.79-.07-.24-.04-.47-.08-.7-.14l.16.04c-.34-.09-.66-.24-.96-.41l.14.08c-.29-.17-.56-.38-.79-.62l.1.1c-.14-.15-.28-.3-.39-.47-.15-.22-.51-.28-.72-.11-.1.08-.19.2-.2.34v.13c.01.09.04.17.1.24H.1Z"/>
    <path d="M1.16,14.5s.06,0,.08,0h-.05c.06.02.12-.02.17-.04.04-.01.07-.03.11-.04s.07-.03.11-.04c0,0,.02,0,.03,0,0,0,.04,0,0,0,.02,0,.04,0,.06-.01.07-.02.15-.03.23-.03.02,0,.04,0,.05,0,0,0,.02,0,.03,0,.03,0-.02,0,0,0,.04,0,.08,0,.11,0,.08,0,.15.02.23.03.04,0,.08.01.12.02.02,0,.04,0,.06.01,0,0,.02,0,.03,0,0,0,.04.01.02,0s0,0,.01,0c0,0,.02,0,.03,0,.02,0,.04.01.06.02.04.01.08.03.12.04.08.03.16.06.23.09.32.13.63.29.94.45s.62.31.94.43c.31.11.63.19.96.2.05,0,.1,0,.15,0h-.05s.03,0,.05,0c.07,0,.14-.02.18-.07.03-.04.05-.09.04-.15,0-.05-.03-.1-.08-.13-.06-.05-.13-.05-.2-.03-.01,0-.03,0-.04.01h.05c-.08,0-.15,0-.23.01,0,0-.04,0,0,0s0,0,0,0c-.02,0-.04,0-.06,0-.04,0-.08,0-.12-.01-.08-.01-.16-.02-.23-.04-.02,0-.04,0-.06-.01,0,0-.02,0-.03,0-.01,0-.06-.02,0,0-.04-.01-.08-.02-.12-.03-.33-.1-.65-.25-.96-.4s-.63-.31-.95-.45c-.31-.13-.63-.24-.96-.27s-.68.02-.96.19c-.05.03-.11.06-.12.13l.02-.05s-.03.06-.05.09c-.02.04.02.08.06.08h0Z"/>
    <path d="M34.62,14.27s.08.02.11.03h-.06s.05,0,.08,0c.01,0,.02,0,.03,0,.02,0,.04,0,.07.01.04,0,.09.02.13.03l-.06-.02c.13.03.25.08.37.15l-.06-.03c.06.04.13.08.18.14l-.05-.05s.06.06.08.1l-.03-.06s.02.05.03.08l-.02-.06s0,.05,0,.07v-.07s0,.07-.01.11l.02-.06s-.02.06-.04.08l.03-.06s-.05.07-.08.1l.05-.05s-.1.08-.16.12l.05-.03c-.09.05-.19.09-.29.12h.06c-.07,0-.14,0-.21.02-.04,0-.08,0-.11,0-.02,0-.04,0-.06,0-.06,0-.12.02-.17.06-.07.05-.11.14-.1.23.01.09.07.16.15.2.05.02.12.03.18.02.02,0,.04,0,.06,0,.04,0,.08-.01.11-.02.09-.02.18-.04.26-.07h-.06c.1,0,.19-.03.29-.07.03-.01.07-.03.1-.04.05-.02.09-.05.14-.08.02-.02.05-.04.07-.06.04-.03.07-.07.1-.11,0-.01.02-.02.02-.03.02-.03.04-.06.05-.09.02-.04.03-.09.04-.14,0-.01,0-.03,0-.04,0-.03,0-.07,0-.1,0-.05-.02-.1-.04-.14s-.04-.09-.07-.13c-.03-.04-.07-.08-.11-.12-.07-.06-.15-.11-.23-.15-.07-.04-.15-.07-.22-.09-.1-.03-.2-.06-.3-.07-.04,0-.08-.01-.13-.02-.04,0-.08,0-.11,0-.02,0-.04,0-.06,0s-.04,0-.06,0c-.05,0-.1.03-.13.08l-.03.05s-.02.05-.01.08c0,.02,0,.03,0,.05,0,.03.01.05.03.07l.04.04s.06.04.1.04h0Z"/>
    <path d="M20.25,8.02c.08-.15.06-.31.05-.47,0-.13,0-.25,0-.38v-.34c0-.06,0-.13,0-.19s0-.1,0-.14c.02-.49.03-.99.04-1.48s.03-.97.05-1.46c.02-.52.05-1.04.03-1.56-.01-.27-.02-.54-.04-.8-.01-.14-.02-.27-.04-.41-.02-.15-.1-.3-.15-.44-.07-.19-.36-.19-.43,0-.04.11-.09.21-.13.32-.04.14-.04.29-.06.43-.02.24-.04.47-.05.71-.01.28-.02.55,0,.83l.03.73c.03.98.06,1.96.09,2.94,0,.25,0,.49,0,.76,0,.14,0,.28,0,.41,0,.17-.03.37.05.52.13.25.45.26.59,0h0Z"/>
    <path d="M25.98,10.47c.1.01.16,0,.24-.06s.15-.13.22-.2l.44-.39c.29-.26.59-.52.88-.79.58-.53,1.16-1.06,1.74-1.59,1.16-1.07,2.29-2.17,3.43-3.26l.95-.91.49-.47c.1-.1.22-.19.31-.3.08-.09.14-.2.21-.29.15-.21.14-.48-.04-.67s-.46-.2-.67-.06c-.08.06-.16.11-.24.17-.11.08-.2.18-.29.28l-.41.43-.82.86c-.55.57-1.09,1.14-1.64,1.71-1.08,1.15-2.17,2.29-3.23,3.46-.29.32-.58.65-.87.97l-.45.5-.21.24c-.08.1-.12.16-.1.29,0,.04.03.07.07.07h0Z"/>
    <path d="M27.24,22.59c0,.14.11.25.21.34.13.11.26.22.39.33l.75.62c.49.41.98.81,1.47,1.23.97.84,1.99,1.64,3,2.43.29.23.57.45.86.68.14.11.29.23.43.34.11.09.21.17.34.24.15.08.31.1.49.08.3-.04.57-.34.51-.65-.01-.07-.02-.15-.05-.21-.05-.14-.12-.2-.22-.3-.06-.06-.12-.1-.19-.14l-.42-.28c-.27-.18-.54-.36-.81-.55-.53-.36-1.06-.71-1.59-1.07s-1.08-.73-1.64-1.07-1.09-.68-1.62-1.02l-.92-.59c-.15-.1-.31-.2-.46-.29-.14-.08-.3-.19-.47-.15-.02,0-.04.02-.03.04h0Z"/>
    <path d="M11.44,24.42c-.41.21-.73.55-1.08.86l-1.01.92c-.68.62-1.38,1.22-2.05,1.85-1.35,1.27-2.7,2.54-4.05,3.82-.41.39-.82.77-1.2,1.18-.36.38-.68.79-.97,1.23-.14.21-.14.47.04.65s.44.2.65.06c.38-.26.76-.53,1.1-.85.37-.35.72-.7,1.07-1.07.64-.67,1.28-1.33,1.91-2.01l1.91-2.04c.63-.67,1.23-1.37,1.85-2.05l1.04-1.14c.35-.38.74-.75.98-1.21.06-.11-.08-.25-.19-.19h0Z"/>
    <path d="M1.25,1.83c.15.42.5.75.79,1.07.3.35.67.64,1.01.95.62.56,1.22,1.13,1.82,1.7l3.58,3.41c.34.32.67.64,1.02.95s.71.67,1.13.89c.21.11.48-.15.37-.37-.19-.37-.49-.69-.77-.99s-.55-.61-.84-.9l-1.72-1.81c-1.13-1.19-2.28-2.37-3.39-3.59-.31-.34-.62-.69-.94-1.03-.19-.21-.41-.39-.62-.58-.2-.18-.44-.36-.69-.45-.22-.08-.45-.04-.62.12s-.22.4-.14.62h0Z"/>
    <path d="M12.14.91c-.02.07-.05.14-.05.21-.01.11.03.23.06.34.04.15.11.3.17.45s.12.31.19.46l.21.44.41.88c.14.29.27.59.42.88l.26.49c.05.1.11.2.18.29l.17.23c.1.13.28.17.42.09.15-.08.19-.25.15-.41l-.07-.23c-.02-.08-.04-.16-.07-.23-.07-.15-.13-.29-.2-.44-.13-.3-.29-.58-.43-.87l-.44-.87c-.16-.31-.31-.62-.49-.93-.09-.16-.18-.32-.28-.47-.05-.07-.1-.14-.16-.21-.07-.09-.18-.12-.28-.16-.06-.02-.14,0-.16.07h0Z"/>
    <path d="M26.18,1.94c-.03.06-.06.12-.09.18s-.07.11-.11.17c-.08.12-.17.24-.24.37-.13.24-.25.49-.38.73-.26.49-.53.97-.79,1.46-.07.14-.14.28-.2.42s-.1.3-.15.44c-.03.1,0,.21.09.27.09.05.21.03.28-.05.08-.11.17-.23.25-.34.05-.07.09-.14.13-.21.04-.06.08-.13.11-.2.13-.24.24-.5.36-.75.23-.51.45-1.01.67-1.53.03-.08.07-.16.09-.24.02-.07.04-.14.06-.22.02-.07.03-.14.06-.2.03-.08.06-.15.09-.22.02-.06,0-.12-.06-.15-.06-.02-.12,0-.15.06h0Z"/>
    <path d="M34.15,9.19s-.08-.05-.12-.07c-.07-.04-.15-.05-.23-.04-.09.01-.18.03-.27.06-.12.04-.24.08-.36.12-.24.09-.49.17-.73.27-.48.18-.94.4-1.39.64-.28.15-.56.32-.83.49-.08.05-.16.18-.17.28,0,.09,0,.18.05.26s.11.15.2.18c.1.04.22.05.32,0,.23-.11.47-.22.7-.34s.47-.23.7-.35.47-.22.7-.33.47-.22.7-.32c.13-.06.26-.12.4-.17.09-.04.18-.09.26-.15.07-.05.11-.13.14-.2.05-.13.02-.25-.08-.34h0Z"/>
    <path d="M30.66,19.47c.04.05.08.1.13.14s.11.07.16.11c.12.08.26.13.39.19.25.11.5.21.75.31l1.52.61.42.17.22.09s.07.03.11.04c.06.02.11.03.17.03s.12,0,.18-.04c.05-.03.1-.08.13-.14.04-.12.01-.25-.09-.33-.04-.03-.08-.07-.13-.09-.03-.02-.07-.02-.1-.04l-.19-.06-.39-.13-.77-.26c-.52-.17-1.04-.35-1.56-.51-.15-.05-.29-.08-.44-.12-.08-.02-.17-.03-.25-.04-.04,0-.08-.01-.12,0-.03,0-.07.01-.1.02-.03,0-.05.04-.03.07h0Z"/>
    <path d="M12.12,29.06l-.08.1s-.04.04-.08.06c-.08.05-.13.12-.19.19-.05.05-.09.11-.14.16-.05.07-.1.14-.14.21l-.26.39c-.1.15-.18.31-.27.46l-.48.83c-.16.28-.31.56-.46.84-.08.16-.17.31-.25.48l-.22.49c-.06.14,0,.3.13.38.12.07.31.06.39-.07.18-.29.37-.58.53-.89.15-.28.3-.55.45-.83s.28-.57.43-.85c.07-.14.14-.29.22-.43s.13-.29.19-.43l.1-.24c.04-.09.06-.17.09-.26s.07-.19.07-.28c0-.03,0-.07,0-.11.01-.05.03-.1.04-.15.01-.04-.04-.07-.07-.04h0Z"/>
    <path d="M26.39,29.13c.02.07.05.14.05.22,0,.05,0,.09.02.14.01.04.03.08.04.12.02.07.05.15.07.22.03.08.07.15.1.23l.19.42c.07.15.15.28.23.43l.45.83c.16.3.34.6.51.9.09.15.17.3.27.45l.3.45c.08.13.27.15.39.08s.2-.24.14-.38l-.21-.43c-.08-.16-.17-.32-.26-.48-.16-.27-.31-.55-.48-.82s-.33-.54-.5-.8l-.25-.41c-.08-.14-.18-.26-.28-.39l-.14-.2c-.05-.07-.11-.14-.17-.21s-.12-.16-.2-.21c-.03-.02-.07-.04-.1-.06-.04-.03-.07-.07-.1-.11-.03-.03-.08,0-.07.04h0Z"/>
    <path d="M2.58,23.88c.88-.3,1.75-.62,2.61-.98.45-.19.91-.37,1.32-.64.09-.06.19-.12.28-.18.04-.03.08-.06.12-.09.06-.05.12-.12.18-.16.07-.05-.06.02.03-.01.03-.01.05-.04.07-.05.04-.03.08-.06.12-.09.1-.07.21-.13.3-.21.1-.09.19-.19.29-.27s.21-.15.32-.2c.24-.12.47-.24.71-.37.09-.05.02-.18-.07-.13-.21.12-.42.23-.63.34-.2.1-.4.18-.62.21-.12.02-.23.04-.34.08s-.23.08-.35.11c-.02,0-.05.01-.07.02-.02,0-.08,0-.02,0-.06,0-.11.02-.17.03-.13.02-.26.07-.39.11-.23.07-.45.13-.67.23s-.41.18-.62.27c-.42.18-.85.35-1.28.52-.49.19-.97.38-1.46.55-.24.09-.38.4-.27.63.11.25.37.36.63.27h0Z"/>
    <path d="M3.4,9.8s.06.06.1.09c.04.02.08.05.12.07.07.05.15.09.22.13.18.11.36.22.55.32.08.04.16.08.23.12s.16.08.24.11.16.07.24.1.16.07.24.09c.19.06.38.11.57.17.04.02.07.02.11.02.04,0,.08,0,.11-.02.06-.03.11-.07.15-.13.03-.05.05-.12.04-.19-.01-.07-.05-.16-.11-.2-.15-.09-.3-.19-.45-.29-.18-.12-.37-.22-.55-.32l.1.06c-.39-.23-.8-.42-1.2-.64-.05-.03-.1-.06-.15-.08-.03-.01-.05-.03-.08-.04s-.06-.02-.09-.03c-.05-.02-.1-.03-.15-.03-.05,0-.1,0-.15.02l-.09.05s-.08.07-.1.12c-.02.03-.03.06-.04.09-.02.05-.02.1-.01.15l.02.1c.03.06.07.12.12.16h0Z"/>
  </g>
</svg>