<?xml version="1.0" encoding="UTF-8"?>
<svg id="a" xmlns="http://www.w3.org/2000/svg" version="1.1" viewBox="0 0 36 36">
  <!-- Generator: Adobe Illustrator 29.3.1, SVG Export Plug-In . SVG Version: 2.1.0 Build 151)  -->
  <path d="M15.5,36.2v-11.4s-3.7-2.5-3.7-3.7-.3-5-.3-5l-1.2-.3h-3.2s-1.1.9-2.8.9-3.9-2-3.9-2c0,0,1.3-1.8,3.6-1.8s3,.9,3,.9h5.9s.3-1.4.3-2.2.7-.9,1.4-1,1.3.5,1.3.5c0,0,.9-1.2,1.9-1.2s1.7,1.2,1.7,1.2c0,0,.6-.6,1.6-.5s1.3.9,1.3.9c0,0,.5-.3,1.6-.2s1.5,2.1,1.5,2.1c0,0,10.3.2,10.3,1.1s-9.7,1.4-9.7,1.4l-1.3,1.2s1.2,1,.4,3.4-1.9,3.8-1.9,3.8v11.9h-7.7,0Z" fill="#fff"/>
  <path d="M.7,14.6c0,.9,5.9,3.8,6.1.4s-6.1-1.5-6.1-.4Z" fill="#ed1c24"/>
  <g>
    <path d="M12.2,14.9s0,0,.1,0h.1c0,0,.1,0,.2,0,.1,0,.3,0,.4,0h1c.6,0,1.2-.1,1.8-.2.2,0,.3,0,.5,0,0,0,.2,0,.2,0,0,0,.1,0,.2,0s.1,0,.2,0c0,0,.1-.1.1-.2,0,0,0-.2-.1-.2,0,0-.1,0-.2,0,0,0,0,0-.1,0,0,0-.1,0-.2,0-.1,0-.3,0-.4,0-.3,0-.6,0-.9.1s-.6,0-.9,0-.6,0-.9,0c-.2,0-.3,0-.5,0h-.4s0,0-.1,0c-.1,0-.2.1-.2.2s0,.2.2.2h0Z" fill="#38568b"/>
    <path d="M16.9,14.6h0s0,0,0,0c0,0,0,0,0,0h0c0,0,0,0,0,0,0,0,0,0,0,0h0s0,0,.1,0h0s0,0,.1.1h0s0,0,0,.2h0s0,.1,0,.2,0,.2,0,.3h0c0,.1,0,.3,0,.5h0s0,.1-.1.2h0c0,0-.1,0-.2.2h0c-.1,0-.3.2-.5.3h.1c-.3.1-.6.2-.9.3-.1,0-.2,0-.3,0h.1c-.1,0-.3,0-.4,0h.1-.2s0,0-.1,0h-.2,0-.1s0,0,0,0h0s0,0,0,.1c0,0,0,0,0,0s0,0,0,0h0c0,.1,0,.1,0,.2,0,0,0,0,0,0,0,0,0,0,.1.1,0,0,0,0,0,0,0,0,0,0,0,0h0s0,0,0,0c0,0,0,0,0,0,0,0,0,0,.1,0h0s0,0,0,0h.3c0,0,.1,0,.2,0,.3,0,.6-.2.9-.3.1,0,.2-.1.4-.2.1,0,.3-.2.4-.3,0,0,.2-.1.2-.2,0,0,0,0,.1-.1,0,0,.1-.2.2-.3,0,0,0-.1,0-.2,0-.1,0-.2,0-.4s0-.2,0-.4c0-.2,0-.3,0-.5,0,0,0-.1,0-.2h0s0,0,0,0c0,0,0,0,0,0,0,0,0-.2-.1-.2,0,0-.1-.1-.2-.2,0,0,0,0-.1-.1s0,0-.1,0c0,0,0,0,0,0h0s0,0-.1,0h0,0-.2,0s-.1,0-.2,0c0,0,0,0,0,.1,0,0,0,0,0,.1,0,0,0,.1.1.1h0Z" fill="#38568b"/>
    <path d="M14.8,17.7s0,0,0,0h0c0,0,0,0,0,0h0v.2h0v.3h0v.2h0s0,.1,0,.2c0,0,0,.1,0,.2s0,.1,0,.2c0,0,0,.1,0,.2h0s0,0,0,.1c0,0,0,0,0,.1h0c0-.1,0,0,0,0,0,0,0,0,0,.1h0v.2h0c0,0,0,0,0,0h0c0,0,0,.1,0,.2h0c0,0,0,.1,0,.1,0,0,0,0,0,0,0,0,0,0,0,0h0s0,0,.1,0c0,0,0,0,0,0,0,0,0,0,0,0,0,0,0,0,0,0,0,0,0,0,0-.1,0,0,0,0,0,0,0,0,0,0,0,0h0c0,0,0-.1,0-.1,0-.1,0-.2,0-.4v-.3c0,0,0-.1,0-.2,0-.1,0-.3,0-.4,0,0,0-.1,0-.2,0,0,0,0,0,0s0,0,0,0c0,0,0,0,0,0,0,0,0,0,0,0,0,0,0-.1,0-.1h0s0,0,0,0h0s0,0,0,0,0,0,0,0c0,0,0,0,0,0,0,0,0,0,0,0,0,0,0,0,0,0h0Z" fill="#38568b"/>
    <path d="M11.8,14.5h0s0,0,.1,0h0c0,0,0,0-.1,0h0c-.1,0-.2,0-.3.2,0,0,0,.1-.1.2,0,.1-.1.2-.1.3,0,.1,0,.3,0,.4s0,.3,0,.5c0,.5.1,1.1.1,1.6,0,.3,0,.6,0,.9h0c0,.4,0,.9,0,1.4,0,.1,0,.2,0,.3,0,0,0,0,0,.1,0,0,0,.1,0,.1s0,0,0,.1c0,.1.2.1.3.1s.1,0,.1,0c0,0,.1,0,.2-.1,0,0-.4.2-.2.1,0,0,.2,0,.2-.1,0,0,0-.1.1-.2s0-.1,0-.2c0,0,0,0,0-.1,0-.2,0-.3,0-.5,0-.4,0-.7,0-1.1,0-.3,0-.7,0-1,0-.2,0-.3,0-.5s0-.3,0-.5c0-.4-.2-.7-.2-1.1h0s0-.1,0-.3h0s0-.1.1-.2h0c0,0,0,0,0,0,0,0,0,0,0,0,0,0,0-.1,0-.2h0c0,0,0,0,0,0h0c0,0,0,0,0,0h0c0,0,0,0,0,0s0-.1,0-.1c0,0,0,0-.1,0,0,0,0,0-.1,0h0Z" fill="#38568b"/>
    <path d="M11.3,20.7s0,0,0,.1h0c0,.1,0,.2,0,.2h0s0,.2,0,.3c0,0,0,.2.1.3,0,.2.2.4.3.6.2.4.5.7.8,1,.3.2.6.5.9.6s.6.4.9.6c.1.1.3.2.4.3,0,0,.1.1.2.2s.1.1.2.2c0,0,0,0,.1,0,0,0,0,0,0,0,0,0,0,0,0,0h-.1c0,0,0,0,0,0s0,0,0,0c0,0,0,0,.1,0,0,0,.1,0,.1,0h.1s0,0,.1-.1c0,0,0,0,0,0,0,0,0,0,0-.1h0c0-.2,0-.2,0-.3,0,0,0,0,0-.1h0c0,0,0,0,0,0,0,0,0,0,0-.1v.2c0,0,0-.1,0-.1,0,0,0,0,0,0,0,0,0-.1-.1-.2,0,0-.1-.1-.2-.2,0,0,0,0-.1-.1s-.1,0-.1-.1c-.2-.1-.4-.3-.6-.4-.4-.3-.9-.5-1.3-.8-.2-.2-.5-.4-.7-.6h0c-.1,0-.2-.2-.3-.3s-.1-.1-.1-.2-.1-.1-.1-.2c0,0-.1-.2-.1-.2h0c0,0,0-.1-.1-.2,0,0,0-.1-.1-.2h0c0,0,0,0,0,0h0s0,0,0,0c0,0,0-.1-.2-.2,0,0-.1,0-.2,0s-.1,0-.2.1c0,0,0,.1,0,.2h0Z" fill="#38568b"/>
    <path d="M15.4,24.9c0-.1,0,0,0,0h0c-.1,0-.1.2-.1.4,0,.1,0,.2,0,.3,0,.3,0,.5,0,.8h0c0,1.1,0,2.3,0,3.5v4.6c0,.3,0,.6,0,.9h0c0,0,0,.3.2.5v-.2c-.1,0-.1.1,0,.2,0,.2.1.3.3.3s.3-.1.3-.3c0,0,0-.1,0-.2v.2c0-.1,0-.4,0-.6h0c0-.2,0-.5,0-.8v-5.4c0-.7,0-1.4,0-2.1,0-.3,0-.6,0-.9,0-.3,0-.5,0-.8,0-.1,0-.2-.1-.4h0c0,0,0,0,0,.1,0-.2-.2-.3-.4-.3s-.3.1-.4.3h0Z" fill="#38568b"/>
    <path d="M12.7,11.6s0,0,0,0h0c0-.1,0,0,0,0,0,0,0,0,0,0h0c0,0,0,.1,0,.2h0v.3c0,0,0,.2,0,.2v1.2c0,0,0,.2,0,.3s0,0,0,.1h0c0,0,0,.1,0,.1h0c0,0,0,0,0,.1h0c0,.1,0,.2,0,.2h0c0,0,0,.1,0,.1,0,0,0,0,.1,0s0,0,.1,0c0,0,0,0,0,0,0,0,0,0,0,0,0,0,0,0,0-.1,0,0,0-.1,0-.2,0,0,0-.1,0-.2h0c0,0,0-.1,0-.1v-.7c0-.3,0-.6,0-1v-.3s0,0,0-.1h0c0,0,0,0,0-.1h0c0-.1,0-.1,0-.2h0c0,0,0,0,0,0h0c0,0,0-.2,0-.2h0c0,0,0,0-.1,0s0,0-.1,0c0,0,0,0,0,0,0,0,0,0,0,0,0,0,0,0,0,.1h0Z" fill="#38568b"/>
    <path d="M13.1,11.9s0,0,0,0h0c0,0,0,0,0,0h0q0,0,0,0h-.1c0,0,0,0,0,0,0,0,0,0,0,0,0,0,0,0,0,0h0c0,0,0,0,0,0,0,0,0,0,0-.1h0c0,0,0,0,0,0h0s.1,0,.2-.1h0c0,0,0,0,.1,0h0c.2,0,.3-.2.5-.3h0c.2,0,.4-.1.6-.2h0c.2,0,.4,0,.6,0h-.1c.1,0,.3,0,.4,0h-.1c.1,0,.2,0,.3,0h0c0,0,0,0,.1,0,0,0,0,0,0,0,0,0,0,0,0,0,0,0,0,0,.1,0h0c.1,0,.3,0,.4-.1,0,0,0-.1,0-.2,0,0,0-.1,0-.2,0,0,0,0,0-.1s0,0-.1-.1c0,0,0,0,0,0,0,0-.1-.1-.2-.1-.1,0-.2-.1-.4-.1s-.3,0-.4,0-.2,0-.3,0c-.3,0-.6.1-.8.2s-.5.3-.7.5c0,0-.1.1-.2.2,0,0,0,0-.1.1,0,0,0,.1-.1.2,0,0,0,.1,0,.1h0c0,.2,0,.2,0,.3h0c0,0,0,0,0,0,0,0,0,0,0,0,0,0,0,0,0,0h0c0,0,0,0,0,0,0,0,.1,0,.2,0,0,0,0,0,.1,0,0,0,0,0,0,0h0Z" fill="#38568b"/>
    <path d="M16.2,11.1s0,0,0,0c0,0,0,0,.1-.1h0c.1,0,.3-.2.5-.3h0c.2,0,.4-.1.6-.2h-.1c.2,0,.4,0,.5,0h-.1c.2,0,.3,0,.5,0h-.1c.2,0,.4.1.6.2h-.1c.1,0,.3.1.4.3h0c.1,0,.2.2.3.3h0s0,0,.1,0h0s0,0,0,0c0,0,0,0,.1,0,0,0,0,0,.1,0h.1c0,0,.1,0,.2,0,0,0,0,0,0,0h0q0,0,0-.1h0v-.2h0c0,0,0-.1,0-.2,0-.2-.2-.3-.3-.5s-.3-.3-.4-.4c0,0-.2-.1-.3-.2,0,0-.1,0-.2-.1-.1,0-.2,0-.3-.1,0,0-.1,0-.2,0s-.1,0-.2,0h-.3c-.2,0-.4,0-.5.1s-.4.1-.5.2c-.1,0-.3.2-.4.3,0,0-.2.1-.2.2s-.1.2-.2.2c0,0,0,0,0,.1,0,0,0,.1,0,.2s0,.1.1.1c0,0,0,0,.1,0,0,0,.2,0,.2,0h0Z" fill="#38568b"/>
    <path d="M19.9,11.3s0,0,0,0h0c0,0,.1,0,.2,0h0c.2,0,.3-.1.5-.2h0c.2,0,.3,0,.5,0h0c.2,0,.3,0,.5,0h-.1c.2,0,.3,0,.4.2h0c.1,0,.3.1.4.2h0c0,0,.1,0,.1.1h0c0,0,0,0,0,0h0s0,0,0,.1c0,0,0,0,0,0,0,0,0,0,.1,0,0,0,0,0,0,0h0s0,0,0,0c0,0,0,0,0,0h0c0-.1,0-.1,0-.2h0v-.2s0,0,0,0c0,0,0,0,0,0,0,0,0,0,0-.1,0,0,0,0,0,0,0,0,0,0,0,0,0,0-.1-.1-.2-.2,0,0-.2-.1-.2-.2-.1,0-.2-.1-.4-.2,0,0-.1,0-.1,0,0,0-.2,0-.2,0-.1,0-.2,0-.3,0s-.3,0-.4,0c0,0-.2,0-.2,0,0,0-.1,0-.2,0-.1,0-.2.1-.4.2,0,0-.1,0-.2.1,0,0,0,0-.1.1,0,0,0,0,0,0,0,0,0,0,0,0,0,0,0,0,0,.1h0c0,.1,0,.2,0,.2,0,0,.1.1.2.1h0s.1,0,.1,0h0Z" fill="#38568b"/>
    <path d="M22.4,11.7s0,0,0,0c0,0,0,0,0,0s0,0,0,0h0s0,0,.1,0h0,0,.1s0,0,0,0c0,0,0,0,.1,0h0c.1,0,.3,0,.4,0,0,0,.1,0,.2,0s.1,0,.2,0h-.1c.2,0,.3,0,.5,0h-.1s.1,0,.1,0h-.1c.2,0,.3,0,.5.2h-.1c.1,0,.3.1.4.3h0s.1,0,.1,0c0,0,0,0,0,0h0s0,.1,0,.1h0s0,0,0,0h0c0,0,.1,0,.1,0h.1s.1,0,.1,0c0,0,0,0,0,0,0,0,0,0,0,0s0,0,0-.1c0,0,0-.1,0-.1h0s0-.1,0-.1h0c0,0,0-.1,0-.2,0,0,0,0,0-.1,0,0-.2-.2-.3-.3,0,0-.1-.1-.2-.2-.1,0-.2-.1-.3-.2,0,0-.2,0-.3,0,0,0-.1,0-.2,0,0,0,0,0-.1,0s0,0-.1,0h-.2c0,0-.1,0-.2,0,0,0-.2,0-.2,0-.1,0-.2,0-.3.1,0,0-.1,0-.2,0,0,0-.1,0-.2.1,0,0,0,0,0,0,0,0,0,0,0,0s0,0,0,0c0,0,0,0,0,0h0c0,0,0,0,0,0h0c0,0,0,.1,0,.1,0,0,0,0,0,.1h0Z" fill="#38568b"/>
    <path d="M25.1,12.1s0,0,0,0h0s0,0,0,0h0c0,0,0,0,0,0v.6h0v.6h0c0,.1,0,.3,0,.5v.3c0,0,0,.2,0,.3,0,.2,0,.4,0,.5s0,.2,0,.3,0,.2,0,.3c0,0,0,.1,0,.1s0,.1,0,.1c0,0,0,0,0,.1,0,0,0,0,0,.1,0,0,0,.1.1.2h0s0,0,0,0h0s0,0,.1,0c0,0,.1,0,.2,0,0,0,0,0,0,0h0c0,0,.1-.1.1-.2,0,0,0,0,0-.1,0,0,0-.1,0-.2,0,0,0,0,0-.1,0-.2,0-.4,0-.5,0-.2,0-.4,0-.7,0-.2,0-.4,0-.5,0-.2,0-.5-.1-.7h0c0,0,0-.3-.1-.5,0-.1,0-.3-.1-.5,0,0,0,0,0-.1s0,0,0-.1c0,0,0,0,0,0,0,0-.1-.1-.2-.1,0,0-.2,0-.2.1h0Z" fill="#38568b"/>
    <path d="M16.4,17.8c0,0,.1,0,.2.1s.2,0,.2,0c.2,0,.4.1.6.1h.4c0,0,.2,0,.3,0,.2,0,.4,0,.6-.1,0,0,.2,0,.3-.1,0,0,0,0,0,0,0,0,.1,0,.1,0,0,0,0,0,0,0,0,0,.1-.1.1-.2,0,0,0,0,0-.1v.2c0,0,0,0,0,0,0,0,0-.1,0-.2,0,0,0-.1,0-.2h0s0,0,0,0h0s0,0,0,0c0,0,0,0,0,0h0s0,0-.1,0c0,0,0,0,0,0s0,0,0,0h-.1.2s0,0,0,0h0s0,0,0,0c0,0,0,0-.1,0h0s0,0,0,0c0,0,0,0-.1,0,0,0,0,0,0,0,0,0,0,0,0,0,0,0-.2,0-.3,0,0,0-.1,0-.1,0h.1c-.2,0-.4,0-.6,0h-.2.1-.3.1c-.2,0-.4,0-.6,0,0,0-.1,0-.2,0h0s0,0,0,0c0,0,0,0-.1,0s0,0-.1,0c0,0,0,0-.1,0,0,0,0,0,0,.1,0,0,0,.2,0,.2h0c0,0,0,.1.1.2h0Z" fill="#38568b"/>
    <path d="M19.1,17.4s0,0,0,0h0c0,0,0,0,0,0,0,0,0,0,0,0,0,0,0,0,0,.1,0,0,.1.1.2.2h0s.1,0,.2,0c0,0,0,0,0,0,0,0,.1,0,.1,0,.1,0,.2.1.4.1.1,0,.2,0,.3,0h.4c.2,0,.5,0,.7,0,.1,0,.3,0,.4-.1s.2-.1.3-.2c0,0,.2-.1.2-.2,0,0,0,0,.1-.1s0,0,.1-.2c0,0,0-.1,0-.2v-.2c0,0,0-.1,0-.2,0,0,0,0-.1-.1,0,0,0,0-.1,0s-.1,0-.2,0c0,0,0,0-.1,0h0s-.1,0-.1,0h0s0,0,0,0h0c0,.1,0,.2-.1.2h0c0,0-.2,0-.3.1h.1c-.1,0-.3,0-.4.1h.1c-.3,0-.6,0-.9,0h.1c-.1,0-.2,0-.4,0-.1,0-.2,0-.3,0h.1c-.1,0-.2,0-.3,0h.1c0,0-.1,0-.2,0h0s0,0-.1,0c0,0,0,0,0,0,0,0,0,0-.1,0h0s-.1,0-.1,0h0s0,0,0,0h0s0,0-.1,0h0s0,0-.1,0c0,0,0,0,0,.1,0,0,0,0,0,.1s0,0,0,.1h0Z" fill="#38568b"/>
    <path d="M22,17.2s0,.1,0,.2,0,.1.1.1c0,0,0,0,0,0,0,0,.1,0,.2.1,0,0,0,0,.1,0s0,0,.1,0c.1,0,.2,0,.3,0,.1,0,.3,0,.4,0,.2,0,.4,0,.5,0s.4,0,.5-.2c.1,0,.2-.1.3-.1,0,0,.1,0,.2-.1s.1,0,.2-.1c0,0,.2-.1.2-.2.1-.1.2-.3.3-.5,0-.1.1-.3.2-.4,0-.1,0-.2,0-.3,0,0,0,0,0-.1v-.2h0c0,0,0-.1,0-.2h0s0,0,0,0c0,0,0,0,0-.1h0s0,0,0,0h0c0-.1,0-.2,0-.2h0c0,0,0,0,0,0h0s0,0-.1,0c0,0-.1,0-.2,0,0,0,0,0,0,0,0,0-.1.1-.1.2,0,0,0,0,0,.1h0c0,0,0,0,0,0h0s0,0,0,.1v-.2c0,0,0,.2,0,.3,0,0,0,0,0,.1h0c0,0,0,0,0,0,0,0,0,0,0,0,0,0,0,0,0,.1h0c0,0-.1.2-.2.4h0c-.1,0-.2.2-.4.3h0c-.1,0-.3.1-.4.2h.1c-.1,0-.3,0-.5.1h.1c-.2,0-.4,0-.6,0h.1c-.2,0-.4,0-.5,0h.1c-.1,0-.2,0-.3,0h.1s0,0-.1,0c0,0,0,0,0,0s0,0,0,0c0,0,0,0-.1,0h.1s0,0-.1,0c0,0-.1,0-.1,0h0c-.1,0-.2,0-.3.1s0,.2,0,.3h0Z" fill="#38568b"/>
    <path d="M15.9,10.9s0,0,0,0h0c0,0,0,0-.1,0h0c0,0,0,.1,0,.2h0c0,.1,0,.2,0,.2v1c0,.2,0,.4,0,.7s0,.4,0,.6h0v.3s0,0,0,0c0,0,0,0,0,.1,0,0,0,.1,0,.2,0,0,0,0,0,0,0,0,0,0,0,0,0,0,0,0,.1,0s0,0,0,0c0,0,0,0,0,0,0-.1,0-.2,0-.3,0,0,0-.1,0-.1v-.2c0-.2,0-.4,0-.6s0-.4,0-.7v-1h0c0-.2,0-.2,0-.3,0,0,0,0,0-.1,0,0,0,0,0,0,0,0,0,0,0,0,0,0,0,0,0,0h0c0,0,0,0,0,0,0,0-.1,0-.2,0h0Z" fill="#38568b"/>
    <path d="M19.4,10.9s0,0,0,.1c0,0,0,.1,0,.2,0,0,0,0,0,.1h0c0,.3,0,.5,0,.8s0,.4,0,.6v.6c0,.4,0,.9,0,1.3,0,.2,0,.4,0,.6s0,.4,0,.6v1c0,.1,0,.2,0,.4,0,0,.1.1.2.1s.2,0,.2-.1c0,0,0-.1,0-.2s0,0,0-.1v-.8h0c0-.7,0-1.4,0-2.1,0-.4,0-.7,0-1.1v-1.6h0c0-.2,0-.2,0-.3,0,0,0,0,0-.1s0,0,0-.1c0,0-.1,0-.1,0h0Z" fill="#38568b"/>
    <path d="M22.3,11.5s0,0,0,0h0c0,0,0,0,0,0h0c0,0,0,0,0,0,0,0,0,0,0,0,0,0,0,.2,0,.2,0,.2,0,.4,0,.6v2.6h0s0,0,0,0h0v.4c0,.2,0,.4,0,.6,0,.4,0,.7,0,1.1,0,0,0,0,0,.1,0,.1.1.2.2.2s.2,0,.2-.2c0,0,0-.1,0-.2v-.2c0-.2,0-.4,0-.6s0-.4,0-.6c0-.2,0-.4,0-.6,0-.4,0-.8,0-1.2s0-.8,0-1.2c0-.2,0-.4,0-.5,0,0,0-.2,0-.2,0,0,0,0,0,0,0,0,0,0,0,0h0s0,0,0,0c0,0,0,0,0,0,0,0,0,0,0,0s0,0,0,0h0s0,0,0,0h0s0,0,0,0c0,0,0,0,0,0h0Z" fill="#38568b"/>
    <path d="M24.7,17.3c0,0,0,.1,0,.2h0c0,.2,0,.3,0,.4v.5c0,.3,0,.6,0,1h0v.3h0c0,.5,0,1.1-.2,1.7h0c0,.2-.2.4-.3.7s-.2.5-.4.8h0c-.1,0-.2.2-.3.4,0,0-.1.1-.2.2s-.1.1-.1.2c0,0,0,0,0,.1h0s0,0-.1,0h0c-.1,0-.2.4,0,.6,0,0,0,0,.1,0,0,0,.1,0,.2,0,0,0,.1,0,.2,0s.1,0,.2-.1h-.1c0,0,.2,0,.2,0,0,0,0,0,0,0,0,0,.1,0,.2-.1s.1-.2.2-.2c.1-.2.3-.4.4-.5.3-.4.5-.8.6-1.3s.3-1,.3-1.5c0-.3,0-.6,0-.9s0-.5,0-.8c0-.1,0-.3,0-.4,0-.2,0-.3-.1-.5,0-.1,0-.3-.1-.4,0,0,0-.1,0-.2,0,0,0-.1,0-.1s0,0-.1-.1c-.1-.1-.4,0-.4.1h0Z" fill="#38568b"/>
    <path d="M23.1,24s0,0-.1.1c0,0,0,.2-.1.3,0,0,0,.2,0,.2,0,.2,0,.3,0,.5v1.1c0,.8,0,1.5,0,2.3,0,.8,0,1.6,0,2.5v3.5c0,.2,0,.4,0,.6,0,0,0,.2,0,.3,0,.1,0,.2.1.3,0,.2.2.3.4.3s.3,0,.4-.3.1-.2.1-.3c0,0,0-.2,0-.2,0-.2,0-.3,0-.5,0-.4,0-.8,0-1.2v-2.3c0-1.5,0-3.1,0-4.6v-1.2c0-.2,0-.4,0-.6,0,0,0-.2,0-.3,0-.1,0-.2-.1-.3,0,0,0,0-.1-.1-.1,0-.3-.1-.4,0h0Z" fill="#38568b"/>
    <path d="M15,19.2c.1,0,.3,0,.4,0s.3,0,.4,0c0,0,.2,0,.2,0h0c.3,0,.6.2.9.3,0,0,.2,0,.2.1h0c.2.1.5.3.7.5,0,0,.1.1.2.2h0c0,0,0,0,.1,0,0,0,0,0,0,0h.1c0,.1,0,0,0,0,0,0,0,0,.1.1h.1c0,.1,0,.1,0,.2,0,0,0,0,0,0h0s0,0,0,0c0,0,0,0,.1,0h0s0,0,.1,0,0,0,0-.1c0,0,0-.1,0-.2,0,0,0,0,0-.1,0,0,0-.1,0-.2,0,0-.1-.2-.2-.2s-.1-.2-.2-.2c0,0,0,0-.1-.1s0,0,0,0c0,0,0,0-.1-.1-.1-.1-.3-.2-.5-.4-.2-.1-.4-.2-.6-.3-.2-.1-.5-.2-.7-.2h0c-.4,0-.8-.2-1.2-.1-.1,0-.2,0-.3,0,0,0-.1,0-.2.1,0,0,0,.1,0,.2,0,0,0,.1,0,.2,0,0,.1.1.2.1h0Z" fill="#38568b"/>
    <path d="M12.8,12.9c-.7,0-1.4,0-2,.1-.2,0-.4,0-.5,0-.1,0-.3,0-.4.2,0,0,0,.1,0,.2,0,0,0,.1,0,.2,0,.1,0,.3.2.4s.2.1.4.1c.6,0,1.3-.1,1.9-.2.2,0,.4,0,.6,0,0,0,.1,0,.2,0,0,0,.1,0,.2-.1,0,0,0-.1,0-.2,0,0,0-.1,0-.2,0-.1,0-.3-.2-.4h-.1c0-.1-.2-.1-.3-.1h0Z" fill="#38568b"/>
    <path d="M35.4,14c0,0-.2-.1-.3-.1-.1,0-.2,0-.4-.1-.2,0-.5-.1-.8-.1-.6,0-1.1-.1-1.7-.2-1.3-.2-2.6-.3-4-.4-.8,0-1.7-.1-2.5-.2-.3,0-.5.1-.6.4,0,.2.1.6.4.6,2.7.1,5.3.3,8,.4.3,0,.6,0,.9,0,.1,0,.3,0,.4,0s.3,0,.4,0c0,0,.1-.2,0-.2h0Z" fill="#38568b"/>
    <path d="M11.5,15.3c-.2,0-.3,0-.5,0-.1,0-.2,0-.4,0,0,0-.2,0-.3,0,0,0-.1,0-.2,0,0,0-.1,0-.2,0,0,0-.1,0-.1.2,0,0,0,.1,0,.2h0c0,.2,0,.3.1.4h.1c0,.2.2.2.2.2.1,0,.3,0,.4,0,.1,0,.3,0,.4,0,.1,0,.2,0,.3,0,0,0,.1,0,.2,0,0,0,.1,0,.2,0,0,0,.1-.1.1-.2,0,0,0-.1,0-.2h0c0-.2,0-.3-.1-.4h-.1c0-.2-.2-.2-.3-.2h0Z" fill="#38568b"/>
    <path d="M35.3,15c-.2,0-.5,0-.7,0s-.5,0-.8,0c-.5,0-1.1,0-1.7,0-1.3,0-2.6.2-3.9.2-.8,0-1.6,0-2.5.1-.3,0-.5.3-.4.6,0,.3.3.4.6.4,2.6-.2,5.2-.4,7.8-.7.3,0,.6,0,.8-.1.3,0,.5-.1.8-.2.1,0,0-.2,0-.3h0Z" fill="#38568b"/>
    <path d="M9.9,13.6s0,0,0,0c0,0,0,0,0,.1h0v.2h0v1.1h0v.2h0v.2s0,0,0,.1h0c0,.1,0,.2,0,.2s0,0,0,0c0,0,0,0,0,0h0s0,0,0,0h0s0,0,0,0h0s0-.1,0-.1,0,0,0,0h0c0,0,0-.2,0-.2h0v-.3c0,0,0-.2,0-.3v-.8h0v-.2h0c0-.2,0-.2,0-.3h0c0,0,0,0,0,0h0s0,0,0,0h0s0,0,0,0c0,0,0,0,0,0,0,0,0,0,0,0h0Z" fill="#38568b"/>
    <path d="M6.3,13.4s0,0,0,0h0c0,0,0,.2,0,.2,0,0,0,0,0,.1h0v.2c0,.1,0,.2,0,.3h0c0,.4,0,.6,0,.8,0,0,0,0,0,0h0c0,.1,0,.2.1.3,0,0,0,0,0,.1,0,0,0,.1.2.1,0,0,0,0,.2,0s0,0,.2,0c0,0,.1,0,.2-.1h0c0-.1,0-.2,0-.2,0,0,0-.1,0-.2h0c0,0,0,0,0-.1,0-.1,0-.2,0-.3v-.3s0-.1,0-.1c0-.1,0-.2,0-.3v-.2s0,0,0,0c0-.1,0-.2-.1-.3,0,0-.1-.1-.2-.2,0,0-.1,0-.2,0s-.1,0-.2,0c0,0-.2,0-.2.2h0Z" fill="#38568b"/>
    <path d="M6.4,13.9s0,0,0,0c0,0,0,0,.2.1,0,0,0,0,.1,0h2c0,0,.1,0,.1,0h.1c0,0,0-.1,0-.1h0c0-.2,0-.2,0-.3s0,0,0-.1c0,0,0,0,0-.1,0,0,0,0,0,0,0,0,0,0-.1-.1,0,0,0,0,0,0,0,0,0,0-.2,0h-1.9c0,0-.1,0-.2,0h0s0,.1-.1.2h0c0,0,0,0,0,0h0s0,0,0,.1c0,0,0,.1,0,.1s0,0,0,.1c0,0,0,.1,0,.1h0Z" fill="#38568b"/>
    <path d="M6.5,15.9s0,0,0,0c0,0,0,0,.2,0,0,0,.2,0,.2,0h.2c0,0,.1,0,.2,0h.1c.2,0,.3,0,.5,0h.5c0,0,.2,0,.2,0,0,0,.1,0,.2,0,0,0,.1,0,.2-.1h0c0-.2,0-.3,0-.3s0,0,0-.1c0,0,0-.1,0-.2h-.1c0-.2-.2-.2-.3-.2h-1c-.2,0-.3,0-.5,0,0,0-.2,0-.2,0,0,0-.2,0-.2,0h0s0,0,0,0,0,0,0,0h0c0,0,0,.1-.1.2s0,0,0,.1,0,0,0,.1c0,0,0,.1.1.1h0Z" fill="#38568b"/>
    <path d="M9.1,13.9s0,0,0-.1h-.1c0,.1.1,0,.1,0h-.1c0,0,.1,0,.2,0h-.1c0,0,.2,0,.2,0h-.1c.1,0,.2,0,.3,0h-.1c.1,0,.2,0,.3.1h-.1c0,0,0,0,.1,0,0,0,0,0,0,0,0,0,0,0,0,0,0,0,0,0,.1,0,0,0,0,0,0,0h.2-.1,0c0,0,.2,0,.3,0,0,0,.2,0,.2-.2s0-.2.1-.2c0,0,0-.2,0-.3,0,0,0,0,0,0h0c0-.1,0-.2-.1-.2h0s0,0,0,0c0,0-.1,0-.2-.1,0,0-.1,0-.2,0-.1,0-.2,0-.3,0,0,0-.1,0-.2,0h-.3c0,0-.1,0-.2,0,0,0-.1,0-.2,0,0,0,0,0,0,0s0,0,0,0c0,0-.1,0-.2.1,0,0,0,0-.1.1,0,0-.1.1-.2.2,0,0,0,.1,0,.2,0,0,0,.1,0,.2,0,0,0,.1,0,.2,0,0,0,.1.1.1h.1c0,0,.2.1.3,0h.1c0,0,.1-.1.2-.2h0Z" fill="#38568b"/>
    <path d="M8.4,15.9c0,0,.1,0,.2.1,0,0,0,0,.1,0s0,0,.1,0c0,0,.2,0,.3,0,.1,0,.3,0,.4,0s.3,0,.4,0c0,0,.1,0,.1,0,0,0,0,0,0,0,0,0,.1,0,.2-.1,0,0,.1-.1.1-.2,0,0,0-.1,0-.2s0-.1,0-.2c0,0,0-.1,0-.2h-.1c0-.2-.2-.2-.3-.2h-.1c-.1,0-.2,0-.3.1,0,0,0,0,0,0h.1c-.1,0-.2,0-.3,0h.1c-.1,0-.2,0-.3,0h.1c-.1,0-.2,0-.3,0h.1c0,0-.2,0-.3,0,0,0-.1,0-.2,0,0,0-.1,0-.2,0h-.1c0,.1-.1.2-.1.2,0,0,0,0,0,.1,0,0,0,.1,0,.2h0c0,.2,0,.3.1.3h0Z" fill="#38568b"/>
    <path d="M1,14.9c0,0,.2-.2.2-.2h-.1c.4-.3.9-.7,1.4-1h-.1c.2,0,.5-.2.8-.2h-.1c.3,0,.6,0,.9,0h-.2c.4,0,.8,0,1.2.1h-.2c0,0,.1,0,.2,0h-.2c.3,0,.6.1.8.3h-.1c.3,0,.5.2.7.4.1.1.3.1.5.1s.3-.1.4-.2c.2-.3.2-.7-.1-.9-.4-.3-.9-.6-1.4-.8-.2,0-.5-.1-.7-.2s-.5,0-.7,0c-.5,0-.9,0-1.3.2-.5.1-.9.4-1.3.7-.5.4-.9.8-1.4,1.2,0,0-.1.3-.1.4s0,.3.2.3c0,0,.2.1.4.1s.2,0,.3-.2h0Z" fill="#38568b"/>
    <path d="M0,15c.4.7,1.1,1.3,1.8,1.7.6.3,1.2.5,1.9.6s1.4,0,2-.3c.4-.2.7-.4,1-.7,0-.1.2-.2.2-.3s.1-.2.2-.3c.1-.2.1-.5,0-.7,0-.1-.2-.3-.3-.3-.1,0-.3-.1-.4-.1-.2,0-.4.1-.6.3,0,0,0,.1-.1.1,0,.1-.2.2-.2.3h.2c0,0-.2,0-.3.1h.2c-.2,0-.3.1-.5.2h.2c-.2,0-.4,0-.6.1h.2c-.3,0-.6,0-.9,0h.2c-.3,0-.5,0-.8,0-.2,0-.5,0-.7-.1h.2c-.3,0-.7-.2-1-.4h.1c-.3,0-.6-.3-.8-.5h.1c-.1,0-.3-.2-.4-.4-.1-.2-.5-.3-.7-.1C0,14.3,0,14.4,0,14.6H0c0,.2,0,.3.1.4h0Z" fill="#38568b"/>
    <path d="M1.2,14.5h0s0,0,0,0,0,0,0,0c0,0,0,0,.1,0s0,0,.1,0c0,0,0,0,0,0h0s0,0,0,0c0,0,0,0,.1,0s0,0,.1,0h.1s0,0,0,0h0c.2,0,.3,0,.5,0h0s0,0,0,0h0s0,0,0,0c0,0,0,0,.1,0,0,0,.2,0,.2,0,.3.1.6.3,1,.5s.6.3,1,.4.7.2,1,.2h0s0,0,0,0h0c0,0,.1,0,.2,0,0,0,0,0,0-.1s0,0,0-.1c0,0-.1,0-.2,0h0s0,0,0,0h-.2s0,0,0,0h0s0,0-.1,0c0,0-.2,0-.2,0,0,0,0,0-.1,0,0,0,0,0,0,0h0s0,0,0,0c-.3-.1-.7-.2-1-.4s-.6-.3-1-.5c-.3-.1-.6-.2-1-.3-.2,0-.3,0-.5,0,0,0-.2,0-.2,0s-.2,0-.2.1h0c0,0,0,0,0,.1,0,0,0,0,0,0h0Z" fill="#38568b"/>
    <path d="M34.6,14.3s0,0,.1,0h0,.1s0,0,0,0c0,0,0,0,.1,0h0c.1,0,.2,0,.4.1h0c0,0,.1,0,.2.1h0c0,0,0,0,0,0h0c0,0,0,0,0,0h0c0,0,0,0,0,0h0c0,0,0,0,0,0h0c0,0,0,0,0,0h0c0,0,0,0,0,0h0c0,0,0,0-.2,0h0c0,0-.2,0-.3,0h0c0,0-.1,0-.2,0h-.2c0,0-.1,0-.2,0,0,0-.1.1,0,.2,0,0,0,.2.2.2,0,0,.1,0,.2,0h0s0,0,.1,0c0,0,.2,0,.3,0h0c0,0,.2,0,.3,0,0,0,0,0,0,0,0,0,0,0,.1,0,0,0,0,0,0,0,0,0,0,0,0-.1,0,0,0,0,0,0,0,0,0,0,0,0,0,0,0,0,0-.1h0c0-.2,0-.2,0-.3s0,0,0-.1,0,0-.1-.1c0,0-.2-.1-.2-.1,0,0-.2,0-.2,0,0,0-.2,0-.3,0,0,0,0,0-.1,0h-.2s0,0-.1,0h0c0,0,0,.1,0,.1h0c0,0,0,.1,0,.1h0s0,0,0,0h0Z" fill="#38568b"/>
    <path d="M20,8.1s0,0,0,0c0,0,0,0,0-.1,0,0,0-.2,0-.3v-1.1s0,0,0,0h0v-.3c0-.1,0-.2,0-.4v-.7c0-.5,0-1,0-1.5s0-1,0-1.5c0-.3,0-.6,0-.8v-.4c0,0,0-.1,0-.2v-.2c0,0-.1-.1-.2-.1s-.1,0-.1.1v.2c0,0,0,.1,0,.2s0,.1,0,.2v.2c0,.2,0,.5,0,.7v1.5c0,1,0,2,0,3h0v.2c0,0,0,0,0,0v1.3c0,0,0,0,0,.2,0,0,0,0,.1.1,0,0,.1,0,.2,0h0Z" fill="#38568b"/>
    <path d="M27,8.8s0,0,.1,0c0,0,0,0,.1-.1l.2-.2.4-.4c.3-.3.6-.5.9-.8.6-.5,1.1-1.1,1.7-1.6,0,0,0,0,0,0,0,0,.1,0,0,0,0,0,0,0,0,0h0c0,0,.2-.3.2-.3l.4-.4.8-.8c.6-.5,1.1-1.1,1.7-1.6l.8-.8.4-.4.2-.2c0,0,.2-.2.2-.3l.2-.2c0-.1,0-.3,0-.4S35.4-.1,35.2,0l-.2.2c0,0-.2.2-.3.3l-.4.4-.8.8c-.5.6-1.1,1.1-1.6,1.7l-1.6,1.7c-.5.6-1.1,1.1-1.6,1.7s-1.1,1.1-1.6,1.7c0,0,0,0-.1.1s0,0,0,.1c0,0,0,0,0,0h0Z" fill="#38568b"/>
    <path d="M27.3,22.6s0,0,0,0c0,0,0,0,0,0,0,0,.1.1.2.2.1.1.2.2.4.3l.8.6c.5.4,1,.8,1.5,1.2,1,.8,2,1.6,3,2.3l.8.6c.1.1.3.2.4.3,0,0,.1.1.2.2,0,0,.1,0,.2.1s.1,0,.2,0c.1,0,.3,0,.3-.1,0,0,.1-.2,0-.4,0,0,0-.1,0-.2s0-.1-.2-.1c0,0-.1-.1-.2-.1l-.4-.3c-.3-.2-.5-.4-.8-.5-.5-.4-1-.7-1.6-1.1s-1-.7-1.6-1.1-1-.7-1.6-1l-.9-.6c-.1-.1-.3-.2-.4-.3,0,0-.2-.1-.2-.1,0,0,0,0-.1,0,0,0,0,0-.1,0s0,0,0,0h0Z" fill="#38568b"/>
    <path d="M10.5,25.6c-.4.3-.7.6-1,.9l-1,.9c-.7.6-1.3,1.2-2,1.9l-2,1.9c-.7.6-1.3,1.3-2,1.9-.3.3-.7.7-1,1-.3.3-.6.7-.9,1l-.2.3c0,.1,0,.3,0,.4,0,.1.3.1.4,0,.4-.3.7-.6,1-.9.2-.2.4-.4.6-.5l.5-.5c.6-.7,1.3-1.3,1.9-2l1.9-2c.6-.7,1.3-1.3,1.9-2l.9-1,.5-.5c.2-.2.3-.3.5-.5,0,0,.1-.2.2-.3,0,0,0-.2-.1-.1h0Z" fill="#38568b"/>
    <path d="M0,.3c0,.1,0,.2,0,.3C0,.6,0,.6,0,.6H0c0,0,.1.1.2.2,0,0,.1.2.2.2.2.2.3.4.5.5.3.3.6.6.9.8.6.6,1.2,1.1,1.8,1.7l1.8,1.7,1.8,1.7c.3.3.6.6.9.9l.4.4c.1.1.3.3.5.4,0,0,.1.1.2.2.2.1.4,0,.2-.2,0-.1-.2-.2-.3-.4s-.2-.2-.3-.3l-.6-.7c-.4-.4-.8-.9-1.2-1.3l-2.5-2.6c-.5-.5-1-1-1.5-1.5h0c-.3-.3-.6-.6-.9-.9-.2-.2-.3-.3-.5-.5-.2-.2-.4-.4-.6-.5-.1,0-.2-.2-.3-.3C.6,0,.4,0,.2,0,0,0,0,.1,0,.3H0Z" fill="#38568b"/>
    <path d="M12.2,1c0,0,0,.2,0,.2,0,0,0,.1,0,.1,0,0,0,0,0,.1,0,0,0,.1.1.2v.2c.2.1.2.3.3.4l.2.4.4.9c.1.3.3.6.4.9l.2.5c0,.2.2.3.3.5,0,0,0,0,.1,0s0,0,.1,0c0,0,.1-.2,0-.2v-.2c-.1,0-.1-.2-.2-.2,0-.1-.1-.3-.2-.4-.1-.3-.3-.5-.4-.8l-.4-.8-.2-.4c0-.1-.1-.3-.2-.4l-.2-.5c0,0,0-.2-.1-.3,0,0,0,0,0-.1,0,0,0,0-.1-.1h0c0,0-.1,0-.2-.1,0,0,0,0,0,0,0,0,0,0,0,0h0Z" fill="#38568b"/>
    <path d="M26.2,2c0,0,0,.1,0,.2,0,0,0,.1-.1.2,0,.1-.1.2-.2.4-.1.2-.2.5-.4.7-.2.5-.5,1-.8,1.5,0,0,0,.1-.1.2s0,.1-.1.2,0,.1,0,.2,0,.1,0,.2c0,0,0,.1,0,.2,0,0,.1,0,.2,0,0-.1.1-.2.2-.3,0,0,0-.1.1-.2,0,0,0-.1.1-.2.1-.2.2-.5.4-.8.2-.5.5-1,.7-1.5,0,0,0-.1,0-.2s0-.2,0-.2,0-.2,0-.2,0-.1,0-.2c0,0,0,0,0,0,0,0,0,0,0,0h0Z" fill="#38568b"/>
    <path d="M34.1,9.3s0,0-.1,0,0,0-.1,0c0,0-.2,0-.2,0-.1,0-.2,0-.4.1-.2,0-.5.2-.7.3s-.5.2-.7.3-.5.2-.7.3c-.3.1-.5.3-.8.5,0,0,0,0,0,0s0,0,0,0h0c0,0,0,.1,0,.2,0,0,0,0,.1.1,0,0,.1,0,.2,0,.2-.1.5-.2.7-.3s.5-.2.7-.3.5-.2.7-.3.5-.2.7-.3c.1,0,.3-.1.4-.2,0,0,0,0,0,0s0,0,0,0c0,0,0,0,0,0s0,0,0,0c0,0,0,0,0,0,0,0,0,0,0,0,0,0,0,0,0-.1,0,0,0,0,0,0h0Z" fill="#38568b"/>
    <path d="M30.7,19.5h0c0,0,0,.1.1.1h.2c0,.1.1.1.2.2h.2c.2.2.5.3.8.4l1.5.6.4.2h.2c0,0,.1.1.1.1,0,0,0,0,.2,0,0,0,.2,0,.2-.1,0,0,0,0,0,0s0-.1,0-.1,0,0-.1,0c0,0,0,0,0,0h-.2c0,0-.4-.2-.4-.2l-.8-.3-1.5-.5c-.1,0-.3,0-.4-.1,0,0-.1,0-.2,0,0,0,0,0-.1,0h-.1s0,0,0,0h0Z" fill="#38568b"/>
    <path d="M32.1,32.7l.2.2s.1,0,.2.2,0,.1.1.2c0,0,0,0,0,0h0c0,0,.6.7.6.7.2.2.4.4.7.6l.3.3c.1,0,.2.2.3.3l.3.3.2.2c0,0,.1,0,.2.1h0c0,.1.2.1.2,0,0,0,0,0,0,0s0,0,0-.1l-.2-.2c0,0-.1-.1-.2-.2l-.3-.3c-.2-.2-.5-.4-.7-.6l-.7-.6c-.1,0-.2-.2-.3-.3l-.3-.3c0,0-.1,0-.2-.1s-.1,0-.2-.1c-.1,0-.2-.2-.4-.3h0c0,0,0,0,0,0h0Z" fill="#38568b"/>
    <path d="M12.1,29.1h0c0,0,0,.1,0,.1,0,0,0,0,0,0,0,0,0,0,0,0,0,0,0,0,0,.1,0,0,0,.1-.1.2s0,.1-.1.2l-.2.4c0,.1-.2.3-.3.5l-.5.8c-.1.3-.3.6-.4.8,0,.2-.2.3-.2.5l-.2.5s0,0,0,.1,0,0,0,0c0,0,0,0,.1,0s.1,0,.1,0l.2-.4c0-.2.2-.3.2-.5.1-.3.3-.6.4-.8l.4-.8.2-.4c0-.1.1-.3.2-.4v-.2c.1,0,.2-.2.2-.2h0c0-.1,0-.2,0-.3,0,0,0,0,0,0s0,0,0,0h0c0-.1,0-.2,0-.1h0Z" fill="#38568b"/>
    <path d="M26.4,29.1h0c0,.1,0,.2,0,.3,0,0,0,0,0,0h0c0,0,0,.2,0,.2,0,0,0,0,0,.1s0,0,0,.1v.3c.1,0,.3.3.3.3,0,.1.1.2.2.3l.3.5.3.6h0c.1.2.3.4.4.6l.2.3c0,.1.1.2.2.3l.2.3s0,0,.1,0,0,0,.1,0,0,0,0,0c0,0,0,0,0-.1l-.2-.4c0-.2-.2-.3-.2-.5-.2-.3-.3-.5-.5-.8l-.5-.8-.2-.4c0-.1-.2-.3-.3-.4v-.2c-.2,0-.2-.1-.3-.2h0c0-.1,0-.1,0-.1,0,0,0,0,0,0,0,0,0,0,0,0s0,0,0,0h0c0-.1,0-.1,0,0h0Z" fill="#38568b"/>
    <path d="M.6,24.9c.9-.3,1.7-.6,2.6-1,.2,0,.4-.2.6-.3.2-.1.5-.2.7-.3,0,0,.2-.1.3-.2,0,0,0,0,.1,0,0,0,0,0,.2-.1.2-.1.4-.2.6-.4,0,0,.2-.2.3-.2s.2-.1.3-.2c.2-.1.5-.2.7-.4,0,0,0-.1,0,0-.2.1-.4.2-.6.3,0,0-.2.1-.3.1,0,0,0,0-.2,0,0,0-.1,0-.2,0-.1,0-.2,0-.3.1s-.2,0-.3.1c0,0,0,0,0,0,0,0,0,0,0,0,0,0,0,0,0,0,0,0,0,0,0,0s0,0,0,0c0,0,0,0,0,0-.1,0-.2,0-.3.1-.2,0-.4.1-.6.2s-.4.2-.6.3c-.4.2-.8.4-1.3.5-.5.2-1,.4-1.5.5-.2,0-.2.2-.2.4,0,.1.2.2.4.2h0Z" fill="#38568b"/>
    <path d="M1,8.9s0,0,.1,0,0,0,.1,0c0,0,.2.1.3.2.1,0,.3.2.5.3,0,0,.2,0,.2.1s.2,0,.2.1.2,0,.2.1.2,0,.2.1c.2,0,.4.1.6.2,0,0,0,0,.1,0,0,0,0,0,0-.1s0-.1,0-.1h0s0,0,0-.1c-.2,0-.3-.2-.5-.3,0,0,0,0-.1,0s0,0-.1,0c0,0-.2,0-.2-.1-.2,0-.3-.2-.5-.2s-.3-.2-.5-.2c0,0-.2,0-.2-.1,0,0,0,0-.1,0s0,0-.1,0c0,0,0,0,0,0s0,0,0,0h0s0,0,0,0c0,0,0,0,0,0,0,0,0,0,0,0,0,0,0,.1,0,.2h0Z" fill="#38568b"/>
  </g>
</svg>