<?xml version="1.0" encoding="UTF-8"?>
<svg id="a" data-name="artist presentation" xmlns="http://www.w3.org/2000/svg" viewBox="0 0 36 36">
  <defs>
    <style>
      path {
      	fill: #38568b;
      }
      .b {
        fill: #ed1c24;
      }
      .c {
        fill: #fff;
      }
    </style>
  </defs>
  <path class="c" d="M34.55,1.61H1.25v10.67s1.4,2.53,4.2,2.91,4.15.38,4.15.38c0,0,.32,2.1,1.62,2.75s4.26.59,4.26.59c0,0-1.72-.7-2.05-1.72s-.16-1.72-.16-1.72c0,0,9,.86,12.98.27s8.19-1.83,8.19-1.83l.11-12.28Z"/>
  <path class="c" d="M34.6,23.32v3.77H12.67s4.04-5.71,12.82-5.87,9.11,2.1,9.11,2.1Z"/>
  <path class="c" d="M27.87,26.61h-3.07s-5.12-3.02-5.93-6.41.38-8.94,5.82-8.94,7.27,3.72,6.73,7.33-3.56,8.03-3.56,8.03Z"/>
  <g>
    <path d="M.8,1.15l.1.16-.07-.17v.04c.05.26.28.57.57.58.34,0,.68.07,1.02.09l1.05.06c.34.02.68.04,1.01.07.41.04.82.09,1.23.09h-.25c.68.03,1.36.06,2.04.07h1.82c1.22.01,2.43.02,3.65.02h2.08c-.09,0-.18,0-.27,0,2.61.01,5.21.02,7.82.04l7.65.04,4.35.02h-.3c.08,0,.17,0,.25,0,.31.02.59-.03.85-.22.23-.17.43-.49.46-.78s-.03-.61-.22-.85-.47-.44-.78-.46c-1.2-.06-2.41-.03-3.61-.02h-3.32c-2.17,0-4.35.01-6.52.01s-4.3,0-6.46,0h-6.54c-1.1,0-2.2,0-3.31,0-.55,0-1.1,0-1.65.02l-.86.02c-.28,0-.55.06-.82.12-.19.04-.37.1-.55.17-.05.02-.11.04-.16.06-.17.07-.29.17-.41.3l.5-.28h-.06c-.18,0-.4.15-.5.28-.11.14-.18.37-.15.55s.12.38.28.5c.17.12.34.15.55.15h.06l-.55-.15c.12.12.3.17.46.24.19.07.38.13.58.17.28.05.54.1.82.11.56.01,1.13.02,1.69.03,1.18.02,2.37,0,3.55,0h6.52c2.14,0,4.29.01,6.43.01h6.51c2.22.01,4.44.01,6.66.02.28,0,.56-.01.84-.03s.6-.22.77-.44.29-.57.24-.86-.19-.59-.44-.77-.54-.25-.86-.24c-.55.03-1.1.01-1.65.02h-1.61c-1.09.01-2.18.02-3.27.02l-6.47.03-6.41.03c-2.15.01-4.31.02-6.46.02-1.08,0-2.15,0-3.23.07-.54.03-1.08.1-1.62.13s-1.09.07-1.63.09c-.27.01-.53.07-.8.07-.29,0-.53.3-.58.57v.04c.02-.06.04-.11.07-.17l-.1.16s-.02.07,0,.11h0Z"/>
    <path d="M1.09,27.49c.56.1,1.15.1,1.72.11h1.71c1.11.02,2.22.03,3.33.04,2.24.02,4.47.02,6.71.03l6.46.02c2.17,0,4.33,0,6.5,0h3.34c.56,0,1.11,0,1.67,0h.86c.28,0,.58.03.86-.03s.57-.1.85-.17c.21-.05.4-.12.53-.3.11-.15.16-.31.16-.49,0-.43-.29-.7-.69-.8-.28-.07-.56-.12-.85-.17-.34-.07-.71-.03-1.06-.03h-1.71c-1.11,0-2.22,0-3.33,0h-6.52c-2.15,0-4.3.02-6.46.03s-4.33,0-6.5.02l-3.34.03c-1.13,0-2.26,0-3.39.05-.14,0-.29.01-.43.02s-.28.04-.43.06c-.39.07-.68.37-.68.77s.28.71.67.78h0Z"/>
    <path d="M.06,1.38s-.07.25,0,.02c-.03.09-.05.19-.07.28-.02.1-.03.2-.03.31,0,.22,0,.43,0,.65v1.24c-.01.83-.02,1.66-.02,2.48-.02,1.62-.05,3.23-.08,4.85-.03,1.7,0,3.4,0,5.09s0,3.23.04,4.85c.02.93.04,1.85.05,2.78,0,.46-.01.93.02,1.39s.1.94.17,1.41c.06.37.36.66.75.66s.69-.27.75-.65c.07-.42.13-.83.16-1.25s.02-.84.03-1.26c0-.82.02-1.63.03-2.45.04-1.71.06-3.41.06-5.11v-4.86c0-1.62-.05-3.25-.07-4.87-.02-.92-.02-1.84-.02-2.75v-1.42c-.01-.23-.01-.45-.01-.68,0-.3-.08-.58-.16-.88-.09-.33-.54-.57-.86-.51-.14.02-.27.08-.39.16-.19.13-.27.34-.32.55H.06Z"/>
    <path d="M34.53.54l-.1.06.22-.12c-.47.17-.68.65-.7,1.12-.01.21,0,.42,0,.62l-.02,1.24-.04,2.49c-.03,1.74-.01,3.48-.02,5.22,0,3.32,0,6.65.02,9.97v2.8c.01.96.07,1.98.45,2.87.25.58,1.08.6,1.34.01.38-.88.44-1.89.45-2.84,0-.85,0-1.7,0-2.56l.02-5.05c0-1.68,0-3.37,0-5.05s.02-3.39,0-5.08l-.05-2.83-.02-1.43c0-.23,0-.45-.06-.68-.08-.39-.29-.67-.66-.83-.3-.13-.54-.09-.82.07h0Z"/>
    <path d="M18.02,26.43c-.12.03.34-.21-.29.07l-.25.14c-.08.07-.15.15-.23.22l.21-.21-.03.03.26-.15c-.05.02-.1.04-.15.08-.15.07-.27.17-.36.3l-.16.28c-.03.11-.06.22-.09.33l.08-.3c-.06.2-.14.41-.16.61l-.03.34-.05.62c-.03.4-.02.8-.03,1.2-.01.9-.03,1.81-.01,2.71,0,.52.01,1.05.03,1.57.02.18.07.35.17.49.08.17.19.31.34.42.14.12.31.2.49.23.17.06.34.08.52.05.35-.06.7-.22.91-.51l.18-.32c.09-.22.12-.45.09-.69-.05-1.7-.11-3.41-.17-5.11,0-.25-.02-.51-.02-.76,0-.13,0-.26-.02-.39,0-.07-.02-.13-.03-.2-.05-.32-.22-.62-.49-.8l-.23-.14c-.12-.06-.25-.08-.38-.07-.23,0-.42.06-.61.19s-.35.31-.43.52c-.06.14-.07.27-.09.41-.02.13-.02.26-.02.39,0,.22-.01.45-.02.67l-.04,1.24c-.03.81-.06,1.62-.08,2.43l-.05,1.59c-.03.18-.02.35.04.52.03.18.1.34.22.48.11.16.25.27.41.35.15.11.31.17.5.18.35.03.72-.03,1-.26l.26-.26c.15-.19.24-.41.28-.66.03-.98.05-1.97.04-2.96l-.02-1.17c0-.39,0-.79-.02-1.19-.01-.23-.04-.47-.06-.7l-.03-.38c-.02-.23-.09-.44-.15-.66l.08.3c-.05-.21-.09-.42-.23-.6-.13-.16-.31-.32-.51-.4l.27.16-.03-.03.21.21c-.07-.08-.15-.15-.22-.23-.11-.1-.24-.16-.39-.18-.13-.04-.25-.07-.4-.04h0Z"/>
    <path d="M17.13,26.03c-.08.04-.15.08-.23.1l.2-.05c-.14.03-.26.06-.39.13-.07.04-.13.08-.19.12-.08.06-.17.13-.25.19-.16.12-.32.24-.47.37-.3.27-.6.53-.9.79-.6.52-1.19,1.04-1.78,1.55-1.18,1.03-2.4,2.02-3.54,3.11-.38.36-.71.77-1.05,1.17-.3.36-.57.74-.83,1.13-.2.3-.2.66.06.93s.63.28.93.08c.34-.23.68-.45,1.01-.69s.64-.48.96-.72.61-.51.9-.78.58-.53.87-.79c1.17-1.05,2.36-2.07,3.49-3.16.37-.36.75-.72,1.11-1.09.17-.17.32-.33.46-.51.07-.09.14-.17.21-.26.03-.04.07-.08.1-.12.12-.16.17-.32.21-.51l-.06.21c.03-.08.07-.16.1-.23.13-.26.03-.59-.16-.78s-.52-.3-.78-.17h0Z"/>
    <path d="M18.06,27.19c.57.71,1.17,1.42,1.83,2.04.6.57,1.23,1.11,1.86,1.64,1.26,1.06,2.6,2.03,3.94,3,.77.56,1.55,1.13,2.31,1.7.21.16.49.24.75.21.25-.03.53-.18.68-.38.32-.45.28-1.08-.18-1.43-1.33-1.02-2.68-2.01-4.01-3.03s-2.61-1.99-3.85-3.05c-.72-.62-1.47-1.2-2.19-1.82-.31-.26-.78-.21-1.06.06s-.34.74-.09,1.06h0Z"/>
    <path d="M24.33,10.67c-.07-.02-.13-.07-.19-.09-.12-.05-.24-.05-.36-.06-.21,0-.41,0-.62.01-.36.03-.71.11-1.06.21-.63.19-1.23.51-1.76.9-1.12.82-1.97,2-2.37,3.32-.89,2.96.11,6.12,2.01,8.47,1.02,1.26,2.26,2.32,3.59,3.24.36.25.9.24,1.18-.14.25-.35.24-.91-.14-1.18-.55-.38-1.09-.77-1.61-1.2-.25-.21-.49-.43-.73-.65-.11-.11-.22-.21-.33-.32-.13-.13.11.12.03.03-.03-.03-.06-.06-.09-.09-.06-.06-.12-.12-.17-.19-.45-.49-.86-1.02-1.22-1.58-.08-.13-.16-.26-.24-.39,0-.01-.03-.08-.05-.09l.05.09s-.03-.06-.05-.09c-.04-.08-.08-.16-.12-.23-.15-.3-.28-.61-.4-.92-.06-.16-.11-.32-.16-.48-.02-.08-.05-.15-.07-.23,0-.02-.04-.18-.01-.05s-.01-.06-.02-.08c-.08-.33-.13-.67-.17-1.01-.02-.16-.03-.31-.03-.47,0-.07-.03-.2,0-.26,0,.01,0,.19,0,.05,0-.05,0-.1,0-.16.01-.33.05-.66.11-.98.02-.09.03-.17.05-.25,0-.03.02-.07.02-.1,0-.02.03-.18.01-.05s0-.03.02-.05c0-.03.02-.07.03-.1.03-.09.06-.18.09-.27.11-.29.24-.57.39-.85.02-.05.08-.12-.04.06.02-.03.03-.05.05-.08.04-.07.08-.13.13-.19.09-.13.18-.25.28-.37.09-.11.18-.21.27-.32.05-.06.11-.11.16-.17-.16.19,0,0,.05-.05.25-.23.52-.43.81-.61.06-.04.14-.07.2-.12-.16.12-.09.05-.03.02.04-.02.08-.04.12-.06.14-.07.29-.14.44-.19s.31-.11.47-.16c.04,0,.07-.02.11-.03.17-.04-.09.02-.01,0,.08-.02.16-.04.24-.05.16-.03.33-.05.49-.06.08,0,.15,0,.23-.01.08,0,.16-.02.25-.05.04-.02.19-.05.02-.02.27-.05.53-.26.56-.55.02-.27-.11-.58-.39-.68h0Z"/>
    <path d="M23.78,11.88c.34-.08.69-.13,1.04-.14.08,0,.16,0,.24,0,.1,0-.14,0,.03,0,.03,0,.07,0,.1,0,.09,0,.18,0,.26.02,0,0,.09,0,.1.01-.08-.02-.08-.02-.02,0l.17.05c.34.08.7.08,1.04.19-.18-.06.06.02.1.03.08.02.15.05.22.08.17.06.35.13.52.2.15.07.3.14.44.22.03.02.06.03.08.05.14.08-.12-.07-.03-.02.07.05.15.09.22.14.26.17.5.36.73.57.05.05.1.1.16.15.01.01.13.12.03.03s.01.02.03.03c.11.12.21.24.31.36s.18.24.27.36c.04.06.08.12.12.18s.09.2.15.25c0,0-.09-.16-.03-.05.01.03.03.06.04.08.04.07.07.14.1.21.07.14.13.29.18.44s.1.29.14.44c.01.05.03.09.04.14-.04-.17-.02-.06,0-.03.02.11.05.22.07.33.06.35.09.71.1,1.06,0,.05,0,.09,0,.14,0,.07-.03.16,0,0-.02.09,0,.19,0,.28,0,.19-.02.38-.04.56-.04.36-.1.72-.17,1.07-.04.19-.08.38-.13.56,0,.04-.02.07-.03.11-.05.19.04-.13,0,0-.03.1-.06.2-.09.31-.21.71-.47,1.41-.74,2.1-.13.34-.27.68-.43,1.01-.08.17-.16.33-.24.49-.04.07-.08.15-.12.22-.01.02-.1.16-.02.03s-.03.05-.05.07c-.19.3-.4.6-.64.86-.05.06-.11.12-.17.18-.12.12.12-.12.04-.04-.04.03-.07.07-.11.1-.18.16-.36.32-.53.5-.12.12-.16.33-.16.49,0,.17.04.35.15.48.21.26.61.42.93.27.7-.34,1.25-.98,1.67-1.62s.73-1.28,1.01-1.96c.6-1.47,1.14-3.02,1.37-4.6s.09-3.2-.64-4.62c-.67-1.31-1.7-2.38-3-3.07-.76-.4-1.61-.63-2.47-.69-.14,0-.28-.02-.41,0-.11.01-.2.03-.31.03-.2,0-.4.03-.6.06-.44.07-.87.18-1.29.32-.25.09-.37.37-.31.61s.31.45.56.39h0Z"/>
    <path d="M20.95,17.67c.08.07.16.14.24.2s.17.12.26.18.16.13.23.2.17.13.24.21l-.1-.1c.15.18.28.37.45.52.07.06.13.12.2.19.03.03.07.06.1.09.04.03.07.06.12.08.15.09.31.19.46.28.15.09.29.17.44.25.08.04.17.08.25.13.09.05.18.09.28.14.05.02.09.04.14.07.02.01.05.02.07.03.08.04.09.06.25.07h.24c.09,0,.17-.03.24-.06.12-.04.22-.11.3-.2.1-.08.17-.18.21-.3l.06-.23c.02-.16,0-.32-.06-.47h0c-.04-.08-.08-.15-.12-.22l-.18-.18-.22-.13s-.04-.02-.06-.03c-.04-.02-.08-.04-.13-.06-.09-.04-.17-.08-.26-.12-.17-.08-.33-.16-.51-.23s-.34-.14-.5-.21c-.04-.02-.08-.04-.13-.05-.1-.04-.22-.06-.33-.08-.09-.02-.17-.04-.26-.06-.19-.04-.39-.03-.58-.07l.13.04c-.1-.03-.19-.06-.29-.09s-.2-.06-.3-.11-.18-.09-.28-.13-.19-.08-.29-.12c-.16-.06-.34,0-.43.15s-.05.33.08.45h0Z"/>
    <path d="M29.1,19.59c.08-.1.16-.2.24-.29.04-.05.08-.09.13-.14.02-.02.04-.05.07-.07s.05-.04.06-.07c.02-.03.04-.06.06-.09.01-.01.02-.03.03-.04,0,0,0,0,0-.01.02-.03.04-.06.06-.1.05-.06.07-.13.09-.2l.03-.1v-.21c0-.1-.03-.15-.06-.22v.6s0-.03.01-.05c.02-.08.05-.15.06-.23l-.05.19s.02-.08.04-.12.04-.08.06-.11c.04-.07.08-.15.12-.22l-.08.13s.07-.08.1-.13c.04-.05.07-.12.11-.18,0-.01.01-.02.02-.03.03-.05.03-.09.05-.15.01-.08,0-.16-.03-.24-.02-.06-.06-.11-.1-.15-.04-.05-.09-.09-.15-.11-.08-.03-.16-.04-.24-.03-.06,0-.13.03-.18.05-.01,0-.02,0-.04.01,0,0,0,0-.01,0l-.12.07s-.01,0-.02.01c-.05.03-.1.05-.14.08l.13-.07c-.08.03-.16.07-.23.1-.04.02-.08.03-.11.05s-.08.02-.12.04l.19-.05c-.1.02-.19.05-.28.08h.6s0,0-.01,0l-.1-.03c-.07-.03-.14-.04-.21-.03h-.11c-.07.02-.14.03-.21.05-.1.04-.13.06-.2.11-.01,0-.02.02-.04.03-.03.02-.05.04-.08.06-.11.09-.2.19-.29.3-.08.1-.16.19-.24.29-.05.06-.09.11-.13.17-.08.09-.12.19-.14.31-.04.1-.05.21-.03.33,0,.11.05.22.11.31.05.1.12.19.21.26l.2.12c.14.06.28.08.43.06l.21-.05c.14-.06.26-.15.36-.27h0Z"/>
    <path d="M27.68,22.11s-.1-.08-.15-.11c-.14-.1-.19-.12-.35-.15,0,0-.01,0-.02,0-.02,0-.03,0-.05,0-.04,0-.07-.01-.11-.02-.2-.03-.39-.03-.59-.03-.14,0-.27.01-.4.04-.2.03-.39.08-.59.15-.15.05-.29.11-.42.18-.13.05-.24.14-.33.25-.09.11-.14.24-.16.38-.02.14,0,.27.05.4.05.13.14.24.25.33.05.04.11.08.16.12.12.07.23.14.36.19s.25.08.38.1c.07.01.13.02.2.03.2.01.41.01.61-.02.14-.02.28-.06.42-.1.08-.02.15-.04.23-.07.17-.06.33-.12.49-.19.11-.04.19-.1.27-.18.09-.07.15-.16.19-.27.05-.1.06-.2.06-.31,0-.11,0-.21-.05-.31l-.1-.19c-.09-.12-.21-.21-.35-.27l-.21-.06c-.14-.02-.28,0-.42.05-.26.12-.53.24-.81.31l.2-.05c-.16.04-.32.06-.48.06h.21c-.13,0-.25-.01-.37-.05l.2.05c-.1-.03-.2-.07-.29-.12l.18.11s-.09-.05-.12-.09l-.02,1.25s.04-.02.06-.04l-.18.1c.21-.12.43-.2.66-.26l-.19.05c.26-.07.53-.1.79-.1h-.19c.08,0,.15,0,.23,0,0,0,.02,0,.03,0,.03,0,.07,0,.1,0,.09,0,.18,0,.27-.05.01,0,.03,0,.04-.01.03,0,.06-.02.1-.03l-.16.04s.03,0,.04-.01l.15-.04.14-.08.12-.12c.06-.07.09-.14.11-.22.02-.05.03-.1.02-.16,0-.05,0-.11-.02-.16,0-.05-.03-.1-.06-.15-.03-.08-.09-.14-.16-.19h0Z"/>
    <path d="M20.68,15.51c.1,0,.19,0,.29,0s.18.02.27.04c.18.04.36.08.54.11.35.06.69.15,1.03.26s.7.24,1.04.39c.15.06.3.13.44.21.07.03.13.07.2.11-.06-.04,0,0,0,0,.02.01.03.02.05.03.03.02.07.04.1.07.15.1.29.21.43.33.01.01.03.03.04.04,0,0,.02.02.03.03.02.02.02.02-.02-.02.03.05.09.08.14.12.07.06.14.12.2.18.09.09.25.06.33-.02.1-.09.09-.22.03-.33-.09-.17-.2-.32-.34-.44-.12-.1-.25-.2-.39-.28-.3-.19-.61-.34-.94-.46-.36-.14-.73-.25-1.11-.32s-.74-.12-1.12-.15c-.21-.01-.42-.01-.63,0-.11,0-.22.02-.33.02-.1,0-.21,0-.31,0-.05,0-.04.07,0,.07h0Z"/>
    <path d="M27.84,17.69s.04-.03.07-.04l-.07.04s.05-.03.08-.04c.02-.02.05-.04.07-.07.01-.01.02-.02.04-.03l-.06.06c.27-.26.54-.52.83-.76.14-.12.29-.24.43-.36s.28-.25.42-.37c.08-.07.15-.15.23-.22s.16-.15.24-.22c.04-.04.08-.08.09-.15,0-.05,0-.12-.04-.16-.04-.04-.09-.08-.15-.09s-.11.01-.16.04c-.17.1-.33.2-.5.3-.08.05-.16.11-.23.17s-.16.12-.23.18c-.15.12-.3.25-.44.38s-.29.26-.42.39c-.1.09-.19.18-.28.27-.04.04-.08.08-.12.11-.02.02-.04.04-.06.06-.01.01-.02.02-.03.03-.03.03-.04.06-.06.09l.04-.07s-.03.04-.04.07c-.02.03-.04.06-.05.1-.01.03-.02.07,0,.1,0,.06.03.11.08.15s.1.08.16.08h.07s.09-.02.13-.05h0Z"/>
    <path d="M1.09,11.08c-.03.24-.03.48-.01.72s.08.46.14.68c.11.38.28.75.51,1.08.45.66,1.08,1.15,1.77,1.52s1.42.6,2.17.77c.7.16,1.41.24,2.13.28.65.03,1.31.03,1.97-.01.06,0,.13,0,.19-.01.33-.03.6-.37.55-.7-.06-.35-.35-.57-.7-.55-.24.02-.48.03-.72.04-.14,0-.27,0-.41,0-.03,0-.06,0-.09,0-.09,0,.18,0,.09,0-.02,0-.04,0-.06,0-.07,0-.15,0-.22,0-.62-.02-1.25-.07-1.86-.17-.36-.06-.73-.13-1.08-.23l.16.04c-.6-.16-1.19-.39-1.74-.7l.15.09c-.35-.21-.67-.45-.96-.74l.12.12c-.25-.26-.46-.54-.63-.86l.08.14c-.13-.24-.24-.5-.32-.76,0-.03-.02-.06-.03-.1-.02-.06.04.16.02.07-.01-.06-.03-.12-.05-.18-.01-.04-.02-.07-.03-.11,0-.02,0-.04-.01-.05,0,0,.04.15.02.08-.04-.16-.08-.31-.11-.47-.05-.25-.24-.44-.5-.44-.25,0-.48.18-.51.44h0Z"/>
    <path d="M9.33,15.35c-.07.53,0,1.09.22,1.57s.56.95.96,1.32c.81.75,1.91,1.11,2.99,1.24.3.04.6.06.9.07.15,0,.31,0,.46.01.19,0,.4.02.59-.01.3-.05.53-.29.53-.6s-.22-.56-.52-.61c-.18-.03-.38-.01-.57-.01h.16c-.78,0-1.56-.05-2.31-.25l.15.04c-.38-.1-.76-.25-1.11-.45l.14.08c-.28-.16-.53-.36-.76-.59l.12.12c-.2-.21-.38-.44-.53-.7l.08.14c-.12-.21-.21-.44-.28-.68l.04.15c-.05-.19-.07-.39-.07-.59v.16c0-.09,0-.17.02-.26.02-.15-.02-.32-.11-.44s-.25-.23-.41-.24c-.33-.03-.64.18-.69.52h0Z"/>
    <path d="M12.83,15.22c-.06.67.05,1.36.32,1.98.06.14.1.28.16.42.08.18.18.34.3.5.2.28.45.53.71.76.13.11.26.21.4.3.11.07.23.14.35.2.04.02.07.04.11.06.09.04.17.05.27.06h.15s.1-.02.14-.04l.13-.07c.07-.05.12-.1.15-.18.03-.04.05-.09.06-.14.02-.05.03-.1.02-.15,0-.11-.03-.26-.11-.35-.01-.01-.02-.03-.04-.04-.04-.04-.08-.09-.13-.13-.04-.03-.1-.07-.15-.09-.04-.02-.08-.04-.11-.05-.07-.04-.14-.08-.21-.12l.14.08c-.29-.17-.55-.38-.79-.62l.11.11c-.14-.15-.28-.31-.4-.48s-.25-.33-.36-.5l.07.12c-.11-.23-.2-.47-.26-.72l.03.12c-.07-.29-.11-.59-.11-.89v.12s0-.1,0-.15c0-.13-.01-.25-.09-.35-.07-.1-.2-.18-.32-.19s-.25.01-.35.09-.18.19-.19.32h0Z"/>
    <path d="M13.47,15.54s.08.05.12.08c.05.03.1.06.14.08.05.03.1.04.17.06.12.03.24.06.37.08.28.06.57.1.86.13.32.04.64.06.97.08.38.02.77.04,1.15.02.19,0,.39-.02.58-.04.1,0,.19-.02.29-.03.11-.01.22-.03.31-.09.06-.03.11-.07.16-.11.3-.22.25-.72-.11-.86-.04-.01-.07-.03-.11-.04-.13-.05-.26-.04-.4-.03-.1.01-.19.02-.29.03-.2.02-.4.04-.6.05-.39.03-.78.07-1.18.08-.21,0-.42.01-.63.01h.12c-.05,0-.1,0-.16,0h.12c-.31,0-.62-.01-.93-.04-.13-.01-.26-.03-.39-.05-.14-.02-.28,0-.42.01-.12,0-.23.12-.26.23s0,.26.11.33h0Z"/>
    <path d="M31.82,15.03c.47-.09.93-.18,1.4-.3.38-.1.77-.22,1.12-.4.23-.12.46-.25.66-.41.08-.05.13-.12.17-.2.05-.07.08-.15.09-.24.01-.09,0-.17-.02-.25-.01-.09-.05-.16-.1-.23l-.12-.13c-.09-.07-.2-.12-.32-.13-.16-.01-.35.01-.48.12-.16.14-.34.26-.53.36l.15-.08c-.42.23-.87.39-1.33.52-.14.04-.28.08-.42.11l.15-.04c-.18.05-.37.09-.55.14-.08,0-.15.03-.21.07-.07.03-.13.08-.18.15-.05.06-.09.13-.1.21-.03.07-.03.15-.02.23.03.15.09.3.22.39s.28.15.44.12h0Z"/>
    <path d="M19,21.67c-.12.03-.23.03-.35.07-.09.03-.17.06-.25.09-.2.07-.39.15-.58.23-.44.2-.87.41-1.29.63-.95.5-1.87,1.07-2.67,1.79-.24.21-.47.44-.68.68-.09.1-.17.21-.24.32-.06.1-.12.2-.18.3-.04.07-.06.12-.08.22-.02.13.01.24.05.36.04.13.19.27.32.32.15.05.28.05.44,0,.1-.03.18-.08.26-.15.08-.08.13-.17.18-.26l-.09.15c.27-.46.62-.88,1-1.26l-.11.11c.56-.55,1.22-1,1.89-1.4.19-.11.38-.22.57-.33l-.12.07c.49-.27.99-.5,1.48-.77l-.11.06c.11-.06.21-.12.32-.18.05-.03.1-.05.15-.08.02-.01.05-.03.07-.04.01,0,.02-.01.03-.02.1-.05.13-.07.21-.16l-.09.08c.05-.04.1-.09.15-.13.14-.1.2-.3.13-.46-.07-.15-.24-.28-.41-.24h0Z"/>
    <path d="M30.81,22.22c.14.06.3.07.45.1l-.1-.03c.08.02.16.05.24.07.12.04.24.06.36.08.17.03.34.07.51.12l-.13-.03c.19.05.38.1.55.19s.35.18.52.28l-.15-.09c.13.08.26.16.39.23l-.16-.09c.07.04.15.09.22.13.09.05.17.11.27.15,0,0,.01,0,.02,0l.18.05h.01c.06,0,.12,0,.19,0l.18-.05s0,0,.01,0c0,0,.01,0,.02-.01l.16-.09c.08-.05.14-.12.18-.21.04-.05.06-.1.07-.17.03-.08.04-.17.02-.26-.03-.14-.06-.26-.15-.38s-.21-.2-.34-.26c-.05-.03-.11-.04-.17-.06-.16-.04-.32-.09-.49-.12-.21-.04-.43-.08-.64-.1-.05,0-.11-.01-.16-.02-.06,0-.12-.02-.17-.03-.11-.02-.21-.04-.32-.06-.22-.03-.45-.06-.67-.08-.09,0-.18,0-.28,0-.06,0-.12.01-.19.02s-.13,0-.19,0c-.03,0-.06,0-.09,0-.06,0-.12.03-.17.04s-.11.07-.15.11c-.05.06-.07.14-.07.21,0,.14.08.27.21.33h0Z"/>
  </g>
  <path class="b" d="M5.35,5.31h24.78c.26,0,.47-.31.43-.55-.05-.29-.27-.43-.55-.43H5.23c-.26,0-.47.31-.43.55.05.29.27.43.55.43h0Z"/>
  <path class="b" d="M3.95,8.21h21.79c2.04,0,4.08,0,6.12,0,.26,0,.47-.31.43-.55-.05-.29-.27-.43-.55-.43H9.95c-2.04,0-4.08,0-6.12,0-.26,0-.47.31-.43.55.05.29.27.43.55.43h0Z"/>
  <path class="b" d="M5.78,11.56h11.69c.26,0,.47-.31.43-.55-.05-.29-.27-.43-.55-.43H5.66c-.26,0-.47.31-.43.55.05.29.27.43.55.43h0Z"/>
</svg>