<?xml version="1.0" encoding="UTF-8"?>
<svg xmlns="http://www.w3.org/2000/svg" version="1.1" viewBox="0 0 512 512">
  <!-- Generator: Adobe Illustrator 28.6.0, SVG Export Plug-In . SVG Version: 1.2.0 Build 709)  -->
  <g>
    <g id="Layer_1">
      <path d="M494.4,135.8c-5.7-21.6-22.6-38.5-44-44.3-38.8-10.5-194.4-10.5-194.4-10.5,0,0-155.6,0-194.4,10.5-21.4,5.8-38.3,22.7-44,44.3-10.4,39.1-10.4,120.6-10.4,120.6,0,0,0,81.5,10.4,120.6,5.7,21.6,22.6,37.8,44,43.6,38.8,10.5,194.4,10.5,194.4,10.5,0,0,155.6,0,194.4-10.5,21.4-5.8,38.3-22,44-43.6,10.4-39.1,10.4-120.6,10.4-120.6,0,0,0-81.5-10.4-120.6ZM205.1,330.4v-148l130.1,74-130.1,74h0Z"/>
    </g>
  </g>
</svg>