<?xml version="1.0" encoding="UTF-8"?>
<svg id="a" xmlns="http://www.w3.org/2000/svg" version="1.1" viewBox="0 0 36 36">
  <!-- Generator: Adobe Illustrator 29.3.1, SVG Export Plug-In . SVG Version: 2.1.0 Build 151)  -->
  <path d="M20.6,33.1c-7.1,1.5-11.3.9-12.2-1.9s-3.3-10.7-3.3-10.7c0,0-2.3-.3-2.7-2.1s4-4.1,12.9-5.8c8.8-1.6,10.5-.5,10.6.8s-.7,2.7-.7,2.7c0,0,1.7,9.6,1.9,11.5s-3.2,4.7-6.5,5.4Z" fill="#fff"/>
  <g>
    <path d="M6.6,14.8c3.6-.7,7.2-1.3,10.9-1.5,1.8-.1,3.5-.1,5.3,0,.4,0,.8,0,1.2.1.1,0,.2,0,.3,0-.2,0,0,0,.1,0,0,0,.1,0,.2,0,0,0,.1,0,.2,0-.1,0-.1,0,0,0,0,0,.1.1.2.2-.2-.2,0,0,0,0,0,0,.1.1.1.2-.1-.2,0,0,0,0,0,0,0,.3,0,0,0,0,0,.3,0,0,0,0,0,.3,0,0,0,0,0,.2-.1.2.1-.2,0,0,0,0,.1-.2,0,0,0,0-.1.1-.3.2-.4.3-.2.1.2,0-.1,0,0,0-.2.1-.3.1-.2.1-.4.2-.7.3-.8.3-1.6.6-2.4.9-1.7.5-3.4,1-5.1,1.5-.1,0-.2,0-.3,0,0,0-.4,0-.1,0-.2,0-.4.1-.7.2-.4.1-.9.2-1.3.3-.9.2-1.8.4-2.7.5s-1.8.2-2.7.3c-.2,0-.4,0-.7,0h-.3c-.4,0,.2,0-.2,0s-.9,0-1.4,0c-.2,0-.4,0-.6,0-.2,0-.4,0-.6-.1h.1c0,0,0,0-.2,0,0,0-.2,0-.3-.1,0,0-.2-.1-.2-.1.2.1.2.1,0,0h0c0,0-.1-.1-.2-.2,0,0,0,0,0,0,0,0,0,0,0-.1h0c0-.2,0-.1,0,0,0,0-.1-.4,0-.1,0,0,0-.2,0-.3,0,.3,0,0,0-.1,0,.3,0,0,0,0,0,0,0-.2.1-.3,0,0,.2-.3,0,0,0-.1.1-.2.2-.3,0,0,.1-.1.2-.2q0,0,0,0c0,0,0,0,.1-.1.3-.3.7-.6,1.1-.8s.6-.4,1.1-.6c.2-.1.4-.2.6-.3.2-.1.4-.3.7-.4.5-.3.3-1.2-.3-1.2-.2,0-.5,0-.7,0-.3,0-.5.1-.8.2-.4.1-.8.3-1.2.5-.4.2-.9.5-1.3.8-.2.1-.3.2-.5.4,0,0-.2.1-.2.2s-.2.1-.2.2c0,0,0,0,0,0-.4.4-.7.8-1,1.3-.2.5-.3,1.1-.2,1.6.2,1,.9,1.7,1.8,2.1.8.4,1.6.5,2.4.5,1.1,0,2.1,0,3.2,0,2-.1,4-.5,5.9-1s4-1.1,5.9-1.7c1.8-.6,3.7-1.2,5.3-2.3.9-.6,1.5-1.4,1.4-2.5-.1-1-.8-1.8-1.7-2.3s-1.8-.5-2.7-.5c-1,0-2.1,0-3.2,0-4.1.2-8.1.9-12,1.9-.5.1-.9.3-1.4.4-.6.2-.4,1.3.3,1.1h0Z" fill="#38568b"/>
    <path d="M4.6,21.2c.3.6.6,1.2.8,1.9.2.7.4,1.2.5,1.9.3,1.4.5,2.8.8,4.1.4,1.6.9,3.1,2.3,4.1,1.4.9,3,1.3,4.6,1.5s3.2.1,4.8,0c1.4-.2,2.8-.4,4.2-.8,2.8-.9,6-3,5.9-6.2,0-.9-.2-1.7-.4-2.6-.2-.9-.3-1.8-.5-2.8-.3-1.8-.7-3.7-1.1-5.5,0-.3-.2-.6-.5-.8-.2-.2-.6-.3-.9-.2-.6.1-1.2.7-1.1,1.4.6,3.1,1.2,6.2,1.8,9.3,0,.4.1.7.2,1.1,0,0,0,.1,0,.2,0,.3,0-.2,0,0,0,.1,0,.5,0,.6h0c0,0,0,0,0,0,0,0,0,.1,0,.2,0,0,0,.2-.1.2-.1.3.1-.2,0,0-.2.3-.4.6-.6.8,0,0-.2.2-.2.2,0,0,.2-.2,0,0-.1.1-.2.2-.4.3-.2.2-.5.4-.8.6,0,0-.1,0-.2.1,0,0-.2.2,0,0-.1,0-.2.1-.4.2-.3.1-.6.3-.9.4-.3.1-.5.2-.8.3-.2,0-.3.1-.5.1,0,0-.2,0,0,0-.1,0-.2,0-.3,0-.6.1-1.2.2-1.9.3-.7,0-1.4.2-2.1.2-.3,0-.7,0-1,0-.2,0-.3,0-.5,0s-.4,0,0,0h-.4c-.7,0-1.4,0-2.1-.2-.2,0-.4,0-.5-.1-.2,0,0,0,0,0,0,0-.2,0-.3,0-.3-.1-.7-.2-1-.4-.2,0-.4-.1-.5-.2,0,0,.2.1,0,0,0,0-.2-.1-.2-.2-.1,0-.3-.2-.4-.3.1.2,0,0,0,0,0,0-.1-.1-.2-.2s-.1-.1-.1-.2c-.2-.2.1.2,0,0,0-.1-.1-.3-.2-.4-.1-.3-.2-.6-.4-.9-.1-.4-.2-.7-.3-1.1,0,0,0-.1,0-.2q0-.1,0,0c0,0,0-.1,0-.2,0-.2,0-.4-.1-.5-.2-.8-.4-1.5-.6-2.3-.2-.7-.4-1.5-.8-2.1-.3-.7-.8-1.4-1.3-2-.2-.2-.5-.3-.8-.2-.2.1-.4.5-.3.8h0Z" fill="#38568b"/>
    <path d="M27.7,13.6s0,0,0-.1v.2c0-.2,0-.3.2-.4l-.2.2c.2-.2.3-.3.5-.4h-.2c.2,0,.4,0,.6-.1h-.2c.2,0,.5,0,.7,0h-.2c.3,0,.6,0,.9.1h-.2c.4,0,.7.2,1,.4h-.2c.5.1.9.5,1.3.8l-.2-.2c.3.3.6.7.8,1.1v-.2c0,.3.2.6.2,1v-.3c0,.4,0,.9,0,1.3v-.3c0,.6,0,1.1-.2,1.7v-.3c-.1.7-.4,1.5-.8,2.1l.2-.3c-.2.4-.4.7-.7,1l.3-.3c-.3.3-.6.5-1,.7l.3-.2c-.5.3-1.1.5-1.7.7h.4c-.3,0-.5,0-.8,0h.4c-.2,0-.3,0-.5,0h.4c-.1,0-.2,0-.3,0l.3.2s0,0,0,0c-.2-.1-.3-.2-.5-.3-.3,0-.2,0-.6,0h0,.3,0c-.3,0-.7,0-1,.2s-.5.5-.5.9c0,.1,0,.3,0,.5,0,.3.1.5.3.7.2.3.5.5.9.6s.7.2,1,.2.7,0,1.1,0,.7-.2,1.1-.3c.3-.1.5-.2.8-.3.4-.2.7-.4,1-.6.5-.4,1-.9,1.4-1.5s.7-1.2.9-1.9.4-1.4.5-2.1c0-.4,0-.8,0-1.2s-.1-.8-.2-1.2c-.2-.6-.5-1.1-.8-1.6-.4-.6-.9-1-1.4-1.4-.7-.5-1.4-.8-2.2-1h.2c-.3,0-.5,0-.8-.1s-.5,0-.8,0c-.4,0-.8,0-1.2.2-.8.3-1.5.9-1.9,1.6-.2.4,0,1,.5,1.1.2,0,.5.1.7,0,.2-.1.4-.3.5-.5h0Z" fill="#38568b"/>
    <path d="M3.7,2.6c-.4.5-.8,1-1.1,1.6-.4.6-.7,1.3-.6,2.1s.6,1.4,1.4,1.7c.5.2,1.1.2,1.7.3.1,0,.2,0,.4,0,0,0,.3,0,0,0,0,0,.1,0,.2,0,.2,0,.5.2.7.3h-.2c.2,0,.4.1.5.3l-.2-.2s0,0,.1.1c0,0,.1.2,0,0s0,0,0,0,0,.3,0,0,0,0,0,0c0,0,0,.1,0-.1h0c0,.2,0,.3,0,.4v-.3c0,.2,0,.3,0,.5v-.3c0,.5-.3.9-.6,1.3s-.5.9-.7,1.3c-.1.3-.2.6-.2.9,0,.4,0,.8.1,1.2.2.7.8,1.3,1.3,1.8.2.2.5.5.8.6.4.3,1.1.7,1.7.6.4,0,.7-.3.9-.7.1-.3.1-.8-.1-1.1-.2-.2-.3-.3-.5-.4,0,0,0,0-.1,0,0,0-.2,0-.3-.1h.3c-.4-.1-.9-.5-1.2-.8l.2.2c-.2-.2-.4-.4-.5-.7l.2.3c-.1-.2-.2-.4-.2-.6v.3c0-.2,0-.3,0-.5v.3c0-.2,0-.4,0-.6v.3c0-.6.4-1.1.7-1.6.3-.6.6-1.4.5-2.1,0-.8-.4-1.5-1-2s-1.2-.8-1.9-.9c-.3,0-.7-.1-1-.2-.2,0-.4,0-.6,0,0,0,0,0-.1,0,0,0,0,0,.1,0,0,0,0,0,0,0,0,0-.2,0-.3-.1h.2c0,0-.2,0-.2,0l.2.2c0,0,0-.1-.1-.2,0,0,0-.1,0,0s0,0,0,0c0,0,0,0,0-.1,0,0,0,.2,0,0,0,0,0-.2,0-.2,0-.1,0,.2,0,0,0,0,0,0,0-.1,0,0,0-.1,0-.2,0,0,0,.2,0,0,0,0,0,0,0-.1,0,0,0-.2.1-.2,0,0,0-.1.1-.2,0-.2,0,.1,0,0,0,0,0,0,0,0,0-.2.2-.3.3-.4.2-.4.5-.8.7-1.1.2-.4,0-.8-.3-1-.3-.2-.8-.1-1,.2h0Z" fill="#38568b"/>
    <path d="M11.1,1.3c-.3.2-.6.4-.8.7s-.4.6-.6.9c-.4.7-.6,1.4-.6,2.2,0,.7.2,1.4.6,1.9.4.6,1.1,1,1.8,1.2.6.2,1.3.4,1.9.7h-.2c.2,0,.4,0,.5.2l-.2-.2c0,0,.1.2.2.3v-.2c0,.1,0,.2,0,.3v-.3c0,.2,0,.4,0,.5v-.3c0,.2,0,.3,0,.5v-.3c0,.2,0,.4-.2.6l.2-.3c-.3.4-.6.8-.9,1.2-.4.5-.8.9-1.1,1.5-.3.6-.5,1.4-.4,2,0,.4.2.8.4,1.1.1.2.3.3.4.5,0,0,.1.1.2.2.4.3.9.5,1.5.5.5,0,.9-.3,1.2-.7.2-.3.3-.7.1-1.1-.1-.4-.5-.6-.9-.7h0c0,0,.2,0,.3,0-.2,0-.4-.2-.6-.3l.3.2c-.1,0-.2-.1-.3-.2l.2.3c-.1-.1-.2-.2-.2-.3l.2.3c0-.1,0-.2-.1-.3v.3c0-.1,0-.2,0-.4v.4c0-.2,0-.4,0-.6v.4c0-.2,0-.5.2-.7l-.2.3c.2-.4.5-.8.8-1.1.4-.4.7-.9.9-1.4.2-.6.4-1.2.3-1.8,0-.3,0-.6-.2-.8-.2-.4-.4-.6-.6-.9l.2.2c-.3-.3-.5-.5-.8-.7s-.7-.4-1-.5-.7-.2-1.1-.3h-.2c0,0-.2-.1,0,0,0,0,0,0-.1,0-.2,0-.3,0-.5-.2,0,0-.1,0-.2,0,0,0,0,0,0,0,0,0,.2.1,0,0,0,0-.1,0-.2-.1,0,0,0,0-.1,0-.1-.1,0,0,0,0-.1,0-.2-.2-.3-.4,0,0,0,0,0,0,0,0,0,0,0,0,0,0,0-.2-.1-.2,0,0,0-.1,0-.2,0,.1,0,.2,0,0,0,0,0,0,0,0,0-.2,0-.3,0-.5,0,0,0-.1,0,0h0c0-.2,0-.2,0-.3,0,0,0-.1,0-.2,0,0,0,0,0-.1,0-.2,0,.1,0,0,.1-.4.2-.7.4-1.1,0,0,0-.2.1-.2,0,0,0-.1,0,0,0,0,0-.2.1-.2,0,0,0-.2.1-.2,0,0,0,0,0-.1,0,0,0-.1,0,0,.1-.2.1-.5,0-.6-.2-.2-.4-.2-.6,0h0Z" fill="#38568b"/>
    <path d="M15.4.4c-.7.8-.8,2-.5,2.9.1.5.4.9.7,1.3.4.4.9.8,1.4,1s1.1.4,1.5.7h-.2c.2,0,.4.2.6.3l-.2-.2c.2.2.3.3.4.5v-.2c0,.2,0,.4.1.7v-.3c0,.3,0,.6,0,.9v-.3c0,.3,0,.6-.1.9v-.3c0,.4-.2.8-.4,1.2l.2-.3c-.3.5-.7,1-1.1,1.4l.3-.3c-.8.8-1.8,1.5-2.2,2.6-.3.7-.3,1.5,0,2.2.3.8,1.2,1.5,2.1,1.3.7,0,1.3-.8,1.2-1.5,0-.4-.2-.7-.5-.9l-.3-.2c-.2,0-.5-.1-.7,0h0,.4s0,0,0,0h.3c0,0,0,0-.1,0l.3.2c0,0-.1,0-.2-.1l.3.3s0-.1-.1-.1l.2.3c0,0,0-.2,0-.2v.3c0-.1,0-.2,0-.4v.4c0-.2,0-.4,0-.5v.4c0-.2,0-.4.1-.6l-.2.3c.3-.5.7-.9,1.2-1.4s.8-.8,1.1-1.3c.2-.3.4-.6.6-1s.3-.7.4-1.1c.1-.6.2-1.2,0-1.8-.1-.7-.4-1.3-.8-1.8s-1-.9-1.6-1.2c-.3,0-.5-.2-.8-.2-.2,0-.4,0-.5-.2-.1,0,.1,0,0,0,0,0,0,0-.1,0h-.2c-.3-.1-.5-.2-.8-.4,0,0,0,0,0,0-.1,0,.1,0,0,0,0,0-.1,0-.1,0s0,0-.1,0c0,0-.2-.2,0,0s0,0,0,0c0,0,0-.1-.1-.2,0,0,0,0,0,0,0,0,0,0,0,0,0,0,0-.1,0-.2,0-.1,0-.2-.1-.4s0,0,0,0c0,0,0,0,0-.1,0,0,0-.1,0-.2s0-.1,0-.2h0c0-.2,0,0,0,0s0-.2,0-.4c0,0,0-.2,0,0,0,0,0-.1,0-.2,0-.1,0-.3.1-.4.1-.3,0-.6-.2-.7-.2-.2-.5,0-.7.1h0Z" fill="#38568b"/>
    <path d="M11.7,28.8v-2.2c.2-.7.2-1.5.2-2.2,0-.4,0-.8.1-1.2h-1c.3.7.6,1.3.9,1.9.2.3.3.6.5,1,.2.3.3.6.5.9v-.2c0,.3.2.6.4.9,0,.1.1.3.2.5.1.2.2.4.4.6l.2.2h.2c.2.2.4.2.6.2.2,0,.3-.1.4-.2.1-.1.3-.3.3-.5,0-.3,0-.7,0-1s0-.6,0-1,0-.6,0-1c0-.2,0-.3,0-.5,0-.2,0-.4,0-.7v.2c0-.2,0-.4,0-.6s0-.4,0-.6,0-.4,0-.6c0-.2,0-.4.1-.6h-1c0,0,0,0,0,.1,0,0,0,0,0,0,0,0,0,0,0,.1,0,0,0,.2,0,.2,0,.2,0,.4.1.6,0,.3.2.7.3,1v-.2c0,.4.2.8.4,1.2.1.4.3.7.4,1,.3.7.6,1.4.9,2,.2.4.4.8.6,1.1,0,.2.2.3.3.4h.2c.3.2.6.2.8,0,.2-.1.4-.3.4-.6,0-.1,0-.2,0-.4,0-.2,0-.3-.2-.4-.2-.3-.3-.5-.5-.8v.2c-.2-.5-.5-1.1-.8-1.7s-.6-1.1-.9-1.7c-.2-.4-.3-.7-.5-1.1v.2c-.1-.5-.4-.9-.6-1.4h0s-.1,0-.2-.2-.1-.2-.1-.3c0-.2-.3-.3-.5-.3s-.4.1-.5.3c0,.1,0,.3-.1.4,0,0,0,.1,0,.1,0,0,0,0,0,0,0,0,0,0,0,0,0,0,0,0,0,0,0,.2-.2.4-.2.6,0,.2-.2.5-.2.7,0,.2-.1.4-.1.6v-.2c0,0,0,.1,0,.2,0,.1,0,.3-.1.4,0,.2,0,.3-.1.5,0,.3-.1.6-.2,1s0,.7,0,1c0,.4,0,.8,0,1.2l1.6-.6c-.1-.2-.2-.3-.3-.5s-.2-.3-.3-.5c-.2-.3-.5-.6-.7-.9s-.4-.6-.6-1-.4-.6-.7-.9c-.3-.4-.5-.7-.7-1.1-.1-.2-.4-.3-.6-.2,0,0-.2,0-.2.2,0,.1-.1.2-.1.4h0c0,0,0,.1,0,0,0-.1,0,.1,0,.2v.5h0c0,.1,0,0,0,0h0c0,.1,0,1.2,0,1.2,0,.7,0,1.4-.1,2.1v1.2c0,.2,0,.5.3.5.2,0,.5-.1.5-.4h0Z" fill="#ed1c24"/>
    <path d="M22.1,27c0-.3.1-.6.2-1v.2c0,0,.2-.9.2-.9,0-.1.1-.3.1-.5,0,0,0-.2,0-.2,0-.2,0-.3,0-.5,0-.6.1-1.2.2-1.8,0-.2,0-.3.1-.5,0,0,0,0,0,0v-.4s0-.2,0-.2c0,0,0-.1,0-.2s0-.1,0-.2v.2c0-.1,0-.2,0-.3v.2c0,0,0-.1,0-.1,0,0,0-.2,0-.2,0-.1-.2-.3-.3-.4l.2.3c0-.2-.2-.3-.4-.4-.1,0-.2,0-.3,0,0,0-.1,0-.2,0h.2c-.3,0-.6.2-.8.4l.2-.2c-.1,0-.2.2-.3.3l.2-.2s-.1,0-.2.1c-.2.1-.3.3-.4.5,0,.1,0,.3-.1.4,0,.2,0,.4,0,.5,0,.4,0,.7,0,1,0,.5,0,.9,0,1.4v.3c0,.1,0,.2,0,.3v.6c.1.4.2.9.2,1.3,0,.2.1.4.3.5s.3.1.4.1.3,0,.4-.1c.1-.1.2-.3.3-.5h0Z" fill="#ed1c24"/>
    <path d="M22.4,28h0c-.1,0-.2,0-.4,0,0,0-.2,0-.2.2,0,0-.1.1-.2.2,0,.1,0,.2,0,.4h0c0,.1,0,.2,0,.2v.2c.1,0,.2.1.2.1h.2c0,.1.2.1.2.1h.2c0,0,.1,0,.2,0,.1,0,.2,0,.2-.2,0,0,.1-.1.1-.2,0,0,0-.1,0-.2,0,0,0-.1,0-.2s0-.1,0-.2c0,0,0-.1,0-.2,0,0,0-.1-.1-.2,0,0-.1-.1-.2-.1,0,0-.2,0-.3-.1h0Z" fill="#ed1c24"/>
  </g>
</svg>