<?xml version="1.0" encoding="UTF-8"?>
<svg id="a" data-name="Layer 1" xmlns="http://www.w3.org/2000/svg" viewBox="0 0 600 400">
  <defs>
    <style>
      .b {
        fill: #e31f26;
      }

      .c, .d, .e, .f, .g, .h {
        stroke-width: .66px;
      }

      .c, .i {
        stroke: #939598;
      }

      .c, .i, .e, .f, .g, .h {
        stroke-miterlimit: 10;
      }

      .c, .j {
        fill: #fff;
      }

      .d {
        stroke: #a7a9ac;
        stroke-linecap: round;
        stroke-linejoin: round;
      }

      .d, .i, .f, .h {
        fill: none;
      }

      .i {
        stroke-width: .33px;
      }

      .e {
        fill: #f9cbdf;
      }

      .e, .g {
        stroke: #231f20;
      }

      .k {
        fill: #b9e5fb;
      }

      .f {
        stroke: #ec008c;
      }

      .g {
        fill: #fffbcc;
      }

      .h {
        stroke: #00aeef;
      }
    </style>
  </defs>
  <rect class="j" x="410.67" y="91.17" width="140.99" height="215.48"/>
  <rect class="k" x="410.85" y="91.15" width="140.63" height="160.23"/>
  <g>
    <rect class="c" x="48.83" y="15.93" width="297.94" height="361.79"/>
    <rect class="h" x="90.91" y="33.98" width="212.82" height="329.86"/>
    <rect class="f" x="85.59" y="28.66" width="223.46" height="340.5"/>
  </g>
  <g>
    <line class="d" x1="93.85" y1="45.09" x2="296.88" y2="45.09"/>
    <line class="d" x1="80.68" y1="279.43" x2="304.98" y2="279.43"/>
    <line class="d" x1="97.45" y1="269.83" x2="298.68" y2="269.83"/>
    <line class="d" x1="97.36" y1="353.81" x2="297.37" y2="353.81"/>
    <line class="d" x1="102.03" y1="36.94" x2="102.03" y2="359.45"/>
    <line class="d" x1="293.41" y1="37.6" x2="293.41" y2="360.59"/>
    <line class="d" x1="182.88" y1="265.32" x2="182.88" y2="364.21"/>
    <line class="d" x1="175.94" y1="267.45" x2="175.94" y2="366.35"/>
  </g>
  <rect class="e" x="415.99" y="245.86" width="50.07" height="55.47"/>
  <rect class="g" x="471.94" y="245.86" width="74.4" height="55.47"/>
  <rect class="i" x="410.67" y="91.17" width="140.99" height="215.48"/>
  <polygon class="b" points="428.37 199.09 401.12 171.84 401.12 185.95 329.31 185.95 329.31 212.23 401.12 212.23 401.12 226.34 428.37 199.09"/>
</svg>