<?xml version="1.0" encoding="UTF-8"?>
<svg xmlns="http://www.w3.org/2000/svg" viewBox="0 0 600 400">
  <defs>
    <style>
      .e {
        stroke: #000;
      }

      .e, .f {
        stroke-width: 2.59px;
      }

      .e, .f, .g, .h, .i, .j {
        fill: none;
        stroke-linecap: round;
        stroke-linejoin: round;
      }

      .k {
        fill: #2a2c2c;
      }

      .l {
        fill: #185591;
      }

      .m {
        fill: #010101;
      }

      .n {
        fill: #5f90be;
      }

      .o {
        fill: #7e8888;
      }

      .p {
        fill: #d8dddc;
      }

      .q {
        fill: #231f20;
      }

      .f, .i, .j {
        stroke: #231f20;
      }

      .r {
        fill: #454747;
      }

      .s {
        fill: #fff;
        opacity: .8;
      }

      .g {
        stroke: #ccc;
        stroke-width: .65px;
      }

      .t {
        fill: #b7bcbb;
      }

      .h {
        stroke: #e11e25;
      }

      .h, .j {
        stroke-width: 2.19px;
      }

      .i {
        stroke-width: 1.3px;
      }

      .u {
        fill: #f7c685;
      }

      .v {
        fill: #2874aa;
      }

      .w {
        fill: #d8e2e7;
      }
    </style>
  </defs>
  <g id="a" data-name="pencil lines">
    <line class="g" x1="9.52" y1="164.83" x2="548.26" y2="164.83"/>
    <line class="g" x1="20.12" y1="173.34" x2="558.86" y2="173.34"/>
    <line class="g" x1="26.94" y1="176.98" x2="565.68" y2="176.98"/>
    <line class="g" x1="20.12" y1="185" x2="558.86" y2="185"/>
    <line class="g" x1="15.58" y1="188.64" x2="554.32" y2="188.64"/>
    <line class="g" x1="20.12" y1="196.74" x2="558.86" y2="196.74"/>
    <line class="g" x1="40.96" y1="200.38" x2="579.7" y2="200.38"/>
  </g>
  <g id="b" data-name="ames guide">
    <rect class="w" x=".22" y="291.82" width="599.35" height="108.31"/>
    <g>
      <path class="s" d="M459.73,290.66H162.15v-158.64h65.32l9.04,7.03c8.6-11.18,20.35-20.14,34.58-25.31,32.68-11.89,68.18-.21,87.92,26.34l10.52-8.06h22.29l67.92,158.64ZM218.24,137.96c-1.92,0-3.48,1.56-3.48,3.48s1.56,3.48,3.48,3.48,3.48-1.56,3.48-3.48-1.56-3.48-3.48-3.48ZM218.5,150.66c0-1.92-1.56-3.48-3.48-3.48s-3.48,1.56-3.48,3.48,1.56,3.48,3.48,3.48,3.48-1.56,3.48-3.48ZM215.28,159.88c0-1.92-1.56-3.48-3.48-3.48s-3.48,1.56-3.48,3.48,1.56,3.48,3.48,3.48,3.48-1.56,3.48-3.48ZM212.07,169.1c0-1.92-1.56-3.48-3.48-3.48s-3.48,1.56-3.48,3.48,1.56,3.48,3.48,3.48,3.48-1.56,3.48-3.48ZM208.85,178.32c0-1.92-1.56-3.48-3.48-3.48s-3.48,1.56-3.48,3.48,1.56,3.48,3.48,3.48,3.48-1.56,3.48-3.48ZM205.63,187.54c0-1.92-1.56-3.48-3.48-3.48s-3.48,1.56-3.48,3.48,1.56,3.48,3.48,3.48,3.48-1.56,3.48-3.48ZM202.42,196.76c0-1.92-1.56-3.48-3.48-3.48s-3.48,1.56-3.48,3.48,1.56,3.48,3.48,3.48,3.48-1.56,3.48-3.48ZM199.2,205.98c0-1.92-1.56-3.48-3.48-3.48s-3.48,1.56-3.48,3.48,1.56,3.48,3.48,3.48,3.48-1.56,3.48-3.48ZM195.98,215.2c0-1.92-1.56-3.48-3.48-3.48s-3.48,1.56-3.48,3.48,1.56,3.48,3.48,3.48,3.48-1.56,3.48-3.48ZM192.76,224.42c0-1.92-1.56-3.48-3.48-3.48s-3.48,1.56-3.48,3.48,1.56,3.48,3.48,3.48,3.48-1.56,3.48-3.48ZM189.55,233.64c0-1.92-1.56-3.48-3.48-3.48s-3.48,1.56-3.48,3.48,1.56,3.48,3.48,3.48,3.48-1.56,3.48-3.48ZM186.33,242.86c0-1.92-1.56-3.48-3.48-3.48s-3.48,1.56-3.48,3.48,1.56,3.48,3.48,3.48,3.48-1.56,3.48-3.48ZM183.11,252.08c0-1.92-1.56-3.48-3.48-3.48s-3.48,1.56-3.48,3.48,1.56,3.48,3.48,3.48,3.48-1.56,3.48-3.48ZM179.9,261.3c0-1.92-1.56-3.48-3.48-3.48s-3.48,1.56-3.48,3.48,1.56,3.48,3.48,3.48,3.48-1.56,3.48-3.48ZM176.68,270.52c0-1.92-1.56-3.48-3.48-3.48s-3.48,1.56-3.48,3.48,1.56,3.48,3.48,3.48,3.48-1.56,3.48-3.48ZM169.98,276.26c-1.92,0-3.48,1.56-3.48,3.48s1.56,3.48,3.48,3.48,3.48-1.56,3.48-3.48-1.56-3.48-3.48-3.48ZM246.12,165.09c-1.58.57-2.39,2.31-1.82,3.89.57,1.58,2.31,2.39,3.89,1.81,1.57-.57,2.39-2.32,1.81-3.89-.57-1.58-2.32-2.39-3.89-1.81ZM236.1,189.41c-1.57.57-2.39,2.31-1.82,3.89.57,1.58,2.32,2.39,3.89,1.82,1.58-.57,2.39-2.31,1.82-3.89-.57-1.58-2.31-2.39-3.89-1.81ZM258.63,198.04c-1.57.57-2.39,2.31-1.81,3.89.57,1.58,2.31,2.39,3.89,1.81,1.58-.57,2.39-2.31,1.82-3.89-.57-1.58-2.31-2.39-3.89-1.81ZM291.03,186.25c-1.57.57-2.39,2.32-1.82,3.89.57,1.58,2.32,2.39,3.89,1.81,1.58-.57,2.39-2.31,1.82-3.89-.57-1.58-2.31-2.39-3.89-1.81ZM323.42,174.47c-1.58.57-2.39,2.31-1.81,3.89.57,1.58,2.31,2.39,3.89,1.81,1.58-.57,2.39-2.31,1.81-3.89-.57-1.58-2.31-2.39-3.89-1.82ZM355.82,162.68c-1.57.57-2.39,2.31-1.82,3.89.57,1.58,2.32,2.39,3.89,1.82,1.58-.57,2.39-2.31,1.82-3.89-.57-1.58-2.31-2.39-3.89-1.81ZM250.02,184.34c-1.57.57-2.39,2.32-1.82,3.89.57,1.58,2.32,2.39,3.89,1.81,1.58-.57,2.39-2.31,1.82-3.89-.57-1.58-2.32-2.39-3.89-1.81ZM258.85,181.13c-1.57.57-2.39,2.31-1.81,3.89.57,1.58,2.32,2.39,3.89,1.81s2.39-2.31,1.81-3.89c-.57-1.58-2.31-2.39-3.89-1.81ZM246.58,218.97c-1.57.57-2.39,2.31-1.81,3.89.57,1.57,2.31,2.39,3.89,1.82,1.58-.57,2.39-2.32,1.82-3.89-.57-1.58-2.32-2.39-3.89-1.82ZM261.25,213.63c-1.57.57-2.39,2.32-1.81,3.89.57,1.57,2.31,2.39,3.89,1.82,1.58-.57,2.39-2.32,1.82-3.89-.57-1.57-2.31-2.38-3.89-1.81ZM269.17,210.75c-1.58.57-2.39,2.31-1.81,3.89.57,1.57,2.31,2.39,3.89,1.81,1.57-.57,2.39-2.32,1.81-3.89-.57-1.57-2.31-2.39-3.89-1.81ZM260.43,159.88c-1.58.57-2.39,2.32-1.81,3.89.57,1.58,2.31,2.39,3.89,1.82,1.58-.58,2.39-2.32,1.81-3.89-.57-1.58-2.31-2.39-3.89-1.81ZM274.73,154.68c-1.57.57-2.39,2.32-1.82,3.89.57,1.58,2.32,2.39,3.89,1.81,1.58-.57,2.39-2.31,1.82-3.89-.57-1.58-2.31-2.39-3.89-1.81ZM289.05,149.47c-1.58.57-2.39,2.31-1.82,3.89.57,1.58,2.31,2.39,3.89,1.81,1.57-.57,2.39-2.31,1.82-3.89-.57-1.58-2.32-2.39-3.89-1.81ZM300.82,145.18c-1.57.57-2.39,2.32-1.82,3.89.57,1.58,2.32,2.39,3.89,1.81,1.58-.57,2.39-2.31,1.82-3.89-.57-1.58-2.31-2.39-3.89-1.81ZM327.97,135.3c-1.57.57-2.39,2.32-1.82,3.89.57,1.57,2.32,2.39,3.89,1.81,1.58-.58,2.39-2.32,1.81-3.89-.57-1.57-2.32-2.39-3.89-1.81ZM283.27,205.62c-1.57.58-2.39,2.32-1.82,3.89.57,1.58,2.32,2.39,3.89,1.81,1.58-.57,2.39-2.31,1.82-3.89-.57-1.58-2.32-2.39-3.89-1.81ZM297.94,200.28c-1.58.57-2.39,2.31-1.82,3.89.57,1.58,2.31,2.39,3.89,1.81,1.57-.57,2.39-2.31,1.81-3.89-.57-1.58-2.31-2.39-3.89-1.81ZM305.86,197.4c-1.58.57-2.39,2.32-1.81,3.89.57,1.58,2.31,2.39,3.89,1.82,1.58-.57,2.39-2.32,1.81-3.89-.57-1.58-2.31-2.39-3.89-1.81ZM319.96,192.27c-1.58.57-2.39,2.31-1.82,3.89.57,1.58,2.31,2.39,3.89,1.81,1.57-.57,2.39-2.31,1.81-3.89-.57-1.58-2.31-2.39-3.89-1.81ZM334.63,186.93c-1.57.57-2.39,2.31-1.82,3.89.57,1.58,2.32,2.39,3.89,1.82,1.58-.57,2.39-2.32,1.82-3.89-.57-1.58-2.32-2.39-3.89-1.81ZM342.55,184.05c-1.57.57-2.39,2.31-1.82,3.89.57,1.58,2.32,2.39,3.89,1.81,1.58-.57,2.39-2.31,1.82-3.89-.57-1.58-2.32-2.39-3.89-1.81ZM356.65,178.92c-1.57.57-2.39,2.31-1.81,3.89.57,1.58,2.32,2.39,3.89,1.81,1.58-.57,2.39-2.31,1.82-3.89-.57-1.58-2.31-2.39-3.89-1.81ZM270.95,176.73c-1.57.57-2.39,2.31-1.81,3.89.57,1.58,2.31,2.39,3.89,1.81,1.58-.57,2.39-2.31,1.81-3.89-.57-1.58-2.31-2.39-3.89-1.81ZM284.87,171.66c-1.57.57-2.39,2.31-1.81,3.89.57,1.58,2.31,2.39,3.89,1.81,1.58-.57,2.39-2.31,1.82-3.89-.57-1.58-2.31-2.39-3.89-1.81ZM293.7,168.45c-1.58.57-2.39,2.31-1.82,3.89.57,1.58,2.32,2.39,3.89,1.81,1.57-.57,2.39-2.31,1.82-3.89-.57-1.58-2.32-2.39-3.89-1.81ZM305.8,164.05c-1.58.57-2.39,2.31-1.81,3.89.57,1.58,2.31,2.39,3.89,1.81,1.58-.58,2.39-2.32,1.81-3.89-.57-1.57-2.31-2.39-3.89-1.81ZM319.72,158.98c-1.58.57-2.39,2.31-1.82,3.89.57,1.58,2.32,2.39,3.89,1.82,1.58-.57,2.39-2.32,1.81-3.89-.57-1.58-2.32-2.39-3.89-1.81ZM328.55,155.77c-1.57.57-2.39,2.31-1.81,3.89.57,1.58,2.31,2.39,3.89,1.81,1.58-.57,2.39-2.31,1.82-3.89-.57-1.58-2.31-2.39-3.89-1.81ZM340.64,151.37c-1.57.57-2.39,2.31-1.81,3.89.57,1.58,2.31,2.39,3.89,1.82,1.58-.57,2.39-2.32,1.82-3.89-.57-1.58-2.31-2.39-3.89-1.81ZM247.83,201.97c-1.57.57-2.39,2.31-1.81,3.89.57,1.58,2.32,2.39,3.89,1.82,1.58-.57,2.39-2.31,1.82-3.89-.57-1.58-2.31-2.39-3.89-1.81ZM269.43,194.11c-1.57.57-2.39,2.31-1.82,3.89.57,1.58,2.32,2.39,3.89,1.81,1.58-.57,2.39-2.31,1.82-3.89-.57-1.58-2.32-2.39-3.89-1.81ZM280.23,190.19c-1.57.57-2.39,2.31-1.81,3.89.57,1.58,2.32,2.39,3.89,1.81,1.58-.57,2.39-2.31,1.81-3.89-.57-1.58-2.31-2.39-3.89-1.81ZM301.83,182.33c-1.57.57-2.39,2.31-1.82,3.89.57,1.58,2.32,2.39,3.89,1.81,1.57-.57,2.39-2.31,1.81-3.89-.57-1.58-2.32-2.39-3.89-1.81ZM312.63,178.39c-1.58.58-2.39,2.32-1.82,3.89.57,1.58,2.32,2.39,3.89,1.81,1.57-.58,2.39-2.32,1.82-3.89-.57-1.58-2.32-2.39-3.89-1.82ZM334.22,170.54c-1.57.57-2.39,2.32-1.82,3.89.57,1.58,2.32,2.39,3.89,1.81,1.58-.57,2.39-2.31,1.82-3.89-.57-1.58-2.32-2.39-3.89-1.82ZM345.02,166.61c-1.58.57-2.39,2.32-1.82,3.89.57,1.58,2.31,2.39,3.89,1.82,1.58-.57,2.39-2.32,1.82-3.89-.57-1.58-2.31-2.39-3.89-1.81ZM385.69,238.14h-7.06c-1.41,0-2.39,1.85-1.3,3.8,1.08,1.95,3.48,5.65,4.13,6.74.65,1.09,3.16,1.42,4.56-.65,1.85-2.72,19.61-32.57,21.19-35.53,1.63-3.06-2.71-5.43-4.46-2.61-1.74,2.83-17.06,28.25-17.06,28.25Z"/>
      <g>
        <polyline class="f" points="260.11 159 259.02 156.04 287.58 145.64 288.98 149.49"/>
        <polyline class="f" points="277.01 161.34 278.09 164.31 249.54 174.7 248.13 170.85"/>
        <polyline class="f" points="330.78 141.78 331.86 144.74 304.76 154.6 303.36 150.75"/>
        <polyline class="f" points="301.07 144.47 299.99 141.5 327.09 131.64 328.31 135"/>
        <g>
          <path class="q" d="M268.84,148.54l-1.91-2.82,1.23,3.37c.07.19.08.34.03.46s-.14.21-.28.26c-.13.05-.26.04-.37-.02-.12-.06-.21-.19-.28-.37l-1.4-3.86c-.08-.21-.08-.38,0-.49.08-.11.22-.21.41-.27l.31-.11c.18-.07.32-.1.42-.1.09,0,.18.04.25.11.07.07.17.2.29.37l1.68,2.42-.26-2.93c-.02-.21-.03-.37-.02-.47,0-.1.05-.18.12-.24.07-.07.2-.13.38-.2l.31-.11c.19-.07.35-.09.49-.05.14.03.25.16.32.37l1.4,3.86c.07.19.08.34.03.46-.05.12-.14.21-.28.26-.13.05-.26.04-.37-.02-.12-.06-.21-.19-.28-.37l-1.23-3.37.35,3.39c.02.22.03.38.04.49,0,.11-.03.21-.08.32-.06.11-.16.19-.32.25-.12.04-.22.05-.32.03-.1-.02-.18-.06-.26-.12-.07-.06-.14-.14-.2-.22-.06-.08-.12-.17-.18-.27Z"/>
          <path class="q" d="M274.86,142.52l-2.23.81.44,1.2,2.05-.75c.15-.06.28-.06.38-.02.1.04.17.12.21.23.04.11.04.22-.01.31-.05.1-.15.17-.3.23l-2.05.75.51,1.39,2.3-.84c.16-.06.29-.06.39-.02.1.04.18.12.22.24.04.12.04.22-.02.32-.05.1-.16.18-.31.24l-2.69.98c-.22.08-.39.09-.52.03-.13-.06-.23-.2-.31-.41l-1.34-3.67c-.05-.14-.07-.27-.06-.37.01-.11.05-.19.13-.27.08-.07.18-.14.32-.19l2.61-.95c.16-.06.29-.07.39-.02.1.04.17.12.22.23.04.12.04.22-.02.32-.05.1-.15.18-.31.23Z"/>
          <path class="q" d="M279.38,140.93l-1.08.39,1.29,3.55c.07.21.08.37.03.5-.06.13-.15.22-.3.28-.15.05-.28.05-.41-.02-.13-.07-.23-.2-.3-.4l-1.29-3.55-1.08.39c-.17.06-.31.07-.42.03-.11-.04-.18-.13-.23-.25-.05-.13-.04-.24.02-.35.06-.1.17-.19.33-.24l3.14-1.14c.17-.06.31-.07.42-.03.11.04.19.13.23.25.04.12.04.24-.02.34-.06.11-.17.19-.34.25Z"/>
          <path class="q" d="M282.52,142.03l-.35.13.57,1.57c.08.21.09.38.03.51-.06.13-.16.22-.3.28-.16.06-.3.05-.42-.02-.12-.07-.22-.2-.29-.4l-1.37-3.76c-.08-.21-.09-.39-.03-.52.06-.13.2-.23.41-.31l1.61-.58c.22-.08.42-.14.58-.18.16-.04.32-.05.47-.04.18,0,.35.05.51.13.16.08.3.18.42.32.12.14.21.29.27.47.13.36.14.69,0,.98-.13.29-.38.56-.77.8.21.03.43.11.65.23.23.12.44.27.64.43.2.16.36.31.5.45.13.14.21.24.23.3.02.06.03.14,0,.21-.02.08-.06.15-.11.21-.06.06-.13.11-.23.14-.11.04-.21.05-.31.02-.09-.02-.18-.07-.27-.13-.08-.06-.2-.15-.35-.27l-.64-.52c-.23-.19-.43-.33-.58-.41s-.3-.13-.44-.14c-.13,0-.29.03-.46.09ZM282.34,139.77l-.91.33.49,1.34.89-.32c.24-.09.43-.18.58-.28.15-.1.25-.21.29-.34s.04-.28-.02-.45c-.05-.14-.13-.24-.23-.32-.11-.08-.23-.12-.37-.13-.13,0-.37.05-.71.18Z"/>
          <path class="q" d="M286.71,142.28l-1.4-3.85c-.07-.2-.08-.37-.03-.5.06-.13.16-.23.3-.28.15-.05.29-.05.42.02.13.07.23.2.3.4l1.4,3.85c.07.2.08.37.03.5-.06.13-.16.23-.31.28-.14.05-.28.04-.41-.02-.13-.07-.23-.2-.3-.4Z"/>
          <path class="q" d="M292.59,138.98c.06.15.08.34.07.55-.01.21-.07.43-.17.67-.1.23-.26.45-.48.65-.22.2-.49.36-.83.49-.26.09-.5.16-.73.18-.23.03-.45.02-.66-.02-.21-.04-.42-.12-.62-.24-.18-.11-.36-.24-.52-.39-.16-.16-.3-.33-.43-.53-.12-.2-.23-.42-.32-.66-.14-.39-.21-.77-.21-1.12,0-.35.07-.68.2-.98.13-.3.32-.56.57-.78.24-.22.53-.39.85-.51.39-.14.77-.19,1.14-.15.37.05.67.15.92.33.25.17.41.36.49.57.04.11.04.23-.01.34-.05.12-.13.19-.24.24-.13.05-.23.05-.32.01-.08-.04-.19-.11-.32-.23-.22-.19-.43-.32-.65-.38-.22-.06-.46-.04-.71.06-.41.15-.67.42-.8.82-.13.4-.09.88.12,1.45.14.38.31.68.5.89.2.21.42.35.66.4.24.05.49.03.75-.06.28-.1.5-.26.64-.47.15-.21.22-.47.22-.78,0-.14,0-.27.04-.37.03-.1.12-.18.25-.23.12-.04.24-.04.35.01.11.05.19.14.24.26Z"/>
        </g>
        <g>
          <path class="q" d="M303.78,135.5c-.1-.29-.18-.57-.22-.83-.04-.27-.06-.54-.04-.82.01-.28.05-.57.11-.87.04-.18.07-.32.11-.4.04-.09.08-.15.13-.19.05-.03.12-.07.2-.1.09-.03.15-.02.17.03,0,.02,0,.14-.02.36-.02.22-.03.45-.03.68,0,.24.02.52.07.85s.13.68.26,1.02c.12.34.28.65.45.94.18.28.35.52.51.72.16.19.32.37.47.51.15.15.22.23.23.24.02.05-.02.09-.11.13-.09.03-.16.05-.22.05-.06,0-.13-.02-.22-.07-.08-.05-.2-.12-.34-.24-.24-.2-.45-.39-.64-.59-.18-.2-.35-.41-.49-.64-.14-.23-.27-.49-.37-.79Z"/>
          <path class="q" d="M308.5,133.84l.38,1.04c.06.16.07.3.02.41-.04.11-.13.18-.25.23-.12.04-.23.04-.33-.02-.1-.06-.18-.16-.25-.33l-.45-1.24c-.07-.2-.13-.35-.19-.45-.05-.1-.12-.18-.21-.23-.08-.05-.19-.05-.32,0-.26.09-.39.24-.41.45-.02.21.04.47.15.8l.38,1.05c.06.16.07.3.02.41-.04.11-.13.19-.24.23-.12.04-.23.04-.34-.02-.1-.05-.18-.16-.24-.33l-.81-2.23c-.05-.15-.06-.27-.02-.37.04-.1.11-.17.23-.21.11-.04.21-.04.31.01.1.04.17.13.21.26l.03.08c.08-.21.18-.38.3-.52.13-.13.28-.23.47-.3.19-.07.38-.09.55-.07.17.03.33.1.48.23.07-.21.17-.38.29-.51.12-.13.27-.23.46-.3.21-.08.41-.1.6-.07.18.03.34.11.48.23.12.12.23.33.34.63l.55,1.52c.06.16.07.3.02.41-.05.11-.13.19-.25.23-.12.04-.23.04-.33-.02-.1-.06-.19-.16-.25-.33l-.48-1.31c-.06-.17-.12-.3-.17-.39-.05-.1-.12-.17-.21-.21-.09-.05-.19-.05-.32,0-.1.04-.19.1-.26.2-.07.09-.11.2-.13.32-.01.15.05.39.17.73Z"/>
          <path class="q" d="M313.67,131.96l.38,1.04c.06.16.07.3.02.41-.05.11-.13.19-.25.23-.12.04-.23.04-.33-.02-.1-.06-.18-.16-.25-.33l-.45-1.24c-.07-.2-.13-.35-.19-.45-.05-.1-.12-.18-.2-.23-.09-.05-.19-.05-.32,0-.26.09-.39.24-.41.45-.02.21.03.47.15.8l.38,1.05c.06.16.07.3.02.41-.04.11-.13.19-.25.23-.12.04-.23.04-.33-.02-.11-.05-.19-.16-.25-.33l-.81-2.23c-.05-.15-.06-.27-.02-.37.04-.1.12-.17.23-.21.1-.04.21-.04.3.01.1.04.17.13.22.26l.03.07c.08-.21.18-.38.3-.52.13-.13.28-.23.47-.3.2-.07.38-.09.55-.07.17.03.33.1.48.23.07-.21.17-.38.29-.51.12-.13.28-.23.46-.3.21-.08.41-.1.6-.07.19.03.34.11.48.23.12.12.23.33.34.63l.55,1.52c.06.16.07.3.02.41-.04.11-.13.19-.25.23-.12.04-.23.04-.33-.02-.11-.05-.19-.16-.25-.33l-.48-1.31c-.06-.17-.12-.3-.17-.39-.05-.1-.12-.17-.21-.21-.09-.05-.19-.05-.32,0-.1.04-.19.1-.26.2s-.11.2-.13.32c0,.15.05.39.17.73Z"/>
          <path class="q" d="M317.53,130.49c.15.42.24.83.26,1.23.02.4-.02.83-.11,1.28-.05.26-.1.42-.16.5-.05.08-.14.14-.27.19-.1.03-.15.03-.17-.03,0-.02,0-.12.02-.32.02-.2.03-.43.03-.69,0-.26-.02-.56-.07-.89-.05-.33-.14-.67-.26-1.02-.13-.35-.28-.66-.46-.95-.18-.29-.35-.53-.52-.73-.17-.2-.32-.37-.46-.5-.14-.14-.22-.22-.22-.23-.02-.05.02-.1.11-.13.13-.05.25-.06.34-.04.09.02.24.12.44.29.18.15.34.29.49.44.15.15.28.31.41.47.12.16.23.33.33.52.1.18.19.39.27.6Z"/>
        </g>
        <path class="j" d="M238.93,189.29c1.75-3.47,4.77-6.3,8.71-7.74,3.35-1.22,6.85-1.24,10.02-.27"/>
        <path class="j" d="M269.34,216.42c-1.75,3.47-4.77,6.3-8.71,7.74-3.35,1.22-6.85,1.24-10.02.27"/>
        <path class="j" d="M306.03,203.07c-1.75,3.47-4.77,6.3-8.71,7.73-3.35,1.22-6.85,1.24-10.02.27"/>
        <path class="j" d="M342.72,189.72c-1.75,3.47-4.77,6.3-8.71,7.74-3.35,1.22-6.85,1.24-10.02.27"/>
        <path class="j" d="M273.78,176.61c1.75-3.47,4.77-6.3,8.71-7.74,3.35-1.22,6.85-1.24,10.02-.27"/>
        <path class="j" d="M308.62,163.93c1.75-3.47,4.77-6.3,8.71-7.74,3.35-1.22,6.85-1.24,10.02-.27"/>
        <g>
          <path class="q" d="M348.51,142.46c.07.2.2.36.37.46.17.1.37.12.6.03.17-.06.3-.17.38-.34.08-.16.08-.34.01-.54-.05-.13-.11-.24-.18-.31-.07-.08-.15-.13-.23-.15-.08-.03-.18-.05-.29-.06s-.22-.02-.32-.02c-.05,0-.11-.03-.15-.08-.05-.05-.08-.11-.11-.18-.03-.09-.03-.18.02-.28.05-.1.13-.17.25-.22.12-.04.25-.05.4-.03.15.02.31.08.47.17.16.09.32.23.46.4.14.17.26.38.35.63.08.22.12.42.13.62,0,.2-.02.38-.09.56-.06.17-.15.32-.28.44-.12.12-.27.21-.44.27-.22.08-.43.1-.62.06-.19-.04-.4-.12-.62-.24-.03.21-.08.39-.16.55-.08.16-.18.3-.3.41-.12.11-.27.2-.44.26-.2.07-.41.1-.63.09-.22-.01-.43-.07-.63-.17-.21-.1-.39-.25-.55-.43-.16-.19-.29-.41-.39-.67-.1-.27-.14-.52-.12-.77.02-.25.08-.46.17-.65.1-.19.2-.34.33-.47.13-.13.24-.21.34-.24.13-.05.25-.04.36.01.11.05.18.14.23.27.02.06.03.13.01.2-.02.07-.05.12-.09.16-.27.23-.45.43-.55.62-.1.19-.11.4-.02.64.05.14.13.26.25.36.11.1.25.17.42.21.16.03.33.02.51-.04.26-.09.44-.24.53-.44s.1-.42,0-.67c-.02-.05-.05-.11-.09-.2-.04-.09-.07-.15-.08-.18-.04-.12-.05-.23-.01-.32.04-.09.11-.15.22-.19.11-.04.21-.03.3.03.09.06.17.16.23.32l.05.14Z"/>
          <path class="q" d="M343.27,145.83l-.57-1.58-1.15.2c.28.25.47.51.57.78.08.21.11.43.1.64s-.06.42-.15.61c-.09.19-.22.36-.38.51-.16.15-.36.27-.58.35-.32.12-.64.15-.96.1-.32-.05-.6-.18-.86-.39-.25-.22-.45-.5-.57-.86-.14-.4-.19-.75-.13-1.05.06-.3.16-.54.31-.71.15-.17.3-.28.44-.33.09-.03.18-.03.28.02.1.04.18.12.22.23.07.19.01.36-.17.53-.17.16-.28.34-.33.53-.05.19-.05.38.02.57.06.17.16.3.3.4.14.1.29.15.48.17.18.01.37-.02.57-.09.21-.08.38-.18.51-.31.12-.13.2-.27.23-.43.03-.15.01-.31-.04-.46-.07-.19-.14-.32-.22-.38-.08-.07-.2-.15-.37-.27-.17-.11-.28-.22-.31-.32-.04-.11-.04-.22.01-.33.05-.11.12-.19.22-.22.01,0,.09-.02.24-.05l1.7-.3c.2-.04.36-.03.48.02.12.05.21.17.28.37l.64,1.76c.12.35.06.57-.21.66-.12.04-.23.03-.33-.02-.1-.06-.18-.17-.24-.33Z"/>
        </g>
        <line class="i" x1="343.36" y1="140.47" x2="345.93" y2="147.54"/>
        <g>
          <path class="q" d="M362.75,188.31l.63,1.74c.06.17.08.32.04.44-.04.12-.12.2-.24.24-.11.04-.21.04-.32,0-.1-.04-.18-.14-.23-.29l-.89-2.45c-.06-.17-.06-.31,0-.44.06-.13.15-.21.27-.26.08-.03.2-.04.35-.03.15.01.28.04.38.08.41.18.77.36,1.08.51.31.16.51.28.62.35.19.13.38.24.55.31.17.07.34.12.5.13.16.01.31,0,.44-.05.14-.05.26-.13.34-.24.09-.11.14-.23.16-.37.02-.14,0-.28-.05-.42-.11-.29-.32-.47-.63-.55-.04,0-.15-.01-.31-.01-.17,0-.3-.02-.41-.05-.1-.04-.18-.12-.23-.24-.04-.11-.04-.22.01-.32.05-.1.13-.17.26-.22.15-.06.32-.08.52-.07.19,0,.38.06.56.14.18.09.36.22.52.4.16.18.29.41.39.69.13.34.18.65.16.93-.01.18-.06.35-.14.52-.08.16-.19.31-.33.43-.14.13-.29.22-.47.28-.28.1-.55.12-.83.07-.28-.06-.5-.13-.68-.23-.18-.1-.47-.26-.86-.5-.39-.23-.69-.39-.89-.46-.08-.03-.17-.06-.27-.08Z"/>
          <path class="q" d="M358.22,190.36c.07.2.2.36.37.46.17.1.37.12.6.03.17-.06.29-.17.38-.34.08-.16.08-.34.01-.54-.05-.13-.11-.24-.18-.31-.07-.07-.15-.12-.23-.15-.08-.03-.18-.05-.29-.06-.11-.01-.22-.02-.32-.02-.05,0-.1-.03-.15-.08-.05-.05-.08-.11-.11-.19-.03-.09-.03-.18.02-.28.05-.1.13-.17.25-.22.12-.04.25-.05.4-.03.15.02.31.08.48.17.16.09.32.23.46.4.14.17.26.38.35.63.08.22.12.42.13.62,0,.2-.02.38-.09.56-.06.17-.15.32-.28.44-.12.12-.27.21-.44.27-.22.08-.43.1-.62.06-.19-.04-.4-.12-.62-.24-.03.21-.08.39-.16.55-.08.16-.18.3-.3.41-.12.11-.27.2-.44.26-.2.07-.41.1-.63.09-.22-.01-.43-.07-.64-.17-.21-.1-.39-.25-.55-.43-.16-.19-.29-.41-.39-.67-.1-.27-.14-.52-.12-.77.02-.25.08-.46.17-.65.09-.19.2-.34.33-.47.13-.13.24-.21.34-.24.13-.05.25-.04.36.01.11.06.18.14.23.27.02.06.03.13.01.2-.02.07-.05.12-.09.16-.27.23-.45.43-.55.62-.1.19-.11.4-.02.64.05.14.13.26.25.36.11.1.25.17.42.21.16.03.33.02.51-.04.26-.09.44-.24.53-.43.1-.2.1-.42,0-.67-.02-.05-.05-.11-.09-.2-.04-.09-.07-.15-.08-.18-.04-.12-.05-.23-.01-.32.04-.09.11-.15.22-.19.11-.04.21-.03.3.03.09.06.17.16.23.32l.05.14Z"/>
        </g>
        <line class="i" x1="359.88" y1="185.88" x2="362.46" y2="192.95"/>
        <line class="i" x1="225.16" y1="212.21" x2="233.18" y2="209.29"/>
        <g>
          <path class="q" d="M234.96,206.22l3.03-1.1c-.64-.41-.99-.71-1.06-.9-.03-.09-.03-.19.02-.29.05-.1.12-.17.22-.2.11-.04.21-.04.29.02.08.05.19.15.34.3.23.22.44.39.64.5.2.11.41.2.63.26.22.06.35.1.41.13.05.02.1.09.14.19.04.12.03.23-.03.33-.06.1-.18.19-.34.24l-3.81,1.39c-.45.16-.73.09-.83-.21-.05-.14-.04-.26.02-.38.06-.11.18-.21.36-.27Z"/>
          <path class="q" d="M239.03,211.37c-.36.13-.69.23-.96.28-.28.05-.54.06-.8.01-.32-.06-.59-.18-.82-.36-.23-.19-.4-.43-.5-.72-.12-.34-.14-.68-.04-1.01.09-.34.28-.64.57-.89.16-.13.34-.26.56-.37.21-.11.45-.22.71-.31.34-.12.65-.21.93-.28.28-.06.53-.09.75-.09.37.02.68.12.94.31.26.19.45.46.58.8.08.23.12.45.12.66,0,.22-.05.42-.15.61-.09.19-.23.38-.4.55-.31.3-.79.57-1.46.82ZM238.77,210.43c.41-.15.73-.29.97-.44.24-.14.41-.3.5-.46.09-.16.1-.35.02-.55-.11-.29-.33-.44-.67-.45-.34,0-.81.1-1.43.32-.42.15-.75.3-1,.45-.25.14-.42.3-.52.47-.09.16-.11.35-.03.54.07.2.2.34.39.4.18.06.42.07.7.02.28-.05.64-.15,1.06-.31Z"/>
        </g>
        <line class="i" x1="245.24" y1="242.39" x2="251.03" y2="236.12"/>
        <path class="q" d="M254.66,233.28c-.24.03-.46.01-.67-.05-.21-.06-.39-.17-.56-.33-.16-.15-.29-.32-.37-.52-.08-.19-.12-.39-.12-.61,0-.21.05-.41.13-.62.08-.2.2-.39.36-.55.16-.18.35-.32.56-.42.21-.1.43-.16.65-.17.23-.01.45.03.67.11.22.08.43.21.62.39.22.21.39.43.48.68.1.24.14.5.12.76-.02.27-.11.55-.27.84-.15.29-.37.59-.64.89-.31.33-.61.6-.92.79-.3.19-.6.31-.89.37-.29.05-.56.04-.82-.04-.26-.08-.5-.23-.73-.44-.23-.21-.38-.43-.47-.67-.09-.24-.11-.46-.08-.67.03-.21.1-.37.21-.49.07-.07.15-.11.26-.12.11,0,.2.03.29.1.08.07.12.15.15.25.02.1,0,.21-.04.32-.06.14-.07.28-.04.43.03.14.1.27.21.37.1.09.21.15.35.18.13.03.28.03.43,0,.29-.07.67-.33,1.13-.78ZM255.33,232.43c.11-.12.19-.24.25-.37.06-.13.1-.26.1-.38.01-.13,0-.25-.05-.36-.04-.12-.11-.22-.21-.31-.16-.15-.37-.21-.62-.17-.25.04-.48.17-.69.4-.21.23-.32.47-.34.71-.01.24.07.45.25.61.11.1.24.17.39.2.15.04.3.03.47-.02.16-.05.31-.15.44-.29Z"/>
        <line class="i" x1="256.5" y1="251.01" x2="261.04" y2="243.78"/>
        <path class="q" d="M262.78,237.77c.12-.2.3-.35.52-.46.22-.11.47-.15.75-.12.28.03.56.13.84.3.24.15.43.31.57.49.14.17.24.35.29.54.05.18.06.36.03.54-.03.17-.09.34-.19.49-.12.2-.28.34-.48.43-.2.09-.43.12-.69.1.13.17.22.35.26.52.04.18.05.35.02.53-.03.18-.1.35-.21.52-.16.25-.36.44-.62.57-.25.13-.53.18-.84.15-.31-.03-.63-.15-.94-.35-.33-.21-.58-.45-.74-.71-.16-.26-.24-.54-.23-.82,0-.28.09-.54.25-.79.34-.54.82-.75,1.46-.63-.29-.45-.3-.88-.04-1.3ZM263.68,241.1c.1-.16.15-.31.16-.47,0-.15-.03-.3-.1-.44-.08-.13-.19-.25-.33-.34-.21-.13-.42-.17-.64-.12-.22.05-.41.2-.56.44-.1.16-.15.31-.16.47-.01.16.02.31.09.44.07.14.18.25.32.33.14.09.29.13.44.14.15,0,.3-.03.44-.11.14-.08.26-.2.36-.35ZM264.54,238.07c-.19-.12-.38-.16-.56-.11-.19.04-.34.16-.46.34-.11.17-.14.35-.09.54.05.18.16.34.35.46.1.06.19.1.28.11.1.02.19.02.28,0,.09-.02.17-.05.25-.11.07-.05.14-.13.2-.21.07-.12.11-.24.12-.37,0-.13-.02-.25-.08-.36-.06-.11-.15-.21-.28-.29Z"/>
        <line class="i" x1="265.09" y1="255.66" x2="268.67" y2="247.92"/>
        <path class="q" d="M270.75,240.75l2.14.99c.21.1.34.2.4.3.06.11.06.23,0,.38-.04.09-.15.18-.33.28-.18.1-.37.2-.6.32-.22.12-.47.27-.74.47-.27.2-.55.46-.85.79-.13.15-.23.27-.31.37-.07.1-.16.23-.27.4-.11.17-.19.29-.26.38-.15.2-.28.32-.4.37-.12.05-.25.04-.39-.03-.13-.06-.21-.15-.25-.28-.04-.13-.02-.28.07-.46.06-.14.18-.31.35-.52.17-.21.39-.45.68-.72.28-.27.6-.53.96-.79s.75-.49,1.18-.71l-1.72-.8c-.18-.08-.3-.18-.36-.28-.06-.11-.06-.23.01-.37.07-.15.16-.22.27-.22.11,0,.26.04.43.12Z"/>
        <line class="i" x1="276.53" y1="259.89" x2="278.84" y2="251.68"/>
        <path class="q" d="M279.33,246.64c.21-.14.41-.23.62-.27.21-.04.42-.03.65.04.22.06.4.16.56.29.16.13.29.29.38.48.09.19.15.39.17.62.02.22,0,.45-.07.67-.09.32-.25.59-.47.81-.22.22-.48.37-.79.44-.3.07-.62.06-.95-.03-.38-.11-.69-.29-.91-.56-.22-.26-.36-.6-.4-1.01-.04-.41,0-.87.16-1.4.12-.43.27-.8.46-1.12.18-.31.39-.56.62-.73.23-.18.48-.29.75-.34.27-.05.55-.03.86.06.29.08.53.21.72.39.19.17.32.36.38.56.07.2.08.38.03.53-.03.09-.09.17-.18.22-.09.06-.19.07-.3.04-.1-.03-.17-.08-.24-.17-.06-.08-.1-.18-.11-.3-.02-.15-.07-.28-.16-.4-.09-.12-.21-.19-.36-.24-.12-.03-.25-.03-.39,0-.14.03-.27.1-.38.2-.24.19-.45.59-.66,1.21ZM279.66,249.02c.23.06.44.02.65-.12.2-.15.35-.37.43-.68.06-.21.07-.39.04-.56s-.09-.31-.19-.42c-.1-.11-.22-.19-.37-.23-.14-.04-.29-.04-.44,0-.15.04-.28.12-.4.24-.12.12-.21.27-.26.47-.09.31-.08.58.02.84.1.25.27.41.51.48Z"/>
        <line class="i" x1="284.53" y1="261.69" x2="285.95" y2="253.28"/>
        <path class="q" d="M288.16,247l-1.66-.28-.39,1.1c.36-.12.68-.16.96-.11.22.04.43.12.61.23.18.12.33.26.45.43.12.17.21.37.26.58.05.22.06.44.02.68-.06.34-.18.63-.38.88-.2.25-.45.44-.77.55-.31.12-.66.14-1.03.08-.42-.07-.74-.21-.98-.4-.23-.2-.39-.41-.46-.62-.07-.22-.1-.4-.07-.55.02-.09.07-.17.16-.24.09-.07.19-.09.31-.07.19.03.32.17.38.41.06.22.16.41.29.55.14.14.31.23.5.26.18.03.34.01.49-.06.15-.07.28-.18.38-.33.1-.15.17-.33.2-.54.04-.23.03-.42-.02-.59-.05-.17-.14-.31-.26-.41-.12-.1-.26-.16-.42-.19-.2-.03-.35-.03-.44,0-.1.04-.23.1-.42.19-.18.09-.33.13-.43.12-.12-.02-.21-.08-.28-.18-.07-.1-.1-.2-.08-.3,0-.01.03-.09.08-.23l.58-1.63c.07-.19.15-.33.26-.41s.26-.1.46-.06l1.85.31c.36.06.52.23.47.51-.02.12-.08.21-.18.27-.1.06-.24.08-.41.05Z"/>
        <line class="i" x1="309.35" y1="261.83" x2="308.02" y2="253.4"/>
        <path class="q" d="M306.97,250.45l1.83-.29c.18-.03.33-.01.44.05.11.06.17.15.19.28.02.11,0,.22-.07.31-.06.09-.17.15-.32.17l-2.58.41c-.18.03-.32,0-.43-.08-.11-.08-.18-.19-.2-.32-.02-.08,0-.2.04-.35.04-.15.09-.27.15-.36.26-.37.5-.69.71-.96.21-.27.37-.45.46-.54.17-.17.31-.33.41-.48.11-.16.18-.31.22-.47.04-.15.05-.3.03-.44-.02-.15-.08-.28-.17-.38-.09-.11-.2-.18-.33-.23-.13-.05-.27-.06-.42-.04-.31.05-.52.22-.66.52-.02.04-.04.14-.07.31-.03.16-.07.29-.13.39-.06.09-.15.15-.28.17-.12.02-.22,0-.31-.07-.09-.06-.14-.16-.16-.3-.03-.16-.02-.33.03-.52.05-.19.13-.36.25-.53.12-.17.29-.31.49-.43.21-.12.46-.21.75-.25.36-.06.67-.05.94.03.18.05.34.13.48.24.14.11.26.24.36.41.1.16.16.33.19.52.05.29.02.56-.09.82-.11.26-.22.47-.35.63-.13.16-.35.41-.65.75-.3.34-.51.6-.62.78-.05.07-.09.16-.14.25Z"/>
        <line class="i" x1="224.91" y1="160.38" x2="232.95" y2="163.22"/>
        <path class="q" d="M236.2,165.61l1.74.62c.17.06.29.14.36.25.07.1.08.22.04.34-.04.11-.11.19-.21.24-.1.05-.22.05-.37,0l-2.46-.87c-.17-.06-.28-.15-.34-.28-.06-.13-.07-.25-.03-.38.03-.08.1-.18.21-.29.11-.11.21-.19.31-.24.41-.2.77-.37,1.08-.51.32-.13.54-.22.67-.25.23-.06.43-.14.59-.23.17-.09.31-.19.42-.3.11-.12.19-.24.24-.37.05-.14.06-.28.03-.42-.03-.14-.09-.26-.18-.36-.09-.1-.21-.18-.35-.23-.29-.1-.57-.06-.82.14-.04.03-.1.1-.21.23-.11.13-.21.23-.3.28-.09.06-.21.06-.33.02-.11-.04-.19-.11-.24-.21-.05-.1-.05-.21,0-.34.05-.15.15-.3.27-.44.13-.14.29-.26.47-.35.18-.09.4-.14.64-.14.24-.01.5.04.78.14.34.12.61.28.82.47.13.13.23.27.31.44.08.17.12.34.12.53,0,.19-.02.37-.08.54-.1.28-.26.5-.47.68-.22.18-.42.31-.61.38-.19.08-.5.19-.93.35-.43.16-.74.29-.92.39-.08.04-.15.1-.24.16Z"/>
        <line class="i" x1="228.65" y1="151.56" x2="236.28" y2="155.38"/>
        <g>
          <path class="q" d="M240.56,156.22c.19.1.39.12.59.08.2-.04.35-.17.46-.39.08-.16.09-.33.04-.5-.05-.17-.17-.31-.36-.4-.13-.06-.24-.1-.35-.11-.1,0-.19,0-.27.04-.08.03-.16.09-.25.16-.09.07-.17.14-.25.2-.04.03-.1.05-.17.05-.07,0-.14-.02-.21-.06-.08-.04-.14-.12-.18-.22-.04-.1-.03-.21.03-.33.05-.11.15-.21.27-.3.13-.09.28-.16.47-.2.18-.05.38-.05.61-.03.22.03.45.1.69.22.21.1.38.23.52.36.14.14.25.3.32.46.07.17.1.34.1.51,0,.17-.05.34-.13.5-.11.21-.24.37-.41.47-.17.11-.37.19-.62.24.12.17.21.34.26.51.06.17.08.34.07.5-.01.17-.06.33-.14.49-.1.19-.23.36-.4.5-.17.14-.36.24-.58.31-.22.07-.45.09-.7.06-.25-.02-.49-.1-.74-.22-.25-.13-.46-.29-.61-.48-.16-.19-.26-.39-.33-.59-.06-.2-.09-.39-.08-.57,0-.18.03-.32.08-.41.06-.12.15-.2.27-.24.12-.03.23-.02.35.04.06.03.11.08.14.14.04.06.05.12.05.18-.04.35-.03.63.03.83.06.21.2.37.42.48.13.07.27.1.43.09.15,0,.3-.05.45-.14.14-.09.26-.21.34-.38.12-.25.15-.48.09-.68-.07-.21-.22-.37-.46-.49-.04-.02-.11-.05-.21-.09-.09-.04-.15-.06-.18-.07-.11-.06-.19-.13-.23-.22-.04-.09-.03-.19.03-.29.05-.1.13-.16.24-.19.11-.02.24,0,.39.08l.13.06Z"/>
          <path class="q" d="M242.21,160.65c-.13-.07-.22-.16-.28-.3-.05-.13-.04-.27.04-.43.06-.13.16-.22.3-.27.14-.05.27-.04.41.03.13.07.22.17.27.31s.04.27-.03.4c-.08.15-.18.24-.32.28-.14.04-.27.03-.39-.04Z"/>
          <path class="q" d="M247.96,160.57c-.17.35-.34.63-.51.86-.17.23-.36.42-.57.56-.27.18-.55.28-.85.3-.3.02-.58-.04-.86-.18-.32-.16-.56-.4-.73-.7-.16-.31-.23-.66-.2-1.04.02-.21.07-.43.15-.65.08-.23.17-.47.3-.71.16-.32.32-.6.48-.84.16-.24.33-.43.49-.58.28-.24.57-.38.89-.42.32-.04.64.02.97.19.22.11.4.24.54.4.14.16.25.34.31.55.07.2.09.43.09.68-.01.43-.18.96-.5,1.6ZM247.12,160.08c.19-.39.33-.71.41-.98.08-.27.09-.49.05-.68-.05-.18-.17-.32-.36-.42-.28-.14-.54-.1-.79.13-.25.23-.52.63-.82,1.22-.2.4-.34.73-.42,1.01-.08.28-.1.51-.05.69.05.19.16.32.35.42.19.1.38.1.56.03.18-.08.35-.24.52-.47.17-.23.36-.55.56-.95Z"/>
          <path class="q" d="M249.29,159.76c.11-.21.26-.38.47-.51.21-.13.45-.19.73-.19.28,0,.57.07.87.22.25.13.45.27.61.43.16.16.27.33.34.51.07.18.1.36.09.53-.01.18-.06.34-.14.51-.1.21-.25.37-.44.47-.19.11-.42.16-.68.16.15.16.25.33.31.5.06.17.09.35.07.53-.02.18-.07.36-.16.54-.13.27-.32.48-.55.63-.24.15-.51.23-.82.22-.31,0-.64-.09-.97-.26-.35-.18-.62-.39-.81-.63-.19-.25-.29-.51-.31-.79-.02-.28.04-.55.17-.82.28-.57.75-.82,1.39-.77-.33-.42-.39-.85-.17-1.29ZM250.51,162.99c.08-.17.12-.33.12-.48,0-.16-.06-.3-.14-.42-.09-.13-.21-.23-.36-.3-.22-.11-.43-.13-.65-.06-.22.07-.39.23-.52.49-.08.17-.12.33-.11.49,0,.16.05.3.13.43.08.13.2.23.34.3.15.07.3.11.45.1.15-.01.3-.06.43-.16.13-.09.24-.22.32-.39ZM251.07,159.89c-.2-.1-.39-.12-.57-.05-.18.06-.32.19-.42.38-.09.18-.1.36-.04.54.07.18.2.32.39.42.1.05.2.08.29.09.1,0,.19,0,.28-.03.09-.03.16-.07.24-.13.07-.06.13-.14.17-.23.06-.12.09-.25.08-.38,0-.13-.05-.24-.12-.35-.07-.11-.17-.19-.31-.26Z"/>
        </g>
        <line class="i" x1="233.47" y1="143.27" x2="240.56" y2="148.01"/>
        <path class="q" d="M243.6,151.91l.37-.55-1.48-.99c-.19-.12-.3-.26-.34-.41-.04-.15,0-.29.09-.44.03-.04.06-.07.1-.1.04-.03.09-.06.14-.08.06-.02.11-.04.17-.07.06-.02.13-.04.21-.07l2.96-1.05c.19-.07.34-.11.45-.13.11-.02.21,0,.3.07.3.2.34.47.11.81l-1.52,2.28.13.09c.15.1.26.2.32.3.06.1.05.22-.04.36-.08.11-.17.17-.28.17-.11,0-.24-.05-.39-.15l-.18-.12-.36.55c-.1.15-.21.24-.33.27-.12.03-.23,0-.34-.07-.11-.07-.17-.17-.19-.29-.02-.12.02-.26.12-.4ZM243.14,149.86l1.27.85,1.14-1.71-2.41.87Z"/>
        <line class="i" x1="239.28" y1="135.65" x2="245.73" y2="141.23"/>
        <path class="q" d="M251.47,143.16l-1.27-1.1-.9.74c.37.08.66.22.88.4.17.15.3.32.4.51.09.19.15.4.16.61.01.21-.02.42-.09.63-.07.21-.18.41-.34.58-.22.26-.49.45-.78.56-.3.11-.62.14-.94.07-.33-.06-.63-.22-.92-.47-.32-.28-.53-.56-.63-.85-.1-.29-.12-.55-.07-.77.05-.22.12-.39.22-.51.06-.07.15-.11.26-.12.11-.01.21.02.3.1.15.13.19.31.11.55-.07.22-.08.43-.03.62.04.19.14.35.29.49.14.12.29.19.45.21s.33-.01.49-.09c.16-.08.32-.19.45-.35.15-.17.25-.34.29-.52.05-.17.04-.33,0-.48-.05-.15-.14-.28-.26-.38-.15-.13-.28-.21-.38-.23-.1-.02-.25-.04-.46-.05-.21-.01-.35-.06-.43-.13-.09-.08-.14-.17-.15-.3-.01-.12.02-.22.08-.3,0,0,.07-.06.19-.16l1.34-1.09c.16-.13.3-.2.43-.21.13-.01.27.05.42.18l1.42,1.22c.28.24.33.47.14.68-.08.09-.18.14-.3.14-.12,0-.24-.06-.37-.17Z"/>
        <line class="i" x1="245.99" y1="128.81" x2="251.7" y2="135.15"/>
        <path class="q" d="M254.68,137.26c.25,0,.47.03.67.11.19.08.37.21.53.38.15.17.26.35.32.55.07.2.09.4.07.61-.02.21-.08.41-.18.61-.1.2-.24.37-.41.53-.25.22-.52.37-.83.44-.3.07-.6.05-.9-.05-.3-.1-.56-.28-.79-.54-.27-.29-.42-.61-.47-.96-.05-.34.02-.7.2-1.07.18-.37.47-.73.88-1.1.33-.3.66-.53.98-.7.32-.17.63-.26.92-.29.29-.03.56.01.81.12.25.1.48.27.69.51.2.23.34.46.4.71.07.25.07.48.02.68-.05.2-.14.36-.26.47-.07.07-.16.1-.27.1-.11,0-.2-.05-.28-.13-.07-.07-.11-.16-.12-.27-.01-.11.01-.21.07-.31.07-.14.1-.28.08-.42-.02-.15-.07-.28-.18-.39-.08-.09-.19-.16-.33-.21-.14-.04-.28-.06-.43-.04-.3.04-.7.26-1.2.67ZM253.68,139.44c.16.18.36.26.61.25.25-.02.49-.13.73-.34.16-.14.27-.29.34-.45.07-.16.09-.31.06-.46-.02-.15-.09-.28-.19-.4-.1-.11-.22-.19-.37-.23-.15-.05-.3-.05-.47-.01-.16.04-.32.12-.47.26-.24.21-.38.45-.43.72-.05.27.01.49.18.68Z"/>
        <line class="i" x1="253.5" y1="122.86" x2="258.37" y2="129.86"/>
        <path class="q" d="M262.81,130.75l1.35,1.94c.13.19.19.34.19.47,0,.12-.07.23-.2.32-.08.06-.22.08-.43.08-.2,0-.43-.01-.68-.03-.25-.01-.54,0-.87.03-.33.03-.71.12-1.14.25-.19.06-.34.12-.45.17-.11.05-.26.12-.44.21-.18.09-.31.15-.41.2-.23.1-.4.13-.53.11-.13-.02-.24-.1-.32-.22-.08-.12-.11-.24-.08-.37.03-.13.13-.25.29-.36.12-.09.31-.18.56-.27.25-.1.56-.19.94-.28.38-.09.79-.15,1.23-.19.44-.04.89-.05,1.37-.02l-1.08-1.56c-.11-.16-.17-.31-.17-.43,0-.12.07-.23.19-.31.13-.09.25-.11.35-.05.1.06.2.16.31.32Z"/>
        <line class="i" x1="261.7" y1="117.89" x2="265.66" y2="125.45"/>
        <path class="q" d="M268.49,126.9c.21-.11.44-.16.68-.14.25.02.48.11.71.27.23.16.42.39.57.69.13.25.21.49.25.71.03.22.03.43-.02.61-.05.19-.13.35-.24.48-.11.14-.25.25-.41.33-.21.11-.42.15-.63.13-.22-.02-.43-.11-.64-.27.02.21.01.41-.04.58-.05.18-.13.33-.25.47-.12.14-.26.25-.44.35-.26.14-.54.2-.82.18-.28-.02-.55-.12-.8-.3-.25-.18-.47-.44-.64-.78-.18-.35-.28-.68-.28-.99,0-.31.06-.58.21-.82.15-.24.35-.42.62-.56.56-.29,1.09-.23,1.57.19-.02-.53.18-.92.62-1.14ZM267.59,130.24c.16-.09.29-.19.37-.32.09-.13.13-.27.13-.43,0-.16-.04-.31-.12-.46-.11-.21-.28-.35-.5-.43-.22-.07-.45-.04-.71.1-.16.09-.29.19-.38.33-.09.13-.14.28-.14.43,0,.15.03.3.1.45.08.15.18.26.31.34.13.08.28.12.44.12.16,0,.32-.04.49-.13ZM269.86,128.05c-.1-.2-.25-.32-.43-.38-.19-.06-.37-.03-.57.07-.18.09-.29.23-.35.42-.05.19-.03.38.07.57.05.1.11.18.19.24.07.07.15.11.24.14.08.03.18.04.27.03.09,0,.18-.04.28-.09.12-.06.22-.15.29-.26.07-.11.11-.23.11-.36s-.03-.26-.1-.39Z"/>
        <line class="i" x1="278" y1="111.59" x2="280.15" y2="119.85"/>
        <path class="q" d="M281.78,124.75c-.22-.1-.39-.24-.53-.4-.14-.16-.24-.36-.3-.58-.06-.22-.07-.43-.03-.63.04-.21.11-.4.23-.58.11-.17.26-.32.44-.45.18-.12.38-.22.6-.27.24-.06.47-.08.7-.05.23.03.45.1.64.21.2.11.36.26.51.45.14.19.25.41.31.67.08.3.09.57.05.83-.05.26-.15.49-.32.71-.16.21-.39.4-.68.56-.29.17-.63.3-1.02.4-.44.11-.84.17-1.19.17-.36,0-.67-.06-.95-.17-.27-.11-.49-.27-.67-.48-.17-.21-.3-.46-.38-.77-.08-.3-.09-.57-.03-.82.06-.25.15-.45.29-.61.14-.16.28-.26.44-.3.09-.03.19-.01.28.04.09.05.16.13.18.24.03.1.02.2-.01.29-.04.09-.1.18-.21.25-.12.09-.21.2-.26.34-.05.14-.06.28-.02.43.03.13.1.25.19.34.1.1.22.17.36.23.29.1.74.09,1.37-.04ZM282.82,124.4c.15-.04.29-.1.41-.18.12-.08.22-.17.3-.27s.13-.21.15-.33c.03-.12.03-.24,0-.37-.06-.22-.2-.38-.43-.48-.23-.1-.49-.11-.8-.03-.3.08-.53.22-.67.42-.14.2-.18.41-.12.64.04.14.11.27.22.38.11.11.24.19.41.23.16.04.34.04.53,0Z"/>
        <line class="i" x1="294.14" y1="109.18" x2="294.5" y2="117.7"/>
        <g>
          <path class="q" d="M295.01,122.85c-.19-.15-.34-.32-.44-.5-.1-.19-.16-.4-.17-.63-.01-.22.03-.43.1-.63.08-.2.19-.37.34-.52.15-.15.32-.26.53-.35.2-.08.42-.13.64-.14.24-.01.48.02.7.1.22.08.42.19.58.34.17.15.3.34.4.55.1.21.15.45.17.72.01.3-.03.58-.13.82-.1.24-.25.45-.46.62-.21.17-.46.31-.78.41-.32.1-.68.16-1.09.18-.45.02-.85-.01-1.2-.09-.35-.08-.65-.2-.89-.36-.24-.17-.43-.37-.55-.61-.12-.24-.19-.52-.21-.83-.01-.31.03-.58.14-.81.11-.23.24-.41.41-.54.17-.12.33-.19.49-.2.1,0,.19.03.27.1.08.07.12.16.13.27,0,.1-.02.2-.07.28-.05.09-.14.15-.25.2-.14.06-.25.15-.33.27-.08.12-.12.26-.11.41,0,.13.05.26.12.38.07.12.17.22.3.3.26.16.71.24,1.35.25ZM296.09,122.72c.16,0,.31-.03.44-.08s.25-.12.34-.2c.1-.08.17-.18.22-.29.05-.11.07-.23.07-.36,0-.22-.11-.41-.31-.56-.2-.15-.46-.22-.77-.2-.32.01-.56.1-.74.27-.18.16-.27.36-.26.6,0,.15.05.29.13.42.08.13.2.23.35.31.15.08.32.11.52.1Z"/>
          <path class="q" d="M292.7,125.45c0-.15.04-.28.13-.39.09-.11.22-.17.39-.18.14,0,.27.04.38.14.11.1.17.22.17.37,0,.15-.04.28-.14.39-.1.11-.22.17-.37.17-.17,0-.3-.04-.4-.14-.1-.1-.15-.22-.16-.37Z"/>
          <path class="q" d="M298.03,127.48l.1,2.36c0,.23-.02.39-.09.5-.07.1-.18.16-.34.17-.1,0-.23-.05-.4-.16-.17-.11-.35-.24-.56-.38-.2-.14-.45-.29-.75-.44-.3-.15-.66-.28-1.09-.4-.19-.05-.35-.08-.47-.1-.12-.02-.28-.04-.48-.06-.2-.02-.35-.04-.45-.06-.24-.04-.41-.1-.51-.19-.1-.09-.15-.21-.16-.36,0-.14.04-.26.14-.35.1-.09.24-.14.44-.15.15,0,.36.02.62.07.26.05.58.14.94.27.37.13.75.29,1.14.49.39.2.78.44,1.17.72l-.08-1.89c0-.2.02-.35.09-.45.07-.1.18-.15.33-.16.16,0,.27.04.32.14.05.1.08.25.09.43Z"/>
          <path class="q" d="M297.48,134.06l-.07-1.68-1.16-.15c.19.33.3.63.31.92,0,.23-.02.44-.1.64-.08.2-.19.38-.33.53-.14.16-.32.28-.52.37-.2.09-.42.14-.66.16-.34.01-.66-.05-.94-.19-.29-.14-.52-.35-.7-.64-.18-.28-.27-.61-.29-.99-.02-.42.05-.77.19-1.04.14-.27.32-.46.51-.58.2-.12.37-.18.52-.19.09,0,.18.03.27.1.09.07.13.17.14.28.01.2-.1.35-.32.46-.21.1-.36.24-.47.4-.11.17-.16.35-.15.55,0,.18.06.34.16.47.1.13.24.23.4.3.17.07.36.1.57.09.23,0,.42-.06.58-.14s.27-.2.35-.34c.07-.14.11-.29.1-.45,0-.2-.04-.35-.09-.43-.05-.08-.14-.21-.28-.37-.13-.16-.2-.29-.2-.4,0-.11.03-.22.11-.31.08-.09.17-.14.28-.15.01,0,.09,0,.24.03l1.71.23c.2.02.35.08.45.17.09.09.15.23.15.43l.08,1.87c.02.37-.12.56-.4.57-.12,0-.22-.04-.3-.12-.08-.09-.12-.22-.13-.39Z"/>
        </g>
        <line class="i" x1="311.24" y1="110.37" x2="309.7" y2="118.77"/>
        <g>
          <path class="q" d="M307.39,122.62l3.17.58c-.34-.67-.5-1.11-.46-1.32.02-.1.07-.18.16-.24.09-.06.19-.08.29-.06.12.02.2.07.24.16.04.08.09.23.14.43.08.31.18.56.29.75.12.2.25.38.41.54.16.16.26.27.29.32.03.05.04.13.02.23-.02.12-.09.21-.2.27-.11.06-.25.07-.42.04l-3.99-.73c-.47-.09-.67-.29-.61-.61.03-.14.1-.25.21-.32.11-.07.26-.09.45-.05Z"/>
          <path class="q" d="M308.29,129.12c-.38-.07-.7-.15-.97-.25-.27-.1-.5-.23-.7-.39-.25-.21-.42-.45-.52-.73-.1-.28-.12-.57-.07-.88.07-.35.22-.65.47-.89.25-.24.57-.4.95-.48.21-.04.43-.05.67-.04.24,0,.49.04.77.09.35.06.66.14.94.23.27.09.5.19.69.31.31.2.53.44.66.74.13.29.16.62.09.99-.04.24-.12.45-.24.63-.11.18-.26.33-.44.45-.17.12-.38.21-.62.27-.42.11-.97.09-1.68-.03ZM308.53,128.18c.43.08.78.12,1.06.12.28,0,.5-.05.66-.15.16-.1.26-.25.3-.46.06-.31-.06-.55-.35-.73-.29-.18-.75-.32-1.4-.44-.44-.08-.8-.12-1.09-.12-.29,0-.51.05-.68.14-.16.09-.27.25-.31.45-.04.21,0,.39.13.54.13.15.32.27.59.37.27.1.63.19,1.07.27Z"/>
        </g>
        <line class="i" x1="293.09" y1="262.65" x2="293.57" y2="254.13"/>
        <path class="q" d="M294.07,251.55l.04-.66-1.78-.1c-.22-.01-.39-.07-.5-.18-.1-.11-.15-.25-.14-.42,0-.05.01-.09.03-.13.02-.05.05-.09.08-.14.04-.05.07-.1.11-.14.04-.05.08-.1.14-.16l2.01-2.4c.13-.16.24-.27.32-.34.08-.07.18-.1.29-.1.36.02.53.23.5.65l-.15,2.74h.15c.18.02.33.05.43.11.11.06.15.17.15.33,0,.14-.06.23-.15.29-.09.06-.23.08-.41.07h-.22s-.04.65-.04.65c-.01.18-.06.32-.14.4-.08.08-.19.12-.33.12-.13,0-.24-.06-.31-.15-.08-.1-.11-.23-.1-.41ZM292.63,250.01l1.52.08.11-2.06-1.64,1.97Z"/>
        <line class="i" x1="302.04" y1="262.63" x2="301.52" y2="254.11"/>
        <path class="q" d="M300.94,248.81c.22-.01.4-.09.55-.23.15-.14.22-.32.2-.56-.01-.18-.08-.33-.22-.46-.13-.12-.31-.18-.52-.16-.15,0-.26.04-.35.08-.09.05-.16.1-.21.17-.05.07-.1.16-.14.26-.04.11-.08.21-.12.3-.02.05-.06.09-.12.12-.06.03-.13.05-.21.06-.09,0-.18-.03-.27-.1-.08-.07-.13-.17-.14-.3,0-.12.02-.25.09-.39.07-.14.17-.28.3-.41.14-.13.31-.24.51-.33.21-.09.44-.14.71-.15.23-.01.44,0,.63.05.19.05.36.13.51.24.15.11.26.24.34.39.08.15.13.32.14.5.02.24-.03.44-.12.62-.09.18-.23.35-.41.52.19.09.35.19.49.31.13.12.24.25.31.4.07.15.12.32.13.5.01.21-.02.42-.09.63-.07.21-.19.39-.35.56-.16.17-.35.3-.57.41-.23.1-.48.16-.75.18-.28.02-.54-.02-.77-.11-.23-.09-.42-.2-.58-.35-.15-.14-.27-.29-.36-.45-.08-.16-.13-.29-.14-.4,0-.14.03-.25.11-.34.08-.09.19-.14.32-.15.07,0,.13.01.2.05.06.04.1.08.13.13.14.32.29.56.44.71.15.15.35.22.61.2.14,0,.28-.05.42-.14.13-.08.24-.19.32-.34.08-.15.11-.31.1-.5-.02-.28-.1-.49-.26-.64-.16-.15-.38-.21-.64-.2-.05,0-.12.01-.22.03-.1.02-.16.02-.19.03-.13,0-.23-.02-.3-.08-.08-.06-.12-.15-.12-.26,0-.11.03-.21.11-.28.08-.07.21-.12.37-.13h.14Z"/>
        <path class="e" d="M369.56,159.67c14.51,39.87-6.05,83.96-45.93,98.47-39.87,14.51-83.96-6.05-98.47-45.93-14.51-39.87,6.05-83.96,45.93-98.47,39.87-14.51,83.96,6.05,98.47,45.93Z"/>
        <g>
          <path class="j" d="M250.01,166.91c.57,1.57-.24,3.32-1.81,3.89-1.58.57-3.32-.24-3.89-1.81-.57-1.58.24-3.32,1.82-3.89,1.57-.58,3.32.24,3.89,1.81Z"/>
          <path class="j" d="M239.99,191.22c.57,1.58-.24,3.32-1.82,3.89-1.57.57-3.32-.24-3.89-1.82-.57-1.58.24-3.32,1.82-3.89,1.58-.57,3.32.24,3.89,1.81Z"/>
          <path class="h" d="M262.52,199.86c.57,1.58-.24,3.32-1.82,3.89-1.57.57-3.32-.24-3.89-1.81-.57-1.58.24-3.32,1.81-3.89,1.58-.57,3.32.24,3.89,1.81Z"/>
          <path class="h" d="M294.92,188.07c.57,1.58-.24,3.32-1.82,3.89-1.57.58-3.32-.24-3.89-1.81-.57-1.57.24-3.32,1.82-3.89,1.58-.57,3.32.24,3.89,1.81Z"/>
          <path class="h" d="M327.31,176.28c.57,1.58-.24,3.32-1.81,3.89-1.58.57-3.32-.24-3.89-1.81-.57-1.58.24-3.32,1.81-3.89,1.58-.57,3.32.24,3.89,1.82Z"/>
          <path class="h" d="M359.71,164.49c.57,1.58-.24,3.32-1.82,3.89-1.57.57-3.32-.24-3.89-1.82-.57-1.58.24-3.32,1.82-3.89,1.58-.57,3.32.24,3.89,1.81Z"/>
          <path class="j" d="M253.91,186.16c.57,1.58-.24,3.32-1.82,3.89-1.57.57-3.32-.24-3.89-1.81-.57-1.58.24-3.32,1.82-3.89,1.58-.57,3.32.24,3.89,1.81Z"/>
          <path class="j" d="M262.74,182.95c.57,1.58-.24,3.32-1.81,3.89s-3.32-.24-3.89-1.81c-.57-1.58.24-3.32,1.81-3.89,1.58-.57,3.32.24,3.89,1.81Z"/>
          <path class="j" d="M250.47,220.78c.57,1.57-.24,3.32-1.82,3.89-1.57.57-3.32-.24-3.89-1.82-.57-1.58.24-3.32,1.81-3.89,1.58-.57,3.32.24,3.89,1.82Z"/>
          <path class="j" d="M265.14,215.44c.57,1.58-.24,3.32-1.82,3.89-1.57.57-3.32-.24-3.89-1.82-.57-1.58.24-3.32,1.81-3.89,1.58-.57,3.32.24,3.89,1.81Z"/>
          <path class="j" d="M273.06,212.56c.57,1.57-.24,3.32-1.81,3.89-1.58.57-3.32-.24-3.89-1.81-.57-1.58.24-3.32,1.81-3.89,1.57-.57,3.32.24,3.89,1.81Z"/>
          <path class="j" d="M264.32,161.7c.57,1.58-.24,3.32-1.81,3.89-1.58.57-3.32-.24-3.89-1.82-.57-1.57.24-3.32,1.81-3.89,1.58-.57,3.32.24,3.89,1.81Z"/>
          <path class="j" d="M278.63,156.49c.57,1.58-.24,3.32-1.82,3.89-1.57.57-3.32-.24-3.89-1.81-.57-1.58.24-3.32,1.82-3.89,1.58-.57,3.32.24,3.89,1.81Z"/>
          <path class="j" d="M292.94,151.28c.57,1.58-.24,3.32-1.82,3.89-1.58.57-3.32-.24-3.89-1.81-.57-1.58.24-3.32,1.82-3.89,1.57-.57,3.32.24,3.89,1.81Z"/>
          <path class="j" d="M304.71,147c.57,1.58-.24,3.32-1.82,3.89-1.57.57-3.32-.24-3.89-1.81-.57-1.57.24-3.32,1.82-3.89,1.58-.57,3.32.24,3.89,1.81Z"/>
          <path class="j" d="M331.87,137.12c.57,1.58-.24,3.32-1.81,3.89-1.57.57-3.32-.24-3.89-1.81-.57-1.58.24-3.32,1.82-3.89,1.58-.57,3.32.24,3.89,1.81Z"/>
          <path class="j" d="M287.16,207.43c.57,1.58-.24,3.32-1.82,3.89-1.57.58-3.32-.24-3.89-1.81-.57-1.57.24-3.31,1.82-3.89,1.58-.57,3.32.24,3.89,1.81Z"/>
          <path class="j" d="M301.83,202.1c.57,1.58-.24,3.32-1.81,3.89-1.58.57-3.32-.24-3.89-1.81-.57-1.58.24-3.32,1.82-3.89,1.57-.57,3.32.24,3.89,1.81Z"/>
          <path class="j" d="M309.75,199.21c.57,1.58-.24,3.32-1.81,3.89-1.58.57-3.32-.24-3.89-1.82-.57-1.58.24-3.32,1.81-3.89,1.58-.57,3.32.24,3.89,1.81Z"/>
          <path class="j" d="M323.85,194.08c.57,1.58-.24,3.32-1.81,3.89-1.58.57-3.32-.24-3.89-1.81-.57-1.58.24-3.32,1.82-3.89,1.57-.57,3.32.24,3.89,1.81Z"/>
          <path class="j" d="M338.52,188.74c.57,1.58-.24,3.32-1.82,3.89-1.57.57-3.32-.24-3.89-1.82-.57-1.58.24-3.32,1.82-3.89,1.58-.57,3.32.24,3.89,1.81Z"/>
          <path class="j" d="M346.44,185.86c.57,1.58-.24,3.32-1.82,3.89-1.57.57-3.32-.24-3.89-1.81-.57-1.58.24-3.32,1.82-3.89,1.58-.57,3.32.24,3.89,1.81Z"/>
          <path class="j" d="M360.54,180.73c.57,1.58-.24,3.32-1.82,3.89-1.57.57-3.32-.24-3.89-1.81-.57-1.58.24-3.32,1.81-3.89,1.58-.57,3.32.24,3.89,1.81Z"/>
          <path class="j" d="M274.84,178.54c.57,1.58-.24,3.32-1.81,3.89-1.58.57-3.32-.24-3.89-1.81-.57-1.58.24-3.32,1.81-3.89,1.58-.57,3.32.24,3.89,1.81Z"/>
          <path class="j" d="M288.76,173.48c.57,1.58-.24,3.32-1.82,3.89-1.57.57-3.32-.24-3.89-1.81-.57-1.58.24-3.32,1.81-3.89,1.58-.57,3.32.24,3.89,1.81Z"/>
          <path class="j" d="M297.59,170.26c.57,1.58-.24,3.32-1.82,3.89-1.58.57-3.32-.24-3.89-1.81-.57-1.58.24-3.32,1.82-3.89,1.57-.57,3.32.24,3.89,1.81Z"/>
          <path class="j" d="M309.69,165.86c.57,1.58-.24,3.32-1.81,3.89-1.57.57-3.32-.24-3.89-1.81-.57-1.58.24-3.32,1.81-3.89,1.58-.58,3.32.24,3.89,1.81Z"/>
          <path class="j" d="M323.61,160.8c.57,1.58-.24,3.32-1.81,3.89-1.58.57-3.32-.24-3.89-1.82-.57-1.58.24-3.32,1.82-3.89,1.57-.57,3.32.24,3.89,1.81Z"/>
          <path class="j" d="M332.44,157.58c.57,1.58-.24,3.32-1.82,3.89-1.57.57-3.32-.24-3.89-1.81-.57-1.58.24-3.32,1.81-3.89,1.58-.57,3.32.24,3.89,1.81Z"/>
          <path class="j" d="M344.54,153.18c.57,1.58-.24,3.32-1.82,3.89-1.57.57-3.32-.24-3.89-1.82-.57-1.58.24-3.32,1.81-3.89,1.58-.57,3.32.24,3.89,1.81Z"/>
          <path class="j" d="M251.72,203.79c.57,1.58-.24,3.32-1.82,3.89-1.57.57-3.32-.24-3.89-1.82-.57-1.57.24-3.32,1.81-3.89,1.58-.57,3.32.24,3.89,1.81Z"/>
          <path class="h" d="M273.32,195.93c.57,1.58-.24,3.32-1.82,3.89-1.57.57-3.32-.24-3.89-1.81-.57-1.58.24-3.32,1.82-3.89,1.58-.57,3.32.24,3.89,1.81Z"/>
          <path class="j" d="M284.12,192c.57,1.58-.24,3.32-1.81,3.89-1.58.57-3.32-.24-3.89-1.81-.57-1.58.24-3.32,1.81-3.89,1.58-.57,3.32.24,3.89,1.81Z"/>
          <path class="h" d="M305.72,184.14c.57,1.58-.24,3.32-1.81,3.89-1.58.57-3.32-.24-3.89-1.81-.57-1.58.24-3.32,1.82-3.89,1.57-.57,3.32.24,3.89,1.81Z"/>
          <path class="j" d="M316.52,180.21c.57,1.58-.24,3.32-1.82,3.89-1.58.57-3.32-.24-3.89-1.81-.57-1.58.24-3.32,1.82-3.89,1.57-.57,3.32.24,3.89,1.82Z"/>
          <path class="h" d="M338.11,172.35c.57,1.58-.24,3.32-1.82,3.89-1.57.57-3.32-.24-3.89-1.81-.57-1.58.24-3.32,1.82-3.89,1.58-.57,3.32.24,3.89,1.82Z"/>
          <path class="j" d="M348.91,168.42c.57,1.58-.24,3.32-1.82,3.89-1.58.57-3.32-.24-3.89-1.82-.57-1.57.24-3.32,1.82-3.89,1.58-.57,3.32.24,3.89,1.81Z"/>
        </g>
      </g>
      <g>
        <line class="e" x1="297.36" y1="262.77" x2="297.36" y2="271.88"/>
        <polyline class="e" points="358.99 139.97 369.52 132.02 391.81 132.02 459.73 290.66 162.15 290.66 162.15 132.02 227.47 132.02 236.26 138.95"/>
        <g>
          <path class="j" d="M221.72,141.44c0,1.92-1.56,3.48-3.48,3.48s-3.48-1.56-3.48-3.48,1.56-3.48,3.48-3.48,3.48,1.56,3.48,3.48Z"/>
          <path class="j" d="M215.02,154.14c-1.92,0-3.48-1.56-3.48-3.48s1.56-3.48,3.48-3.48,3.48,1.56,3.48,3.48-1.56,3.48-3.48,3.48Z"/>
          <path class="j" d="M211.8,163.36c-1.92,0-3.48-1.56-3.48-3.48s1.56-3.48,3.48-3.48,3.48,1.56,3.48,3.48-1.56,3.48-3.48,3.48Z"/>
          <path class="j" d="M208.59,172.58c-1.92,0-3.48-1.56-3.48-3.48s1.56-3.48,3.48-3.48,3.48,1.56,3.48,3.48-1.56,3.48-3.48,3.48Z"/>
          <path class="j" d="M205.37,181.8c-1.92,0-3.48-1.56-3.48-3.48s1.56-3.48,3.48-3.48,3.48,1.56,3.48,3.48-1.56,3.48-3.48,3.48Z"/>
          <path class="j" d="M202.15,191.02c-1.92,0-3.48-1.56-3.48-3.48s1.56-3.48,3.48-3.48,3.48,1.56,3.48,3.48-1.56,3.48-3.48,3.48Z"/>
          <path class="j" d="M198.93,200.24c-1.92,0-3.48-1.56-3.48-3.48s1.56-3.48,3.48-3.48,3.48,1.56,3.48,3.48-1.56,3.48-3.48,3.48Z"/>
          <path class="j" d="M195.72,209.46c-1.92,0-3.48-1.56-3.48-3.48s1.56-3.48,3.48-3.48,3.48,1.56,3.48,3.48-1.56,3.48-3.48,3.48Z"/>
          <path class="j" d="M192.5,218.68c-1.92,0-3.48-1.56-3.48-3.48s1.56-3.48,3.48-3.48,3.48,1.56,3.48,3.48-1.56,3.48-3.48,3.48Z"/>
          <path class="j" d="M189.28,227.9c-1.92,0-3.48-1.56-3.48-3.48s1.56-3.48,3.48-3.48,3.48,1.56,3.48,3.48-1.56,3.48-3.48,3.48Z"/>
          <path class="j" d="M186.07,237.12c-1.92,0-3.48-1.56-3.48-3.48s1.56-3.48,3.48-3.48,3.48,1.56,3.48,3.48-1.56,3.48-3.48,3.48Z"/>
          <path class="j" d="M182.85,246.34c-1.92,0-3.48-1.56-3.48-3.48s1.56-3.48,3.48-3.48,3.48,1.56,3.48,3.48-1.56,3.48-3.48,3.48Z"/>
          <path class="j" d="M179.63,255.56c-1.92,0-3.48-1.56-3.48-3.48s1.56-3.48,3.48-3.48,3.48,1.56,3.48,3.48-1.56,3.48-3.48,3.48Z"/>
          <path class="j" d="M176.41,264.78c-1.92,0-3.48-1.56-3.48-3.48s1.56-3.48,3.48-3.48,3.48,1.56,3.48,3.48-1.56,3.48-3.48,3.48Z"/>
          <path class="j" d="M173.2,274c-1.92,0-3.48-1.56-3.48-3.48s1.56-3.48,3.48-3.48,3.48,1.56,3.48,3.48-1.56,3.48-3.48,3.48Z"/>
          <path class="j" d="M173.46,279.74c0,1.92-1.56,3.48-3.48,3.48s-3.48-1.56-3.48-3.48,1.56-3.48,3.48-3.48,3.48,1.56,3.48,3.48Z"/>
        </g>
        <path class="j" d="M385.69,238.14h-7.06c-1.41,0-2.39,1.85-1.3,3.8,1.08,1.95,3.48,5.65,4.13,6.74.65,1.09,3.16,1.42,4.56-.65,1.85-2.72,19.61-32.57,21.19-35.53,1.63-3.06-2.71-5.43-4.46-2.61-1.74,2.83-17.06,28.25-17.06,28.25Z"/>
      </g>
    </g>
  </g>
  <g id="c" data-name="pencil">
    <g>
      <polygon class="u" points="389.1 120.63 399.25 130.77 369.81 151.29 389.1 120.63"/>
      <path class="m" d="M377.2,146.15l-7.39,5.14,3.86-6.1c1.72-3.2,4.91.18,3.53.97Z"/>
      <path class="n" d="M389.46,123.28c-.56-1.48-.42-2.61-.42-2.61l95.34-95.34,3.52,3.52-96.46,96.46s-1.52-.82-1.98-2.04Z"/>
      <path class="v" d="M392.39,128.65c1.07,1.07,3.4,1.02,3.4,1.02l96.46-96.46-4.35-4.35-96.46,96.46s-.17,2.22.95,3.34Z"/>
      <path class="l" d="M397.35,131.39c-1.17.03-1.56-1.72-1.56-1.72l96.46-96.46,2.28,2.28-95.33,95.34s-.65.54-1.84.57Z"/>
      <rect class="p" x="485.73" y="23.61" width="2.79" height="4.98" transform="translate(124.25 352.13) rotate(-45.01)"/>
      <rect class="t" x="489.67" y="26.97" width="2.79" height="6.16" transform="translate(122.61 356.06) rotate(-45)"/>
      <rect class="o" x="492.98" y="31.75" width="2.79" height="3.22" transform="translate(121.16 359.3) rotate(-44.99)"/>
      <rect class="r" x="484.79" y="14.61" width="22.67" height="4.98" transform="translate(133.25 355.86) rotate(-45.01)"/>
      <rect class="k" x="488.73" y="17.96" width="22.67" height="6.16" transform="translate(131.61 359.79) rotate(-45)"/>
      <rect class="m" x="492.04" y="22.75" width="22.67" height="3.22" transform="translate(130.16 363.03) rotate(-44.99)"/>
      <path class="m" d="M512.54,17.48l-10.16-10.16c2.58-2.58,12.77,7.55,10.16,10.16Z"/>
      <path class="m" d="M503.49,6.91c3.57,0,11.36,8.25,9.04,10.57l-113.29,113.29-29.44,20.52,19.29-30.66L502.38,7.33c.29-.29.67-.42,1.12-.42M503.5,4.32h0c-1.16,0-2.18.41-2.95,1.18l-113.28,113.3-.21.21-.15.25-19.29,30.66-6.8,10.81,10.48-7.3,29.44-20.52.19-.13.16-.16,113.29-113.29c.76-.76,1.86-2.49.64-5.44-1.56-3.78-7.34-9.56-11.51-9.56h0Z"/>
    </g>
  </g>
</svg>