<?xml version="1.0" encoding="UTF-8"?>
<svg id="a" data-name="drafting-table" xmlns="http://www.w3.org/2000/svg" viewBox="0 0 600 400">
  <defs>
    <style>
      .b {
        fill: #010101;
      }

      .c, .d, .e, .f {
        fill: #fff;
      }

      .c, .d, .g {
        opacity: .5;
      }

      .c, .h, .f {
        stroke: #000;
      }

      .c, .h, .f, .i {
        stroke-width: 1.34px;
      }

      .c, .f {
        stroke-linejoin: round;
      }

      .c, .f, .i {
        stroke-linecap: round;
      }

      .e {
        opacity: .7;
      }

      .h {
        stroke-miterlimit: 10;
      }

      .h, .i {
        fill: none;
      }

      .j {
        fill: #ecf4f7;
      }

      .i {
        stroke: gray;
      }

      .k {
        fill: #add8a5;
      }
    </style>
  </defs>
  <rect class="k" x="14.37" y="1.9" width="571" height="389.2"/>
  <rect class="h" x="33.45" y="18.12" width="532.85" height="372.99"/>
  <rect class="j" x="172.41" y="52.9" width="238.77" height="288.06"/>
  <g class="g">
    <line class="i" x1="198.01" y1="67.62" x2="383.01" y2="67.62"/>
    <line class="i" x1="198.65" y1="324.32" x2="383.65" y2="324.32"/>
    <line class="i" x1="196.09" y1="152.76" x2="386.21" y2="152.76"/>
    <line class="i" x1="199.31" y1="157.88" x2="386.85" y2="157.88"/>
    <line class="i" x1="194.21" y1="241.74" x2="384.32" y2="241.74"/>
    <line class="i" x1="190.33" y1="246.86" x2="380.45" y2="246.86"/>
    <line class="i" x1="206.33" y1="61.22" x2="206.33" y2="332"/>
    <line class="i" x1="374.69" y1="59.3" x2="374.69" y2="329.44"/>
    <line class="i" x1="282.51" y1="329.45" x2="282.51" y2="155.33"/>
    <line class="i" x1="288.27" y1="328.81" x2="288.27" y2="154.69"/>
  </g>
  <g>
    <polyline class="c" points="214.83 256.82 216.66 255.44 220.52 255.44 232.3 282.94 180.71 282.94 180.71 255.44 192.04 255.44 193.56 256.64"/>
    <path class="c" d="M216.67,260.23c2.52,6.91-1.05,14.56-7.96,17.07-6.91,2.52-14.55-1.05-17.07-7.96-2.52-6.91,1.05-14.55,7.96-17.07,6.91-2.52,14.55,1.05,17.07,7.96Z"/>
    <polyline class="f" points="214.83 256.82 216.66 255.44 220.52 255.44 232.3 282.94 180.71 282.94 180.71 255.44 192.04 255.44 193.56 256.64"/>
    <path class="f" d="M216.67,260.23c2.52,6.91-1.05,14.56-7.96,17.07-6.91,2.52-14.55-1.05-17.07-7.96-2.52-6.91,1.05-14.55,7.96-17.07,6.91-2.52,14.55,1.05,17.07,7.96Z"/>
  </g>
  <g>
    <polygon class="e" points="167.94 87.35 158.26 78.31 198.06 38.51 207.74 47.54 167.94 87.35"/>
    <polygon class="e" points="417.43 87.35 427.11 78.31 387.31 38.51 377.63 47.54 417.43 87.35"/>
    <polygon class="e" points="167.94 304.6 158.26 313.65 198.06 353.45 207.74 344.41 167.94 304.6"/>
    <polygon class="e" points="417.43 304.6 427.11 313.65 387.31 353.45 377.63 344.41 417.43 304.6"/>
  </g>
  <rect x="26.78" y="386.84" width="12.8" height="9.39"/>
  <rect x="558.72" y="386.84" width="12.8" height="9.39"/>
  <path class="b" d="M45.37,20.7c0,4.84-3.92,8.76-8.76,8.76s-8.75-3.92-8.75-8.76,3.92-8.76,8.75-8.76,8.76,3.92,8.76,8.76Z"/>
  <path class="b" d="M570.86,20.7c0,4.84-3.92,8.76-8.76,8.76s-8.75-3.92-8.75-8.76,3.92-8.76,8.75-8.76,8.76,3.92,8.76,8.76Z"/>
  <g>
    <rect class="d" x="26.77" y="283.56" width="546.2" height="42.67"/>
    <rect x="26.77" y="290.69" width="546.2" height="28.41"/>
  </g>
</svg>