<?xml version="1.0" encoding="UTF-8"?>
<svg id="a" data-name="masonite" xmlns="http://www.w3.org/2000/svg" viewBox="0 0 600 400">
  <defs>
    <style>
      .b, .c, .d {
        fill: #fff;
      }

      .b, .e {
        opacity: .5;
      }

      .b, .d {
        stroke: #000;
        stroke-linejoin: round;
      }

      .b, .d, .f {
        stroke-linecap: round;
        stroke-width: 1.32px;
      }

      .g {
        fill: #f3703a;
      }

      .g, .c {
        opacity: .7;
      }

      .h {
        fill: #ecf4f7;
      }

      .i {
        fill: #f1cb7c;
      }

      .j {
        fill: #bd9449;
      }

      .f {
        fill: none;
        stroke: gray;
      }
    </style>
  </defs>
  <path class="j" d="M525.69,371.31c0,13.19-10.69,23.88-23.88,23.88H106.56c-13.19,0-23.88-10.69-23.88-23.88V28.3c0-13.19,10.69-23.88,23.88-23.88h395.25c13.19,0,23.88,10.69,23.88,23.88v343.01ZM335.36,46.81c6.96,0,12.6-5.64,12.6-12.6s-5.64-12.6-12.6-12.6h-63.02c-6.96,0-12.6,5.64-12.6,12.6s5.64,12.6,12.6,12.6h63.02Z"/>
  <rect class="h" x="185.85" y="69.69" width="239.46" height="288.9"/>
  <g class="e">
    <line class="f" x1="211.53" y1="84.45" x2="397.06" y2="84.45"/>
    <line class="f" x1="212.17" y1="341.89" x2="397.7" y2="341.89"/>
    <line class="f" x1="209.6" y1="169.84" x2="400.27" y2="169.84"/>
    <line class="f" x1="212.83" y1="174.98" x2="400.91" y2="174.98"/>
    <line class="f" x1="207.71" y1="259.08" x2="398.38" y2="259.08"/>
    <line class="f" x1="203.82" y1="264.21" x2="394.49" y2="264.21"/>
    <line class="f" x1="219.87" y1="78.03" x2="219.87" y2="349.6"/>
    <line class="f" x1="388.72" y1="76.11" x2="388.72" y2="347.03"/>
    <line class="f" x1="296.27" y1="347.04" x2="296.27" y2="172.42"/>
    <line class="f" x1="302.05" y1="346.4" x2="302.05" y2="171.78"/>
  </g>
  <g>
    <polyline class="b" points="228.4 225.88 230.23 224.5 234.1 224.5 245.91 252.08 194.18 252.08 194.18 224.5 205.53 224.5 207.06 225.71"/>
    <path class="b" d="M230.23,229.31c2.52,6.93-1.05,14.6-7.99,17.12-6.93,2.53-14.6-1.05-17.12-7.98-2.52-6.93,1.05-14.6,7.98-17.12,6.93-2.52,14.6,1.05,17.12,7.98Z"/>
    <polyline class="d" points="228.4 225.88 230.23 224.5 234.1 224.5 245.91 252.08 194.18 252.08 194.18 224.5 205.53 224.5 207.06 225.71"/>
    <path class="d" d="M230.23,229.31c2.52,6.93-1.05,14.6-7.99,17.12-6.93,2.53-14.6-1.05-17.12-7.98-2.52-6.93,1.05-14.6,7.98-17.12,6.93-2.52,14.6,1.05,17.12,7.98Z"/>
  </g>
  <path class="g" d="M450.35,252.48h-77.49l77.49-134.2v134.2ZM432.98,183.6l-29.87,51.4h29.87v-51.4Z"/>
  <g>
    <polygon class="c" points="181.37 104.23 171.66 95.17 211.58 55.25 221.29 64.32 181.37 104.23"/>
    <polygon class="c" points="431.58 104.23 441.3 95.17 401.37 55.25 391.66 64.32 431.58 104.23"/>
    <polygon class="c" points="181.37 322.12 171.66 331.19 211.58 371.11 221.29 362.04 181.37 322.12"/>
    <polygon class="c" points="431.58 322.12 441.3 331.19 401.37 371.11 391.66 362.04 431.58 322.12"/>
  </g>
  <g>
    <path d="M82.8,188.75s-16.42,4.39-16.42,12.01c0,5.54.14,17.67-3.56,20.78-3.69,3.11-15.05,7.85-15.05,20.32v53.8c0,12.47,11.35,17.2,15.05,20.32,3.69,3.12,3.56,15.24,3.56,20.78,0,7.62,16.42,12.01,16.42,12.01v-160.02Z"/>
    <rect class="i" x="53.15" y="253.03" width="439.53" height="31.48"/>
  </g>
</svg>