<?xml version="1.0" encoding="UTF-8"?>
<svg id="a" data-name="drawing board" xmlns="http://www.w3.org/2000/svg" viewBox="0 0 600 400">
  <defs>
    <style>
      .b, .c, .d {
        fill: #fff;
      }

      .b, .e {
        opacity: .5;
      }

      .b, .d {
        stroke: #000;
        stroke-linejoin: round;
      }

      .b, .d, .f {
        stroke-linecap: round;
        stroke-width: 1.32px;
      }

      .g {
        fill: #f3703a;
      }

      .g, .c {
        opacity: .7;
      }

      .h {
        fill: #ffe3a6;
      }

      .i {
        fill: #b1b0b1;
      }

      .j {
        fill: #ecf4f7;
      }

      .k {
        fill: #f1cb7c;
      }

      .f {
        fill: none;
        stroke: gray;
      }
    </style>
  </defs>
  <g>
    <rect class="h" x="135.01" y="-23.44" width="337.93" height="439.31" transform="translate(107.76 500.19) rotate(-90)"/>
    <rect class="i" x="-86.88" y="193.99" width="337.93" height="4.46" transform="translate(-114.13 278.31) rotate(-90)"/>
    <rect class="i" x="357.1" y="193.99" width="337.93" height="4.46" transform="translate(329.85 722.29) rotate(-90)"/>
  </g>
  <rect class="j" x="189.67" y="50.42" width="239.46" height="288.9"/>
  <g class="e">
    <line class="f" x1="215.35" y1="65.18" x2="400.88" y2="65.18"/>
    <line class="f" x1="215.99" y1="322.62" x2="401.52" y2="322.62"/>
    <line class="f" x1="213.42" y1="150.57" x2="404.09" y2="150.57"/>
    <line class="f" x1="216.65" y1="155.7" x2="404.73" y2="155.7"/>
    <line class="f" x1="211.53" y1="239.8" x2="402.2" y2="239.8"/>
    <line class="f" x1="207.64" y1="244.94" x2="398.31" y2="244.94"/>
    <line class="f" x1="223.69" y1="58.76" x2="223.69" y2="330.32"/>
    <line class="f" x1="392.53" y1="56.84" x2="392.53" y2="327.76"/>
    <line class="f" x1="300.09" y1="327.77" x2="300.09" y2="153.14"/>
    <line class="f" x1="305.87" y1="327.12" x2="305.87" y2="152.5"/>
  </g>
  <g>
    <polyline class="b" points="232.21 206.61 234.05 205.23 237.92 205.23 249.73 232.81 197.99 232.81 197.99 205.23 209.35 205.23 210.88 206.43"/>
    <path class="b" d="M234.05,210.03c2.52,6.93-1.05,14.6-7.99,17.12-6.93,2.53-14.6-1.05-17.12-7.98-2.52-6.93,1.05-14.6,7.98-17.12,6.93-2.52,14.6,1.05,17.12,7.98Z"/>
    <polyline class="d" points="232.21 206.61 234.05 205.23 237.92 205.23 249.73 232.81 197.99 232.81 197.99 205.23 209.35 205.23 210.88 206.43"/>
    <path class="d" d="M234.05,210.03c2.52,6.93-1.05,14.6-7.99,17.12-6.93,2.53-14.6-1.05-17.12-7.98-2.52-6.93,1.05-14.6,7.98-17.12,6.93-2.52,14.6,1.05,17.12,7.98Z"/>
  </g>
  <path class="g" d="M454.17,233.2h-77.49l77.49-134.2v134.2ZM436.8,164.33l-29.87,51.4h29.87v-51.4Z"/>
  <g>
    <polygon class="c" points="185.19 84.96 175.47 75.9 215.39 35.98 225.1 45.04 185.19 84.96"/>
    <polygon class="c" points="435.4 84.96 445.12 75.9 405.19 35.98 395.48 45.04 435.4 84.96"/>
    <polygon class="c" points="185.19 302.85 175.47 311.92 215.39 351.83 225.1 342.77 185.19 302.85"/>
    <polygon class="c" points="435.4 302.85 445.12 311.92 405.19 351.83 395.48 342.77 435.4 302.85"/>
  </g>
  <g>
    <path d="M79.74,169.48s-16.42,4.39-16.42,12.01c0,5.54.14,17.67-3.56,20.78-3.69,3.11-15.05,7.85-15.05,20.32v53.8c0,12.47,11.35,17.2,15.05,20.32,3.69,3.12,3.56,15.24,3.56,20.78,0,7.62,16.42,12.01,16.42,12.01v-160.02Z"/>
    <rect class="k" x="50.08" y="233.75" width="439.53" height="31.48"/>
  </g>
</svg>