<?xml version="1.0" encoding="UTF-8"?>
<svg id="b" data-name="ames wheel" xmlns="http://www.w3.org/2000/svg" viewBox="0 0 599.24 370">
  <defs>
    <style>
      .c {
        fill: #bcbec0;
      }

      .d {
        stroke-width: 2.03px;
      }

      .d, .e, .f {
        fill: none;
      }

      .d, .e, .f, .g {
        stroke: #bcbec0;
        stroke-linecap: round;
        stroke-linejoin: round;
      }

      .e, .g {
        stroke-width: 4.07px;
      }

      .f {
        stroke-width: 3.44px;
      }

      .g {
        fill: rgba(255, 255, 255, .8);
      }
    </style>
  </defs>
  <g>
    <path class="g" d="M457.57,51.88h-43.69l-20.64,15.58h-.17c5.32,7.14,10.11,14.82,14.22,23.07,37.02,74.47,6.66,164.86-67.82,201.87-74.47,37.02-164.85,6.65-201.87-67.82-26.53-53.37-18.45-114.9,15.67-159.12h-.57s-17.24-13.59-17.24-13.59H7.42v310.94h583.26L457.57,51.88ZM117.35,63.51c3.77,0,6.82,3.06,6.82,6.82s-3.06,6.83-6.82,6.83-6.83-3.06-6.83-6.83,3.05-6.82,6.83-6.82ZM22.77,348.23c-3.77,0-6.82-3.06-6.82-6.83s3.06-6.82,6.82-6.82,6.83,3.05,6.83,6.82-3.06,6.83-6.83,6.83ZM29.07,330.16c-3.77,0-6.83-3.06-6.83-6.83s3.06-6.82,6.83-6.82,6.83,3.05,6.83,6.82-3.06,6.83-6.83,6.83ZM35.38,312.09c-3.77,0-6.82-3.05-6.82-6.83s3.05-6.83,6.82-6.83,6.83,3.06,6.83,6.83-3.05,6.83-6.83,6.83ZM41.69,294.02c-3.77,0-6.83-3.05-6.83-6.82s3.06-6.83,6.83-6.83,6.83,3.05,6.83,6.83-3.06,6.82-6.83,6.82ZM47.99,275.95c-3.77,0-6.83-3.06-6.83-6.83s3.06-6.82,6.83-6.82,6.82,3.06,6.82,6.82-3.05,6.83-6.82,6.83ZM54.29,257.88c-3.77,0-6.82-3.05-6.82-6.83s3.06-6.82,6.82-6.82,6.83,3.05,6.83,6.82-3.05,6.83-6.83,6.83ZM60.6,239.81c-3.77,0-6.83-3.06-6.83-6.83s3.06-6.83,6.83-6.83,6.82,3.05,6.82,6.83-3.05,6.83-6.82,6.83ZM66.91,221.73c-3.77,0-6.83-3.06-6.83-6.83s3.06-6.82,6.83-6.82,6.82,3.05,6.82,6.82-3.05,6.83-6.82,6.83ZM73.21,203.66c-3.77,0-6.82-3.06-6.82-6.83s3.05-6.82,6.82-6.82,6.83,3.05,6.83,6.82-3.06,6.83-6.83,6.83ZM79.52,185.59c-3.77,0-6.83-3.06-6.83-6.83s3.06-6.82,6.83-6.82,6.83,3.05,6.83,6.82-3.06,6.83-6.83,6.83ZM85.82,167.52c-3.77,0-6.82-3.06-6.82-6.83s3.05-6.82,6.82-6.82,6.83,3.05,6.83,6.82-3.05,6.83-6.83,6.83ZM92.13,149.44c-3.77,0-6.82-3.05-6.82-6.83s3.05-6.82,6.82-6.82,6.83,3.05,6.83,6.82-3.06,6.83-6.83,6.83ZM98.44,131.38c-3.77,0-6.83-3.06-6.83-6.83s3.06-6.83,6.83-6.83,6.82,3.06,6.82,6.83-3.06,6.83-6.82,6.83ZM104.74,113.3c-3.77,0-6.82-3.06-6.82-6.83s3.05-6.82,6.82-6.82,6.83,3.06,6.83,6.82-3.06,6.83-6.83,6.83ZM111.05,95.23c-3.77,0-6.83-3.06-6.83-6.83s3.05-6.82,6.83-6.82,6.82,3.06,6.82,6.82-3.06,6.83-6.82,6.83ZM446.2,279.24c-2.75,4.06-7.67,3.41-8.95,1.28-1.28-2.13-5.97-9.37-8.09-13.2-2.13-3.83-.21-7.45,2.55-7.45h13.85s30.03-49.84,33.44-55.38c3.41-5.54,11.93-.88,8.73,5.11-3.1,5.81-37.91,64.32-41.53,69.64Z"/>
    <line class="e" x1="272.44" y1="308.14" x2="272.44" y2="326"/>
  </g>
  <g>
    <path class="g" d="M407.28,90.53c37.02,74.47,6.66,164.86-67.82,201.87-74.47,37.02-164.85,6.65-201.87-67.82-37.02-74.47-6.66-164.85,67.82-201.87,74.47-37.02,164.86-6.66,201.88,67.82ZM168.05,128.21c-2.94,1.46-4.14,5.03-2.68,7.98,1.46,2.94,5.03,4.14,7.98,2.68,2.94-1.46,4.14-5.04,2.68-7.97-1.46-2.94-5.04-4.15-7.97-2.68ZM153.88,177.77c-2.94,1.46-4.14,5.03-2.68,7.97,1.46,2.94,5.04,4.14,7.98,2.68,2.94-1.46,4.14-5.03,2.68-7.98-1.46-2.94-5.04-4.14-7.98-2.68ZM199.66,189.64c-2.94,1.46-4.14,5.03-2.67,7.97,1.46,2.94,5.03,4.14,7.97,2.68,2.94-1.46,4.15-5.03,2.68-7.97-1.46-2.95-5.03-4.14-7.98-2.68ZM260.17,159.56c-2.94,1.46-4.14,5.04-2.68,7.97,1.47,2.94,5.04,4.15,7.98,2.68,2.94-1.46,4.14-5.03,2.68-7.98-1.46-2.94-5.04-4.14-7.98-2.68ZM320.68,129.48c-2.94,1.46-4.14,5.03-2.67,7.98,1.46,2.94,5.03,4.14,7.97,2.68,2.95-1.46,4.14-5.04,2.68-7.97-1.46-2.94-5.03-4.14-7.98-2.68ZM381.19,99.41c-2.94,1.46-4.14,5.04-2.68,7.98,1.46,2.94,5.04,4.14,7.98,2.68,2.95-1.46,4.14-5.03,2.68-7.98-1.47-2.94-5.04-4.14-7.98-2.68ZM179.88,164.85c-2.94,1.46-4.14,5.03-2.68,7.98,1.46,2.94,5.04,4.14,7.98,2.68,2.94-1.46,4.14-5.03,2.68-7.98-1.46-2.94-5.03-4.14-7.98-2.68ZM196.38,156.65c-2.94,1.46-4.14,5.03-2.68,7.97,1.46,2.94,5.03,4.14,7.98,2.68,2.94-1.46,4.14-5.03,2.68-7.98-1.46-2.94-5.03-4.14-7.98-2.68ZM180.79,233.04c-2.94,1.46-4.14,5.03-2.68,7.98,1.46,2.94,5.03,4.14,7.97,2.68,2.95-1.47,4.14-5.04,2.68-7.98-1.46-2.94-5.03-4.14-7.98-2.68ZM222.98,212.07c-2.95,1.47-4.15,5.03-2.68,7.98,1.46,2.94,5.03,4.15,7.97,2.68,2.94-1.46,4.14-5.04,2.68-7.97-1.46-2.94-5.03-4.14-7.97-2.68ZM194.78,114.92c-2.94,1.46-4.14,5.04-2.68,7.98,1.46,2.94,5.03,4.15,7.97,2.68,2.94-1.47,4.14-5.04,2.68-7.98-1.46-2.94-5.03-4.14-7.97-2.68ZM221.5,101.64c-2.94,1.46-4.14,5.03-2.68,7.97,1.46,2.94,5.04,4.14,7.98,2.68,2.95-1.46,4.15-5.03,2.68-7.97-1.46-2.94-5.04-4.14-7.98-2.68ZM248.23,88.35c-2.94,1.46-4.14,5.03-2.68,7.98,1.46,2.94,5.04,4.14,7.98,2.68,2.94-1.46,4.14-5.03,2.68-7.97-1.47-2.94-5.04-4.14-7.98-2.68ZM270.22,77.42c-2.94,1.46-4.14,5.04-2.68,7.97,1.46,2.94,5.03,4.14,7.98,2.68,2.94-1.46,4.14-5.03,2.68-7.98-1.46-2.94-5.03-4.14-7.98-2.68ZM320.94,52.2c-2.94,1.46-4.14,5.04-2.68,7.98,1.46,2.94,5.04,4.14,7.98,2.68,2.95-1.47,4.14-5.04,2.68-7.98-1.46-2.94-5.04-4.14-7.98-2.68ZM249.31,198.98c-2.94,1.47-4.14,5.04-2.68,7.97,1.46,2.94,5.04,4.15,7.98,2.68,2.94-1.46,4.14-5.03,2.68-7.97-1.46-2.95-5.03-4.14-7.98-2.68ZM291.5,178.01c-2.94,1.46-4.14,5.03-2.68,7.98,1.46,2.94,5.03,4.14,7.97,2.68,2.94-1.46,4.14-5.03,2.68-7.97-1.46-2.94-5.03-4.14-7.98-2.68ZM317.84,164.91c-2.94,1.46-4.14,5.03-2.68,7.98,1.46,2.94,5.03,4.14,7.98,2.68,2.94-1.46,4.14-5.03,2.68-7.97-1.46-2.95-5.03-4.14-7.97-2.68ZM360.02,143.94c-2.94,1.46-4.14,5.03-2.68,7.97,1.46,2.94,5.04,4.14,7.98,2.68,2.94-1.46,4.14-5.04,2.68-7.98-1.46-2.94-5.03-4.14-7.98-2.68ZM386.36,130.85c-2.94,1.46-4.14,5.03-2.67,7.98,1.46,2.94,5.04,4.14,7.97,2.68,2.95-1.46,4.15-5.03,2.68-7.98-1.46-2.94-5.03-4.14-7.98-2.68ZM218.97,145.42c-2.94,1.46-4.14,5.03-2.68,7.97,1.46,2.95,5.03,4.14,7.98,2.68,2.94-1.46,4.14-5.03,2.68-7.97-1.46-2.94-5.03-4.14-7.97-2.68ZM244.97,132.49c-2.94,1.46-4.14,5.03-2.68,7.97,1.46,2.94,5.03,4.14,7.97,2.68,2.95-1.46,4.15-5.04,2.68-7.97-1.46-2.94-5.03-4.14-7.98-2.68ZM261.47,124.29c-2.94,1.46-4.14,5.03-2.68,7.98,1.46,2.94,5.03,4.14,7.98,2.68,2.94-1.46,4.14-5.04,2.68-7.98-1.46-2.94-5.03-4.14-7.98-2.68ZM284.06,113.07c-2.94,1.46-4.14,5.03-2.68,7.97,1.46,2.94,5.03,4.14,7.97,2.68,2.94-1.47,4.14-5.04,2.68-7.98-1.46-2.94-5.03-4.14-7.97-2.67ZM310.06,100.14c-2.95,1.46-4.15,5.04-2.69,7.98,1.47,2.94,5.04,4.14,7.98,2.68,2.94-1.46,4.14-5.04,2.67-7.98-1.46-2.94-5.04-4.14-7.97-2.68ZM326.55,91.94c-2.94,1.46-4.14,5.03-2.67,7.98,1.46,2.94,5.03,4.14,7.97,2.68,2.95-1.46,4.14-5.03,2.68-7.98-1.46-2.94-5.03-4.14-7.98-2.68ZM349.14,80.71c-2.94,1.46-4.14,5.03-2.67,7.98,1.46,2.94,5.03,4.14,7.97,2.68,2.95-1.46,4.15-5.04,2.68-7.98-1.46-2.94-5.03-4.14-7.98-2.68ZM179.49,199.66c-2.94,1.46-4.14,5.04-2.68,7.98,1.46,2.95,5.04,4.14,7.97,2.68,2.95-1.46,4.15-5.04,2.68-7.98-1.46-2.94-5.03-4.14-7.98-2.68ZM219.83,179.61c-2.94,1.46-4.14,5.03-2.68,7.98,1.47,2.94,5.04,4.14,7.98,2.68,2.95-1.46,4.15-5.04,2.68-7.98-1.46-2.94-5.04-4.14-7.98-2.68ZM240,169.59c-2.94,1.46-4.14,5.03-2.68,7.97,1.46,2.94,5.03,4.14,7.98,2.68,2.94-1.46,4.14-5.03,2.68-7.97-1.46-2.95-5.03-4.14-7.98-2.68ZM280.34,149.54c-2.94,1.46-4.14,5.03-2.68,7.97,1.46,2.94,5.03,4.14,7.98,2.68,2.94-1.46,4.14-5.04,2.68-7.97-1.46-2.94-5.04-4.14-7.98-2.68ZM300.51,139.51c-2.94,1.47-4.14,5.04-2.68,7.98,1.46,2.94,5.04,4.14,7.98,2.68,2.94-1.47,4.14-5.04,2.68-7.98-1.47-2.94-5.04-4.14-7.98-2.68ZM340.85,119.46c-2.94,1.46-4.14,5.03-2.68,7.98,1.47,2.94,5.04,4.14,7.98,2.68,2.94-1.46,4.15-5.03,2.68-7.97-1.46-2.95-5.03-4.14-7.97-2.68ZM361.02,109.43c-2.95,1.46-4.15,5.04-2.68,7.97,1.46,2.94,5.03,4.15,7.97,2.68,2.94-1.46,4.15-5.03,2.68-7.98-1.46-2.94-5.03-4.14-7.97-2.68Z"/>
    <g>
      <polyline class="e" points="193.96 113.27 191.2 107.73 244.54 81.22 248.11 88.41"/>
      <polyline class="e" points="227.4 114.12 230.16 119.66 176.82 146.17 173.24 138.98"/>
      <polyline class="e" points="327.81 64.2 330.58 69.75 279.97 94.9 276.4 87.71"/>
      <polyline class="e" points="270.56 75.96 267.8 70.42 318.41 45.27 321.53 51.54"/>
      <g>
        <path class="c" d="M208.67,90.97l-4.35-5.08,3.12,6.3c.17.35.23.65.16.9-.07.25-.23.45-.49.57-.25.12-.49.14-.73.04-.25-.1-.46-.32-.63-.67l-3.59-7.22c-.2-.4-.23-.72-.09-.96.14-.24.39-.45.74-.62l.57-.28c.35-.17.61-.27.8-.28.18-.02.36.04.51.16.16.13.37.35.65.67l3.81,4.34-1.16-5.66c-.09-.41-.13-.72-.14-.92,0-.19.05-.37.18-.5.12-.14.36-.29.7-.47l.57-.28c.35-.18.67-.24.94-.21.28.03.51.25.71.65l3.59,7.22c.17.35.22.64.16.89-.07.25-.23.45-.5.57-.24.12-.49.13-.73.04-.24-.1-.45-.32-.62-.66l-3.13-6.3,1.43,6.54c.09.42.15.74.18.95.03.21,0,.42-.09.65-.09.22-.28.41-.56.55-.22.11-.42.15-.62.13-.2-.02-.37-.08-.52-.18-.16-.11-.3-.23-.44-.38-.13-.16-.28-.31-.42-.48Z"/>
        <path class="c" d="M219.08,77.93l-4.17,2.07,1.11,2.24,3.83-1.9c.28-.14.52-.18.73-.13.2.06.35.19.46.4.11.21.12.41.05.61-.07.2-.25.37-.54.51l-3.83,1.91,1.29,2.6,4.3-2.14c.29-.15.54-.18.76-.12.21.06.38.2.49.42.11.22.12.43.04.64-.08.21-.26.38-.56.53l-5.02,2.5c-.4.2-.74.25-1,.16-.26-.09-.49-.33-.69-.74l-3.41-6.85c-.13-.26-.2-.5-.2-.71,0-.21.06-.39.18-.55.13-.16.33-.31.59-.44l4.87-2.42c.29-.15.55-.19.75-.13.21.06.37.19.47.41.1.22.12.43.04.63-.08.2-.26.37-.56.52Z"/>
        <path class="c" d="M227.53,73.84l-2.01,1,3.29,6.63c.19.38.25.7.16.97-.08.27-.25.47-.52.6-.27.14-.54.15-.81.05-.26-.1-.49-.34-.68-.72l-3.29-6.63-2.01,1c-.31.16-.58.2-.81.14-.22-.06-.39-.21-.5-.43-.12-.24-.13-.46-.04-.68.09-.22.29-.4.59-.55l5.88-2.92c.31-.16.59-.2.81-.14.22.07.4.21.51.44.11.23.13.45.04.66-.09.22-.29.4-.61.56Z"/>
        <path class="c" d="M233.89,75.29l-.65.32,1.45,2.93c.19.38.25.71.17.98-.08.26-.26.46-.53.6-.3.14-.57.16-.83.05-.25-.11-.47-.35-.66-.72l-3.49-7.01c-.2-.4-.25-.73-.17-1,.09-.27.33-.5.73-.7l3-1.49c.42-.21.78-.37,1.09-.48.31-.11.61-.17.9-.18.35-.02.69.02,1.02.14.33.12.62.29.89.53.26.24.47.52.64.86.34.68.41,1.32.23,1.92-.18.6-.62,1.17-1.31,1.73.41.01.85.12,1.33.3.46.19.91.42,1.34.69.43.27.78.52,1.06.77.28.25.46.43.51.54.06.12.08.26.06.42-.02.16-.08.3-.17.44-.1.13-.23.24-.41.33-.2.1-.4.14-.59.11-.19-.02-.37-.09-.55-.19-.18-.1-.42-.25-.74-.46l-1.35-.86c-.49-.32-.9-.55-1.23-.68-.33-.13-.62-.19-.88-.17-.26.02-.55.11-.88.27ZM233.05,70.93l-1.71.85,1.25,2.51,1.66-.82c.44-.22.8-.45,1.06-.67.26-.23.43-.47.5-.74.07-.26.02-.56-.14-.88-.13-.26-.3-.45-.53-.57-.22-.13-.47-.19-.75-.17-.26.02-.71.18-1.34.5Z"/>
        <path class="c" d="M242.1,74.86l-3.57-7.19c-.18-.37-.24-.7-.16-.97.08-.27.25-.47.52-.61.28-.14.55-.16.81-.06.27.1.49.34.68.71l3.57,7.18c.19.38.24.7.16.98-.08.27-.26.47-.53.61-.27.13-.53.15-.8.04-.26-.1-.49-.34-.68-.71Z"/>
        <path class="c" d="M252.84,67.15c.15.29.23.64.25,1.05.03.41-.03.85-.18,1.33-.15.48-.41.94-.78,1.38-.38.44-.88.82-1.52,1.13-.48.24-.94.41-1.38.51-.44.1-.87.14-1.29.11-.41-.03-.84-.14-1.26-.32-.38-.17-.75-.38-1.09-.65-.35-.27-.66-.58-.95-.95-.28-.36-.54-.76-.77-1.21-.36-.74-.58-1.44-.66-2.13-.08-.69-.02-1.34.17-1.95.2-.61.5-1.16.93-1.64.43-.48.94-.87,1.55-1.18.74-.36,1.47-.55,2.19-.54.72,0,1.34.15,1.86.43.52.28.88.62,1.07,1,.11.21.13.44.05.67-.07.24-.21.41-.42.51-.23.12-.44.15-.62.1-.17-.05-.4-.18-.68-.38-.46-.33-.92-.53-1.35-.6-.44-.06-.9.03-1.37.27-.76.38-1.22.97-1.39,1.77-.16.8.02,1.73.55,2.79.35.71.74,1.25,1.17,1.62.43.37.89.58,1.37.64.48.05.97-.05,1.46-.29.53-.26.92-.62,1.15-1.07.24-.45.32-.97.26-1.57-.04-.28-.04-.52,0-.73.04-.21.19-.38.44-.5.22-.11.45-.13.68-.05.23.07.41.22.52.45Z"/>
      </g>
      <g>
        <path class="c" d="M273.86,57.9c-.27-.54-.47-1.06-.61-1.58-.14-.51-.23-1.04-.26-1.59-.04-.55-.03-1.12.02-1.71.03-.36.07-.63.13-.81.05-.18.13-.31.21-.39.09-.08.21-.16.37-.24.17-.09.29-.08.33.01.02.03.03.27.04.7.01.44.04.88.09,1.34.05.46.15,1.01.32,1.65.17.64.41,1.29.73,1.93.32.64.68,1.21,1.08,1.72.41.51.79.94,1.15,1.28.36.35.7.65,1.03.9.32.26.49.4.5.43.05.1-.02.19-.19.28-.16.08-.3.13-.42.15-.12.01-.26-.01-.43-.08-.17-.07-.41-.2-.72-.39-.51-.33-.97-.67-1.37-1.01-.4-.34-.77-.73-1.09-1.15-.33-.42-.63-.91-.9-1.45Z"/>
        <path class="c" d="M282.68,53.65l.96,1.94c.15.31.2.57.13.79-.06.22-.2.39-.43.5-.22.11-.44.12-.65.04-.21-.08-.39-.28-.55-.58l-1.15-2.32c-.18-.37-.34-.65-.46-.83-.13-.19-.28-.32-.45-.4-.17-.08-.38-.06-.62.06-.48.24-.71.56-.7.96.01.4.17.91.47,1.52l.98,1.97c.15.3.2.57.14.79-.06.22-.2.39-.42.5-.22.11-.44.13-.66.04-.21-.08-.4-.28-.55-.58l-2.07-4.16c-.14-.27-.18-.51-.12-.72.06-.2.18-.36.39-.46.2-.1.4-.12.6-.05.2.07.35.21.47.45l.07.14c.1-.43.26-.78.48-1.07.22-.28.5-.51.86-.69.36-.18.71-.26,1.05-.25.33.01.66.13.98.34.1-.42.25-.77.46-1.06.21-.28.48-.51.82-.68.4-.2.78-.29,1.15-.27.36,0,.69.13.98.35.26.2.52.59.8,1.15l1.41,2.84c.15.31.19.57.14.79-.07.22-.21.39-.44.5-.22.11-.44.12-.65.04-.21-.09-.4-.28-.55-.58l-1.22-2.45c-.16-.31-.3-.56-.42-.73-.12-.18-.27-.3-.45-.37-.18-.07-.39-.05-.63.07-.19.1-.35.25-.46.45-.12.2-.17.42-.18.66.02.3.18.76.48,1.38Z"/>
        <path class="c" d="M292.34,48.84l.96,1.94c.15.3.19.57.14.79-.07.22-.21.39-.44.5-.22.11-.44.12-.65.04-.22-.09-.4-.28-.55-.59l-1.15-2.32c-.18-.37-.33-.65-.46-.83-.13-.19-.28-.32-.45-.4-.17-.08-.38-.06-.62.06-.48.24-.71.56-.7.96.01.4.17.91.47,1.52l.98,1.97c.15.3.19.56.14.78-.06.23-.2.39-.43.5-.22.11-.44.13-.65.04-.22-.08-.4-.28-.55-.58l-2.07-4.16c-.13-.28-.17-.51-.12-.72.06-.2.19-.36.4-.46.2-.1.4-.12.6-.05.2.07.36.22.47.46l.07.14c.1-.43.26-.78.48-1.07.21-.28.5-.51.85-.69.37-.18.72-.27,1.05-.25.34.02.66.13.98.34.09-.42.25-.77.46-1.06.21-.28.49-.51.83-.68.4-.2.78-.29,1.14-.28.37.01.69.13.98.35.25.2.52.58.8,1.15l1.41,2.84c.15.3.2.57.13.79-.06.22-.2.39-.43.5-.22.11-.44.12-.66.04-.22-.08-.4-.28-.55-.58l-1.22-2.45c-.16-.31-.29-.56-.41-.73-.12-.18-.27-.3-.45-.37-.18-.07-.39-.05-.63.07-.19.1-.35.25-.46.44-.12.2-.17.42-.17.66.01.3.18.76.49,1.38Z"/>
        <path class="c" d="M299.55,45.13c.39.78.64,1.56.77,2.34.12.77.15,1.62.07,2.52-.04.51-.11.85-.2,1.02-.09.17-.25.31-.49.43-.18.09-.29.09-.34-.01-.02-.03-.03-.24-.03-.62,0-.39-.04-.84-.08-1.35-.06-.51-.16-1.09-.34-1.73-.17-.64-.41-1.28-.73-1.92-.32-.65-.69-1.23-1.09-1.75-.41-.52-.8-.96-1.18-1.31-.37-.35-.71-.64-1.01-.88-.31-.24-.47-.38-.48-.4-.05-.1.02-.19.19-.28.25-.13.46-.17.64-.15.18.03.49.18.92.46.38.24.73.49,1.06.76.32.26.62.53.89.81.27.29.52.6.76.94.24.34.45.71.66,1.11Z"/>
      </g>
      <path class="f" d="M159.37,176.92c2.64-7.14,7.91-13.32,15.27-16.98,6.27-3.11,13.07-3.91,19.46-2.72"/>
      <path class="f" d="M224.56,223.08c-2.65,7.14-7.92,13.32-15.27,16.98-6.26,3.11-13.07,3.91-19.46,2.72"/>
      <path class="f" d="M293.08,189.02c-2.65,7.14-7.91,13.32-15.27,16.98-6.27,3.12-13.07,3.91-19.46,2.72"/>
      <path class="f" d="M361.6,154.96c-2.64,7.14-7.91,13.32-15.27,16.98-6.26,3.11-13.08,3.91-19.45,2.72"/>
      <path class="f" d="M224.45,144.57c2.64-7.14,7.91-13.32,15.27-16.98,6.27-3.11,13.07-3.91,19.45-2.72"/>
      <path class="f" d="M289.54,112.22c2.65-7.14,7.91-13.32,15.27-16.98,6.26-3.11,13.07-3.91,19.45-2.72"/>
      <g>
        <path class="c" d="M362.51,61.64c.19.38.46.65.83.82.36.17.75.14,1.17-.07.32-.16.54-.41.66-.74.12-.33.08-.69-.1-1.06-.13-.25-.27-.45-.42-.57s-.31-.21-.48-.25c-.16-.04-.35-.06-.58-.05-.23,0-.44.02-.64.02-.1,0-.21-.04-.31-.12-.1-.08-.19-.19-.26-.34-.08-.17-.09-.35-.02-.56.06-.21.21-.37.43-.48.21-.11.48-.16.78-.14.3.01.62.09.97.23.34.14.67.37.98.68.32.31.59.69.82,1.15.2.4.33.8.39,1.18.05.39.04.75-.05,1.1-.08.35-.23.65-.45.91-.21.26-.47.47-.79.63-.42.2-.82.29-1.2.25-.39-.03-.81-.15-1.26-.34,0,.41-.08.78-.19,1.11-.11.33-.28.62-.5.87-.21.25-.48.45-.8.61-.37.19-.78.29-1.21.31-.43.03-.85-.04-1.27-.2-.43-.16-.81-.4-1.17-.73-.36-.33-.66-.74-.9-1.22-.25-.5-.38-.99-.4-1.47-.02-.48.04-.92.18-1.31.14-.39.32-.72.54-.99.22-.27.42-.46.61-.55.24-.12.47-.14.7-.06.23.08.39.24.51.47.06.12.08.24.06.39-.01.14-.06.25-.14.34-.47.5-.78.94-.94,1.33-.16.39-.13.8.1,1.25.13.26.32.47.56.65.25.18.53.28.85.31.33.03.66-.04.98-.2.49-.24.8-.56.95-.97.14-.4.1-.84-.14-1.31-.04-.09-.11-.21-.22-.37-.1-.16-.16-.28-.19-.32-.11-.23-.14-.43-.09-.62.05-.18.18-.32.38-.42.2-.1.4-.1.6-.01.2.09.37.28.52.57l.13.26Z"/>
        <path class="c" d="M353.04,69.34l-1.47-2.95-2.19.65c.61.43,1.03.9,1.28,1.39.2.4.31.81.33,1.23.02.42-.03.83-.17,1.22-.13.39-.34.75-.62,1.08-.29.33-.64.6-1.06.8-.6.3-1.21.44-1.84.41-.63-.02-1.21-.22-1.76-.58s-.98-.88-1.31-1.54c-.37-.74-.53-1.41-.48-2.01.04-.6.19-1.08.45-1.45.26-.36.52-.62.79-.75.16-.08.35-.09.56-.03.21.06.37.19.47.4.17.35.1.71-.21,1.08-.29.35-.47.72-.53,1.1-.06.38,0,.75.17,1.1.16.32.38.56.66.72.29.16.61.23.96.22.35-.01.72-.11,1.09-.3.4-.2.71-.44.92-.72.21-.28.33-.57.35-.88.02-.3-.04-.6-.19-.89-.18-.36-.35-.59-.51-.7-.16-.11-.43-.26-.79-.43-.36-.18-.59-.36-.68-.55-.1-.2-.12-.42-.05-.65.07-.23.19-.39.38-.49.02,0,.17-.06.46-.14l3.24-.96c.39-.12.7-.14.94-.06.24.08.45.29.63.65l1.63,3.28c.32.65.23,1.09-.26,1.34-.22.11-.43.12-.64.02-.21-.09-.39-.29-.54-.6Z"/>
      </g>
      <line class="d" x1="352.03" y1="58.88" x2="358.6" y2="72.09"/>
      <g>
        <path class="c" d="M400.32,147.82l1.61,3.25c.16.32.21.6.17.84-.05.24-.19.41-.41.52-.2.1-.41.12-.62.05-.21-.07-.38-.23-.52-.51l-2.28-4.58c-.16-.31-.19-.6-.1-.86.09-.26.24-.45.47-.56.16-.08.38-.12.68-.13.3,0,.56.02.76.08.85.27,1.59.52,2.22.76.63.24,1.05.43,1.28.55.41.22.79.39,1.14.49.36.11.7.15,1.01.15.32,0,.6-.08.84-.19.26-.13.47-.32.62-.54.14-.23.22-.49.23-.76,0-.28-.06-.54-.18-.8-.27-.54-.72-.85-1.36-.93-.08,0-.29,0-.61.05-.33.04-.59.04-.81-.01-.21-.05-.37-.19-.49-.43-.1-.21-.12-.41-.05-.62.07-.2.22-.36.46-.48.28-.15.61-.23.99-.25.38-.03.75.03,1.13.15.38.13.74.35,1.1.67.35.31.66.74.91,1.26.32.64.48,1.23.51,1.77.02.36-.04.7-.16,1.04-.13.34-.31.64-.56.92-.24.28-.53.49-.86.66-.52.25-1.05.36-1.59.32-.55-.05-1.01-.15-1.38-.29-.37-.15-.97-.4-1.79-.78-.82-.37-1.43-.6-1.83-.69-.16-.05-.34-.08-.55-.11Z"/>
        <path class="c" d="M391.93,152.79c.19.38.46.65.83.82.36.17.75.15,1.17-.06.32-.16.54-.41.66-.74.12-.33.09-.69-.1-1.06-.12-.25-.27-.44-.42-.57-.16-.13-.31-.21-.48-.25-.16-.04-.35-.05-.58-.05-.22,0-.44.01-.63.02-.11,0-.21-.04-.32-.12-.1-.08-.19-.19-.26-.33-.08-.17-.09-.35-.02-.56.06-.21.21-.36.43-.47s.47-.16.78-.15c.3.01.62.09.97.24.34.14.67.37.99.68.31.31.59.69.82,1.15.19.41.33.8.38,1.18.06.39.04.76-.05,1.1-.09.35-.23.65-.44.91-.22.26-.48.47-.79.63-.42.21-.82.29-1.2.26-.39-.03-.81-.15-1.26-.34-.02.41-.07.78-.19,1.11-.11.33-.28.62-.49.87-.21.25-.48.45-.79.6-.38.19-.78.29-1.21.32-.43.03-.85-.04-1.28-.2-.42-.16-.81-.4-1.17-.73-.35-.33-.66-.73-.9-1.22-.25-.5-.38-.99-.4-1.47-.02-.48.04-.92.19-1.3.14-.39.32-.72.54-.99.22-.27.42-.45.61-.55.24-.12.47-.14.7-.06.22.08.39.24.5.47.06.12.08.24.07.39-.02.14-.06.25-.14.33-.47.5-.78.94-.94,1.33-.16.39-.13.8.1,1.25.13.26.32.47.56.65.24.18.53.28.85.31.33.03.65-.03.98-.2.49-.24.8-.56.95-.97.14-.4.09-.84-.14-1.31-.04-.09-.12-.21-.22-.37-.1-.17-.16-.28-.19-.32-.12-.23-.15-.44-.09-.61.05-.18.18-.32.39-.42.2-.1.4-.1.59-.01.2.09.37.28.52.57l.13.26Z"/>
      </g>
      <line class="d" x1="394.2" y1="143.7" x2="400.76" y2="156.91"/>
      <line class="d" x1="137.59" y1="224.58" x2="152.57" y2="217.14"/>
      <g>
        <path class="c" d="M155.36,210.76l5.66-2.81c-1.33-.65-2.09-1.16-2.27-1.53-.08-.18-.1-.36-.03-.56.07-.2.2-.35.39-.44.21-.11.4-.12.57-.03.16.08.41.25.73.51.49.39.94.66,1.35.83.41.17.83.29,1.28.36.44.07.71.13.82.16.11.03.21.15.31.34.11.22.11.44,0,.66-.1.22-.31.4-.6.55l-7.12,3.54c-.83.41-1.39.34-1.67-.23-.13-.26-.14-.5-.05-.74.09-.23.31-.44.64-.6Z"/>
        <path class="c" d="M164.42,219.9c-.68.34-1.29.59-1.82.75-.53.16-1.05.23-1.56.2-.63-.04-1.19-.21-1.68-.53-.49-.32-.87-.75-1.14-1.3-.31-.63-.42-1.28-.31-1.97.11-.67.41-1.3.92-1.86.28-.29.61-.58,1-.85.39-.26.82-.52,1.31-.76.63-.31,1.21-.56,1.74-.75.53-.18,1.01-.29,1.44-.33.72-.05,1.35.08,1.89.39.55.31.98.79,1.3,1.44.21.43.33.85.37,1.27.03.42-.02.82-.16,1.22-.14.4-.36.79-.66,1.16-.53.66-1.42,1.3-2.67,1.92ZM163.69,218.13c.76-.38,1.36-.73,1.8-1.06.44-.33.73-.67.87-1.01.14-.33.11-.7-.08-1.08-.27-.55-.74-.79-1.39-.73-.66.06-1.56.38-2.71.95-.78.39-1.39.75-1.85,1.09-.45.33-.75.68-.9,1.02-.15.34-.13.7.06,1.07.19.38.47.62.84.7.38.09.83.05,1.36-.11.54-.16,1.21-.43,2.01-.84Z"/>
      </g>
      <line class="d" x1="183.33" y1="278.95" x2="193.22" y2="265.46"/>
      <path class="c" d="M199.66,259.13c-.46.11-.89.13-1.31.05-.41-.07-.81-.25-1.17-.51-.35-.26-.63-.57-.84-.93-.2-.36-.33-.75-.37-1.15-.04-.4,0-.81.12-1.23.12-.42.31-.8.57-1.16.28-.39.62-.7,1.01-.95.39-.24.8-.4,1.23-.47.44-.07.88-.05,1.33.06.45.11.88.32,1.3.63.48.36.84.76,1.09,1.21.25.45.38.94.39,1.46.01.52-.1,1.09-.34,1.7-.23.61-.58,1.24-1.06,1.88-.53.71-1.06,1.29-1.61,1.73-.55.44-1.1.74-1.65.91-.55.17-1.09.19-1.61.09-.52-.1-1.03-.34-1.52-.7-.49-.36-.84-.76-1.07-1.21-.22-.45-.32-.88-.31-1.29.01-.41.11-.75.3-1,.12-.16.28-.26.48-.29.2-.04.4,0,.58.14.16.12.27.28.34.46s.06.4,0,.63c-.08.29-.08.56.01.84.09.27.25.5.49.67.21.16.45.25.72.28.27.03.54,0,.83-.1.56-.2,1.24-.79,2.03-1.77ZM200.79,257.33c.18-.26.32-.51.41-.78.09-.26.13-.52.12-.77,0-.25-.07-.49-.18-.7-.11-.22-.26-.41-.47-.55-.35-.26-.76-.33-1.24-.2-.47.13-.89.44-1.26.94-.36.49-.53.98-.5,1.45.03.48.23.85.61,1.13.23.17.5.27.8.31.3.04.6-.02.9-.15.3-.13.57-.36.8-.67Z"/>
      <line class="d" x1="207.16" y1="293.26" x2="214.41" y2="278.19"/>
      <path class="c" d="M216.47,266.09c.2-.42.5-.75.9-1.02.41-.26.88-.39,1.43-.41.55,0,1.12.13,1.71.41.49.24.9.52,1.21.82.31.31.54.64.69.99.14.35.2.69.18,1.04-.02.35-.1.67-.26,1-.2.41-.47.73-.84.94-.36.22-.81.33-1.32.34.29.31.49.63.62.97.13.33.18.68.16,1.03-.02.35-.12.7-.29,1.06-.25.52-.61.94-1.07,1.25-.46.31-1,.46-1.6.47-.61,0-1.25-.15-1.92-.47-.69-.33-1.23-.74-1.61-1.22-.37-.47-.58-.99-.63-1.54-.04-.54.06-1.08.31-1.6.54-1.13,1.44-1.64,2.7-1.54-.66-.81-.79-1.66-.37-2.52ZM218.96,272.4c.15-.33.22-.64.21-.95-.02-.3-.12-.58-.3-.83-.18-.24-.42-.44-.72-.58-.43-.2-.85-.23-1.28-.09-.42.15-.76.47-1,.98-.16.33-.23.65-.21.96.02.31.11.59.28.84.17.25.4.44.68.58.29.14.59.2.89.17.3-.03.57-.13.83-.32.25-.18.46-.44.62-.77ZM219.97,266.3c-.39-.19-.77-.22-1.12-.09-.36.13-.63.38-.81.77-.17.35-.19.71-.06,1.07.13.35.4.62.79.81.2.09.39.15.58.16.19.02.37,0,.54-.06.17-.05.32-.15.46-.27.13-.12.25-.27.33-.46.12-.24.17-.49.16-.74-.02-.25-.1-.48-.25-.69-.14-.2-.35-.37-.61-.5Z"/>
      <line class="d" x1="224.9" y1="300.44" x2="230.18" y2="284.58"/>
      <path class="c" d="M232.65,270.16l4.39,1.46c.42.14.71.31.85.51.14.19.17.44.07.74-.06.19-.25.4-.57.62-.32.23-.69.48-1.09.75-.41.27-.85.63-1.33,1.08-.48.44-.98,1.02-1.49,1.72-.22.31-.39.58-.51.79-.12.21-.27.49-.44.84-.17.35-.31.61-.41.79-.24.42-.48.69-.7.8-.23.12-.48.13-.76.04-.27-.09-.45-.25-.55-.49-.1-.24-.09-.54.03-.91.09-.28.28-.64.56-1.09.28-.45.67-.96,1.16-1.54.49-.59,1.06-1.17,1.7-1.74.64-.58,1.35-1.12,2.14-1.64l-3.53-1.18c-.37-.12-.62-.28-.76-.47-.14-.19-.16-.43-.06-.72.1-.3.26-.46.48-.48.22-.02.5.02.85.13Z"/>
      <line class="d" x1="248.1" y1="306.16" x2="250.8" y2="289.66"/>
      <path class="c" d="M250.66,279.74c.37-.32.76-.54,1.15-.66.4-.12.82-.14,1.27-.07.44.07.82.22,1.16.44.34.23.63.5.85.85.23.34.38.73.47,1.16.08.43.09.87.02,1.31-.1.65-.35,1.21-.73,1.68-.38.48-.86.82-1.44,1.03-.58.21-1.2.26-1.87.15-.77-.13-1.4-.42-1.89-.89-.49-.46-.83-1.09-1.01-1.87-.18-.78-.18-1.7,0-2.76.14-.86.36-1.62.65-2.27.29-.65.64-1.17,1.05-1.57.4-.39.86-.66,1.38-.81.51-.15,1.07-.18,1.68-.08.58.1,1.08.3,1.49.6.41.3.7.64.87,1.01.17.38.23.72.18,1.03-.03.19-.13.34-.3.47-.17.14-.36.18-.58.15-.19-.03-.36-.13-.5-.27-.14-.14-.24-.33-.28-.56-.06-.29-.19-.54-.39-.74-.21-.2-.46-.33-.76-.38-.24-.04-.49,0-.75.09-.27.1-.5.25-.7.47-.42.43-.75,1.26-1.02,2.49ZM251.81,284.31c.46.07.87-.05,1.24-.38.36-.33.59-.79.69-1.41.07-.42.06-.79-.04-1.11-.09-.32-.25-.58-.47-.78-.22-.2-.47-.32-.77-.37-.28-.05-.57-.01-.85.09-.28.11-.53.3-.73.56-.2.26-.34.58-.4.97-.1.62-.02,1.16.23,1.62.25.46.62.73,1.11.81Z"/>
      <line class="d" x1="264.09" y1="307.91" x2="265" y2="291.21"/>
      <path class="c" d="M267.94,278.49l-3.3-.18-.52,2.23c.68-.32,1.29-.46,1.85-.43.44.03.85.13,1.23.32.37.19.7.44.98.75.28.31.49.67.62,1.08.15.41.21.85.18,1.31-.03.68-.22,1.27-.55,1.8-.33.53-.78.95-1.37,1.24-.58.3-1.25.42-1.99.38-.82-.05-1.49-.23-1.99-.57-.5-.33-.84-.7-1.04-1.11-.19-.41-.28-.77-.26-1.06,0-.18.09-.35.25-.5.16-.15.35-.22.58-.21.39.02.66.26.83.72.16.42.4.76.69,1,.3.25.65.38,1.04.4.36.02.67-.05.95-.22.28-.17.5-.42.67-.73.16-.32.25-.68.28-1.09.03-.45-.03-.83-.17-1.15-.14-.33-.34-.56-.59-.74-.26-.17-.55-.26-.87-.28-.4-.02-.69,0-.86.1-.18.09-.44.24-.77.47-.34.22-.61.33-.81.32-.23,0-.43-.1-.6-.28-.16-.17-.24-.36-.23-.57,0-.02.04-.18.1-.47l.77-3.29c.09-.4.22-.68.41-.85.18-.17.47-.24.87-.22l3.66.2c.72.05,1.07.34,1.04.89-.01.24-.11.44-.3.57-.19.14-.44.2-.79.18Z"/>
      <line class="d" x1="312.46" y1="302.72" x2="308.02" y2="286.6"/>
      <path class="c" d="M305.32,281.09l3.5-.96c.35-.1.63-.1.86,0,.22.09.36.26.43.51.06.22.04.43-.06.62-.1.19-.3.32-.6.41l-4.93,1.36c-.34.09-.62.08-.86-.06-.24-.13-.39-.33-.46-.57-.05-.16-.04-.39,0-.69.05-.3.12-.54.22-.73.42-.78.81-1.46,1.17-2.03.35-.57.62-.96.79-1.15.29-.36.52-.7.7-1.03.17-.33.28-.65.34-.96.05-.31.04-.6-.04-.86-.08-.29-.21-.52-.42-.71-.19-.19-.43-.31-.7-.37-.27-.06-.54-.05-.82.02-.59.16-.97.54-1.17,1.15-.03.08-.05.28-.07.61-.02.33-.08.59-.16.78-.09.2-.26.33-.52.4-.22.06-.43.04-.61-.07-.19-.11-.32-.29-.39-.54-.09-.31-.1-.65-.06-1.02.05-.37.17-.73.37-1.08.2-.35.49-.67.86-.95.38-.28.85-.5,1.41-.66.68-.19,1.3-.24,1.83-.16.36.05.68.17.99.36.31.18.57.42.79.71.22.29.38.62.48.97.15.55.16,1.09,0,1.62-.15.53-.33.96-.54,1.3-.21.34-.58.87-1.1,1.61-.52.74-.86,1.29-1.03,1.66-.08.15-.14.32-.21.52Z"/>
      <line class="d" x1="125.7" y1="123.69" x2="142" y2="127.45"/>
      <path class="c" d="M148.84,131.39l3.53.81c.35.08.61.22.76.4.15.19.2.4.14.65-.05.22-.16.39-.35.51-.18.12-.42.15-.72.08l-4.98-1.15c-.34-.08-.58-.23-.73-.46-.15-.23-.19-.47-.14-.72.04-.16.15-.37.34-.61.18-.24.36-.42.54-.54.74-.48,1.41-.89,1.99-1.22.59-.33,1-.55,1.24-.64.43-.18.8-.37,1.1-.57.31-.21.56-.43.75-.68.2-.25.32-.51.38-.77.07-.29.06-.56-.03-.82-.08-.26-.23-.48-.44-.66-.2-.18-.45-.3-.73-.37-.59-.14-1.12.01-1.57.45-.07.06-.18.22-.35.5-.18.28-.35.48-.52.62-.17.13-.38.17-.64.11-.22-.05-.39-.17-.51-.35-.12-.18-.14-.4-.08-.66.07-.31.22-.62.43-.93.22-.31.5-.56.84-.77.34-.21.74-.35,1.21-.42.46-.07.98-.04,1.56.09.69.16,1.25.4,1.69.73.28.22.51.48.69.79.19.31.3.64.36,1.01.06.36.05.72-.04,1.08-.13.56-.39,1.04-.77,1.43-.38.39-.75.69-1.1.88-.35.19-.92.49-1.73.89s-1.37.72-1.7.97c-.14.1-.28.22-.44.36Z"/>
      <line class="d" x1="131.07" y1="105.68" x2="146.77" y2="111.45"/>
      <g>
        <path class="c" d="M155.27,112.14c.4.15.79.16,1.16.03.38-.13.65-.41.81-.85.12-.34.11-.67-.03-.99-.14-.33-.41-.56-.8-.7-.26-.1-.49-.14-.7-.13-.2.01-.37.06-.52.14-.14.09-.3.21-.45.37-.16.16-.31.31-.45.45-.07.08-.18.12-.31.13-.13,0-.27-.01-.42-.07-.17-.07-.3-.2-.4-.39-.09-.19-.1-.41,0-.64.08-.23.24-.44.47-.64.23-.2.52-.37.86-.49.34-.13.74-.19,1.17-.18.44,0,.91.1,1.39.27.42.16.79.35,1.09.6.31.24.55.52.73.83.17.31.28.63.3.97.03.34-.02.67-.14,1-.16.43-.39.77-.69,1.01-.3.24-.68.45-1.14.61.27.31.48.62.63.94.15.32.22.64.24.97.01.33-.04.66-.16.99-.15.4-.37.75-.66,1.06-.29.31-.65.56-1.06.73-.42.18-.86.27-1.35.28-.48,0-.98-.08-1.49-.27-.52-.19-.96-.46-1.3-.79-.35-.34-.6-.7-.76-1.08-.17-.38-.26-.74-.29-1.09-.02-.35,0-.62.07-.82.09-.25.25-.43.47-.52.22-.09.45-.1.69,0,.12.04.23.12.31.24.09.11.13.22.13.34,0,.69.09,1.22.23,1.61.16.39.46.67.93.84.27.1.56.13.85.09.3-.04.58-.16.84-.36.26-.2.45-.47.58-.82.19-.51.19-.96.02-1.35-.17-.39-.5-.68-1-.86-.09-.03-.23-.07-.42-.12-.19-.05-.31-.08-.36-.1-.23-.09-.4-.21-.49-.38-.09-.17-.09-.36-.01-.57.08-.21.22-.35.42-.42.2-.07.46-.05.77.07l.26.1Z"/>
        <path class="c" d="M159.47,120.42c-.27-.1-.47-.27-.6-.52-.13-.25-.14-.52-.03-.84.1-.26.27-.46.53-.58.26-.13.52-.13.8-.03.27.1.47.28.6.54.12.26.14.52.04.79-.12.31-.3.52-.56.62-.26.11-.51.11-.78.01Z"/>
        <path class="c" d="M170.64,119.01c-.26.71-.53,1.31-.81,1.79-.27.48-.61.89-.99,1.22-.49.4-1.01.66-1.58.77-.57.11-1.14.05-1.72-.16-.66-.24-1.18-.65-1.57-1.21-.39-.57-.59-1.23-.61-1.99,0-.41.04-.85.14-1.31.1-.46.24-.94.42-1.45.24-.66.5-1.24.76-1.74.26-.5.54-.91.82-1.23.49-.53,1.04-.87,1.65-1.02.61-.15,1.25-.1,1.93.15.45.16.82.39,1.14.67.31.28.55.61.73.99.17.38.28.81.32,1.3.07.84-.14,1.92-.62,3.23ZM168.9,118.22c.29-.79.48-1.46.57-2,.09-.54.07-.99-.06-1.33-.13-.34-.39-.59-.8-.73-.58-.21-1.08-.07-1.52.43-.44.5-.87,1.35-1.32,2.55-.3.81-.49,1.5-.59,2.06-.1.56-.08,1.01.05,1.36.13.35.39.6.78.74.4.15.76.12,1.09-.08s.63-.53.91-1.02.58-1.15.88-1.99Z"/>
        <path class="c" d="M173.06,117.12c.16-.44.43-.8.81-1.1.38-.3.84-.48,1.38-.54.54-.06,1.12.02,1.74.24.51.19.94.43,1.28.7.34.28.6.58.77.92.18.33.27.67.29,1.01.02.35-.04.68-.16,1.02-.16.43-.41.77-.75,1.02-.35.25-.77.41-1.29.46.32.28.55.58.71.9.16.32.25.66.26,1.01,0,.35-.05.72-.19,1.09-.2.55-.51,1-.94,1.34-.43.35-.95.55-1.55.62-.6.07-1.25-.03-1.95-.29-.72-.26-1.29-.62-1.71-1.06-.42-.44-.68-.93-.78-1.47-.1-.54-.05-1.08.15-1.63.43-1.17,1.27-1.77,2.54-1.8-.74-.75-.94-1.57-.61-2.47ZM176.15,123.15c.13-.34.16-.66.12-.96-.05-.3-.17-.57-.37-.79-.21-.23-.47-.4-.78-.51-.44-.16-.87-.15-1.28.03-.41.18-.71.54-.9,1.07-.12.34-.16.66-.12.97.05.31.17.58.36.81.19.23.44.4.74.51.31.11.6.14.9.09.3-.05.56-.18.8-.4.23-.21.41-.48.54-.82ZM176.56,116.99c-.41-.15-.78-.14-1.13.02-.34.16-.59.44-.74.84-.14.37-.12.73.05,1.07.17.34.45.58.86.73.2.07.4.11.59.11.19,0,.37-.04.53-.11.16-.07.31-.18.43-.31.12-.14.22-.3.29-.49.09-.25.12-.51.08-.75-.04-.25-.14-.47-.31-.66-.17-.19-.38-.34-.65-.44Z"/>
      </g>
      <line class="d" x1="138.62" y1="88.49" x2="153.48" y2="96.16"/>
      <path class="c" d="M160.25,103.1l.59-1.15-3.1-1.6c-.39-.2-.64-.44-.74-.72-.11-.28-.08-.57.08-.87.04-.08.1-.15.17-.21.07-.07.16-.13.26-.19s.2-.11.31-.16c.11-.05.24-.11.39-.18l5.53-2.69c.36-.18.65-.29.85-.36.2-.06.4-.04.59.06.63.32.76.84.38,1.56l-2.46,4.78.26.14c.32.17.55.34.7.52.15.19.15.43,0,.72-.13.24-.3.37-.51.4-.21.03-.48-.04-.79-.2l-.38-.2-.59,1.15c-.16.32-.36.52-.58.6-.22.08-.45.07-.68-.06-.23-.12-.38-.29-.44-.53-.06-.23-.01-.5.15-.81ZM158.91,99.19l2.65,1.37,1.85-3.59-4.51,2.22Z"/>
      <line class="d" x1="148.26" y1="72.36" x2="162.06" y2="81.82"/>
      <path class="c" d="M173.65,84.31l-2.72-1.87-1.6,1.63c.74.08,1.34.28,1.8.59.37.25.66.55.89.91.22.36.37.74.45,1.15.07.41.06.82-.03,1.25-.09.43-.26.83-.53,1.21-.37.55-.85.97-1.4,1.26-.56.28-1.17.4-1.82.35-.65-.05-1.28-.29-1.89-.71-.69-.47-1.15-.97-1.4-1.52-.26-.54-.36-1.04-.31-1.49.04-.45.15-.8.31-1.04.11-.15.26-.25.48-.3.22-.05.41,0,.6.12.32.22.43.57.33,1.05-.08.45-.05.85.08,1.22.13.37.35.66.68.88.29.2.6.3.93.3.33,0,.64-.09.94-.28.3-.19.57-.45.8-.79.25-.37.41-.73.45-1.08.05-.35,0-.66-.12-.94-.13-.28-.33-.5-.59-.69-.33-.23-.59-.35-.79-.37-.2-.02-.5-.01-.9,0-.4.02-.69-.03-.86-.15-.19-.13-.31-.31-.36-.54-.05-.24-.02-.44.1-.61.01-.02.12-.14.33-.35l2.36-2.41c.28-.29.54-.46.79-.51.25-.05.53.04.86.27l3.02,2.07c.6.41.74.84.43,1.3-.14.2-.32.31-.55.33-.23.02-.48-.06-.77-.25Z"/>
      <line class="d" x1="159.83" y1="57.57" x2="172.34" y2="68.67"/>
      <path class="c" d="M178.61,72.12c.48-.07.93-.05,1.32.06.4.11.76.32,1.11.62.33.3.58.62.75.99.17.37.26.76.27,1.18,0,.41-.07.82-.23,1.24-.16.41-.39.78-.69,1.12-.44.49-.94.83-1.52,1.04-.57.2-1.16.23-1.76.1-.6-.14-1.15-.42-1.66-.87-.58-.51-.96-1.1-1.12-1.76-.17-.66-.12-1.37.15-2.12.27-.76.76-1.53,1.47-2.33.58-.66,1.17-1.18,1.76-1.58.59-.39,1.17-.65,1.72-.77.56-.11,1.09-.1,1.61.05.51.15,1,.43,1.46.83.45.4.76.83.94,1.3.18.47.25.91.19,1.32-.06.41-.19.73-.4.97-.13.14-.29.22-.5.24-.21.02-.4-.04-.57-.19-.15-.13-.24-.29-.29-.49-.04-.2-.02-.41.07-.63.1-.28.13-.56.07-.84-.06-.28-.21-.52-.44-.73-.18-.16-.41-.27-.69-.33-.28-.05-.56-.05-.84.02-.58.14-1.31.67-2.19,1.57ZM177.15,76.59c.35.31.76.43,1.25.34.48-.08.93-.36,1.34-.82.28-.31.47-.63.56-.96.09-.32.1-.63.02-.91-.08-.29-.23-.53-.46-.73-.22-.19-.47-.31-.76-.37-.3-.06-.6-.04-.91.07-.31.11-.6.31-.86.6-.42.47-.64.96-.67,1.49-.03.52.13.95.5,1.28Z"/>
      <line class="d" x1="173.16" y1="44.33" x2="184.19" y2="56.9"/>
      <path class="c" d="M193.03,57.65l3.05,3.48c.29.33.45.63.48.86.02.24-.08.47-.32.68-.15.13-.41.21-.81.25-.39.04-.84.07-1.32.1-.49.03-1.05.12-1.7.25-.64.14-1.36.38-2.15.73-.35.16-.63.3-.84.42-.21.12-.48.29-.81.5-.32.21-.58.37-.76.47-.42.24-.76.35-1.01.34-.26-.01-.48-.13-.68-.35-.19-.21-.26-.45-.23-.71.03-.26.19-.51.49-.77.22-.2.57-.42,1.03-.66.46-.24,1.06-.49,1.78-.75.72-.26,1.5-.47,2.34-.65.84-.18,1.73-.29,2.67-.34l-2.45-2.79c-.26-.3-.4-.56-.42-.8-.02-.24.08-.46.31-.65.24-.21.46-.27.67-.18.2.09.43.27.67.55Z"/>
      <line class="d" x1="188.03" y1="32.85" x2="197.4" y2="46.7"/>
      <path class="c" d="M203.24,48.92c.38-.26.81-.4,1.3-.42.48-.03.96.1,1.44.37.47.27.9.67,1.26,1.21.31.46.52.9.64,1.32.11.42.15.82.09,1.19-.06.37-.17.7-.36.99-.18.29-.43.53-.72.73-.38.25-.78.39-1.21.39-.43,0-.86-.12-1.31-.37.1.41.11.79.05,1.15-.06.35-.19.68-.38.97-.19.29-.46.55-.79.77-.48.33-1,.5-1.55.54-.55.03-1.09-.1-1.62-.41-.53-.3-1.01-.76-1.42-1.37-.43-.64-.69-1.26-.77-1.86-.08-.6,0-1.15.23-1.64.23-.49.59-.91,1.08-1.23,1.03-.7,2.07-.69,3.1.03-.16-1.04.16-1.82.95-2.36ZM202.23,55.62c.3-.2.52-.44.66-.71.14-.27.19-.56.16-.86-.03-.3-.14-.59-.32-.87-.27-.39-.62-.63-1.06-.72-.44-.09-.89.03-1.36.34-.3.2-.52.44-.67.72-.14.28-.21.57-.18.86.02.3.12.58.3.85.18.27.41.47.68.6.27.13.56.17.88.14.31-.03.62-.15.92-.35ZM206.16,50.86c-.24-.36-.55-.58-.93-.64-.38-.07-.74.01-1.09.25-.33.22-.52.52-.58.89-.06.37.03.74.27,1.09.12.18.26.32.42.43.16.11.33.18.5.22.17.04.35.04.53,0,.18-.04.35-.11.52-.23.22-.15.4-.34.51-.56.11-.22.15-.46.14-.72-.02-.25-.11-.5-.27-.74Z"/>
      <line class="d" x1="218.39" y1="17" x2="224.4" y2="32.61"/>
      <path class="c" d="M228.66,41.8c-.45-.16-.82-.38-1.13-.66-.3-.29-.54-.64-.7-1.08-.15-.41-.22-.81-.2-1.23.03-.41.13-.8.31-1.17.18-.36.44-.69.77-.97.32-.28.69-.5,1.11-.67.45-.17.9-.25,1.36-.25.46,0,.89.09,1.3.27.41.18.77.43,1.08.77.32.34.57.75.76,1.23.21.56.3,1.1.27,1.61-.04.52-.19,1-.46,1.44-.27.45-.67.87-1.2,1.25-.53.39-1.16.73-1.9,1.01-.83.32-1.6.51-2.29.59-.7.07-1.32.04-1.88-.12-.55-.16-1.02-.42-1.41-.79-.38-.37-.68-.84-.9-1.41-.21-.56-.3-1.09-.24-1.59.06-.5.2-.91.44-1.25.24-.34.5-.56.8-.67.18-.07.37-.07.56.01.19.08.33.22.41.43.07.19.08.38.04.57-.05.19-.16.37-.35.52-.22.2-.37.44-.44.72-.07.28-.06.56.05.83.09.25.25.46.45.63.21.17.46.29.75.36.58.13,1.47,0,2.66-.39ZM230.59,40.89c.29-.11.55-.25.77-.43.22-.18.39-.37.52-.59.12-.21.2-.44.22-.68.03-.24,0-.48-.1-.72-.16-.41-.47-.69-.93-.84-.46-.15-.98-.12-1.56.11-.58.22-.98.54-1.21.96-.23.42-.26.84-.09,1.28.11.27.27.49.5.69.23.19.52.31.85.36.32.05.67,0,1.03-.14Z"/>
      <line class="d" x1="249.29" y1="8.76" x2="251.86" y2="25.28"/>
      <g>
        <path class="c" d="M254.01,35.19c-.41-.25-.73-.54-.97-.88-.23-.35-.39-.75-.46-1.2-.07-.43-.05-.84.07-1.24.11-.4.29-.76.54-1.08.26-.32.57-.58.95-.79.38-.21.78-.35,1.22-.41.47-.07.93-.06,1.38.04.45.1.85.28,1.21.53.36.26.66.59.89.99.24.39.4.85.48,1.36.09.59.06,1.14-.08,1.63-.14.5-.39.93-.76,1.32-.36.38-.84.7-1.43.97-.59.27-1.28.46-2.08.58-.88.14-1.66.17-2.36.09-.69-.07-1.3-.25-1.8-.51-.51-.27-.91-.63-1.21-1.07-.29-.44-.48-.97-.58-1.57-.1-.59-.06-1.13.1-1.61.16-.47.38-.85.69-1.13.3-.28.61-.45.92-.49.19-.03.38.01.55.14.17.12.27.29.3.5.03.2,0,.39-.08.57-.09.18-.24.33-.45.44-.26.15-.45.35-.58.6-.13.26-.17.54-.13.83.04.26.14.5.31.71.17.21.39.38.66.51.54.25,1.44.31,2.69.18ZM256.08,34.71c.31-.05.59-.13.84-.26.25-.13.46-.28.63-.46.17-.18.29-.39.37-.62.08-.23.09-.47.05-.72-.07-.44-.31-.77-.73-1.02-.42-.24-.94-.32-1.55-.22-.61.1-1.07.32-1.39.68-.32.36-.44.77-.37,1.23.05.28.16.54.35.78.19.23.44.41.75.53.31.12.66.15,1.04.09Z"/>
        <path class="c" d="M250.08,40.76c-.04-.29,0-.54.16-.78.15-.24.39-.38.72-.43.28-.05.54.02.76.18.23.17.37.39.42.68.04.29-.02.55-.19.79-.16.23-.4.37-.68.42-.33.05-.59,0-.81-.18-.22-.17-.35-.4-.39-.68Z"/>
        <path class="c" d="M260.9,43.56l.71,4.57c.07.44.05.77-.06.99-.11.21-.32.35-.64.4-.19.03-.46-.05-.82-.23-.35-.18-.74-.39-1.17-.63-.42-.23-.95-.46-1.56-.69-.62-.23-1.35-.41-2.22-.54-.38-.05-.69-.08-.93-.1-.25,0-.56-.01-.95,0-.39,0-.69,0-.9,0-.48-.03-.82-.11-1.03-.26-.21-.15-.33-.37-.38-.67-.04-.27.02-.52.18-.71.17-.2.44-.33.83-.39.29-.05.7-.05,1.22,0,.52.05,1.16.15,1.9.32.75.17,1.52.41,2.32.71.8.3,1.62.69,2.44,1.15l-.57-3.67c-.06-.39-.04-.68.08-.9.11-.21.32-.34.62-.39.31-.05.53.02.65.2.13.19.21.46.27.82Z"/>
        <path class="c" d="M261.27,56.48l-.51-3.26-2.29-.04c.45.59.72,1.17.8,1.72.07.44.05.86-.05,1.27-.11.41-.28.78-.53,1.11-.25.33-.56.61-.93.84-.37.22-.79.38-1.24.45-.67.11-1.29.05-1.88-.16-.59-.21-1.09-.58-1.5-1.09-.41-.51-.67-1.13-.78-1.87-.13-.82-.08-1.51.14-2.06.22-.56.51-.97.87-1.24.36-.27.68-.44.97-.48.18-.03.36.02.54.15.18.13.29.3.33.52.06.38-.12.7-.53.96-.38.24-.66.54-.83.89-.18.35-.24.71-.18,1.1.06.35.2.65.42.88.22.24.51.4.85.5.34.1.72.11,1.13.05.44-.07.8-.2,1.09-.41.29-.2.49-.45.6-.74.11-.28.15-.59.09-.9-.06-.39-.15-.67-.28-.82-.12-.16-.33-.37-.62-.65-.29-.28-.45-.52-.48-.73-.03-.22.02-.44.15-.64.14-.2.31-.31.51-.35.03,0,.19,0,.48,0l3.38.07c.4,0,.71.07.91.22.2.15.34.42.4.81l.56,3.62c.12.71-.1,1.11-.65,1.2-.24.04-.44-.02-.61-.17-.18-.15-.29-.4-.34-.74Z"/>
      </g>
      <line class="d" x1="282.86" y1="7.33" x2="281.71" y2="24.02"/>
      <g>
        <path class="c" d="M278.05,32.02l6.31.44c-.82-1.24-1.21-2.05-1.19-2.46.01-.19.1-.36.27-.5.17-.14.35-.2.55-.19.23.02.4.1.5.26.1.16.22.43.37.81.23.58.47,1.04.74,1.4.27.36.57.68.91.96.35.28.56.47.63.55.08.08.1.24.09.45-.02.24-.12.44-.32.57-.2.13-.47.19-.8.17l-7.93-.55c-.93-.06-1.37-.41-1.33-1.04.02-.28.13-.5.34-.66.2-.15.48-.22.85-.2Z"/>
        <path class="c" d="M281.24,44.49c-.76-.05-1.41-.15-1.95-.28-.54-.13-1.02-.34-1.45-.61-.52-.35-.91-.79-1.18-1.31-.26-.52-.37-1.08-.32-1.69.05-.7.29-1.32.72-1.85.44-.53,1.02-.91,1.74-1.14.4-.12.83-.19,1.3-.23.46-.04.97-.03,1.51,0,.7.05,1.32.13,1.88.24.55.11,1.03.26,1.42.44.65.32,1.13.75,1.44,1.3.31.54.44,1.18.39,1.9-.03.48-.14.9-.32,1.28-.18.38-.43.7-.75.98-.31.27-.7.49-1.16.67-.78.3-1.87.4-3.27.3ZM281.51,42.6c.84.06,1.54.06,2.09,0,.54-.06.96-.21,1.26-.43.29-.22.45-.55.48-.97.04-.61-.24-1.06-.83-1.34-.6-.28-1.54-.46-2.82-.55-.87-.06-1.59-.06-2.15,0-.56.06-.99.2-1.29.42-.3.22-.47.54-.5.95-.03.43.1.77.38,1.03.28.26.69.46,1.23.59.54.14,1.26.23,2.15.3Z"/>
      </g>
      <line class="d" x1="280.97" y1="307.9" x2="280.02" y2="291.2"/>
      <path class="c" d="M280.44,286.06l-.07-1.29-3.48.2c-.44.03-.77-.05-1-.24-.23-.19-.36-.45-.38-.79,0-.09,0-.18.04-.27.03-.1.07-.19.13-.29.07-.1.12-.2.19-.3.06-.1.14-.21.24-.35l3.39-5.13c.22-.34.41-.58.55-.74.15-.15.33-.24.54-.25.71-.04,1.08.34,1.12,1.15l.31,5.37.3-.02c.36-.02.64.01.86.1.22.08.34.29.36.62.02.27-.06.47-.23.6-.17.13-.43.21-.78.23l-.43.03.08,1.29c.02.36-.05.63-.19.81-.15.18-.35.28-.61.3-.26.01-.47-.06-.64-.23s-.27-.43-.29-.78ZM277.3,283.38l2.98-.17-.23-4.03-2.75,4.2Z"/>
      <line class="d" x1="298.4" y1="305.89" x2="295.52" y2="289.42"/>
      <path class="c" d="M293.21,279.23c.42-.08.76-.26,1.02-.56.26-.3.35-.68.27-1.14-.07-.35-.23-.63-.52-.84-.28-.21-.64-.28-1.04-.21-.28.04-.5.13-.67.24-.17.11-.29.23-.38.38-.09.14-.15.33-.21.54-.06.21-.11.42-.16.61-.03.1-.1.19-.21.26-.11.08-.24.13-.39.15-.18.03-.37,0-.55-.13-.18-.13-.28-.3-.33-.55-.04-.23-.01-.5.09-.79.1-.29.27-.57.5-.86.23-.28.54-.53.93-.75.39-.21.83-.37,1.34-.46.44-.08.86-.09,1.24-.03.39.06.74.18,1.05.36.31.18.55.41.75.69.19.28.32.59.37.93.08.45.05.87-.09,1.22-.14.36-.37.73-.69,1.11.39.13.73.3,1.02.5s.52.44.69.72c.18.28.3.59.36.94.07.42.05.83-.05,1.25-.1.42-.28.8-.55,1.16-.27.36-.61.67-1.03.91-.42.25-.89.42-1.43.52-.55.1-1.06.08-1.53-.04-.47-.11-.87-.3-1.2-.54-.33-.25-.6-.51-.79-.8-.2-.29-.32-.54-.35-.74-.05-.27,0-.49.15-.69.14-.19.34-.31.6-.36.13-.02.26,0,.39.05.13.05.22.13.28.23.35.6.69,1.02,1.02,1.28.32.26.73.35,1.22.26.28-.05.54-.17.78-.36.24-.18.42-.43.54-.73.12-.3.16-.64.09-.99-.09-.54-.31-.93-.65-1.18-.35-.25-.78-.33-1.3-.24-.09.01-.23.05-.42.1-.19.05-.31.08-.36.09-.25.04-.46.02-.61-.09-.16-.1-.26-.27-.3-.49-.04-.22.01-.41.15-.57.14-.16.37-.27.7-.33l.28-.05Z"/>
      <path class="e" d="M407.28,90.53c37.02,74.47,6.66,164.86-67.82,201.87-74.47,37.02-164.85,6.65-201.87-67.82-37.02-74.47-6.66-164.85,67.82-201.87,74.47-37.02,164.86-6.66,201.88,67.82Z"/>
      <g>
        <path class="f" d="M176.02,130.89c1.46,2.94.26,6.51-2.68,7.97-2.94,1.46-6.52.26-7.98-2.68-1.46-2.94-.26-6.51,2.68-7.98,2.94-1.47,6.51-.26,7.97,2.68Z"/>
        <path class="f" d="M161.86,180.45c1.46,2.95.26,6.52-2.68,7.98-2.94,1.46-6.51.26-7.98-2.68-1.46-2.94-.26-6.51,2.68-7.97,2.94-1.46,6.52-.26,7.98,2.68Z"/>
        <path class="f" d="M207.64,192.32c1.47,2.94.26,6.51-2.68,7.97-2.94,1.46-6.51.26-7.97-2.68-1.46-2.94-.26-6.51,2.67-7.97,2.95-1.46,6.52-.26,7.98,2.68Z"/>
        <path class="f" d="M268.15,162.24c1.46,2.94.26,6.51-2.68,7.98-2.94,1.47-6.51.26-7.98-2.68-1.46-2.94-.26-6.51,2.68-7.97,2.94-1.46,6.51-.26,7.98,2.68Z"/>
        <path class="f" d="M328.65,132.16c1.46,2.94.27,6.51-2.68,7.97-2.95,1.46-6.51.26-7.97-2.68-1.47-2.94-.27-6.51,2.67-7.98,2.95-1.46,6.51-.26,7.98,2.68Z"/>
        <path class="f" d="M389.16,102.09c1.46,2.94.26,6.51-2.68,7.98-2.94,1.46-6.51.26-7.98-2.68-1.46-2.94-.26-6.51,2.68-7.98,2.94-1.46,6.51-.26,7.98,2.68Z"/>
        <path class="f" d="M187.86,167.53c1.46,2.94.26,6.51-2.68,7.98-2.94,1.46-6.51.26-7.98-2.68-1.46-2.94-.26-6.51,2.68-7.98,2.94-1.46,6.52-.26,7.98,2.68Z"/>
        <path class="f" d="M204.36,159.33c1.46,2.94.26,6.51-2.68,7.98-2.95,1.46-6.52.26-7.98-2.68-1.46-2.94-.26-6.51,2.68-7.97,2.95-1.46,6.51-.27,7.98,2.68Z"/>
        <path class="f" d="M188.76,235.72c1.46,2.94.26,6.51-2.68,7.98-2.94,1.46-6.51.26-7.97-2.68-1.46-2.94-.26-6.51,2.68-7.98,2.94-1.46,6.52-.26,7.98,2.68Z"/>
        <path class="f" d="M216.16,222.1c1.46,2.95.26,6.52-2.68,7.98-2.94,1.46-6.51.26-7.98-2.68-1.46-2.95-.26-6.51,2.68-7.98,2.95-1.46,6.52-.26,7.98,2.67Z"/>
        <path class="f" d="M230.95,214.75c1.46,2.94.26,6.52-2.68,7.97-2.94,1.47-6.52.26-7.97-2.68-1.47-2.94-.27-6.51,2.68-7.98,2.94-1.46,6.51-.26,7.97,2.68Z"/>
        <path class="f" d="M202.75,117.6c1.46,2.94.26,6.51-2.68,7.98-2.94,1.46-6.51.26-7.97-2.68-1.46-2.94-.26-6.51,2.68-7.98,2.94-1.46,6.52-.26,7.97,2.68Z"/>
        <path class="f" d="M229.48,104.32c1.47,2.94.26,6.51-2.68,7.97-2.94,1.46-6.51.26-7.98-2.68-1.46-2.94-.26-6.51,2.68-7.97,2.94-1.46,6.52-.26,7.98,2.68Z"/>
        <path class="f" d="M256.21,91.03c1.46,2.94.26,6.51-2.68,7.97-2.94,1.46-6.51.27-7.98-2.68-1.46-2.95-.26-6.52,2.68-7.98,2.94-1.46,6.51-.26,7.98,2.68Z"/>
        <path class="f" d="M278.19,80.1c1.46,2.95.26,6.51-2.68,7.98-2.94,1.46-6.51.26-7.98-2.68-1.46-2.94-.26-6.51,2.68-7.97,2.95-1.46,6.51-.27,7.98,2.68Z"/>
        <path class="f" d="M328.92,54.89c1.46,2.94.27,6.51-2.68,7.98-2.94,1.46-6.51.26-7.98-2.68-1.46-2.94-.26-6.52,2.68-7.98,2.94-1.46,6.51-.26,7.98,2.68Z"/>
        <path class="f" d="M257.29,201.65c1.46,2.94.26,6.51-2.68,7.97-2.94,1.47-6.51.27-7.98-2.68-1.46-2.94-.26-6.51,2.68-7.97,2.95-1.46,6.51-.27,7.98,2.68Z"/>
        <path class="f" d="M284.68,188.04c1.46,2.95.26,6.51-2.68,7.97-2.95,1.47-6.51.27-7.98-2.68-1.46-2.95-.26-6.51,2.68-7.97,2.94-1.46,6.51-.27,7.97,2.68Z"/>
        <path class="f" d="M299.48,180.69c1.46,2.94.26,6.51-2.68,7.97-2.94,1.46-6.51.26-7.97-2.68-1.47-2.94-.26-6.51,2.68-7.98,2.95-1.46,6.52-.26,7.98,2.68Z"/>
        <path class="f" d="M325.82,167.6c1.46,2.94.26,6.51-2.68,7.97-2.95,1.46-6.51.27-7.98-2.68-1.46-2.95-.26-6.51,2.68-7.98,2.94-1.46,6.51-.26,7.97,2.68Z"/>
        <path class="f" d="M353.21,153.98c1.46,2.94.27,6.51-2.68,7.98-2.94,1.46-6.51.26-7.98-2.68-1.46-2.94-.26-6.51,2.68-7.97,2.94-1.46,6.51-.26,7.98,2.68Z"/>
        <path class="f" d="M368,146.62c1.46,2.94.26,6.51-2.68,7.98-2.94,1.46-6.51.26-7.98-2.68-1.46-2.94-.26-6.51,2.68-7.97,2.95-1.46,6.51-.26,7.98,2.68Z"/>
        <path class="f" d="M394.34,133.53c1.47,2.94.27,6.51-2.68,7.98-2.94,1.46-6.51.26-7.97-2.68-1.46-2.94-.27-6.51,2.67-7.98,2.95-1.46,6.52-.26,7.98,2.68Z"/>
        <path class="f" d="M226.94,148.1c1.47,2.94.27,6.51-2.68,7.97-2.95,1.46-6.51.27-7.98-2.68-1.46-2.94-.26-6.51,2.68-7.97,2.94-1.47,6.52-.27,7.97,2.68Z"/>
        <path class="f" d="M252.95,135.17c1.46,2.94.26,6.51-2.68,7.97-2.94,1.46-6.51.26-7.97-2.68-1.46-2.94-.26-6.51,2.68-7.97,2.95-1.46,6.52-.26,7.98,2.68Z"/>
        <path class="f" d="M269.44,126.97c1.46,2.94.26,6.52-2.68,7.98-2.94,1.46-6.51.26-7.98-2.68-1.46-2.94-.26-6.51,2.68-7.98,2.95-1.46,6.51-.26,7.98,2.68Z"/>
        <path class="f" d="M292.03,115.74c1.46,2.94.27,6.51-2.68,7.98-2.94,1.46-6.51.26-7.97-2.68-1.46-2.94-.26-6.51,2.68-7.97,2.94-1.47,6.51-.26,7.97,2.67Z"/>
        <path class="f" d="M318.03,102.82c1.46,2.94.27,6.51-2.67,7.98-2.95,1.46-6.52.26-7.98-2.68-1.46-2.94-.26-6.51,2.69-7.98,2.94-1.46,6.51-.26,7.97,2.68Z"/>
        <path class="f" d="M334.53,94.62c1.46,2.94.26,6.51-2.68,7.98-2.94,1.46-6.51.26-7.97-2.68-1.47-2.95-.26-6.52,2.67-7.98,2.95-1.46,6.52-.26,7.98,2.68Z"/>
        <path class="f" d="M357.12,83.39c1.46,2.94.27,6.51-2.68,7.98-2.94,1.46-6.51.26-7.97-2.68-1.46-2.94-.27-6.51,2.67-7.98,2.95-1.46,6.52-.26,7.98,2.68Z"/>
        <path class="f" d="M187.47,202.34c1.46,2.94.26,6.51-2.68,7.98-2.94,1.46-6.51.26-7.97-2.68-1.46-2.94-.26-6.51,2.68-7.98,2.95-1.46,6.52-.26,7.98,2.68Z"/>
        <path class="f" d="M227.81,182.29c1.46,2.94.26,6.52-2.68,7.98-2.94,1.46-6.51.26-7.98-2.68-1.46-2.95-.26-6.52,2.68-7.98,2.94-1.46,6.52-.26,7.98,2.68Z"/>
        <path class="f" d="M247.98,172.27c1.46,2.94.26,6.51-2.68,7.97-2.95,1.46-6.51.26-7.98-2.68-1.46-2.94-.26-6.51,2.68-7.97,2.95-1.46,6.52-.27,7.98,2.68Z"/>
        <path class="f" d="M288.32,152.22c1.47,2.94.26,6.51-2.68,7.97-2.94,1.46-6.52.26-7.98-2.68-1.46-2.94-.26-6.51,2.68-7.97,2.94-1.46,6.52-.26,7.98,2.68Z"/>
        <path class="f" d="M308.49,142.19c1.46,2.94.26,6.51-2.68,7.98-2.94,1.46-6.52.26-7.98-2.68-1.46-2.94-.26-6.51,2.68-7.98,2.94-1.46,6.51-.26,7.98,2.68Z"/>
        <path class="f" d="M348.82,122.14c1.47,2.94.27,6.51-2.68,7.97-2.94,1.46-6.51.26-7.98-2.68-1.46-2.95-.26-6.51,2.68-7.98,2.94-1.46,6.51-.26,7.97,2.68Z"/>
        <path class="f" d="M368.99,112.11c1.47,2.95.27,6.52-2.68,7.98-2.95,1.46-6.51.26-7.97-2.68-1.47-2.94-.27-6.51,2.68-7.97,2.95-1.46,6.51-.26,7.97,2.68Z"/>
      </g>
    </g>
  </g>
</svg>